<?xml version="1.0" standalone="no"?>
<!DOCTYPE svg PUBLIC "-//W3C//DTD SVG 20010904//EN"
 "http://www.w3.org/TR/2001/REC-SVG-20010904/DTD/svg10.dtd">
<svg version="1.0" xmlns="http://www.w3.org/2000/svg"
 width="964.000000pt" height="964.000000pt" viewBox="0 0 964.000000 964.000000"
 preserveAspectRatio="xMidYMid meet">
<metadata>
Created by potrace 1.11, written by Peter Selinger 2001-2013
</metadata>
<g transform="translate(0.000000,964.000000) scale(0.100000,-0.100000)"
fill="#000000" stroke="none">
<path d="M5147 6153 l-107 -4 2 -732 3 -732 182 -3 183 -2 2 227 3 228 120 1
c146 2 289 26 355 59 27 14 74 45 104 70 l56 45 -15 -37 c-8 -21 -64 -163
-124 -315 l-108 -277 121 -3 121 -3 3 -202 2 -203 -180 0 -180 0 0 200 0 200
-135 0 -135 0 0 -540 0 -540 135 0 135 0 0 215 0 215 180 0 180 0 0 -215 0
-215 135 0 135 0 0 208 1 207 28 -71 c98 -248 299 -375 571 -361 221 12 374
113 475 314 19 37 35 74 35 82 0 34 13 -4 25 -74 40 -229 183 -334 437 -323
82 3 104 8 160 36 83 41 142 98 177 171 l27 58 17 -48 c56 -157 222 -235 439
-208 137 17 214 64 262 161 l26 52 0 -97 0 -97 305 0 305 0 0 120 0 120 -165
0 -166 0 3 93 3 92 158 3 157 3 0 114 0 114 -157 3 -158 3 0 85 0 85 168 3
169 2 -4 123 -3 122 -248 342 c-136 188 -255 355 -264 371 l-16 28 232 348
c128 191 235 354 238 362 4 12 -25 14 -184 14 -184 0 -190 -1 -210 -22 -11
-13 -102 -151 -201 -308 -99 -157 -188 -294 -196 -305 -14 -18 -15 11 -16 308
l0 327 -185 0 -185 0 0 -720 c0 -396 -3 -720 -7 -720 -5 0 -59 92 -121 203
-61 111 -125 225 -142 254 l-30 52 59 35 c103 63 166 153 196 278 52 222 -49
470 -229 558 -111 55 -168 62 -538 67 l-338 5 0 -661 c0 -364 -4 -661 -8 -661
-5 0 -34 66 -65 148 -31 81 -142 372 -247 646 -105 275 -195 505 -201 513 -16
19 -302 19 -321 0 -7 -8 -63 -141 -123 -297 l-110 -283 -8 99 c-4 54 -14 124
-23 154 -48 168 -190 292 -364 319 -74 12 -450 20 -613 14z m421 -337 c105 -7
149 -21 180 -61 71 -90 38 -226 -63 -265 -16 -7 -85 -14 -152 -17 l-123 -6 0
181 0 181 33 -4 c17 -2 74 -7 125 -9z m2287 -20 c52 -22 83 -52 106 -101 37
-79 18 -186 -42 -246 -42 -42 -84 -55 -215 -64 l-91 -7 191 -352 191 -351 3
-155 c5 -262 -11 -610 -31 -646 -29 -56 -131 -77 -185 -37 -61 44 -62 52 -62
460 l0 372 -57 3 -58 3 -3 574 -2 574 107 -5 c68 -4 123 -12 148 -22z m-1250
-341 c41 -129 78 -242 81 -250 5 -13 -16 -15 -155 -15 -89 0 -161 4 -161 9 0
4 34 115 75 246 41 130 75 239 75 241 0 24 20 -32 85 -231z m2357 -473 c97
-152 180 -286 184 -296 7 -18 3 -19 -64 -12 l-71 7 -3 -108 -3 -108 -32 57
c-37 65 -103 120 -175 146 l-48 17 0 310 c0 298 1 309 18 287 10 -13 97 -148
194 -300z m-2180 -104 c9 -7 26 -44 38 -83 13 -38 25 -75 27 -81 3 -7 -25 -18
-74 -29 -187 -40 -326 -143 -401 -298 -22 -45 -45 -93 -50 -107 -8 -18 -11 29
-11 183 l-1 207 -50 0 c-30 0 -50 4 -50 11 0 29 55 185 68 197 12 9 78 12 252
12 174 0 240 -3 252 -12z m658 -395 l-1 -198 -38 80 c-66 137 -158 229 -287
286 -24 11 -44 22 -44 24 0 3 83 5 185 5 l185 0 0 -197z m1050 192 c0 -2 -23
-16 -50 -30 -63 -32 -119 -87 -148 -145 l-22 -45 0 113 0 112 110 0 c61 0 110
-2 110 -5z m227 -256 c7 -13 14 -32 17 -41 5 -16 20 -18 136 -18 l130 0 0 -73
c0 -41 3 -116 6 -168 l6 -94 -31 47 c-44 64 -83 92 -256 178 -94 47 -156 85
-169 102 -18 26 -18 27 1 60 36 63 131 67 160 7z m-1730 9 c105 -38 183 -164
183 -293 0 -277 -282 -418 -480 -239 -63 58 -93 123 -98 221 -6 103 15 166 77
235 90 101 188 124 318 76z m1312 -196 c40 -79 108 -126 302 -211 109 -48 142
-76 142 -122 0 -46 -50 -89 -102 -89 -52 0 -87 30 -104 88 l-14 47 -124 5
-124 5 -3 158 c-1 86 0 157 3 157 2 0 13 -17 24 -38z"/>
<path d="M3718 5413 l-3 -738 -47 -3 -48 -3 0 -535 0 -534 135 0 135 0 0 418
0 418 68 -3 c95 -5 146 -21 179 -55 25 -26 28 -36 28 -98 0 -113 -40 -149
-180 -159 -45 -4 -79 -11 -78 -16 2 -14 258 -482 273 -500 11 -13 77 -15 431
-15 l419 0 0 120 0 120 -165 0 -165 0 0 95 0 95 160 0 160 0 0 120 0 120 -160
0 -160 0 0 85 0 85 165 0 166 0 -3 123 -3 122 -237 3 -238 2 0 165 0 165 -230
0 -230 0 0 118 c0 78 4 122 12 130 9 9 72 12 220 12 l208 0 0 160 0 160 -208
0 c-148 0 -211 3 -220 12 -8 8 -12 48 -12 115 l0 103 225 0 225 0 0 165 0 165
-410 0 -410 0 -2 -737z m702 -845 l0 -113 -30 52 c-43 75 -109 121 -225 154
l-60 18 158 0 157 1 0 -112z m-2 -763 l-3 -116 -82 146 c-46 80 -83 149 -83
153 0 4 16 16 36 27 36 19 122 107 126 129 4 22 9 -227 6 -339z"/>
<path d="M0 4865 l0 -1275 135 0 135 0 0 165 c0 150 2 165 18 165 9 1 75 5
145 10 177 12 228 38 324 166 l22 29 0 -267 1 -268 135 0 135 0 0 193 0 192
23 -55 c67 -162 214 -291 383 -335 75 -19 223 -19 299 0 145 38 284 152 348
285 20 41 39 85 42 98 l6 22 -136 0 c-136 0 -137 0 -158 -27 -117 -145 -208
-185 -334 -148 -136 40 -233 214 -203 363 37 175 154 274 310 259 93 -8 164
-56 219 -149 l23 -38 144 0 144 0 -26 68 c-43 112 -48 102 50 102 l86 0 0
-415 0 -415 135 0 135 0 0 415 0 415 100 0 100 0 1 -132 c0 -73 4 -205 8 -293
9 -190 24 -237 102 -310 133 -124 341 -150 515 -65 75 36 126 91 166 175 34
74 34 70 31 533 l-3 332 -135 0 -135 0 0 -370 c0 -410 -2 -423 -62 -460 -63
-38 -153 -19 -183 39 -28 55 -36 163 -33 481 l3 314 45 8 c186 33 309 85 401
167 97 87 153 188 195 351 27 107 25 333 -4 443 -52 192 -174 348 -334 426
-155 76 -139 74 -740 79 -510 3 -537 2 -546 -15 -5 -10 -53 -135 -106 -277
-53 -143 -101 -266 -106 -275 -7 -13 -11 -11 -20 14 -6 17 -49 132 -95 257
-46 124 -91 242 -99 262 l-15 36 -365 0 -366 0 0 -264 c0 -228 -2 -267 -16
-280 -14 -14 -47 -16 -247 -14 l-232 3 -3 278 -2 277 -180 0 -180 0 0 -1275z
m2410 500 l0 -685 -175 0 -175 0 0 -90 c0 -49 -3 -90 -6 -90 -3 0 -31 22 -61
50 -31 27 -88 66 -127 87 l-71 38 103 3 102 3 0 232 c0 128 5 252 11 277 5 25
89 216 186 425 193 418 201 435 208 435 3 0 5 -308 5 -685z m-1104 538 c36
-76 124 -263 195 -415 l129 -277 0 -254 0 -254 -62 -7 c-96 -11 -146 -25 -226
-64 -105 -50 -179 -128 -239 -249 l-48 -96 -3 184 c-1 101 0 189 2 196 4 9 31
13 91 13 l85 0 0 680 c0 374 3 680 6 680 3 0 35 -62 70 -137z m1797 -109 c228
-78 282 -536 83 -711 -63 -55 -125 -72 -271 -76 l-120 -2 -3 403 -2 402 133 0
c95 0 147 -5 180 -16z m-2254 -538 c8 -9 11 -96 9 -297 l-3 -284 -37 -3 -38
-3 0 -96 0 -95 -32 48 c-65 96 -148 138 -299 150 l-79 7 0 287 c0 158 3 290 7
293 3 4 109 7 233 7 181 0 230 -3 239 -14z m-369 -844 c73 -35 88 -130 31
-194 -26 -30 -31 -31 -130 -37 -56 -3 -104 -4 -107 -2 -5 6 -5 246 0 252 11
11 174 -4 206 -19z"/>
</g>
</svg>
