<?xml version="1.0" standalone="no"?>
<!DOCTYPE svg PUBLIC "-//W3C//DTD SVG 20010904//EN"
 "http://www.w3.org/TR/2001/REC-SVG-20010904/DTD/svg10.dtd">
<svg version="1.0" xmlns="http://www.w3.org/2000/svg"
 width="500.000000pt" height="500.000000pt" viewBox="0 0 500.000000 500.000000"
 preserveAspectRatio="xMidYMid meet">
<metadata>
Created by potrace 1.11, written by Peter Selinger 2001-2013
</metadata>
<g transform="translate(0.000000,500.000000) scale(0.100000,-0.100000)"
fill="#000000" stroke="none">
<path d="M1248 4425 c-1 -1 -32 -6 -68 -9 -368 -37 -772 -178 -1088 -382 l-92
-59 0 -163 c0 -180 -4 -172 66 -116 135 109 386 249 564 316 293 111 507 151
805 152 166 0 251 -7 355 -29 14 -3 47 -10 74 -15 122 -24 388 -130 486 -194
196 -126 273 -186 384 -300 166 -171 290 -360 380 -579 35 -83 81 -231 92
-291 3 -17 9 -49 14 -71 29 -132 32 -405 6 -555 -42 -236 -167 -500 -319 -673
l-33 -38 -45 58 c-137 177 -253 427 -288 620 -6 32 -13 69 -16 83 -3 14 -7 57
-10 95 -11 144 -39 259 -90 372 -126 275 -377 467 -684 523 -63 11 -234 14
-286 5 -16 -3 -56 -10 -88 -16 -298 -52 -605 -278 -759 -559 -26 -47 -85 -190
-93 -225 -3 -11 -12 -51 -21 -90 -18 -79 -24 -301 -10 -405 21 -164 94 -371
182 -516 26 -43 52 -83 56 -89 5 -5 22 -28 39 -50 113 -147 295 -298 464 -383
92 -46 228 -92 350 -117 97 -21 131 -23 290 -20 199 4 215 6 365 42 224 54
387 131 624 297 9 6 46 -13 121 -63 221 -148 471 -240 730 -269 80 -9 340 -9
390 0 290 52 570 250 690 488 57 114 74 178 79 297 16 387 -344 703 -712 626
-358 -75 -498 -541 -225 -749 91 -69 224 -93 326 -58 96 33 184 144 190 241
l2 37 -128 1 c-117 1 -130 -1 -139 -18 -23 -43 -121 8 -130 68 -12 76 42 173
116 206 77 35 205 17 284 -40 276 -196 164 -600 -218 -779 -95 -45 -182 -64
-295 -67 -257 -6 -531 64 -731 185 -36 22 -68 40 -71 40 -2 0 -11 7 -19 15 -8
8 -22 18 -31 23 -12 7 -4 23 50 90 91 112 151 207 213 336 50 105 107 261 120
330 3 17 7 36 8 41 2 6 6 26 9 45 4 19 10 49 13 65 13 64 13 400 -1 495 -34
240 -84 411 -180 615 -301 641 -892 1072 -1605 1170 -81 11 -452 19 -462 10z
m505 -1528 c26 -8 47 -13 47 -11 0 3 35 -13 78 -35 224 -117 356 -318 367
-562 11 -230 -134 -438 -350 -505 -72 -23 -185 -26 -248 -7 -168 49 -285 215
-270 384 21 219 309 330 425 163 24 -34 34 -62 37 -99 1 -8 228 -13 262 -6 8
1 -7 92 -22 140 -20 62 -46 105 -93 158 -98 109 -210 155 -366 149 -279 -10
-493 -226 -505 -511 -11 -255 133 -488 367 -598 256 -121 606 -45 816 177 l53
56 9 -26 c51 -132 133 -281 220 -399 36 -49 74 -97 83 -106 15 -16 13 -19 -26
-45 -23 -16 -55 -37 -72 -47 -51 -31 -249 -124 -280 -132 -16 -5 -34 -9 -40
-11 -70 -21 -126 -35 -155 -39 -20 -3 -47 -8 -60 -11 -47 -10 -276 -12 -336
-2 -244 37 -459 142 -624 306 -223 221 -337 494 -333 799 7 474 402 853 873
838 52 -2 116 -10 143 -18z"/>
</g>
</svg>
