<svg xmlns="http://www.w3.org/2000/svg" width="443.9" height="256"><path d="M0 218.4h9.7v28.1h17v8.6H0v-36.7m46.3 37.5c-2.7 0-5.3-.5-7.6-1.5s-4.3-2.3-6-4c-1.7-1.7-3-3.7-4-6.1-.9-2.4-1.4-4.9-1.4-7.7s.5-5.4 1.4-7.7c1-2.4 2.3-4.4 4-6.1 1.7-1.7 3.7-3 6-4s4.9-1.4 7.6-1.4 5.3.5 7.6 1.4c2.3 1 4.4 2.3 6 4 1.7 1.7 3 3.7 4 6.1.9 2.4 1.4 4.9 1.4 7.7s-.5 5.4-1.4 7.7c-1 2.4-2.3 4.4-4 6.1-1.7 1.7-3.7 3-6 4-2.3 1.1-4.9 1.5-7.6 1.5m0-9.1c1.4 0 2.7-.3 3.8-.8 1.1-.5 2.1-1.3 2.8-2.2.8-.9 1.4-2 1.8-3.2.4-1.2.6-2.6.6-4s-.2-2.7-.6-4c-.4-1.2-1-2.3-1.8-3.2-.8-.9-1.7-1.6-2.8-2.2-1.1-.5-2.4-.8-3.8-.8s-2.7.3-3.8.8c-1.1.5-2.1 1.3-2.8 2.2-.8.9-1.4 2-1.8 3.2-.4 1.2-.6 2.6-.6 4s.2 2.7.6 4c.4 1.2 1 2.3 1.8 3.2.8.9 1.7 1.6 2.8 2.2 1.1.6 2.3.8 3.8.8zm30.8-19.9H65.8v-8.5h32.3v8.5H86.9v28.2h-9.8v-28.2m33.4 0H99.3v-8.5h32.2v8.5h-11.1v28.2h-9.9v-28.2m23.3-8.5h26.3v8.4h-16.6v5.7h13.7v7.9h-13.7v6.3h17.8v8.4h-27.5v-36.7m31.4 0h15.2c2 0 3.8.3 5.4.8 1.6.5 3 1.3 4.1 2.3 1.1 1 2 2.3 2.6 3.8.6 1.5.9 3.2.9 5.2 0 2.4-.5 4.5-1.6 6.3-1.1 1.8-2.5 3.2-4.2 4.3l7.9 14.1H185l-6.2-12.5h-4.1v12.5h-9.5v-36.8m14.3 16.6c1.3 0 2.3-.4 3.1-1.2.8-.8 1.2-1.8 1.2-3.2 0-1.4-.4-2.5-1.2-3.3-.8-.8-1.9-1.2-3.2-1.2h-4.7v8.8h4.8zm26.6 5.4l-13-22h11.2l7.1 13.1 6.7-13.1h10.8l-13.1 22v14.7h-9.7v-14.7m32.7-22h25.5v8.5h-15.8v7.1h12.2v8h-12.2v13.1h-9.7v-36.7m27.8 0h9.7v21.5c0 2 .5 3.7 1.4 4.9.9 1.3 2.5 1.9 4.6 1.9 2.2 0 3.7-.6 4.6-2 .9-1.3 1.4-2.9 1.4-4.9v-21.5h9.8v22.3c0 2.3-.4 4.5-1.2 6.3-.8 1.9-1.9 3.5-3.3 4.8-1.4 1.3-3.1 2.3-5 3-1.9.7-4 1-6.3 1s-4.4-.3-6.4-1c-1.9-.7-3.6-1.7-5-3s-2.5-2.9-3.3-4.8c-.8-1.9-1.2-4-1.2-6.4v-22.1m37 0h8.8l14.1 20.5v-20.5h9.6v36.7h-8.3L313 234v21.1h-9.6v-36.7m37.9 0h14.1c2.8 0 5.4.4 7.8 1.1 2.4.7 4.5 1.8 6.2 3.4 1.8 1.5 3.1 3.4 4.1 5.8 1 2.3 1.5 5.1 1.5 8.3 0 3-.5 5.7-1.5 7.9-1 2.3-2.4 4.1-4.1 5.7-1.8 1.5-3.8 2.7-6.3 3.4-2.4.7-5 1.1-7.8 1.1h-14v-36.7m13.6 28.1c3.2 0 5.6-.9 7.4-2.7 1.7-1.8 2.6-4.2 2.6-7.1 0-1.5-.2-2.8-.6-4-.4-1.2-1-2.2-1.8-3.1-.8-.9-1.9-1.5-3.1-2-1.2-.5-2.7-.7-4.4-.7h-4v19.5h3.9zm23.7-28.1H405v8.4h-16.7v5.7H402v7.9h-13.7v6.3h17.8v8.4h-27.5v-36.7m31.5 0h14.1c2.8 0 5.4.4 7.8 1.1 2.4.7 4.5 1.8 6.2 3.4 1.8 1.5 3.1 3.4 4.1 5.8 1 2.3 1.5 5.1 1.5 8.3 0 3-.5 5.7-1.5 7.9-1 2.3-2.4 4.1-4.1 5.7-1.8 1.5-3.8 2.7-6.3 3.4-2.4.7-5 1.1-7.8 1.1h-14v-36.7m13.6 28.1c3.2 0 5.6-.9 7.4-2.7 1.7-1.8 2.6-4.2 2.6-7.1 0-1.5-.2-2.8-.6-4-.4-1.2-1-2.2-1.8-3.1-.8-.9-1.9-1.5-3.1-2-1.2-.5-2.7-.7-4.5-.7h-4v19.5h4zM81.3 22.8C76.5 12.3 72.4 7 69 7c-4.8 0-7 6-7 11.1 0 6 2.2 14.4 6.5 25.7 4.4-8.7 8.7-15.7 12.8-21z"/><path d="M121.9 130.8c-7.5 0-11.3-5-12.3-10.8-4.1 4.8-9.4 6.4-14.9 4.7-6-1.9-10.1-7.6-10.1-16.8 0-12.5 7-28.4 14.9-35.1l-3.7-8.2c-.5 1.1-3.8 7.7-5.5 10.4l-5-2.1s3.5-7.6 4.2-9.2c7.6-16.1 16.3-30.9 16.3-40.7 0-4.1-2.8-6.9-5.2-7-7.4-.2-18.6 16-29.7 39.8C62.1 74.6 57.1 88.1 56.4 98l-5.1 1.9c-6.7-9.8-16.6-17.1-28.6-17.1C12.5 82.7 7 87.6 7 90.9c0 3.1 3.1 4.3 4.8 4.8 14.7 3.9 20.4 15.9 25 33.9 6.7 26.2 24.1 43.8 49.3 43.8 26.2 0 51.2-22.6 50-52.9-3.2 6.5-7.6 10.3-14.2 10.3zm-59 5.5l6.2-2.9c6.1 18.1 23.8 23 40.1 14.5l2.5 6.2c-21.4 12.2-41.3 4.4-48.8-17.8z"/><path d="M90.9 108c0 8.2 3.6 11.3 7.9 11.2 5.5 0 11.4-7.4 15.5-19.4 5-12.5 4.7-23-.4-25.3-10.4-4.7-23 18.1-23 33.5zm15-.2c0 3.1-2.5 5.6-5.6 5.6s-5.6-2.5-5.6-5.6c0-3.1 2.5-5.6 5.6-5.6s5.6 2.5 5.6 5.6zm25.9-19.5c-5.3 0-12.3 10.8-15 21.2-1.7 5.8-2.1 15.3 5.1 15.3 7.6 0 13.7-11.2 15.4-21.3 1.5-8.7-.7-15.2-5.5-15.2zm-7.4 31.3c-2.8 0-5-2.2-5-5s2.3-5 5-5c2.8 0 5 2.3 5 5 .1 2.7-2.2 5-5 5zm-7.9-96.4c.4.4.9.8 1.5 1 .6.2 1.2.4 1.9.4s1.3-.1 1.9-.4c.6-.3 1.1-.6 1.5-1 .4-.4.8-1 1-1.5.2-.6.4-1.2.4-1.9s-.1-1.3-.4-1.9c-.3-.6-.6-1.1-1-1.5-.4-.4-.9-.8-1.5-1-.6-.3-1.2-.4-1.9-.4s-1.3.1-1.9.4c-.6.3-1.1.6-1.5 1-.4.4-.8.9-1 1.5-.2.6-.4 1.2-.4 1.9s.1 1.3.4 1.9c.2.6.5 1.1 1 1.5zm-.1-4.9c.2-.5.5-.9.8-1.2.3-.4.7-.6 1.2-.8.5-.2 1-.3 1.5-.3s1 .1 1.5.3c.5.2.9.5 1.2.8.3.4.6.8.8 1.2.2.5.3 1 .3 1.5 0 .6-.1 1.1-.3 1.5-.2.5-.5.9-.8 1.2-.3.4-.7.6-1.2.8-.5.2-1 .3-1.5.3s-1.1-.1-1.5-.3c-.5-.2-.9-.5-1.2-.8-.3-.3-.6-.8-.8-1.2-.2-.5-.3-1-.3-1.5s.1-1 .3-1.5z"/><path d="M119.1 20.3h.8l1.1 1.9h1.1l-1.2-2c.3-.1.6-.3.7-.6.2-.3.2-.5.2-.9 0-.2 0-.3-.1-.5s-.2-.3-.3-.5c-.1-.1-.3-.3-.5-.3-.2-.1-.5-.1-.8-.1h-1.9v4.9h.9v-1.9zm0-2.2h.9c.3 0 .5.1.7.2.1.1.2.3.2.5s-.1.4-.2.6c-.1.1-.3.2-.6.2h-.9v-1.5zm309.3 112.5h15.2c1.3-60.9-41.1-115.8-103-128.1C276.5-10.3 214 27.4 194.2 88.1h16.1c8.5-22.5 23.7-41.1 42.8-53.9 24-16 54.1-22.9 84.6-16.8 30.6 6.1 55.7 23.9 71.7 47.9 12.7 19 19.6 41.6 19 65.3m-235.1 5.8h6.1v35.7h-6.1zm22.6 14.1c-2.2 0-3.9.7-5.3 2.3-1.4 1.5-2.1 3.5-2.1 5.8 0 2.4.7 4.3 2.1 5.8 1.4 1.5 3.2 2.2 5.5 2.2s4.2-.7 5.6-2.2c1.4-1.5 2.1-3.5 2.1-6 0-2.3-.7-4.2-2.2-5.6-1.5-1.5-3.4-2.3-5.7-2.3m-13.8 8c0-3.9 1.4-7.2 4.1-10 2.8-2.8 6-4.2 9.9-4.2 4 0 7.4 1.4 10.2 4.1 2.8 2.7 4.1 6 4.1 9.9 0 4.1-1.4 7.5-4.1 10.3-2.7 2.8-6.1 4.1-10.1 4.1-3.9 0-7.3-1.4-10-4.1-2.8-2.7-4.1-6.1-4.1-10.1m33.1 13.6v-21.3h-4.1v-5.6h4.1v-8.7h6.2v8.7h13v5.6h-13v21.3h-6.2"/><path d="M250.6 172.1v-21.3h-4.1v-5.6h4.1v-8.7h6.2v8.7h4.2v5.6h-4.2v21.3h-6.2m32.6-16.4c-.5-1.8-1.4-3.2-2.7-4.1-1.3-1-2.9-1.4-4.8-1.4-1.7 0-3.2.5-4.5 1.6-1.3 1-2.2 2.4-2.7 4h14.7m-14.8 4.8c.2 1.9.9 3.4 2.3 4.6 1.4 1.1 3.1 1.7 5.2 1.7 1.4 0 2.6-.3 3.8-.9 1.1-.6 2-1.4 2.6-2.5h6.8c-1.1 2.9-2.8 5.2-5.2 6.8-2.3 1.6-4.9 2.5-7.9 2.5-3.9 0-7.3-1.4-10-4.2-2.7-2.8-4.1-6.1-4.1-10 0-3.9 1.4-7.3 4.1-10.1 2.7-2.8 6-4.2 9.7-4.2 4 0 7.4 1.4 10.2 4.2 2.7 2.8 4.1 6.3 4.1 10.6v1.5h-21.6zm36.5-10c-2.4.2-4 .8-5 1.9-.9 1-1.4 3-1.4 5.9v13.7h-6.3v-26.9h5.9v3.1c1-1.2 2-2.1 3-2.6 1.1-.5 2.3-.8 3.8-.9v5.8m2.5-6h6.7l6.5 19.4 7.6-19.4h6.6l-14.9 36.2h-6.5l3.8-9.5-9.8-26.7M199.5 94.7v11.8c.9-1.2 2-2.1 3.2-2.7 1.2-.6 2.5-.9 4.1-.9 3.4 0 5.9 1 7.8 3.1 1.8 2.1 2.7 5 2.7 8.9v15.5H211v-13.9c0-2.6-.5-4.5-1.4-5.7-.9-1.2-2.3-1.8-4.2-1.8-2.1 0-3.6.7-4.5 2.2-.9 1.5-1.3 4-1.3 7.6v11.6h-6.1V94.7h6M241 114c-.5-1.8-1.4-3.2-2.7-4.1-1.3-1-2.9-1.4-4.8-1.4-1.7 0-3.2.5-4.5 1.6-1.3 1-2.2 2.4-2.6 4H241m-14.8 4.8c.2 1.9.9 3.4 2.3 4.6 1.4 1.1 3.1 1.7 5.2 1.7 1.4 0 2.6-.3 3.7-.9 1.1-.6 2-1.4 2.6-2.5h6.8c-1.1 2.9-2.8 5.2-5.1 6.8-2.3 1.6-5 2.5-7.9 2.5-4 0-7.3-1.4-10-4.1-2.7-2.8-4.1-6.1-4.1-10 0-3.9 1.4-7.3 4.1-10.1 2.7-2.8 6-4.2 9.7-4.2 4 0 7.4 1.4 10.2 4.2 2.8 2.8 4.1 6.3 4.1 10.6v1.5h-21.6zm36.9-10c-2.4.2-4 .8-5 1.9-1 1.1-1.4 3-1.4 5.9v13.7h-6.3v-26.9h5.9v3.1c1-1.2 2-2.1 3-2.7 1.1-.6 2.3-.8 3.8-.9v5.9m3.1-5.4h6.1v26.9h-6.1v-26.9zm6.1-2.8h-6.1v-6h6.1v6zm8 29.7v-21.3h-5v-5.6h5v-8.7h6.3v8.7h5.3v5.6h-5.3v21.3h-6.3m18.4-13.7c0 2.3.8 4.2 2.3 5.7 1.5 1.5 3.5 2.3 5.8 2.3 2.1 0 3.9-.8 5.5-2.3 1.5-1.5 2.3-3.3 2.3-5.4 0-2.3-.8-4.2-2.3-5.7-1.5-1.5-3.4-2.3-5.7-2.3-2.2 0-4 .7-5.5 2.2-1.7 1.5-2.4 3.3-2.4 5.5m15.9 13.7l.1-3.7c-.9 1.5-2.1 2.6-3.4 3.3-1.4.7-3.1 1.1-5 1.1-4 0-7.3-1.4-10-4.1-2.7-2.7-4-6.1-4-10.1s1.3-7.3 4-10c2.6-2.7 5.9-4 9.9-4 1.7 0 3.3.3 4.7 1 1.4.7 2.7 1.8 3.9 3.2l-.1-3.5h6.1v26.9h-6.2zm14.9-13.9c0 2.3.8 4.3 2.4 5.9 1.6 1.6 3.6 2.4 5.9 2.4 2.4 0 4.4-.8 6-2.3 1.6-1.6 2.4-3.4 2.4-5.6 0-2.4-.8-4.4-2.4-5.9-1.6-1.6-3.6-2.4-6-2.4s-4.4.8-6 2.3c-1.5 1.4-2.3 3.3-2.3 5.6m16.8-13h5.7v22.4c0 4.7-1.2 8.3-3.8 11-2.5 2.7-5.9 4-10.2 4-3.3 0-6-.8-8.2-2.3-2.2-1.5-3.8-3.8-4.8-6.8h6.1c.7 1.2 1.6 2.2 2.8 2.8 1.2.7 2.6 1 4.2 1 2.4 0 4.3-.9 5.9-2.6 1.6-1.7 2.4-3.9 2.4-6.6v-.3c-1.2 1.4-2.6 2.5-4.2 3.2-1.5.7-3.3 1.1-5.1 1.1-3.9 0-7.2-1.3-9.8-4-2.6-2.7-3.9-6-3.9-9.9 0-3.8 1.3-7.1 3.9-9.8 2.6-2.7 5.8-4 9.6-4 1.9 0 3.7.4 5.2 1.1 1.6.7 3 1.8 4.3 3.3l-.1-3.6zm29.4 10.5c-.5-1.8-1.4-3.2-2.7-4.1-1.3-1-2.9-1.4-4.8-1.4-1.7 0-3.2.5-4.5 1.6-1.3 1-2.2 2.4-2.6 4h14.6m-14.8 4.8c.2 1.9.9 3.4 2.3 4.6 1.3 1.1 3.1 1.7 5.2 1.7 1.4 0 2.6-.3 3.8-.9 1.1-.6 2-1.4 2.6-2.5h6.8c-1.1 2.9-2.8 5.2-5.1 6.8-2.3 1.6-5 2.5-7.9 2.5-4 0-7.3-1.4-10-4.1-2.7-2.8-4.1-6.1-4.1-10 0-3.9 1.4-7.3 4.1-10.1 2.7-2.8 6-4.2 9.7-4.2 4 0 7.4 1.4 10.2 4.2 2.7 2.8 4.1 6.3 4.1 10.6v1.5h-21.7zm-.8 26.3v5.6h-4.5v21.3h-6.1v-21.3h-3.2v-5.6h3v-.7c0-2.8.8-5 2.3-6.4 1.6-1.4 3.9-2.1 7.1-2.1h1.3v5.6h-.5c-1.4 0-2.4.2-3 .7-.6.5-.9 1.3-.9 2.4v.4h4.5m3 .1h6.3v12.4c0 3.5.4 5.8 1.3 7.1.8 1.3 2.3 2 4.3 2 2.1 0 3.6-.7 4.5-2.2.9-1.5 1.4-4 1.4-7.6v-11.6h6.2v26.9h-6.2v-2.9c-.9 1.2-2 2.1-3.2 2.7-1.2.6-2.5.9-4 .9-3.4 0-5.9-1-7.7-3.1-1.8-2.1-2.7-5.1-2.7-8.9v-15.7m32.8 0v3c.9-1.2 1.9-2.1 3.1-2.7 1.1-.6 2.5-.9 3.9-.9 1.9 0 3.5.4 4.9 1.1 1.4.7 2.6 1.8 3.5 3.3.6 1 1.1 2.1 1.4 3.4.3 1.2.4 3.1.4 5.4v14.3h-6.2v-12c0-3.7-.4-6.1-1.2-7.5-.8-1.3-2.2-2-4.2-2s-3.5.7-4.3 2.2c-.9 1.5-1.3 4-1.3 7.6V172h-5.9v-26.9h5.9m34.2 5.6c-2.3 0-4.2.8-5.7 2.3-1.5 1.6-2.3 3.4-2.3 5.7 0 2.3.8 4.1 2.3 5.7 1.5 1.5 3.4 2.3 5.6 2.3 2.2 0 4-.8 5.5-2.2 1.5-1.5 2.2-3.4 2.2-5.6 0-2.3-.7-4.2-2.2-5.8-1.5-1.6-3.3-2.4-5.4-2.4m13.6-14.3v35.7h-6.1l.1-2.9c-1.2 1.2-2.4 2.1-3.8 2.7-1.4.6-2.9.9-4.6.9-3.9 0-7.1-1.4-9.7-4.1-2.6-2.7-4-6.1-4-10.1 0-3.9 1.3-7.2 4-9.9 2.6-2.7 5.8-4.1 9.6-4.1 1.6 0 3.1.3 4.5.8s2.7 1.4 3.9 2.6c0-.3-.1-.7-.1-1.1v-10.4h6.2z"/></svg>