<?xml version="1.0" encoding="utf-8"?>
<svg viewBox="0 144.9275360107422 500 194.0418701171875" xmlns="http://www.w3.org/2000/svg">
  <path class="dark" fill="#010101" d="M 264.502 229.803 C 264.502 230.057 264.502 230.057 264.502 229.803 Z M 497.166 230.057 L 497.166 241.995 L 480.148 241.995 L 480.148 250.63 L 496.403 250.63 L 496.403 262.823 L 480.148 262.823 L 480.148 272.221 L 496.911 272.221 L 496.911 284.667 L 465.923 284.667 L 465.923 274.761 L 465.67 274.761 C 465.67 275.016 465.415 275.269 465.415 275.524 C 463.131 281.111 459.066 284.159 453.477 285.175 C 448.652 286.191 443.826 285.936 439.253 284.667 C 433.158 282.636 429.348 278.571 428.078 271.967 C 426.299 278.063 422.489 282.128 417.156 284.413 C 411.822 286.699 406.234 286.699 400.645 285.175 C 391.756 282.889 387.438 276.285 386.676 264.347 C 381.85 279.079 371.69 286.699 356.45 285.936 C 342.48 285.175 333.59 277.047 329.78 263.331 L 329.78 284.921 L 315.81 284.921 L 315.81 263.078 L 298.029 263.078 L 298.029 284.921 L 283.805 284.921 L 283.805 282.889 L 283.805 231.835 L 283.805 229.803 L 298.029 229.803 L 298.029 250.377 L 315.81 250.377 L 315.81 229.803 L 303.363 229.803 C 307.682 218.627 312 207.705 316.318 196.784 C 313.016 200.594 308.952 203.641 304.126 204.912 C 300.57 205.673 296.76 206.181 293.204 206.435 C 290.156 206.689 287.107 206.435 284.06 206.435 L 283.805 206.689 L 283.805 229.549 L 265.01 229.549 C 265.01 229.296 265.01 229.041 264.756 228.788 L 264.756 228.025 L 264.756 156.397 L 264.756 154.619 L 266.28 154.619 C 274.916 154.619 283.297 154.366 291.934 154.619 C 297.268 154.874 302.855 154.874 307.936 157.413 C 314.793 160.715 318.858 166.304 320.382 173.924 C 321.144 177.479 321.144 181.036 321.144 184.844 C 321.397 184.591 321.397 184.083 321.652 183.575 C 321.905 183.321 322.16 182.813 322.16 182.305 C 325.462 173.669 329.017 165.033 332.32 156.143 C 332.827 154.874 333.335 154.366 334.86 154.366 L 347.814 154.366 C 349.083 154.366 349.591 154.874 350.101 155.889 C 358.482 177.479 366.61 199.323 374.992 220.913 C 375.246 221.168 375.246 221.676 375.753 221.929 L 375.753 154.366 L 377.279 154.366 C 385.66 154.366 394.042 154.111 402.424 154.366 C 407.757 154.619 413.092 154.874 418.426 156.905 C 426.299 159.953 430.364 166.049 432.142 173.924 C 433.412 179.257 433.158 184.337 431.125 189.672 C 429.348 194.751 425.792 198.561 420.966 201.102 C 420.458 201.355 419.95 201.61 419.187 202.118 C 424.015 210.753 429.094 219.642 433.919 228.28 L 434.174 228.28 L 434.174 154.619 L 453.224 154.619 L 453.224 188.147 C 453.732 187.385 453.985 187.131 454.24 186.877 C 460.844 176.716 467.194 166.304 473.798 156.143 C 474.561 155.127 475.322 154.619 476.592 154.619 L 494.88 154.619 C 494.372 155.382 494.119 155.889 493.864 156.397 L 471.004 190.687 C 470.241 191.703 470.496 192.211 471.004 193.227 C 479.64 205.165 488.276 217.103 496.658 228.788 C 496.911 229.296 497.166 229.803 497.166 230.057 Z M 296.506 172.399 C 292.188 171.637 287.87 171.637 283.552 171.383 L 283.552 189.417 C 287.615 189.164 291.68 189.417 295.744 188.909 C 300.316 188.147 302.094 185.607 302.602 181.289 C 302.855 176.716 300.824 173.416 296.506 172.399 Z M 332.066 203.641 L 348.575 203.641 C 345.781 195.005 342.988 186.623 340.194 177.734 C 337.4 186.623 334.606 195.005 332.066 203.641 Z M 356.703 228.533 C 355.688 225.486 354.926 222.691 353.909 219.897 C 353.909 219.642 353.148 219.135 352.64 219.135 L 328.256 219.135 C 327.748 219.135 326.986 219.642 326.986 219.897 C 325.97 223.199 324.954 226.247 323.938 229.803 L 329.525 229.803 L 329.525 251.648 C 333.082 237.677 342.48 230.311 356.703 228.533 Z M 371.435 250.123 C 368.896 244.536 364.578 241.233 356.958 240.979 C 355.688 241.233 353.148 241.741 351.116 243.01 C 342.734 247.583 340.702 259.776 346.798 267.649 C 351.878 274.253 361.784 275.524 367.372 270.189 C 372.959 265.109 374.738 257.235 371.435 250.123 Z M 386.676 229.803 L 367.372 229.803 C 377.279 233.359 383.628 240.218 386.676 250.377 L 386.676 229.803 Z M 414.869 231.327 C 414.869 230.819 414.869 230.311 414.616 229.803 L 398.614 200.084 C 397.598 198.053 396.327 196.021 395.311 193.99 C 398.106 193.735 400.9 193.735 403.439 193.482 C 408.265 192.974 411.567 191.703 413.346 186.877 C 415.632 180.527 412.838 173.161 405.218 172.145 C 401.916 171.637 398.614 171.891 395.058 171.637 L 395.058 229.803 L 400.9 229.803 L 400.9 264.094 C 400.9 265.363 400.9 266.888 401.154 268.157 C 401.916 271.459 404.455 273.491 407.757 273.491 C 411.314 273.491 413.346 271.967 414.108 268.412 C 414.616 266.38 414.616 264.094 414.616 261.807 C 414.869 251.648 414.869 241.487 414.869 231.327 Z M 428.84 240.979 C 430.872 235.392 434.682 232.09 440.524 229.803 L 428.84 229.803 L 428.84 240.979 Z M 449.667 264.855 C 446.873 263.586 444.334 262.315 441.54 261.299 C 435.953 259.013 431.38 255.966 429.094 250.123 L 429.094 266.38 L 441.54 266.38 C 442.047 268.157 442.302 269.681 443.063 271.206 C 444.08 273.491 446.365 274.253 448.906 273.745 C 450.683 273.491 452.462 271.459 452.97 269.681 C 452.97 267.649 452.208 266.125 449.667 264.855 Z M 465.923 245.805 L 452.462 245.805 C 452.208 245.043 452.208 244.281 451.954 243.52 C 451.193 241.487 449.667 240.471 447.89 240.471 C 446.112 240.471 444.334 241.233 443.318 243.01 C 442.047 244.789 442.81 246.821 445.096 248.091 C 448.398 249.869 451.701 251.393 455.256 252.917 C 459.828 255.203 463.892 257.743 466.431 262.823 C 465.923 256.981 465.923 251.393 465.923 245.805 Z M 473.798 229.803 C 466.941 218.881 460.336 208.467 453.224 197.545 L 453.224 229.296 C 459.574 231.073 464.146 234.629 466.178 241.233 L 466.178 229.549 C 468.718 229.803 471.004 229.803 473.798 229.803 Z M 188.301 274.508 C 185.254 281.111 179.92 284.667 172.808 285.683 C 167.473 286.446 162.394 285.936 157.821 283.397 C 152.234 280.349 148.678 275.524 148.424 269.173 C 147.915 261.299 148.17 253.171 147.915 245.297 L 147.915 242.757 L 138.01 242.757 L 138.01 285.175 L 124.039 285.175 L 124.039 242.757 L 115.15 242.757 C 116.166 245.551 117.436 248.346 118.452 251.393 L 104.228 251.393 C 103.72 251.393 103.212 250.63 102.957 250.123 C 100.418 245.043 96.608 241.995 90.766 241.741 C 84.415 241.487 79.589 244.789 77.05 250.63 C 74.001 257.743 75.526 265.617 81.113 270.698 C 86.956 276.032 97.369 275.524 102.45 266.38 C 103.212 265.109 103.72 264.602 105.244 264.602 L 117.944 264.602 C 115.15 276.285 105.498 284.413 94.322 285.936 C 78.828 287.969 66.128 278.571 62.063 265.109 L 62.063 285.175 L 48.093 285.175 L 48.093 257.997 L 47.84 257.997 C 47.586 258.251 47.586 258.505 47.332 258.76 C 44.283 264.347 39.712 267.141 33.616 267.649 C 30.059 267.904 26.249 267.904 22.439 268.157 L 22.439 285.175 L 8.47 285.175 L 8.47 155.382 L 27.265 155.382 L 27.265 183.575 L 50.38 183.575 C 51.65 183.575 52.158 183.067 52.158 181.797 L 52.158 157.413 L 52.158 155.382 L 88.225 155.382 C 89.496 155.382 90.004 155.635 90.258 156.905 C 93.559 166.049 97.116 175.193 100.418 184.337 C 100.418 184.591 100.671 184.844 100.926 185.354 C 102.196 181.797 103.465 178.495 104.736 175.193 C 107.022 169.096 109.307 163.002 111.593 156.651 C 111.848 155.889 112.356 155.382 113.117 155.382 L 159.092 155.382 C 166.204 155.382 173.061 156.651 179.412 160.461 C 187.032 165.286 191.858 172.145 194.143 180.781 C 196.684 190.941 196.176 201.355 192.112 211.007 C 188.048 220.66 180.174 226.247 170.267 228.788 C 167.473 229.549 164.68 229.803 161.886 230.311 L 161.886 263.586 C 161.886 265.617 162.394 267.649 162.902 269.681 C 163.664 272.221 166.204 273.999 168.998 273.745 C 172.3 273.745 174.332 272.221 175.348 269.427 C 175.602 268.412 175.856 267.141 175.856 266.125 L 175.856 232.343 L 175.856 230.565 L 189.825 230.565 L 189.825 263.586 C 190.08 266.888 190.08 270.698 188.301 274.508 Z M 32.346 242.757 C 29.298 241.741 25.996 242.249 22.694 241.995 L 22.694 255.203 C 25.741 254.95 28.79 254.95 31.583 254.695 C 34.377 254.441 36.156 252.156 36.41 249.615 C 36.663 245.805 35.393 243.773 32.346 242.757 Z M 52.411 201.61 C 52.411 200.084 51.903 199.831 50.38 199.831 L 27.774 199.831 L 27.774 229.549 C 36.156 229.549 44.03 230.819 48.093 239.71 C 48.348 239.71 48.348 239.455 48.348 239.455 L 48.348 229.803 L 52.158 229.803 L 52.158 228.28 C 52.411 219.389 52.158 210.499 52.411 201.61 Z M 91.527 228.025 L 91.527 203.641 C 91.527 202.879 91.274 202.118 91.019 201.61 C 84.923 188.147 78.574 174.939 72.224 161.476 C 71.969 160.969 71.716 160.715 71.208 159.953 L 71.208 229.803 L 62.318 229.803 L 62.318 250.123 C 66.89 235.9 76.795 228.788 91.527 228.533 L 91.527 228.025 Z M 130.898 159.445 C 130.39 160.207 130.39 160.461 130.135 160.969 C 124.039 174.177 117.944 187.131 111.848 200.339 C 111.085 202.118 110.577 203.895 110.577 205.928 L 110.577 229.803 L 99.402 229.803 C 104.736 231.835 109.054 234.883 113.117 238.947 L 113.117 229.549 L 130.898 229.549 L 130.898 159.445 Z M 161.631 212.785 C 166.965 212.277 171.283 209.991 173.824 205.165 C 177.887 197.292 177.887 188.909 174.332 180.781 C 172.046 175.701 168.236 172.653 162.647 172.145 C 158.584 171.891 154.519 172.145 150.456 172.145 L 150.456 212.024 C 150.456 213.04 150.964 213.293 151.725 213.293 C 154.774 213.04 158.329 213.04 161.631 212.785 Z M 264.502 230.057 C 264.502 233.359 264.502 236.661 264.247 239.963 L 264.247 242.249 L 247.483 242.249 L 247.483 250.63 L 263.739 250.63 L 263.739 263.078 L 247.483 263.078 L 247.483 272.475 L 264.247 272.475 L 264.247 284.921 L 222.592 284.921 C 221.321 284.921 220.813 284.413 220.305 283.397 C 216.242 275.524 211.924 267.904 207.606 260.029 C 207.352 259.521 207.098 259.013 206.844 258.251 C 209.383 257.997 211.67 257.997 213.956 257.743 C 218.528 257.235 220.305 254.695 220.56 250.123 C 220.813 246.313 218.782 243.265 214.209 242.503 C 211.67 241.995 209.13 242.249 206.336 241.995 L 206.336 284.667 L 192.366 284.667 L 192.366 229.803 L 197.445 229.803 L 197.445 154.874 L 239.61 154.874 L 239.61 171.637 L 216.495 171.637 L 216.495 178.242 C 216.495 179.765 216.242 181.797 217.003 182.813 C 217.766 183.575 219.797 183.067 221.576 183.067 L 239.102 183.067 L 239.102 199.831 L 218.274 199.831 C 217.003 199.831 216.495 200.084 216.495 201.61 L 216.495 212.785 L 239.863 212.785 L 239.863 229.549 L 263.486 229.549 C 263.994 229.803 264.247 230.057 264.502 230.057 Z M 233.259 255.711 C 231.482 259.776 228.433 262.57 224.37 264.602 C 227.164 269.681 230.212 274.761 233.259 280.349 L 233.259 255.711 Z M 233.259 229.803 L 215.987 229.803 C 223.862 230.565 229.958 233.359 233.259 240.979 L 233.259 229.803 Z M 264.502 230.057 Z M 293.458 318.195 C 291.425 321.752 288.886 325.054 286.599 328.355 C 286.346 328.609 285.838 329.117 285.33 329.117 L 278.471 329.117 C 280.504 326.323 282.028 324.037 283.805 321.752 C 278.979 321.497 276.185 319.719 275.169 315.655 C 273.392 308.289 278.471 302.955 285.33 303.21 C 294.219 303.463 297.014 312.099 293.458 318.195 Z M 288.378 312.353 C 288.378 310.322 287.107 308.797 285.076 308.797 C 283.297 308.797 281.52 310.322 281.52 312.099 C 281.52 314.132 283.044 315.655 284.822 315.655 C 287.107 315.655 288.378 314.385 288.378 312.353 Z M 349.591 319.465 L 352.385 319.465 L 352.385 324.291 C 351.624 324.291 350.862 324.291 349.846 324.546 L 349.846 328.864 L 343.496 328.864 L 343.496 324.546 L 332.32 324.546 C 332.066 322.005 332.066 319.719 333.59 317.434 C 336.637 313.369 339.686 309.051 342.48 304.733 C 342.988 303.971 343.75 303.463 344.765 303.463 L 349.591 303.463 L 349.591 319.465 Z M 343.75 311.591 C 341.971 314.385 340.447 316.926 338.924 319.465 L 343.75 319.465 L 343.75 311.591 Z M 159.345 303.463 C 158.837 303.463 158.584 303.971 158.076 303.971 C 158.076 304.225 158.076 304.225 158.329 304.479 C 159.092 304.479 160.108 304.479 161.123 304.733 C 159.6 312.353 158.076 319.973 156.552 327.339 C 155.535 328.355 154.011 327.085 153.503 328.864 L 174.332 328.864 C 174.585 327.339 175.093 326.07 175.348 324.799 C 175.602 323.529 175.856 322.005 176.11 320.481 C 174.84 320.481 174.84 320.481 174.077 322.005 C 171.283 327.085 167.982 328.101 162.902 327.593 C 163.664 323.783 164.426 320.227 165.188 316.417 C 167.982 316.163 168.236 316.417 168.744 321.244 C 170.014 321.752 170.267 320.989 170.267 320.227 C 170.522 318.703 171.03 316.926 171.283 315.401 L 172.046 310.83 C 171.792 310.83 171.538 310.575 171.538 310.575 C 171.03 311.083 170.522 311.591 170.267 312.099 C 170.014 312.607 169.506 313.369 169.251 313.624 C 168.49 314.385 167.728 314.893 166.965 314.893 C 166.457 314.893 165.949 314.893 165.441 314.64 C 165.949 311.845 166.457 309.306 166.965 306.512 C 167.22 306.004 167.473 304.987 167.982 304.733 C 171.792 303.463 175.093 305.496 175.348 309.559 C 175.348 310.067 175.856 310.322 176.11 310.575 C 176.364 310.322 176.871 309.814 176.871 309.559 C 177.126 307.527 177.379 305.496 177.887 303.463 L 159.345 303.463 Z M 306.665 309.306 L 310.983 309.306 L 310.983 329.117 L 317.334 329.117 L 317.334 303.717 L 306.92 303.717 C 306.665 305.496 306.665 307.273 306.665 309.306 Z M 249.516 309.051 L 253.58 309.051 L 253.58 328.864 L 259.929 328.864 L 259.929 303.717 L 249.516 303.717 L 249.516 309.051 Z M 198.97 314.385 C 197.7 313.877 196.429 313.624 194.906 313.624 C 192.366 313.624 190.333 315.401 189.572 317.434 C 189.064 319.719 190.333 321.244 192.112 322.26 C 193.382 323.021 194.398 324.037 195.414 325.054 C 196.684 326.07 196.429 327.593 194.906 328.101 C 193.635 328.355 192.366 328.101 191.096 328.101 C 191.35 327.085 191.35 326.831 191.604 326.323 C 191.858 324.799 191.096 324.037 189.825 323.783 C 188.556 323.783 187.54 324.546 187.54 326.07 C 187.54 327.593 188.556 328.355 189.572 328.864 C 191.604 329.625 193.635 329.88 195.668 329.117 C 197.7 328.355 198.97 327.085 199.478 324.799 C 199.732 322.768 198.97 321.244 197.192 319.973 C 196.176 319.211 194.906 318.45 194.143 317.687 C 193.635 317.179 193.382 316.417 192.874 315.909 C 193.635 315.655 194.398 315.147 195.16 314.893 C 195.668 314.893 196.176 315.147 196.429 315.147 L 196.429 315.655 C 195.922 316.926 196.176 318.195 197.7 318.45 C 198.461 318.45 199.478 318.195 199.732 317.434 C 201.002 316.163 199.986 314.893 198.97 314.385 Z M 218.528 316.926 C 218.782 315.655 219.29 314.893 220.813 314.893 C 221.068 314.893 221.576 314.64 221.829 314.385 C 221.829 314.385 221.829 314.132 221.576 313.877 C 220.813 313.877 220.052 313.624 219.29 313.624 C 219.544 312.099 219.797 310.83 220.052 309.306 L 217.511 309.306 C 215.987 309.306 214.972 309.559 214.972 311.337 C 214.972 312.099 214.464 312.861 214.464 313.369 C 213.448 313.624 212.685 313.877 211.924 314.132 L 211.924 314.64 C 212.685 314.64 213.193 314.893 213.956 314.893 C 213.193 318.45 212.432 321.752 211.67 325.307 C 211.162 326.831 211.924 327.847 213.193 328.355 C 216.242 329.625 220.56 327.339 221.068 324.037 C 221.068 323.783 220.813 323.529 220.56 323.021 C 219.544 325.054 219.036 327.085 216.495 327.339 L 216.495 326.323 C 217.003 323.275 218.02 320.227 218.528 316.926 Z M 236.816 323.275 C 235.038 323.275 233.514 324.546 233.514 326.07 C 233.514 327.847 234.784 329.372 236.308 329.372 C 238.086 329.625 239.61 328.101 239.61 326.323 C 239.61 324.799 238.34 323.275 236.816 323.275 Z" style=""/>
</svg>