<svg xmlns="http://www.w3.org/2000/svg" width="972.9" height="289.5"><path d="M78.9 289.5v-20.6h145.7c1.3 3.3.5 6.8.6 10.2.1 3.5-.2 7-.2 10.5-48.8-.1-97.4-.1-146.1-.1zM868.8 202c-.2-8.7-.1-17 2.6-25.9 1.3 1.7 2.2 2.8 3.1 3.9 1.7 2.3 3.2 4.6 4.9 6.9 10 13.9 24.2 20.1 40.7 21.2 11.9.8 21.7-4.6 29.2-13.7 5-6.1 5.1-15.2.7-22.5-3.2-5.4-7.9-9.1-13.6-11.3-6.5-2.4-13.3-4.2-20-6.2-7-2.1-14.1-3.9-21.1-6.1-2.7-.8-5.3-2-7.8-3.3-14.5-7.6-20.1-21.4-18.5-35.3 1.3-10.9 7.9-18.8 17.3-24.3 5.1-3 10.7-4.3 16.6-5.1 15.1-2.2 29.9.1 44.6 3.3 6.8 1.5 13.6 2.9 20.9 4.4 1 10.6.6 21.1-1.3 32.3-3.7-4.8-6.9-9-10.2-13.1-7.5-9.3-17.1-15.2-28.9-17.3-6.4-1.2-13-1.1-19.4-.2-6.6 1-11.8 4.4-15.9 9.5-5.6 6.9-4.9 15.9 2.2 21.2 4.5 3.3 9.7 6 14.9 7.9 8.7 3.2 17.8 5.5 26.7 8.2 6.4 2 12.6 4 18.4 7.5 25.3 15.3 22.1 47.8 2.8 61.9-10.1 7.3-21.1 11.2-33.4 11.5-12.9.3-25.1-2.1-36.7-8-6-2.8-12.2-4.8-18.8-7.4zM339.7 58.6H366c1.9 1.9 2.2 4.2 2.1 6.8-.5 8.5-.7 17-1.4 25.4-1.5 17.3-1.2 34.6-.9 51.9.3 17.7.9 35.3 1.4 52.9.1 2.3.3 4.6.5 7 .9.2 1.5.5 2.1.5 13.6.4 27.3 1 40.9.9 7.4-.1 14.9-1.4 22.3-2.5 7.9-1.2 14.4-5.1 19-11.8.3-.4.7-.7 1.2-1.1.6.2 1.2.3 1.8.6.4.2.8.5 1.6 1-.9 9.1-4.2 17.6-7.6 25.5l-109-1.5c-1.7-1.7-2.1-3.9-2-6.3l1.5-30.4c1.1-26 2.1-51.9.8-77.9-.6-11.6-1.2-23.3-1.7-34.9-.1-1.9.7-3.9 1.1-6.1z"/><path d="M12.5 268.9c-2.2-3.5-4.2-6.6-6.4-10.2h79.6c.1 1.7.2 3.5.3 5.8H75v14.6H3.5c3.2-3.8 6-6.9 9-10.2zm284.8-10.2c-2.3 3.7-4.3 6.8-6.4 10.1 2.9 3.2 5.7 6.4 9 10.2h-71.2v-14c-3.8-.2-7.2-.3-10.9-.5v-5.8h79.5zM33.1 39.5h6.2c3.7 5.5 7.7 9.9 14.2 10 3.6-1.8 3.3-5.2 4.5-7.8-.8-1.3-1.6-2.5-2.3-3.6 2.6-3.3 3.2-3.5 7.6-1.7 1.5 2.4 0 3.7-1.9 4.7.7 2.9.1 5.9 3.3 8.4 6.6-.1 11.2-4 14.9-9.7 4.5-1.2 4.5-1.2 7.1 1.9-.4 3.2-3.4 2.7-5 3.5-4 3.7-2.5 8.7-3.5 13.1H41.5c-.3-4.6-.5-9.2-4.5-13.1-.8-.3-2.3-1-4-1.7 0-1.1 0-2.2.1-4zM226 58.2c-.2-4.7.2-9.2-3.3-13-1.5-1-5.6 0-4.6-4.4 1.9-2 4.1-1.8 6.3-.9 3.7 5.8 8.4 9.7 15.1 9.9 3.2-2.3 2.5-5.5 3.6-8-1-1.1-1.9-2.2-2.8-3.1 2.3-3.7 2.8-3.9 7.3-2.1 1.5 2.4 0 3.6-2 4.7 1.1 2.7 2.3 5.4 3.4 8.2 8 .9 11.8-4 15.7-9.2 4.2-1.5 4.2-1.5 6.9 1.7-.2 3-3.1 2.5-4.6 3.5-3.3 3.7-4.2 8-4 12.9-12.4-.2-24.5-.2-37-.2zM40.8 26.3c-7.5 0-9.6-1.7-10.7-8.9.9-3.1 3.8-3.3 6.6-4.2l-2.4-5.1c3.2-.3 6.3-.3 9.3-.8 3.9-.6 6.7 1.2 9.5 3.7h14c-.8.9-1 1.5-1.5 1.8-3.1 1.9-4.9 4.6-6.1 8.1-2.3 7.1-8 10.4-14.9 9.1-1.3-2.7 2.5-3.7 2.1-6.3-2.6-.7-3.8 1.7-5.9 2.6zm132.1 24.2c1.6-.8 3.2-1.7 4.8-2.4 4.3-1.8 7-5 7.9-9.6.6-2.8 1.2-5.6 1.2-8.4 0-4.4 1.3-8.1 4.6-11.6 1.2 1.4 2.5 2.8 4.2 4.9.4-5.6 3.3-9.1 7-11.9 3.7.8 2.8 4.5 5.1 6.5 1.2.2 2.8.4 4.2.6l-3.6 13.6c-.1-.1-.3-.4-.6-.7-.3-.4-.6-.8-1-1.2-6.2 2.7-11.7 5.9-15.1 12.1-1.6 2.9-3.8 5.3-5.8 8l.2-.2c-.9 1-2.4.2-3.2 1.1l.2-.1c-2.7.9-5.5.9-8.2 0l.2.1c-.6-.6-1.6-.5-2.2-1.1 0 .2.1.3.1.3zm95-24.1h-5.6c-2-.3-3.2-3.4-6.3-2.3 1.1 1.9 2.1 3.7 3.2 5.7-4.9 1.7-8.7.3-11.7-2.7-1.7-1.7-3.2-4-3.9-6.2-1.1-3.4-2.9-5.9-5.8-7.7-.5-.3-1-.7-2.3-1.7h14.3c3.7-4.2 8.1-4.7 13.2-3.3 1.6.4 3.5-.1 5.5-.3.4 2.2-1.6 3.5-2.3 5.2 2.2 1 4.3 2.1 6.4 3.1v5.4c.1.2.1.4.2.6.2.4.3.8.3 1.2 0 .4 0 .8-.1 1.2-.2.4-.4.7-.7 1-.2.1-.4.2-.5.3-.4.1-.8.2-1.1.4-.4.1-.7.3-1.1.4-.4.1-.8.1-1.2 0-.1-.2-.3-.3-.5-.3zm528.2 228.8c-1.9 8.5.1 16.1-.5 24-1.2.1-2.3.1-3.7.2v-35.6h3.9c6.7 9.9 13.4 19.6 20.7 30.3 2.2-10.7.2-20.3.6-30.2 1.3-.1 2.4-.1 3.7-.2V279c-2.3 1-4.7.5-7.4.4-5.6-7.8-11.1-15.6-17.3-24.2zm-160.6 18c.5.9.8 1.3 1.1 1.9-4.1 5.4-9.8 5.9-15.7 4.9-9.4-1.6-16.4-10.6-15.8-19.6.6-8.9 8.4-16.9 17.6-17.5 2.7-.2 5.6.6 8.3 1.2 1.9.4 3.8 1.1 5.8 1.8v7.9c-1.3-1-2.3-1.3-2.7-2-2.8-4.7-7.1-5.9-12-5.1-5.1.8-8.4 4.2-9.8 8.9-1.5 4.9-1 9.9 1.8 14.4 4.8 7.5 12.4 8.6 19.5 4.6.6-.4 1.1-.8 1.9-1.4zm-265.3-27.3v5.7c0 .4-.4.9-.8 1.7-.8-.6-1.8-.9-2.3-1.6-2.9-5-7.4-6-12.5-5-5 1-8.2 4.5-9.5 9.3-1.4 5-.7 9.9 2.2 14.4 4.7 7.2 12.1 7.9 18.8 4.5.7-.4 1.4-.9 2.2-1.4.5.5.9 1 1.4 1.6-4 5.4-9.5 6-15.3 5.2-9.4-1.4-16.6-10-16.4-19.2.3-8.8 7.8-17 17.1-18 2.7-.3 5.6.4 8.4.9 2.2.3 4.2 1.1 6.7 1.9zm361.8-2.1h6.4v4.1c-.2 5.1-.4 10.3-.5 15.4 0 2 .3 4 .7 5.9 1.1 5.2 3.5 7.3 8.4 7.6 4.6.3 8.5-2.3 9.8-6.8.6-2 .9-4.3.9-6.4 0-5.3-.3-10.6-.4-15.9V244c1.3-.1 2.4-.2 3.4-.3.3.5.6.8.6 1.1-.1 7.1-.3 14.3-.3 21.4 0 5.9-2.5 10.6-7.7 12.9-5.8 2.6-11.7 1.8-17-2-1-.7-1.8-2-2.3-3.2-.5-1.2-.9-2.5-1-3.8-.5-8.6-.7-17.2-1-26.3zm148.8 1.8v8.1c-1.3-1-2.2-1.5-2.7-2.2-2.9-4.9-7.5-5.9-12.6-4.9-5 1-8.1 4.6-9.4 9.4-1.3 4.8-.7 9.5 2 13.9 4.6 7.4 12.1 8.4 19.1 4.8.7-.4 1.4-.9 2.2-1.4.5.6.8 1.1 1.2 1.6-3.1 4.7-7.8 5.5-12.8 5.4-12.3-.3-21.3-12.3-18-23.8 2.5-8.9 12.1-15 21.3-13.3 3.3.5 6.4 1.6 9.7 2.4zM458 279.4h-6.1v-32.8h-15c.3-1.2.4-1.8.6-2.7h35.3c.2.5.6 1.2 1.2 2.5h-15.1c-1.2 5.8-.7 11.2-.8 16.6-.2 5.3-.1 10.6-.1 16.4zm54.1.3c.3-6.3.5-11.6.7-17.1l-13.4-18.7h7c3.2 5.2 6.6 10.8 10.5 17.2 3.6-6.2 6.8-11.6 10-17.2h4.5c-4 6.8-8.6 12.6-12.6 18.7v16.2c-1.8 1.5-4 .4-6.7.9zm437.8-35.8h5.9v32.4c5.9 1.1 11.2.6 16.8-.6v3.9h-22.8c.1-12.1.1-23.8.1-35.7zm-547.7 0h6c.1 1.1.3 1.8.3 2.6v32.9h-6.3v-35.5zm511-.2h6c.7 4-.2 7.9-.1 11.8.1 4 0 8 0 11.9v12h-5.9v-35.7z"/><path d="M209 16.7c-.5-1.6-1-2.8-1.5-4.2-4.1-2.7-6.9-6.7-8.6-11.5 4.9-.9 9 .4 12.7 4.1-.2 3.7 1.6 8-2.6 11.6zM92 3.8C95.5 1.2 99.3.5 103.3 0c.1 4.2-2.4 8.1-8 12.5-.3 1.1-.6 2.3-.9 3.7-.5-.2-1.2-.3-1.4-.6-1.8-2.8-2.2-6.6-1-11.8zm180.8 17.8c.8-1.9 1.5-3.9 2.4-5.7 1.7-3.6 3.8-4 7.4-1.5 1.3 7.7-3.5 12.2-14.9 13.8.1-.6.2-1.2.3-1.7l-.1.1c.6-.6 1.6-.5 2.2-1.1l-.2.2 1.2-1.2-.2.2 1.2-1.2-.2.2c.6-.6.5-1.6 1.1-2.2 0-.2-.2.1-.2.1zM26 12.6c.9 1.6 2 3.1 2.5 4.7 2.2 6.3 2.1 6.3 5.9 9.9-6.2.4-12-3-14-8.1-1.5-4.1.1-6.4 5.6-6.5zm217.8 164.9c-1.9-1.5-3.8-2.9-5.6-4.4-4-3.5-7.5-7.5-9.8-12.5-.7-1.5-1.3-3.1 1.2-4.5 2.2 3.7 4.2 7.5 6.6 10.9 2.5 3.4 5.4 6.5 8.1 9.7-.1.4-.3.6-.5.8zM74.4 156.3c.8.4 1.4.7 2.3 1.1-2.8 9.1-9.3 14.8-17.1 19.4 2.7-3.2 5.6-6.2 8.1-9.6 2.5-3.3 4.4-7.1 6.7-10.9zM225.1 104c-1.1.1-2.2.1-3.3.2-1.2-2.1 1.9-5.7 5.5-6.5.3 1.8.3 1.8-2.2 6.3zm-88.4-37.2c2.9 3.4 5.8 6.8 8.7 10.1-3.7-1.4-6.7-3.7-8.9-7.1-.5-.8-.6-1.9-.9-2.8.4-.1.7-.1 1.1-.2zM76.1 98.1c3.8-.4 5 .7 6.3 5.9-4.3-.1-4.3-.1-6.3-5.9zm-15 .6c4.9-.5 6.6 2.2 8.6 5-1.7.1-3.1.2-4.9.3-.9-1.3-2-2.9-3.7-5.3zm182 0c-1.5 2.2-2.6 3.7-3.6 5.1h-5c1.9-2.7 3.4-5.7 8.6-5.1zm-22.4 15.5c3 2.2 1.8 4.9 2.1 7.6-1.2-.1-2.1-.2-2.9-.3-.9-3.9-.9-3.9.8-7.3zm12.2.1c2.8 2.1 1.5 4.6 1.4 7.1-1.1.1-2 .3-3.2.4 0-2.6-.8-5.2 1.8-7.5zm-9.9 19.9c1.2 3.1 2.1 5.2 3.1 7.8-1.5.2-2.5.4-3.8.6-.8-2.5-2.7-4.8.7-8.4zm-141.5.4c3.1 2.9.8 5.1.7 7.6-1.4.1-2.6.1-4.1.2.9-2.8 1.2-5.4 3.4-7.8zM69.8 122c.5-2.6-1.5-5.3 1.3-7.6 2.7 2.1 1.7 4.8 1.9 7.3-1 .1-1.8.1-3.2.3zm15.9.1c-2.1-.2-2.9-.3-4.1-.4.2-2.3.3-4.5.5-7.2 4.6 1.5 1.7 4.9 3.6 7.6zm46.6-67c.7 1.1 1.5 2.2 2.3 3.4-3 .6-3 .6-2.3-3.4zm-1.2-7c-1.3-1.8-1.4-2.9.1-4.4 1.2 1.4 1.3 2.6-.1 4.4z"/><path fill="#FFF" d="M174.8 51.4h8.2c-2.7 1.6-5.5 1.6-8.2 0z"/><path fill="#FFF" d="M182.8 51.5c1.1-.4 2.2-.7 3.2-1.1-1.1.4-2.1.7-3.2 1.1zm-61.3.3c.4 0 .7.1 1 .1-.1.1-.2.3-.3.3-.3-.1-.4-.3-.7-.4zm51.3-1.4c.7.4 1.5.8 2.2 1.1-.7-.4-1.5-.7-2.2-1.1zm-54.9.1c.4.1.8.2.5.1l-.3-.3c0 .1-.2.2-.2.2zm-2.1-.9l2.1.9.1-.2c-.7-.3-1.4-.6-2.2-.9v.2z"/><path d="M301.8 209.5c-4.5-8.6-8.2-17.5-9.8-27.1-1.7-10.3-3.7-20.7-4.9-31-2.4-20.4-9.8-38.6-22.3-54.8-.5-.6-.8-1.4-1.2-1.9 4.3-9.8 4.3-14.4.3-18.9-1.9 6.2-1.9 6.2-8.3 11.5 1.9 2 4.4-.1 6.5.8-2.8 4.3-5.6 5-15.9 4.2-1.2-.7-2.6-1.5-3.9-2.3-.2.2-.4.4-.7.6.8 1.6 1.5 3.1 2.4 5.1 3.9.3 7.6.7 11.6 1-1.3 1-2.6 1.9-4.2 3 1.2.8 2 1.5 2.9 1.8 2.4.8 4.8.7 7.3 0 3-.8 3.7-.2 4.7 3.3l-5.4 1.7c3.2 3.3 6 6.1 8.6 9.1 2.7 3.1 5.3 6.4 7.7 9.8 2.2 3.1 4.2 6.4 5.7 11.1-2-2.2-3.1-3.6-4.7-5.3-.5 3-.9 5.4-1.2 7.5 2.4 4.9 6.7 8.2 8.2 13-.3.2-.6.4-.8.6-2.4-2.3-4.9-4.6-7.7-7.3-.7 2.5-1.2 4.4-1.8 6.6 2.1 2.5 4.2 5.1 6.4 7.6 2.2 2.4 4.4 4.7 6.7 7-.3.3-.6.6-.8.9-4.3-3.6-8.7-7.1-13.3-10.9-.7 1.9-1.3 3.3-1.9 5 2.9 3.2 5.9 6.3 8.8 9.5 2.8 3.1 6.4 5.3 8.6 9-7.1-3.6-12.7-9-18.7-13.9-.1-.1-.3.1-.6.1-.3.5-.7 1-.9 1.6-.2.6-.3 1.3-.6 2.5 6.7 6.9 13.6 13.8 21.1 21.5.6 2.3 1.4 5.6 2.2 8.9-.7-.3-1.4-.6-2-1-10.1-8.3-19.5-17.2-27.4-27.6-5.5-7.2-10.2-14.8-12.9-23.5-3.2-10.6-4.5-21.2.9-31.6.1-.2-.1-.6-.2-1-2.1-.6-3.6.6-4.5 2.1-1.1 1.8-2.1 3.8-2.7 5.8-2.1 7.4-1.1 14.9.6 22.2 2.4 9.9 7.6 18.4 13.7 26.4 7.1 9.5 15.5 17.9 24.2 25.8 1.1 1 2.4 1.7 2.8 2 1 7.2 1.9 13.2 2.6 19.1.7 5.8 2.2 11.6 2.1 17.6-3.3-.3-2.9-2.5-3.1-4.2-1.1-7.6-2.1-15.1-3.2-22.7-1.1-.4-2-.8-3.2-1.3.5 9.1 2.9 17.6 3.2 26.6-3.1-.9-5.7-1.7-8.3-2.4-2.5-6.4-4.9-12.6-7.3-18.7-1.7-4.3-3.2-8.8-5.1-13-1.5-3.4-3.7-6.1-7.8-6.5-.2.7-.5 1-.4 1.3.1.5.3 1 .7 1.3 4.2 4.2 5.3 9.9 7.4 15.1.8 2 .9 3.9-1.2 5.6-.4.1-1 .4-1.7.5-7.4.7-13.3-2.9-16.2-9.8-1.4-3.4-2.7-6.9-6-8.9-4.6-2.8-6.4-6.8-6.3-12.1.1-8.9-1.4-17.5-6-25.4-5.7-9.6-8.4-20.3-10.2-31.1-1.6-9.2-.7-18.3 2-27.2 1.9-6.4 6.4-9.3 13.2-9.1 2 .1 4 .4 6 .4 3.1 0 4.5-1.5 5.2-5.1-4.5 1.8-4.5 1.8-9.4 1.5-5-.3-7.1-2.4-7.3-7.6-.1-2.2.1-4.3 0-6.5 0-1.4-.4-2.7-2.5-2.7-.4.5-1.3 1.2-1.3 1.8.5 5 1.2 10.1 1.9 15.5-6.4 3.4-9.7 9.4-11.5 16.7-2.3 9.4-2.2 18.8-.2 28.2 2.4 11.3 6.9 21.9 12.1 32.2 3.6 7.3 3.8 14.9 3 23h-10.8c-1.7-5.9-3.4-11.6-5-17.1-1.9-.8-3.4-1.5-4.9-2.1v-57.2c0-.3-.1-.7-.2-1 0-.1-.1-.3-.2-.4l-.6-.6H167c-.7-1.1-1.8-2.9-2.4-3.8-2.2-.9-3.6-1.5-5.1-2.1-.4-1.9-2.3-3.9.8-5.3 1.1 1.9 2.1 3.7 3 5.3 5.1 1.5 10 3.2 15.4 3.6-.5-4.7-.9-9.1-1.4-13.4 3.2-.1 5.8 1.8 9 0-5.5-8.4-9.7-17.1-9.7-27.5 1.8.6 3.3 1.1 4.9 1.5 4 1 7.9 1.2 11.8-.5 5.9-2.7 7.1-8.6 2.8-14.2-1.3 1.6-2.5 3.2-3.7 4.7-1.4 1.7-2.6 3.5-4.2 4.9-4.2 3.6-8.7 3.2-12.6-1.2 3.6 1 7.2 2.3 10.1-.9-2.1-4.7-2.1-4.8-9.1-8.7 2.8-.1 5.8-.3 8.8-.5 14-.9 24.8-6.9 31.3-19.8 2.1-4.2 4.3-8.3 6.7-12.3 3.4-5.7 7.8-9.5 15.6-7-4.2-4.3-9.8-5.4-14.9-2.9-7.2 3.5-12.8 8.2-13.4 17.1-.1 2.1-1.8 4.2-2.8 6.2-.1.2-.5.1-.8.2-.4-1.2-.7-2.4-1-3.4-6.7 1.4-10.8 5.6-13.8 11-.6 1-1.1 2.1-2 2.9-1.3 1.2-2.9 2-4.4 3l-.6-.3c-.8-.4-1.3-1.2-2.3-1.3-.4 0-.9 0-1.3.1-1.9.4-3.8.7-5.6 1.4-.4 0-.8.1-1.3 0h-1.9c-1.1-.9-2.5-1.6-3.3-2.8-3.4-4.9-6.7-9.9-10-14.9 2.1-3.1 4.8-6.3 1.8-10.5-2.3 2-4.3 3.8-6.7 6 1.8.2 3.2.3 5.3.5-1.4 1-2 2-2.9 2.1-4.3.7-8.7 1.2-13.8-.6 3.4 5.5 8.2 2.4 12.4 3.7-1.5.7-2.6 1.3-3.8 1.9 2.5 2.9 5.4.6 8.1 1 .4.6.7 1.1 1.2 1.7-1 .5-1.8.9-2.9 1.5 1.3 1.1 2.5 1.9 3.5 3 3.1 3.1 6.7 5.9 8.1 10.4l.1-.1c-.5 1.5-1 2.9-1.3 4 1.9 2.5 3.4 4.4 4.8 6.3l-.5.5c-1.5-1.1-3-2.2-4.8-3.5-.4 1.2-.7 2.1-1 2.9l5.5 6.7c-2.2-1.1-4.3-2.2-6.7-3.5-.3.8-.6 1.5-.9 2.1l6.6 6.3c-1.7-.8-3.5-1.7-5.2-2.5-1.1-.5-2.2-.8-3.4-1.3-1 2.4.4 3.3 1.5 4.2 3.1 2.6 6.1 5.1 9.3 7.6 1.9 1.5 3.2 3.2 3.2 6.4-8-5.4-14.9-11.1-20.5-18.1-2.3-2.8-4.3-5.9-6-9.1-2.6-4.8-2.6-9.9-.5-14.9.4-.9.6-1.8 1.2-3.5-1.8.6-3.1.6-3.6 1.3-1.1 1.6-2.2 3.5-2.4 5.3-.8 6.8.4 13.3 4.6 18.9 4.3 5.8 9.3 10.9 14.9 15.3 2.6 2 5.3 4 8 6 .8 5.4 1.7 10.7 2.5 16-1.4-.8-1.9-1.7-2.3-2.8-1-2.8-1.9-5.7-2.9-8.5-.5-1.3-1.3-1.9-2.9-.9 1.2 3.8 2.3 7.6 3.7 12.2-2.5-.9-4-1.4-5.3-1.9-2.8-5.9-5.4-11.5-7.7-16.5-2.1-1.1-3.5-1.9-5.5-.7 3 3.4 4.9 7.1 6.5 11.1-5 2-9.5 1.4-11.9-2.5-3.3-5.2-6.3-10.6-8.5-16.3-1.2-3.1-2.2-6.2-4.1-9-3.9-5.7-6-12.2-7.8-18.8-1.4-5.3.1-10.2 2.7-14.8 1.5-2.7 3.8-4.1 7-3.9 1.6.1 3.3-.2 4.8-.7 1.2-.4 2.2-1.5 1.4-2.8H133c-2.6-1.3-3.4-3.7-3.6-6.2-.2-1.8-.1-3.7-.3-5.5-.1-1-.7-1.9-1-2.9l-1.6.3c.9 5.5-1.1 11.3 3.2 16.6-4.3 3.4-5.5 8.6-7 13.6-2.8-1.6-4-3.8-4.5-6.3-.8-3.7-1.5-7.5-1.8-11.3-.3-4.1-1.6-7.4-4.7-10-1.3 1.5-2.5 3-4.5 5.4.3-6.6-3-9.8-7.6-13.1-1.3 2.6-2.4 4.6-3.6 7-1.5.3-3.4.7-4.6 1L95 31.1c.7-.3 1.4-.6 2.2-1 1.4.8 2.8 1.8 4.3 2.4 7.5 3.2 10.8 10.1 14.5 16.6-3.1-1-4.2-3.9-5.6-6.3-3-5-7-8.3-13-9.5-.2 1.4-.4 2.7-.6 4.3-3.4-2.4-4-5.9-4.4-9.4-.6-5-2.9-8.8-7-11.5-.8-.5-1.6-1.1-2.4-1.7-3.7-2.9-7.9-3.3-12.3-2.9-2.6.3-3.4.9-5.7 3.9 6.4-2.2 10.8.4 14.1 5.4 1.5 2.2 2.8 4.5 4.1 6.8 1.9 3.3 3.5 6.8 5.4 10.1 3.4 6 8.3 10.3 14.6 13.1 5.4 2.4 11.1 3.5 17 3.8 1.4.1 2.7.3 4.8.5-2.9 3.6-7.6 4.7-7.7 9.8 1.7.6 3.4 1.2 4.7 1.6 2.2-.8 3.9-1.4 5.5-2-4.5 4.4-9.4 4.3-13.4 0-1.7-1.8-3-4-4.6-5.9-.8-1-1.7-1.9-2.6-2.9-4.2 8.5-.8 14.9 8 15.7 2.1.2 4.4 0 6.4-.6 2.7-.7 5.2-1.9 8.1-2.9.3.4.7.9 1.1 1.4 2.5 3.3 2.8 7.5 4.5 11 3.5 7.1 6.8 14.5 12.9 20v5.5c-3.6.8-7 1.5-10.3 2.3l-3.2 4.9h-34.2v59c-2 .8-3.5 1.4-5.3 2.1-1.7 5.7-3.4 11.3-5 16.9h-11c-.5-8-.2-15.5 3.1-22.7 3.5-7.7 7-15.5 9.8-23.5 4.6-13.4 5.6-27 1.2-40.7-1.5-4.8-4.2-8.6-8.2-11.6-.9-.7-1.8-1.3-2.2-1.7.7-5 1.4-9.4 2-13.8.2-1.6-.3-3-2.2-3.2-1.8 1-1.8 2.7-1.8 4.3 0 2.2.1 4.3 0 6.5-.1 2.3-1.1 4.5-3.4 5.1-3.8 1.1-7.7 2.1-11.5-.2-.5-.3-1.3-.3-2.4-.6 1.5 3.9 3.7 5.7 7.4 5.1 1.8-.3 3.7-.3 5.5-.3 5.7 0 10.1 2.8 11.9 8.1 2.1 6.3 3.6 13 3.1 19.6-.5 6.8-1.9 13.5-3.3 20.1-1.6 7.5-4.8 14.5-8.4 21.3-3.4 6.2-5.4 12.9-5 20.1.1 1.8 0 3.7-.1 5.5-.2 3.9-1.7 7.1-5.1 9.3-3.6 2.3-5.8 5.4-7.1 9.3-.5 1.5-1.3 3.1-2.3 4.4-4 5.5-10.9 7.5-16.7 4.8-1.6-2.7-.3-5.1.7-7.6 1-2.6 1.9-5.4 3.2-7.8 1.2-2.3 2.9-4.3 4.7-6.9-1.4 0-2.2-.2-2.9 0-3.3 1.3-5.2 3.9-6.5 7.2-3.5 9.2-7.1 18.3-10.7 27.4-.5 1.2-1.1 2.4-1.7 3.5-2.7.8-5.2 1.5-8.3 2.3 1.3-9.1 2.5-17.6 3.8-26.6l-3.5 1.4c-1.3 8.9-2.5 17.6-3.8 26.2-1 .3-1.6.5-3 .9 1.8-12.5 3.5-24.6 4.8-34.1 6.8-7.4 12-13.1 17.2-18.7 7.2-7.7 13.7-15.9 18.7-25.2 5.4-9.9 7.8-20.5 6.5-31.8-.4-3.2-1.8-6.4-3.1-9.3-.8-1.7-2.4-3.2-5-2.1.3.9.5 1.7.8 2.4 2.2 4.4 2.8 9.2 2.7 14.1-.1 12.3-4.5 23.1-11.1 33.1-8.4 12.8-19.3 23.3-31 33.1-.8.7-1.7 1.2-3.2 2.1 1.1-4 2.1-7.4 2.9-10.5 7.9-6.4 14.5-13.6 20.9-21.1-.8-1.4-1.4-2.5-2.1-3.9-1.3 1.2-2.4 2.3-3.5 3.2-4.8 3.9-9.2 8.4-15 10.8.9-1.2 1.7-2.4 2.7-3.5 4.8-4.9 9.6-9.6 14.4-14.5-.8-2-1.5-3.4-2.2-5.2-4.6 3.6-8.1 7.7-13.4 9.7 4.1-4.6 8.3-9.2 12.5-13.9-.5-2.3-1-4.3-1.7-7-3 2.8-5.5 5.2-8 7.5-.3-.3-.6-.5-.9-.8 2.1-4.6 6.1-8.1 8.5-12.9-.4-2.2-.8-4.6-1.3-7.7-1.4 1.7-2.4 2.8-3.4 4 3.9-11.5 12.4-19.7 20.8-28.6-2.3-.7-3.8-1.1-5.3-1.6.7-3.1 1.1-3.7 3.1-3.6 1.1.1 2.2.7 3.4.8 3 .3 5.8 0 8.4-2.6-1.8-1-3.1-1.8-4.4-2.5 2.8-.6 5.5-.5 8.1-.7 3-.2 5-1.6 5.4-4.8.1-.4-.2-.9-.4-1.4-1.4.9-2.6 1.7-3.9 2.5-4.8-.3-9.7.9-14.1-2-.8-.5-1.1-1.7-1.9-2.9 2.7.1 4.8 1.6 6.9-.3-1.9-1.6-4.1-2.9-5.5-4.8-1.4-2-2-4.5-3.1-7.1-1.9 2-2.1 4.3-2.4 6.6-.7 4.7 1.1 8.8 3.2 12.8-1.3 1.8-2.5 3.3-3.7 4.9-8.7 12.2-15.2 25.5-18 40.2-2.1 10.9-3.5 22-5.1 33.1-1.9 13.5-5.7 26.3-12.5 38.2-.5.9-.9 1.9-1.5 3.2 4.9.9 9.2-.4 14.1-1.5-1.3 10.5-2.6 20.5-3.9 31.1 4.4-1.3 8-2.3 11.6-3.4 3.6-1.1 7.3-2.2 10.8-3.3 2.1-5.4 4-10.5 5.8-15.3h11.5v10.9c-2.7 1.4-5.3 2.8-7.4 3.8-2.2 2.6-4 4.8-6 7.2.4.8.9 1.7 1.3 2.6 3.5-.6 3.5-.6 6.1-3.3 4.2-4.5 9.3-6.7 15.3-4.6 4.7 1.6 9.1 4 13.6 6.1 1.1.5 2.2 1.3 4 2.4-.8-4-.3-7.4-2.9-10.2-5.5-1.5-11.1-3-16.8-4.6v-10.3c2.8-4.1 5.5-7.2 7.4-10.9 3.6-7 12.7-12.6 20.7-12.4 3.4.1 5.7 1.3 6.8 4.7.5 1.5 1.2 3.5 2.4 4.2 3.6 2.1 5.2 5.3 6.8 8.9 1 2.4 2.6 4.7 4.1 6.9 8.2 11.7 18.3 21.5 30.2 29.5 5.1 3.4 10.5 6.5 16.2 8.3 11.1-4 21.9-10.8 32-20.4 8.7-8.3 16.6-17.3 21.4-28.6.5-1.2 1.5-2.4 2.5-3 2.5-1.4 4-3.4 4.7-6.1.9-3.1 3.1-4.3 6.4-4.5 7.9-.5 13.5 3.8 18.8 8.7.5.4.9 1 1.1 1.6 1.7 4.8 4.7 8.7 8.3 11.7v11.5c-6 1.7-11.7 3.2-17.2 4.7-1.6 3.4-2 6.3-2.1 10.2 1.7-1.2 2.7-1.8 3.6-2.5 4.6-3.1 9.5-5.3 15-6.6 4.7-1.1 8.5.2 12.1 3.1 1.2.9 2.1 2.1 3.2 3.2 1.3 1.4 2.8 2.4 5.2 1.7.3-.6.7-1.4 1.1-2.1-2.1-2.5-3.9-4.8-6.2-7.6-.8-.3-2.2-.8-3.5-1.6-1.4-.8-2.7-1.8-3.8-2.5v-10.4h11.5c1.9 4.9 3.8 10 5.8 15.4 7.3 2.2 14.5 4.3 22.5 6.7-1.4-10.8-2.6-20.8-3.9-31 2.7.6 4.8 1.2 6.9 1.4 2.2.2 4.5 0 7.3 0-1.5-1.4-2.3-2.8-3-4.3zm-202.2-5.1c-6.2-6-6.1-14.6 0-22.4v22.4zm51.8-101.6c1.3.3 2.4.5 3.7.8-.1 1.4-.2 2.6-.4 4.1-1.3-.3-2.2-.5-3.3-.8v-4.1zm4.7 10.6c-2 .1-3.1.2-4.3.2h-5.4c4.9-2.9 5.2-2.9 9.7-.2zm-14.7-.6v.3h-1.2v-.3h1.2zm-2.6 18.2h9.4c1.3-3.4 2.4-6.4 3.9-10.4 1.4 3.9 2.4 6.8 3.6 10.1 3.2.2 6.4.3 10.4.5-3.2 2.5-5.6 4.4-8.2 6.4 1 3.3 2 6.4 3.2 10.6-3.5-2.4-6.3-4.2-9.3-6.2l-8.4 5.8c.2-3.8 1.9-6.5 2.5-10-2.4-1.8-5-3.8-7.5-5.8.2-.3.3-.6.4-1zm-32.6.3h9.2c1.3-3.7 2.5-6.9 3.9-10.7 1.3 3.7 2.4 6.7 3.7 10.3h9.2l.3 1.2c-2.3 1.8-4.7 3.6-7.3 5.6l2.9 10c-3.7-1.2-5.8-4-9.1-5.5-2.4 1.6-5 3.4-8.5 5.7 1-3.8 1.8-6.8 2.7-10-2.4-1.9-4.8-3.8-7.3-5.7l.3-.9zm75.7 85.5c-.1 1.6-.2 3.4-.2 5.2 0 2.5.1 5 .2 7.5.4 5.5-2.2 9.5-6.7 13-1.2-.4-2.5-.8-3.8-1.2-.2-1-.4-1.7-.4-2.3.2-5 .5-10 .8-14.9.2-3-.5-5.6-2.7-8.5-.3 1.3-.6 2.1-.6 2.9 0 3.3.2 6.6.2 10 .1 3-.9 5.5-3.4 7.8h-5.2c-.1-1.3-.4-2.3-.3-3.2.4-7 .4-13.9-1.7-20.8-.7-2.4 0-5.2.1-7.8 0-2.1.4-4.3 0-6.3-.6-3.1-1.3-6.1-.6-9.3.4-2.3 1-5-1.3-7.2H152c-1.7 2.7-1.1 5.4-.6 8.2 1 4.7 1.7 9.5.5 14.5-1.2.8-2.4 1.6-3.1 2-1.3 3-2.5 5.4-3.2 7.9-.6 2-.7 4.2-1.1 6.3-1 6-.7 11.9.9 17.8.8 2.9.7 5.6-2 7.9h-3.8c-2.5-1.8-2.7-4.1-2.8-6.5-.2-4.5-.5-9-.8-13.4-.1-1.4-.6-2.8-.9-4.1-.4 0-.7.1-1.1.1v15.8c-4.6 2.3-7.4.9-8.1-3.8-.8-5.4-1.4-10.9-2-15.2-3.3-5.9-6.1-11-9-16.1-6.8-4.1-7.2-7.1-1.3-10.6.9-3.2 2-6.6 5.9-7.4.7-1.7 1.3-3 1.9-4.4 1.3-.9 2.5-1.8 3.9-2.8.5-6.7 4.9-9.6 11.4-10.2 2.5-3.5 5.6-6.2 10.7-5.5-.2-4.8.9-8.6 6.4-9.3 5.4 1.5 6.1 2.4 6.8 8.7 3.1.8 6.6 1.2 8.1 4.8 4.8.9 9.7 1.6 9.4 7.9 6.6 4.9 6.9 5.6 6.9 12.9 2.9 3.7 4.8 7.8 2.3 12 .6 3.8 1.3 6.8 1.5 9.9.2 4.8-1.3 6.5-6.9 7.7zm12.3-68.6c-3.6-2.4-6.2-4.2-9.1-6.1-2.6 1.7-5.2 3.4-8.7 5.8 1.1-3.9 1.9-6.7 2.9-9.9-2.4-2-4.9-4-8.2-6.7 4.2-.2 7.3-.3 10.5-.5 1.2-3.3 2.3-6.4 3.7-10.3 1.4 3.9 2.5 7 3.7 10.3 3.3.2 6.3.3 10.3.5-3.1 2.5-5.6 4.4-8.1 6.4.9 3.2 1.8 6.4 3 10.5zm10.8 56.1v-21.6c5.4 7.9 5.5 14.9 0 21.6z"/><path fill="#FFF" d="M172.8 76.6c.2.1.4.2.5.2l-.3-.3c-.1 0-.2.1-.2.1zm-.9-1.1c.3.4.6.8.9 1.1l.1-.1c-.3-.4-.6-.7-.9-1.1l-.1.1zm1.8-3.9h.4c-.1-.1-.2-.1-.2-.2l-.2.2zm-.9-1.1c.3.4.6.8.9 1.1l.1-.1c-.3-.4-.6-.7-1-1.1.1 0 0 .1 0 .1zm-3-17c.2.1.4.3.3.2.1.1 0-.1-.3-.2zM14.9 179.4c-.1.1-.1.2-.2.4l.3-.3-.1-.1zm276.9 21.1l.1-.1-.1.1z"/><path d="M855 208.4c-.4-7-.8-14-1-21-.5-15.6-1-31.3-1.2-46.9-.3-25-.7-50 .9-74.9l1.2-20.4c.2-2.4 0-4.7-1.9-6.7h-22.5c-3.4 3.3-2.3 7.2-2.2 11 .5 14.3 1.1 28.6 1.7 42.9 0 1.2-.2 2.4-.3 3.7-4.3-2.8-8.1-5.9-12.3-8.1-12.8-6.7-26.5-7.6-40.4-5.1-37 6.6-68.1 46.4-50.2 91.3 10.1 25.5 30.2 39.6 57.7 42.1 16.1 1.5 30.3-3 41.5-15.3.4-.5 1-.8 1.6-1.2 1.3 5.2-1.3 10.7 2.8 15.4H853c1.6-2.2 2.1-4.3 2-6.8zm-24.9-70.7c-.3 5.8-.1 11.6-.1 17.5h-.5c0 6.7-.1 13.3 0 20 .1 8.5-3.5 15.5-9.3 21.4-13.5 13.7-35.6 16.1-50.7.3-7-7.4-12-15.9-15.2-25.5-4.2-12.4-6.3-25.1-5.4-38.3.7-10.5 3.7-20.2 10.2-28.7 7-9.2 16.3-13.4 27.8-12.5 3.5.3 6.9.8 10.3 1.5 12.9 2.8 22 10.5 27.7 22.3 3.5 6.9 5.6 14.1 5.2 22zm-251.3 38.9c-.7.3-.8.4-1 .5-.7.7-1.3 1.5-2 2.2-11.4 13.3-25.6 21.1-43.3 21.6-11.3.3-21.8-2.3-30.4-10.3-6.9-6.5-10.9-14.9-15.5-23.4 31-14.3 61.4-28.5 92-42.6l.9-6.2c-3.6-5.2-7.1-10.5-10.6-15.7-5-7.4-11.8-12.6-19.8-16.3-10-4.7-20.7-5.9-31.7-5.3-18.1 1.1-33.2 8.2-44.9 21.9-17.8 20.8-20.5 44.9-12 69.9 11.5 33.4 45.3 47.5 76.8 41.8 15.9-2.9 28.9-11.6 41.1-22 1.3-5.5 2.8-10.7.4-16.1zM483 155.7c-1.8-14.4-.7-28.6 4-42.4 1.5-4.3 3.9-8.5 6.5-12.2 3.4-4.9 8.5-8 14.5-9.1 15-2.7 29.8 1.1 38.3 15.8 3.1 5.4 5.6 11 7.1 17 .2.9.2 1.9.4 3.2-23.2 10.2-46.4 20.3-69.8 30.6-.3-1.1-.9-2-1-2.9zm227.3 20.6c-2 2.2-3.5 3.9-5.1 5.5-13.1 14-29.1 20.6-48.4 18.7-12.3-1.2-22.2-6.7-29.1-17.1-2.8-4.2-5.2-8.6-7.7-12.9-.6-1-.9-2.1-1.4-3.5 30.7-14.2 61.2-28.3 91.7-42.5.3-2.2.5-4.2.8-6.2-3.6-5.3-7.2-10.5-10.7-15.8-4.6-6.8-10.8-11.7-18.1-15.4-10.7-5.4-22.1-6.9-34-6-21.8 1.6-38.8 11.7-50.3 30-11.9 18.9-13.3 39.7-6.3 60.6 11.3 33.8 44.7 48.6 77.1 43 15.2-2.6 27.8-10.9 39.5-20.5.9-.7 1.7-1.7 2-2.8 1.2-4.6 2.5-9.5 0-15.1zm-96.1-23.8c-.9-13.7.1-27.3 4.8-40.3 6.5-18 19.5-23.3 37.1-20.2 9.2 1.6 16.2 6.7 21.1 14.6 4 6.4 6.9 13.2 8.5 21.3-23.6 10.3-46.8 20.5-70.5 30.9-.4-2.5-.9-4.4-1-6.3z"/><path fill="#FFF" d="M270 25.4c-.7.4-1.5.8-2.2 1.1.7-.4 1.5-.7 2.2-1.1zm3-4.1c-.4.7-.8 1.5-1.1 2.2.3-.7.7-1.4 1.1-2.2z"/><path fill="#FFF" d="M272 23.4l-1.2 1.2c.4-.5.8-.8 1.2-1.2z"/><path fill="#FFF" d="M271 24.4l-1.2 1.2c.4-.5.8-.9 1.2-1.2z"/><path d="M684.7 242c-10.2-.1-20.2 10.1-20.2 19.4 0 9.9 9.7 19.6 19.7 19.2 10.6.1 19.7-8.6 20.2-18.7.4-10.3-10-19.7-19.7-19.9zm8.4 32.5c-3.7 3.6-9 4.2-13.4 1.9-9.2-5-11.8-18.3-5.2-26.4 4.6-5.6 11.7-6.3 17.2-1.6 4.3 3.7 6.5 8.3 6.4 14 .1 4.8-1.6 8.8-5 12.1zM80.4 59c-.6 2.3-1 4.1-1.5 6.1-7.6 2.6-16.2 4.2-16.2 15.1-.6-.5-1.1-.7-1.1-.9-2-7-6.7-10.4-13.7-11.1-1.9-.2-3.7-1-5.4-1.5-.7-2.2-1.2-3.9-1.8-5.9h-3.6c-2.5 3.5.5 5.7.9 8.2 3.4 1.7 7.3 1.5 9.3 5.3-.2 1-.4 2.1-.7 3.3 1.2 1.1 2.5 2.1 3.8 3.3 2.6.2 5.2.5 8 .7 1.4 1.9 2.8 3.8 4.1 5.6 3.6-6.4 3.8-6.6 10.9-8.1 1.4-1.1 2.8-2.1 4.3-3.2-.6-1-1.1-2-1.7-2.9 1.3-4.3 5.3-4.9 8.8-6.7.2-2.6.5-5 .7-8.1-2.3.3-3.8.6-5.1.8zM52.2 78.5c-.8-.2-1.8-1-2.1-1.7-.5-1.5.6-2.5 2.4-3 .7.5 1.5 1.1 2.4 1.7-.3 2.2-1.1 3.3-2.7 3zm19.9-2.7c-.4 1.8-1.8 2.2-3.8 1.4-.5-2.7-.5-2.7 1.4-4.4 1.8.3 2.8 1.3 2.4 3zm194.3-15.2c-.8-.4-2 .3-2.9.4-.7 2.2-1.2 3.9-1.8 5.8-2.2.5-4.3 1.3-6.4 1.5-6.3.7-10.4 3.9-12.4 10-.2.6-.4 1.1-.7 1.7-.4-.4-.8-.6-.8-.8-.3-7.1-4.8-10.5-11-12.5-1.9-.6-3.6-1.3-5.1-1.9-.6-2.3-1.1-4-1.6-5.7-1.8-1-3.2-1.6-5 .3.3 2.1.5 4.5.8 6.7 3.2 2 7.5 2.2 8.5 6.9-.5.9-1 2-1.5 2.9 1.7 1.2 3.1 2.3 4.6 3.4 2.3.4 4.8.9 6.5 2.2 1.8 1.4 2.9 3.7 4.2 5.5 1.5-2 3-3.9 4.2-5.5 3.1-.3 5.6-.5 7.9-.8 1.4-1.2 2.6-2.3 3.8-3.4-.3-1-.6-1.9-.9-2.8 1.8-4.4 6.4-3.9 9.4-5.7.7-1.8 1.4-3.5 2.2-5.7-.5-.6-1-2-2-2.5zm-33.7 16.9c-.7-.2-1.5-.9-1.7-1.6-.6-1.8.5-2.7 2.5-3.2.7.7 1.6 1.5 2.3 2.1-.3 2.2-1.4 3.1-3.1 2.7zm19.9.6c-2.1.9-3.5.6-4.4-2 .6-.8 1.3-1.6 2-2.4 3 .5 3.3 2 2.4 4.4zM168.2 7.3c-16.4-2.3-32-4.6-48.2 0 3.9 4.2 9.5 6.1 12.7 10.2l-.8 4.2c2.7.8 5.2 1.6 7.8 2.3 1 1.5 2.1 3 3.7 5.4 1.4-6.9 7.9-4.1 11.1-7.5.2-1.2.4-2.4.7-4 2.2-1.1 4.4-2.2 6.6-3.2l-.4-.4c2.1-2.2 4.1-4.2 6.8-7zm-31 14.2c-1-.9-1.6-1.5-2.9-2.6.9-.8 1.5-1.2 2.3-1.9 1 .9 1.7 1.5 3 2.7-.9.7-1.5 1.2-2.4 1.8zm12.9.8c-.8-.8-1.4-1.5-2-2.2 1.3-2.2 2.5-2.2 4.1.2-.7.8-1.3 1.3-2.1 2zm6.2-7.9c-1.2.4-2.6.6-3.9.7-4.1.5-6.8 2.4-7.6 6.7-.1.6-.5 1.1-1.4 2.7-1.4-3.6-2.4-6.1-3.2-8.2-3.3-2.4-7.2-2.2-9.9-5.8 9.9-2.2 19.2-2.9 29.1 1.6-1.4 1.1-2.2 1.9-3.1 2.3zm-30.4 181.1c2.5-2.5 5.2-5.8 9.2-3.2 3 2 3.1 5.2 2.3 8.4-4.5 3.2-6.7 2.7-7.4-1.8 1.6-.2 3.1-.4 4.8-.6-.2-2.5-1.7-2.8-3.5-2.8-2 0-3.6 1.1-4.2 3-1.2 3.5.3 6.1 3.3 7.9.1 3.2-1 5.6-3.3 7.5-3.3 1.1-5.3-.4-6.6-3.1-.6-1.2-1.1-2.4-1.4-3.7-.7-2.9-1.7-5.3-4.5-6.8-.9-.5-1.4-1.9-2.6-3.6 2.7-.7 4.5-1.2 6.9-1.8 2.1-1.5 3.9-3.9 3.9-7.1 0-3.5 1.3-5.7 4.9-6.7.2-7.2 4.1-10.6 11.1-10.8 2.6-3.5 5.5-6.4 11-4.4.1 1.7.1 3.6.2 5.6v6.2c-3.1 3.9-2.7 8.5-2 13.2.5 3.6.6 7.2.9 10.8-1.6 1.1-2.8 1.9-3.6 2.4-1.2 3.7-2.2 7-3.5 11 0 3.9-.2 8.7.1 13.5.2 3.3.8 6.6 1.4 9.8.4 2.3.7 4.3-1.9 5.4-1.7-.2-2.3-1.3-2.3-2.8-.1-3-.4-6-.2-9 .4-7.4-1.8-13.8-6.9-19 .5-2.3.9-4.4 1.3-6.5.3-.2.5-.4.8-.6 7.1-2.9 8.9-8.8 4.8-15.1-2.8-4.3-11.1-4.4-13.8 0-.8 1.6-1.5 3.2.8 4.7zm32-29.9c1.8-.1 3.4-.2 4.9-.3 1.3 1.5 2.4 2.8 3.4 4 7.6 1.2 8 1.4 8.8 7.2 2.3 2.2 5.7 3.4 6.7 7.4-.2.9-.6 2.2-1 3.6l4.5 7.2c-.9 1.7-1.5 3.1-2.3 4.5 1.3 4.1 3.9 8.1 2.2 13.4-1.2-.1-2.5-.2-4.3-.3v-10.6c-2.3-.6-2.7.6-2.7 1.8 0 4 .1 8 .2 12 .2 5.3.6 10.6.6 15.9 0 2.9-1.4 5.3-4.4 7.4-.1-1.6-.3-2.6-.3-3.6.1-3 .4-6 .6-9 .2-3.7-.6-7.3-2.3-10.6-1-2.1-2.2-4.2-2.7-6.4-1.2-5.1-2-10.2 1.7-14.8.4-.5.3-1.4.4-2.4-5.4 2.3-6 4.8-4.2 17-2.9 5.9-1.1 12.5-1.8 18.9-.3 3.1-.2 3.1-2.5 5.4-.2-.2-.5-.4-.6-.6l-2.1-24.3c-.1-.8-.3-1.8 0-2.5 1.8-3.9.8-7.8 0-11.7-.4-1.9-.4-4.1.2-5.9 1.1-4 .1-7.2-3.1-9.7.1-4.3.1-8.4.1-13z"/><path d="M126.1 217.8c1.7-.8 3-1.5 4.5-2.2 2.2 3.6.5 7.2.6 10.7.2 3.6.5 7.1.8 10.8-3.1 0-3.9-1.7-4.2-3.8l-.3-2c-.4-4.3-.9-8.8-1.4-13.5zm25.1-60.5c1.8-1.6 3.6-1.8 4.9-.1.6.8.7 2.5.3 3.5-.6 1.5-2.1 2-3.7 1.3-2-.9-2.2-2.6-1.5-4.7z"/></svg>