<svg xmlns="http://www.w3.org/2000/svg" width="2088.1" height="256.7">
<path fill="#333" d="M753.6 218.4h9.7v28.1h17v8.6h-26.7v-36.7m46.3 37.5c-2.7 0-5.3-.5-7.6-1.5s-4.3-2.3-6-4c-1.7-1.7-3-3.7-4-6.1-.9-2.4-1.4-4.9-1.4-7.7s.5-5.4 1.4-7.7c1-2.4 2.3-4.4 4-6.1 1.7-1.7 3.7-3 6-4s4.9-1.4 7.6-1.4c2.7 0 5.3.5 7.6 1.4 2.3 1 4.4 2.3 6 4 1.7 1.7 3 3.7 4 6.1.9 2.4 1.4 4.9 1.4 7.7s-.5 5.4-1.4 7.7c-1 2.4-2.3 4.4-4 6.1-1.7 1.7-3.7 3-6 4-2.3 1.1-4.9 1.5-7.6 1.5m0-9.1c1.4 0 2.7-.3 3.8-.8 1.1-.5 2.1-1.3 2.8-2.2.8-.9 1.4-2 1.8-3.2.4-1.2.6-2.6.6-4s-.2-2.7-.6-4c-.4-1.2-1-2.3-1.8-3.2-.8-.9-1.7-1.6-2.8-2.2-1.1-.5-2.4-.8-3.8-.8s-2.7.3-3.8.8c-1.1.5-2.1 1.3-2.8 2.2-.8.9-1.4 2-1.8 3.2-.4 1.2-.6 2.6-.6 4s.2 2.7.6 4c.4 1.2 1 2.3 1.8 3.2.8.9 1.7 1.6 2.8 2.2 1.1.6 2.4.8 3.8.8zm30.8-19.9h-11.2v-8.5h32.2v8.5h-11.2v28.2h-9.8v-28.2m33.5 0h-11.3v-8.5h32.2v8.5H874v28.2h-9.8v-28.2m23.2-8.5h26.4v8.4h-16.7v5.7h13.7v7.9h-13.7v6.3h17.8v8.4h-27.5v-36.7m31.5 0H934c2 0 3.8.3 5.4.8 1.6.5 3 1.3 4.1 2.3 1.1 1 2 2.3 2.6 3.8.6 1.5.9 3.2.9 5.2 0 2.4-.5 4.5-1.6 6.3-1.1 1.8-2.5 3.2-4.2 4.3l7.9 14.1h-10.4l-6.2-12.5h-4.1v12.5h-9.5v-36.8m14.2 16.6c1.3 0 2.3-.4 3.1-1.2.8-.8 1.2-1.8 1.2-3.2 0-1.4-.4-2.5-1.2-3.3-.8-.8-1.9-1.2-3.2-1.2h-4.7v8.8h4.8zm26.6 5.4l-13-22h11.2l7.1 13.1 6.7-13.1h10.8l-13 22v14.7h-9.8v-14.7m32.7-22h25.5v8.5h-15.8v7.1h12.3v8h-12.3v13.1h-9.7v-36.7m27.8 0h9.7v21.5c0 2 .5 3.7 1.4 4.9.9 1.3 2.5 1.9 4.6 1.9 2.2 0 3.7-.6 4.6-2 .9-1.3 1.4-2.9 1.4-4.9v-21.5h9.8v22.3c0 2.3-.4 4.5-1.2 6.3-.8 1.9-1.9 3.5-3.3 4.8-1.4 1.3-3.1 2.3-5 3-1.9.7-4 1-6.3 1s-4.4-.3-6.4-1c-1.9-.7-3.6-1.7-5-3s-2.5-2.9-3.3-4.8c-.8-1.9-1.2-4-1.2-6.4v-22.1m37 0h8.8l14.1 20.5v-20.5h9.6v36.7h-8.3l-14.6-21.1v21.1h-9.6v-36.7m37.9 0h14.1c2.8 0 5.4.4 7.8 1.1 2.4.7 4.5 1.8 6.2 3.4 1.8 1.5 3.1 3.4 4.1 5.8 1 2.3 1.5 5.1 1.5 8.3 0 3-.5 5.7-1.5 7.9-1 2.3-2.4 4.1-4.1 5.7-1.8 1.5-3.8 2.7-6.3 3.4-2.4.7-5 1.1-7.8 1.1h-14v-36.7m13.6 28.1c3.2 0 5.6-.9 7.4-2.7 1.7-1.8 2.6-4.2 2.6-7.1 0-1.5-.2-2.8-.6-4-.4-1.2-1-2.2-1.8-3.1-.8-.9-1.9-1.5-3.1-2-1.2-.5-2.7-.7-4.4-.7h-4v19.5h3.9zm23.7-28.1h26.4v8.4H1142v5.7h13.6v7.9H1142v6.3h17.8v8.4h-27.6v-36.7m31.5 0h14.1c2.8 0 5.4.4 7.8 1.1 2.4.7 4.5 1.8 6.2 3.4 1.8 1.5 3.1 3.4 4.1 5.8 1 2.3 1.5 5.1 1.5 8.3 0 3-.5 5.7-1.5 7.9-1 2.3-2.4 4.1-4.1 5.7-1.8 1.5-3.8 2.7-6.3 3.4-2.4.7-5 1.1-7.8 1.1h-14v-36.7m13.7 28.1c3.2 0 5.6-.9 7.4-2.7 1.7-1.8 2.6-4.2 2.6-7.1 0-1.5-.2-2.8-.6-4-.4-1.2-1-2.2-1.8-3.1-.8-.9-1.9-1.5-3.1-2-1.2-.5-2.7-.7-4.5-.7h-4v19.5h4zM834.9 22.8C830.1 12.3 826 7 822.6 7c-4.8 0-7 6-7 11.1 0 6 2.2 14.4 6.5 25.7 4.4-8.7 8.7-15.7 12.8-21z"/><path d="M875.5 130.8c-7.5 0-11.3-5-12.3-10.8-4.1 4.8-9.4 6.4-14.9 4.7-6-1.9-10.1-7.6-10.1-16.8 0-12.5 7-28.4 14.9-35.1l-3.7-8.2c-.5 1.1-3.8 7.7-5.5 10.4l-5-2.1s3.5-7.6 4.2-9.2c7.6-16.1 16.3-30.9 16.3-40.7 0-4.1-2.8-6.9-5.2-7-7.5-.2-18.7 16-29.8 39.8-8.6 18.8-13.7 32.3-14.4 42.2l-5.1 1.9c-6.7-9.8-16.6-17.1-28.6-17.1-10.1 0-15.6 4.8-15.6 8.2 0 3.1 3.1 4.3 4.8 4.8 14.7 3.9 20.4 15.9 25 33.9 6.7 26.2 24.1 43.8 49.3 43.8 26.2 0 51.2-22.6 50-52.9-3.3 6.4-7.7 10.2-14.3 10.2zm-59 5.5l6.2-2.9c6.1 18.1 23.8 23 40.1 14.5l2.5 6.2c-21.3 12.2-41.2 4.4-48.8-17.8z"/><path d="M844.5 108c0 8.2 3.6 11.3 7.9 11.2 5.5 0 11.4-7.4 15.5-19.4 5-12.5 4.7-23-.4-25.3-10.3-4.7-23 18.1-23 33.5zm15-.2c0 3.1-2.5 5.6-5.6 5.6-3.1 0-5.6-2.5-5.6-5.6 0-3.1 2.5-5.6 5.6-5.6 3.2 0 5.6 2.5 5.6 5.6zm25.9-19.5c-5.3 0-12.3 10.8-15 21.2-1.7 5.8-2.1 15.3 5.1 15.3 7.6 0 13.7-11.2 15.4-21.3 1.5-8.7-.7-15.2-5.5-15.2zm-7.4 31.3c-2.8 0-5-2.2-5-5s2.3-5 5-5c2.8 0 5 2.3 5 5 .1 2.7-2.2 5-5 5zm-7.9-96.4c.4.4.9.8 1.5 1 .6.2 1.2.4 1.9.4s1.3-.1 1.9-.4c.6-.3 1.1-.6 1.5-1 .4-.4.8-1 1-1.5.2-.6.4-1.2.4-1.9s-.1-1.3-.4-1.9c-.3-.6-.6-1.1-1-1.5-.4-.4-.9-.8-1.5-1-.6-.3-1.2-.4-1.9-.4s-1.3.1-1.9.4c-.6.3-1.1.6-1.5 1-.4.4-.8.9-1 1.5-.2.6-.4 1.2-.4 1.9s.1 1.3.4 1.9c.2.6.5 1.1 1 1.5zm-.1-4.9c.2-.5.5-.9.8-1.2.3-.4.7-.6 1.2-.8.5-.2 1-.3 1.5-.3s1 .1 1.5.3c.5.2.9.5 1.2.8.3.4.6.8.8 1.2.2.5.3 1 .3 1.5 0 .6-.1 1.1-.3 1.5-.2.5-.5.9-.8 1.2-.3.4-.7.6-1.2.8-.5.2-1 .3-1.5.3s-1.1-.1-1.5-.3c-.5-.2-.9-.5-1.2-.8-.3-.3-.6-.8-.8-1.2-.2-.5-.3-1-.3-1.5s.1-1 .3-1.5z"/><path d="M872.8 20.3h.8l1.1 1.9h1.1l-1.2-2c.3-.1.6-.3.7-.6.2-.3.2-.5.2-.9 0-.2 0-.3-.1-.5s-.2-.3-.3-.5c-.1-.1-.3-.3-.5-.3-.2-.1-.5-.1-.8-.1h-1.9v4.9h.9v-1.9zm0-2.2h.9c.3 0 .5.1.7.2.1.1.2.3.2.5s-.1.4-.2.6c-.1.1-.3.2-.6.2h-.9v-1.5zM1182 130.6h15.2c1.3-60.9-41.1-115.8-103-128.1-64.2-12.8-126.7 24.9-146.5 85.6h16.1c8.5-22.5 23.7-41.1 42.8-53.9 24-16 54.1-22.9 84.6-16.8 30.6 6.1 55.7 23.9 71.7 47.9 12.8 19 19.7 41.6 19.1 65.3m-235.1 5.8h6.1v35.7h-6.1zm22.6 14.1c-2.2 0-3.9.7-5.3 2.3-1.4 1.5-2.1 3.5-2.1 5.8 0 2.4.7 4.3 2.1 5.8 1.4 1.5 3.2 2.2 5.5 2.2s4.2-.7 5.6-2.2c1.4-1.5 2.1-3.5 2.1-6 0-2.3-.7-4.2-2.2-5.6-1.5-1.5-3.4-2.3-5.7-2.3m-13.8 8c0-3.9 1.4-7.2 4.1-10 2.8-2.8 6-4.2 9.9-4.2 4 0 7.4 1.4 10.2 4.1 2.8 2.7 4.1 6 4.1 9.9 0 4.1-1.4 7.5-4.1 10.3-2.7 2.8-6.1 4.1-10.1 4.1-3.9 0-7.3-1.4-10-4.1-2.8-2.7-4.1-6.1-4.1-10.1m33.1 13.6v-21.3h-4.1v-5.6h4.1v-8.7h6.2v8.7h13v5.6h-13v21.3h-6.2"/><path d="M1004.2 172.1v-21.3h-4.1v-5.6h4.1v-8.7h6.2v8.7h4.2v5.6h-4.2v21.3h-6.2m32.6-16.4c-.5-1.8-1.4-3.2-2.7-4.1-1.3-1-2.9-1.4-4.8-1.4-1.7 0-3.2.5-4.5 1.6-1.3 1-2.2 2.4-2.7 4h14.7m-14.8 4.8c.2 1.9.9 3.4 2.3 4.6 1.4 1.1 3.1 1.7 5.2 1.7 1.4 0 2.6-.3 3.8-.9 1.1-.6 2-1.4 2.6-2.5h6.8c-1.1 2.9-2.8 5.2-5.2 6.8-2.3 1.6-4.9 2.5-7.9 2.5-3.9 0-7.3-1.4-10-4.2-2.7-2.8-4.1-6.1-4.1-10 0-3.9 1.4-7.3 4.1-10.1 2.7-2.8 6-4.2 9.7-4.2 4 0 7.4 1.4 10.2 4.2 2.7 2.8 4.1 6.3 4.1 10.6v1.5H1022zm36.5-10c-2.4.2-4 .8-5 1.9-.9 1-1.4 3-1.4 5.9v13.7h-6.3v-26.9h5.9v3.1c1-1.2 2-2.1 3-2.6 1.1-.5 2.3-.8 3.8-.9v5.8m2.6-6h6.6l6.6 19.4 7.5-19.4h6.6l-14.8 36.2h-6.6l3.8-9.5-9.7-26.7m-108-49.9v11.8c.9-1.2 2-2.1 3.2-2.7 1.2-.6 2.5-.9 4.1-.9 3.4 0 5.9 1 7.8 3.1 1.8 2.1 2.7 5 2.7 8.9v15.5h-6.3v-13.9c0-2.6-.5-4.5-1.4-5.7-.9-1.2-2.3-1.8-4.2-1.8-2.1 0-3.6.7-4.5 2.2-.9 1.5-1.3 4-1.3 7.6v11.6h-6.1V94.7h6m41.5 19.3c-.5-1.8-1.4-3.2-2.7-4.1-1.3-1-2.9-1.4-4.8-1.4-1.7 0-3.2.5-4.5 1.6-1.3 1-2.2 2.4-2.6 4h14.6m-14.8 4.8c.2 1.9.9 3.4 2.3 4.6 1.4 1.1 3.1 1.7 5.2 1.7 1.4 0 2.6-.3 3.7-.9 1.1-.6 2-1.4 2.6-2.5h6.8c-1.1 2.9-2.8 5.2-5.1 6.8-2.3 1.6-5 2.5-7.9 2.5-4 0-7.3-1.4-10-4.1-2.7-2.8-4.1-6.1-4.1-10 0-3.9 1.4-7.3 4.1-10.1 2.7-2.8 6-4.2 9.7-4.2 4 0 7.4 1.4 10.2 4.2 2.8 2.8 4.1 6.3 4.1 10.6v1.5h-21.6zm36.9-10c-2.4.2-4 .8-5 1.9-1 1.1-1.4 3-1.4 5.9v13.7h-6.3v-26.9h5.9v3.1c1-1.2 2-2.1 3-2.7 1.1-.6 2.3-.8 3.8-.9v5.9m3.2-5.4h6.1v26.9h-6.1v-26.9zm6-2.8h-6.1v-6h6.1v6zm8.1 29.7v-21.3h-5.1v-5.6h5.1v-8.7h6.2v8.7h5.3v5.6h-5.3v21.3h-6.2m18.3-13.7c0 2.3.8 4.2 2.3 5.7 1.5 1.5 3.5 2.3 5.8 2.3 2.1 0 3.9-.8 5.5-2.3 1.5-1.5 2.3-3.3 2.3-5.4 0-2.3-.8-4.2-2.3-5.7-1.5-1.5-3.4-2.3-5.7-2.3-2.2 0-4 .7-5.5 2.2-1.6 1.5-2.4 3.3-2.4 5.5m15.9 13.7l.1-3.7c-.9 1.5-2.1 2.6-3.4 3.3-1.4.7-3.1 1.1-5 1.1-4 0-7.3-1.4-10-4.1-2.7-2.7-4-6.1-4-10.1s1.3-7.3 4-10c2.6-2.7 5.9-4 9.9-4 1.7 0 3.3.3 4.7 1 1.4.7 2.7 1.8 3.9 3.2l-.1-3.5h6.1v26.9h-6.2zm14.9-13.9c0 2.3.8 4.3 2.4 5.9 1.6 1.6 3.6 2.4 5.9 2.4 2.4 0 4.4-.8 6-2.3 1.6-1.6 2.4-3.4 2.4-5.6 0-2.4-.8-4.4-2.4-5.9-1.6-1.6-3.6-2.4-6-2.4s-4.4.8-6 2.3c-1.5 1.4-2.3 3.3-2.3 5.6m16.8-13h5.7v22.4c0 4.7-1.2 8.3-3.8 11-2.5 2.7-5.9 4-10.2 4-3.3 0-6-.8-8.2-2.3-2.2-1.5-3.8-3.8-4.8-6.8h6.1c.7 1.2 1.6 2.2 2.8 2.8 1.2.7 2.6 1 4.2 1 2.4 0 4.3-.9 5.9-2.6 1.6-1.7 2.4-3.9 2.4-6.6v-.3c-1.2 1.4-2.6 2.5-4.2 3.2-1.5.7-3.3 1.1-5.1 1.1-3.9 0-7.2-1.3-9.8-4-2.6-2.7-3.9-6-3.9-9.9 0-3.8 1.3-7.1 3.9-9.8 2.6-2.7 5.8-4 9.6-4 1.9 0 3.7.4 5.2 1.1 1.6.7 3 1.8 4.3 3.3l-.1-3.6zm29.4 10.5c-.5-1.8-1.4-3.2-2.7-4.1-1.3-1-2.9-1.4-4.8-1.4-1.7 0-3.2.5-4.5 1.6-1.3 1-2.2 2.4-2.6 4h14.6m-14.7 4.8c.2 1.9.9 3.4 2.3 4.6 1.3 1.1 3.1 1.7 5.2 1.7 1.4 0 2.6-.3 3.8-.9 1.1-.6 2-1.4 2.6-2.5h6.8c-1.1 2.9-2.8 5.2-5.1 6.8-2.3 1.6-5 2.5-7.9 2.5-4 0-7.3-1.4-10-4.1-2.7-2.8-4.1-6.1-4.1-10 0-3.9 1.4-7.3 4.1-10.1 2.7-2.8 6-4.2 9.7-4.2 4 0 7.4 1.4 10.2 4.2 2.7 2.8 4.1 6.3 4.1 10.6v1.5h-21.7zm-.9 26.3v5.6h-4.5v21.3h-6.1v-21.3h-3.2v-5.6h3v-.7c0-2.8.8-5 2.3-6.4 1.6-1.4 3.9-2.1 7.1-2.1h1.3v5.6h-.5c-1.4 0-2.4.2-3 .7-.6.5-.9 1.3-.9 2.4v.4h4.5m3 .1h6.3v12.4c0 3.5.4 5.8 1.3 7.1.8 1.3 2.3 2 4.3 2 2.1 0 3.6-.7 4.5-2.2.9-1.5 1.4-4 1.4-7.6v-11.6h6.2v26.9h-6.2v-2.9c-.9 1.2-2 2.1-3.2 2.7-1.2.6-2.5.9-4 .9-3.4 0-5.9-1-7.7-3.1-1.8-2.1-2.7-5.1-2.7-8.9v-15.7m32.8 0v3c.9-1.2 1.9-2.1 3.1-2.7 1.1-.6 2.5-.9 3.9-.9 1.9 0 3.5.4 4.9 1.1 1.4.7 2.6 1.8 3.5 3.3.6 1 1.1 2.1 1.4 3.4.3 1.2.4 3.1.4 5.4v14.3h-6.2v-12c0-3.7-.4-6.1-1.2-7.5-.8-1.3-2.2-2-4.2-2s-3.5.7-4.3 2.2c-.9 1.5-1.3 4-1.3 7.6V172h-5.9v-26.9h5.9m34.2 5.6c-2.3 0-4.2.8-5.7 2.3-1.5 1.6-2.3 3.4-2.3 5.7 0 2.3.8 4.1 2.3 5.7 1.5 1.5 3.4 2.3 5.6 2.3 2.2 0 4-.8 5.5-2.2 1.5-1.5 2.2-3.4 2.2-5.6 0-2.3-.7-4.2-2.2-5.8-1.5-1.6-3.3-2.4-5.4-2.4m13.6-14.3v35.7h-6.1l.1-2.9c-1.2 1.2-2.4 2.1-3.8 2.7-1.4.6-2.9.9-4.6.9-3.9 0-7.1-1.4-9.7-4.1-2.6-2.7-4-6.1-4-10.1 0-3.9 1.3-7.2 4-9.9 2.6-2.7 5.8-4.1 9.6-4.1 1.6 0 3.1.3 4.5.8s2.7 1.4 3.9 2.6c0-.3-.1-.7-.1-1.1v-10.4h6.2z"/><path fill="#010101" d="M310.4 135c0 .3 0 .3 0 0zm282.1.3v14.5h-20.6v10.5h19.7v14.8h-19.7v11.4h20.3v15.1h-37.6v-12h-.3c0 .3-.3.6-.3.9-2.8 6.8-7.7 10.5-14.5 11.7-5.8 1.2-11.7.9-17.2-.6-7.4-2.5-12-7.4-13.5-15.4-2.2 7.4-6.8 12.3-13.2 15.1-6.5 2.8-13.2 2.8-20 .9-10.8-2.8-16-10.8-16.9-25.3-5.9 17.9-18.2 27.1-36.6 26.2-16.9-.9-27.7-10.8-32.3-27.4v26.2h-16.9v-26.5H351v26.5h-17.2V135H351v25h21.6v-25h-15.1c5.2-13.5 10.5-26.8 15.7-40-4 4.6-8.9 8.3-14.8 9.9-4.3.9-8.9 1.5-13.2 1.8-3.7.3-7.4 0-11.1 0l-.3.3v27.7H311c0-.3 0-.6-.3-.9v-90h1.8c10.5 0 20.6-.3 31.1 0 6.5.3 13.2.3 19.4 3.4 8.3 4 13.2 10.8 15.1 20 .9 4.3.9 8.6.9 13.2.3-.3.3-.9.6-1.5.3-.3.6-.9.6-1.5 4-10.5 8.3-20.9 12.3-31.7.6-1.5 1.2-2.2 3.1-2.2h15.7c1.5 0 2.2.6 2.8 1.8 10.2 26.2 20 52.7 30.2 78.8.3.3.3.9.9 1.2V43.6h1.9c10.2 0 20.3-.3 30.5 0 6.5.3 12.9.6 19.4 3.1 9.5 3.7 14.5 11.1 16.6 20.6 1.5 6.5 1.2 12.6-1.2 19.1-2.2 6.2-6.5 10.8-12.3 13.9-.6.3-1.2.6-2.2 1.2 5.9 10.5 12 21.2 17.9 31.7h.3V43.9h23.1v40.6c.6-.9.9-1.2 1.2-1.5 8-12.3 15.7-24.9 23.7-37.3.9-1.2 1.8-1.8 3.4-1.8h22.2c-.6.9-.9 1.5-1.2 2.2l-27.7 41.6c-.9 1.2-.6 1.8 0 3.1 10.5 14.5 20.9 28.9 31.1 43.1.3.5.6 1.1.6 1.4zM349.2 65.4c-5.2-.9-10.5-.9-15.7-1.2v21.9c4.9-.3 9.9 0 14.8-.6 5.5-.9 7.7-4 8.3-9.2.3-5.6-2.2-9.6-7.4-10.9zm43.1 37.9h20c-3.4-10.5-6.8-20.6-10.2-31.4-3.3 10.8-6.7 20.9-9.8 31.4zm29.9 30.2c-1.2-3.7-2.2-7.1-3.4-10.5 0-.3-.9-.9-1.5-.9h-29.6c-.6 0-1.5.6-1.5.9-1.2 4-2.5 7.7-3.7 12h6.8v26.5c4.2-16.9 15.6-25.9 32.9-28zm17.8 26.2c-3.1-6.8-8.3-10.8-17.6-11.1-1.5.3-4.6.9-7.1 2.5-10.2 5.5-12.6 20.3-5.2 29.9 6.2 8 18.2 9.5 24.9 3.1 6.9-6.3 9-15.8 5-24.4zm18.5-24.7h-23.4c12 4.3 19.7 12.6 23.4 24.9V135zm34.2 1.9c0-.6 0-1.2-.3-1.8L473 99c-1.2-2.5-2.8-4.9-4-7.4 3.4-.3 6.8-.3 9.9-.6 5.9-.6 9.9-2.2 12-8 2.8-7.7-.6-16.6-9.9-17.9-4-.6-8-.3-12.3-.6V135h7.1v41.6c0 1.5 0 3.4.3 4.9.9 4 4 6.5 8 6.5 4.3 0 6.8-1.8 7.7-6.2.6-2.5.6-5.2.6-8 .3-12.3.3-24.6.3-36.9zm16.9 11.7c2.5-6.8 7.1-10.8 14.2-13.5h-14.2v13.5zm25.3 28.9c-3.4-1.5-6.5-3.1-9.9-4.3-6.8-2.8-12.3-6.5-15.1-13.5v19.7H525c.6 2.2.9 4 1.8 5.9 1.2 2.8 4 3.7 7.1 3.1 2.2-.3 4.3-2.8 4.9-4.9.1-2.6-.8-4.4-3.9-6zm19.7-23.1h-16.3c-.3-.9-.3-1.8-.6-2.8-.9-2.5-2.8-3.7-4.9-3.7-2.2 0-4.3.9-5.5 3.1-1.5 2.2-.6 4.6 2.2 6.2 4 2.2 8 4 12.3 5.9 5.5 2.8 10.5 5.9 13.5 12-.7-7.1-.7-13.9-.7-20.7zm9.5-19.4c-8.3-13.2-16.3-25.9-24.9-39.1v38.5c7.7 2.2 13.2 6.5 15.7 14.5v-14.2c3.1.3 5.9.3 9.2.3zM218 189.2c-3.7 8-10.2 12.3-18.8 13.5-6.5.9-12.6.3-18.2-2.8-6.8-3.7-11.1-9.5-11.4-17.2-.6-9.5-.3-19.4-.6-28.9v-3.1h-12v51.4h-16.9v-51.4h-10.8c1.2 3.4 2.8 6.8 4 10.5h-17.2c-.6 0-1.2-.9-1.5-1.5-3.1-6.2-7.7-9.9-14.8-10.2-7.7-.3-13.6 3.7-16.6 10.8-3.7 8.6-1.8 18.2 4.9 24.3 7.1 6.5 19.7 5.9 25.9-5.2.9-1.5 1.5-2.2 3.4-2.2h15.4c-3.4 14.2-15.1 24-28.6 25.9-18.8 2.5-34.2-8.9-39.1-25.2v24.3H48v-32.9h-.3c-.3.3-.3.6-.6.9-3.7 6.8-9.2 10.2-16.6 10.8-4.3.3-8.9.3-13.6.6v20.6H0V44.8h22.8V79h28c1.5 0 2.2-.6 2.2-2.2v-32h43.7c1.5 0 2.2.3 2.5 1.8 4 11.1 8.3 22.2 12.3 33.3 0 .3.3.6.6 1.2 1.5-4.3 3.1-8.3 4.6-12.3 2.8-7.4 5.5-14.8 8.3-22.5.3-.9.9-1.5 1.8-1.5h55.7c8.6 0 16.9 1.5 24.6 6.2 9.2 5.8 15.1 14.2 17.9 24.6 3.1 12.3 2.5 24.9-2.5 36.6-4.9 11.7-14.5 18.5-26.5 21.6-3.4.9-6.8 1.2-10.2 1.8V176c0 2.5.6 4.9 1.2 7.4.9 3.1 4 5.2 7.4 4.9 4 0 6.5-1.8 7.7-5.2.3-1.2.6-2.8.6-4V136h16.9v40c.6 4 .6 8.6-1.6 13.2zM28.9 150.7c-3.7-1.2-7.7-.6-11.7-.9v16c3.7-.3 7.4-.3 10.8-.6 3.4-.3 5.5-3.1 5.9-6.2.3-4.6-1.3-7-5-8.3zm24.4-49.8c0-1.9-.6-2.2-2.5-2.2H23.4v36c10.2 0 19.7 1.5 24.6 12.3.3 0 .3-.3.3-.3V135H53v-1.8c.3-10.8 0-21.6.3-32.3zm47.4 32v-29.6c0-.9-.3-1.8-.6-2.5C92.7 84.5 85 68.5 77.3 52.2c-.3-.6-.6-.9-1.2-1.8V135H65.3v24.6c5.5-17.2 17.6-25.9 35.4-26.2v-.5zm47.7-83.2c-.6.9-.6 1.2-.9 1.8-7.4 16-14.8 31.7-22.2 47.7-.9 2.2-1.5 4.3-1.5 6.8v29h-13.5c6.5 2.5 11.7 6.2 16.6 11.1v-11.4h21.6v-85zm37.3 64.7c6.5-.6 11.7-3.4 14.8-9.2 4.9-9.5 4.9-19.7.6-29.6-2.8-6.2-7.4-9.9-14.2-10.5-4.9-.3-9.9 0-14.8 0v48.3c0 1.2.6 1.5 1.5 1.5 3.8-.2 8.1-.2 12.1-.5zm124.7 20.9c0 4 0 8-.3 12v2.8h-20.3v10.2h19.7v15.1h-19.7v11.4h20.3v15.1h-50.5c-1.5 0-2.2-.6-2.8-1.8-4.9-9.5-10.2-18.8-15.4-28.3-.3-.6-.6-1.2-.9-2.2 3.1-.3 5.9-.3 8.6-.6 5.5-.6 7.7-3.7 8-9.2.3-4.6-2.2-8.3-7.7-9.2-3.1-.6-6.2-.3-9.5-.6v51.7H223V135h6.2V44.2h51.1v20.3h-28v8c0 1.8-.3 4.3.6 5.5.9.9 3.4.3 5.5.3h21.2v20.3h-25.3c-1.5 0-2.2.3-2.2 2.2v13.5h28.3v20.3H309c.8.4 1.1.7 1.4.7zm-37.9 31.1c-2.2 4.9-5.9 8.3-10.8 10.8 3.4 6.2 7.1 12.3 10.8 19.1v-29.9zm0-31.4h-20.9c9.5.9 16.9 4.3 20.9 13.5V135zm73 107.2c-2.5 4.3-5.5 8.3-8.3 12.3-.3.3-.9.9-1.5.9h-8.3c2.5-3.4 4.3-6.2 6.5-8.9-5.9-.3-9.2-2.5-10.5-7.4-2.2-8.9 4-15.4 12.3-15.1 10.7.3 14.1 10.8 9.8 18.2zm-6.2-7.1c0-2.5-1.5-4.3-4-4.3-2.2 0-4.3 1.8-4.3 4 0 2.5 1.8 4.3 4 4.3 2.8 0 4.3-1.5 4.3-4zm74.3 8.6h3.4v5.9c-.9 0-1.8 0-3.1.3v5.2h-7.7v-5.2h-13.5c-.3-3.1-.3-5.9 1.5-8.6 3.7-4.9 7.4-10.2 10.8-15.4.6-.9 1.5-1.5 2.8-1.5h5.9v19.3zm-7.1-9.5c-2.2 3.4-4 6.5-5.9 9.5h5.9v-9.5zm-223.6-9.9c-.6 0-.9.6-1.5.6 0 .3 0 .3.3.6.9 0 2.2 0 3.4.3-1.8 9.2-3.7 18.5-5.5 27.4-1.2 1.2-3.1-.3-3.7 1.8h25.3c.3-1.8.9-3.4 1.2-4.9.3-1.5.6-3.4.9-5.2-1.5 0-1.5 0-2.5 1.8-3.4 6.2-7.4 7.4-13.5 6.8.9-4.6 1.8-8.9 2.8-13.5 3.4-.3 3.7 0 4.3 5.9 1.5.6 1.8-.3 1.8-1.2.3-1.8.9-4 1.2-5.9l.9-5.5c-.3 0-.6-.3-.6-.3-.6.6-1.2 1.2-1.5 1.8-.3.6-.9 1.5-1.2 1.8-.9.9-1.8 1.5-2.8 1.5-.6 0-1.2 0-1.8-.3.6-3.4 1.2-6.5 1.8-9.9.3-.6.6-1.8 1.2-2.2 4.6-1.5 8.6.9 8.9 5.9 0 .6.6.9.9 1.2.3-.3.9-.9.9-1.2.3-2.5.6-4.9 1.2-7.4h-22.4zm178.6 7.1h5.2v24h7.7v-30.8h-12.6c-.3 2.2-.3 4.4-.3 6.8zm-69.3-.3h4.9v24h7.7v-30.5h-12.6v6.5zm-61.2 6.5c-1.5-.6-3.1-.9-4.9-.9-3.1 0-5.5 2.2-6.5 4.6-.6 2.8.9 4.6 3.1 5.9 1.5.9 2.8 2.2 4 3.4 1.5 1.2 1.2 3.1-.6 3.7-1.5.3-3.1 0-4.6 0 .3-1.2.3-1.5.6-2.2.3-1.8-.6-2.8-2.2-3.1-1.5 0-2.8.9-2.8 2.8 0 1.8 1.2 2.8 2.5 3.4 2.5.9 4.9 1.2 7.4.3 2.5-.9 4-2.5 4.6-5.2.3-2.5-.6-4.3-2.8-5.9-1.2-.9-2.8-1.8-3.7-2.8-.6-.6-.9-1.5-1.5-2.2.9-.3 1.8-.9 2.8-1.2.6 0 1.2.3 1.5.3v.6c-.6 1.5-.3 3.1 1.5 3.4.9 0 2.2-.3 2.5-1.2 1.5-1.6.3-3.1-.9-3.7zm23.7 3.1c.3-1.5.9-2.5 2.8-2.5.3 0 .9-.3 1.2-.6 0 0 0-.3-.3-.6-.9 0-1.8-.3-2.8-.3.3-1.8.6-3.4.9-5.2h-3.1c-1.8 0-3.1.3-3.1 2.5 0 .9-.6 1.8-.6 2.5-1.2.3-2.2.6-3.1.9v.6c.9 0 1.5.3 2.5.3-.9 4.3-1.8 8.3-2.8 12.6-.6 1.8.3 3.1 1.8 3.7 3.7 1.5 8.9-1.2 9.5-5.2 0-.3-.3-.6-.6-1.2-1.2 2.5-1.8 4.9-4.9 5.2V252c.7-3.6 1.9-7.3 2.6-11.3zm22.1 7.7c-2.2 0-4 1.5-4 3.4 0 2.2 1.5 4 3.4 4 2.2.3 4-1.5 4-3.7 0-1.9-1.5-3.7-3.4-3.7z"/><path d="M1420.6 256.6v-15.4h108.8c1 2.5.4 5.1.4 7.6.1 2.6-.1 5.2-.1 7.8h-109.1zm589.7-65.3c-.1-6.5-.1-12.7 1.9-19.3 1 1.3 1.6 2.1 2.3 2.9 1.3 1.7 2.4 3.4 3.7 5.2 7.5 10.4 18.1 15 30.4 15.8 8.9.6 16.2-3.4 21.8-10.2 3.7-4.6 3.8-11.3.5-16.8-2.4-4-5.9-6.8-10.2-8.4-4.9-1.8-9.9-3.1-14.9-4.6-5.2-1.6-10.5-2.9-15.8-4.6-2-.6-4-1.5-5.8-2.5-10.8-5.7-15-16-13.8-26.4 1-8.1 5.9-14 12.9-18.1 3.8-2.2 8-3.2 12.4-3.8 11.3-1.6 22.3.1 33.3 2.5 5.1 1.1 10.2 2.2 15.6 3.3.7 7.9.4 15.8-1 24.1l-7.6-9.8c-5.6-6.9-12.8-11.3-21.6-12.9-4.8-.9-9.7-.8-14.5-.1-4.9.7-8.8 3.3-11.9 7.1-4.2 5.2-3.7 11.9 1.6 15.8 3.4 2.5 7.2 4.5 11.1 5.9 6.5 2.4 13.3 4.1 19.9 6.1 4.8 1.5 9.4 3 13.7 5.6 18.9 11.4 16.5 35.7 2.1 46.2-7.5 5.5-15.8 8.4-24.9 8.6-9.6.2-18.7-1.6-27.4-6-4.2-2.2-8.9-3.7-13.8-5.6zm-395-107.1h19.6c1.4 1.4 1.6 3.1 1.6 5.1-.4 6.3-.5 12.7-1 19-1.1 12.9-.9 25.8-.7 38.7.2 13.2.7 26.4 1 39.5.1 1.7.2 3.4.4 5.2.7.1 1.1.4 1.6.4 10.2.3 20.4.7 30.5.7 5.5-.1 11.1-1 16.6-1.9 5.9-.9 10.8-3.8 14.2-8.8.2-.3.5-.5.9-.8.4.1.9.2 1.3.4.3.1.6.4 1.2.7-.7 6.8-3.1 13.1-5.7 19l-81.4-1.1c-1.3-1.3-1.6-2.9-1.5-4.7l1.1-22.7c.8-19.4 1.6-38.7.6-58.2-.4-8.7-.9-17.4-1.3-26.1.1-1.3.7-2.8 1-4.4z"/><path d="M1371 241.2c-1.6-2.6-3.1-4.9-4.8-7.6h59.4c.1 1.3.1 2.6.2 4.3h-8.2v10.9h-53.4c2.4-2.8 4.5-5.1 6.8-7.6zm212.6-7.6c-1.7 2.8-3.2 5.1-4.8 7.5 2.2 2.4 4.3 4.8 6.7 7.6h-53.2v-10.5c-2.8-.1-5.4-.2-8.1-.4v-4.3l59.4.1zM1386.4 69.9h4.6c2.8 4.1 5.7 7.4 10.6 7.5 2.7-1.3 2.5-3.9 3.4-5.8-.6-1-1.2-1.9-1.7-2.7 1.9-2.5 2.4-2.6 5.7-1.3 1.1 1.8 0 2.8-1.4 3.5.5 2.2.1 4.4 2.5 6.3 4.9-.1 8.4-3 11.1-7.2 3.4-.9 3.4-.9 5.3 1.4-.3 2.4-2.5 2-3.7 2.6-3 2.8-1.9 6.5-2.6 9.8h-27.4c-.2-3.4-.4-6.9-3.4-9.8-.6-.2-1.7-.7-3-1.3-.1-.8-.1-1.6 0-3zm144 14c-.1-3.5.1-6.9-2.5-9.7-1.1-.7-4.2 0-3.4-3.3 1.4-1.5 3.1-1.3 4.7-.7 2.8 4.3 6.3 7.2 11.3 7.4 2.4-1.7 1.9-4.1 2.7-6-.7-.8-1.4-1.6-2.1-2.3 1.7-2.8 2.1-2.9 5.5-1.6 1.1 1.8 0 2.7-1.5 3.5.8 2 1.7 4 2.5 6.1 6 .7 8.8-3 11.7-6.9 3.1-1.1 3.1-1.1 5.2 1.3-.1 2.2-2.3 1.9-3.4 2.6-2.5 2.8-3.1 6-3 9.6h-27.7zm-138.3-23.8c-5.6 0-7.2-1.3-8-6.6.7-2.3 2.8-2.5 4.9-3.1l-1.8-3.8c2.4-.2 4.7-.2 6.9-.6 2.9-.4 5 .9 7.1 2.8h10.5c-.6.7-.7 1.1-1.1 1.3-2.3 1.4-3.7 3.4-4.6 6-1.7 5.3-6 7.8-11.1 6.8-1-2 1.9-2.8 1.6-4.7-1.9-.6-2.8 1.2-4.4 1.9zm98.6 18.1c1.2-.6 2.4-1.3 3.6-1.8 3.2-1.3 5.2-3.7 5.9-7.2.4-2.1.9-4.2.9-6.3 0-3.3 1-6 3.4-8.7.9 1 1.9 2.1 3.1 3.7.3-4.2 2.5-6.8 5.2-8.9 2.8.6 2.1 3.4 3.8 4.9.9.1 2.1.3 3.1.4l-2.7 10.2c-.1-.1-.2-.3-.4-.5-.2-.3-.4-.6-.7-.9-4.6 2-8.7 4.4-11.3 9-1.2 2.2-2.8 4-4.3 6l.1-.1c-.7.7-1.8.1-2.4.8l.1-.1c-2 .7-4.1.7-6.1 0l.1.1c-.4-.4-1.2-.4-1.6-.8.2.1.2.2.2.2zm71-18h-4.2c-1.5-.2-2.4-2.5-4.7-1.7.8 1.4 1.6 2.8 2.4 4.3-3.7 1.3-6.5.2-8.7-2-1.3-1.3-2.4-3-2.9-4.6-.8-2.5-2.2-4.4-4.3-5.7-.4-.2-.7-.5-1.7-1.3h10.7c2.8-3.1 6-3.5 9.9-2.5 1.2.3 2.6-.1 4.1-.2.3 1.6-1.2 2.6-1.7 3.9 1.6.7 3.2 1.6 4.8 2.3v4c.1.1.1.3.1.4.1.3.2.6.2.9s0 .6-.1.9c-.1.3-.3.5-.5.7-.1.1-.3.1-.4.2-.3.1-.6.1-.8.3-.3.1-.5.2-.8.3-.3.1-.6.1-.9 0-.2-.2-.4-.2-.5-.2zM1956 231c-1.4 6.3.1 12-.4 17.9-.9.1-1.7.1-2.8.1v-26.6h2.9c5 7.4 10 14.6 15.5 22.6 1.6-8 .1-15.2.4-22.5 1-.1 1.8-.1 2.8-.1v26.4c-1.7.7-3.5.4-5.5.3-4.1-5.9-8.2-11.7-12.9-18.1zm-119.9 13.4c.4.7.6 1 .8 1.4-3.1 4-7.3 4.4-11.7 3.7-7-1.2-12.2-7.9-11.8-14.6.4-6.6 6.3-12.6 13.1-13.1 2-.1 4.2.4 6.2.9 1.4.3 2.8.8 4.3 1.3v5.9c-1-.7-1.7-1-2-1.5-2.1-3.5-5.3-4.4-9-3.8-3.8.6-6.3 3.1-7.3 6.6-1.1 3.7-.7 7.4 1.3 10.8 3.6 5.6 9.3 6.4 14.6 3.4.5-.2.9-.5 1.5-1zM1638 224v4.3c0 .3-.3.7-.6 1.3-.6-.4-1.3-.7-1.7-1.2-2.2-3.7-5.5-4.5-9.3-3.7-3.7.7-6.1 3.4-7.1 6.9-1 3.7-.5 7.4 1.6 10.8 3.5 5.4 9 5.9 14 3.4.5-.3 1-.7 1.6-1 .4.4.7.7 1 1.2-3 4-7.1 4.5-11.4 3.9-7-1-12.4-7.5-12.2-14.3.2-6.6 5.8-12.7 12.8-13.4 2-.2 4.2.3 6.3.7 1.7 0 3.2.5 5 1.1zm270.2-1.5h4.8v3.1c-.1 3.8-.3 7.7-.4 11.5 0 1.5.2 3 .5 4.4.8 3.9 2.6 5.5 6.3 5.7 3.4.2 6.3-1.7 7.3-5.1.4-1.5.7-3.2.7-4.8 0-4-.2-7.9-.3-11.9v-2.8c1-.1 1.8-.1 2.5-.2.2.4.4.6.4.8-.1 5.3-.2 10.7-.2 16 0 4.4-1.9 7.9-5.7 9.6-4.3 1.9-8.7 1.3-12.7-1.5-.7-.5-1.3-1.5-1.7-2.4-.4-.9-.7-1.9-.7-2.8-.5-6.4-.6-12.8-.8-19.6zm111.1 1.3v6c-1-.7-1.6-1.1-2-1.6-2.2-3.7-5.6-4.4-9.4-3.7-3.7.7-6 3.4-7 7s-.5 7.1 1.5 10.4c3.4 5.5 9 6.3 14.3 3.6.5-.3 1-.7 1.6-1 .4.4.6.8.9 1.2-2.3 3.5-5.8 4.1-9.6 4-9.2-.2-15.9-9.2-13.4-17.8 1.9-6.6 9-11.2 15.9-9.9 2.4.4 4.7 1.2 7.2 1.8zm-315.7 25.3h-4.6v-24.5h-11.2c.2-.9.3-1.3.4-2h26.4c.1.4.4.9.9 1.9h-11.3c-.9 4.3-.5 8.4-.6 12.4-.1 3.9 0 7.8 0 12.2zm40.4.2c.2-4.7.4-8.7.5-12.8l-10-14h5.2c2.4 3.9 4.9 8.1 7.8 12.8l7.5-12.8h3.4c-3 5.1-6.4 9.4-9.4 14v12.1c-1.4 1.1-3 .3-5 .7zm326.9-26.7h4.4v24.2c4.4.8 8.4.4 12.5-.4v2.9h-17c.1-9.1.1-17.9.1-26.7zm-409 0h4.5c.1.8.2 1.3.2 1.9v24.6h-4.7v-26.5zm381.6-.2h4.5c.5 3-.1 5.9-.1 8.8.1 3 0 6 0 8.9v9h-4.4v-26.7z"/><path d="M1517.7 52.9c-.4-1.2-.7-2.1-1.1-3.1-3.1-2-5.2-5-6.4-8.6 3.7-.7 6.7.3 9.5 3.1-.2 2.7 1.1 5.9-2 8.6zm-87.4-9.6c2.6-1.9 5.5-2.5 8.4-2.8.1 3.1-1.8 6-6 9.3-.2.8-.4 1.7-.7 2.8-.4-.1-.9-.2-1-.4-1.3-2.2-1.6-5-.7-8.9zm135 13.3c.6-1.4 1.1-2.9 1.8-4.3 1.3-2.7 2.8-3 5.5-1.1 1 5.7-2.6 9.1-11.1 10.3.1-.4.1-.9.2-1.3l-.1.1c.4-.4 1.2-.4 1.6-.8l-.1.1.9-.9-.1.1.9-.9-.1.1c.4-.4.4-1.2.8-1.6l-.2.2zm-184.2-6.7c.7 1.2 1.5 2.3 1.9 3.5 1.6 4.7 1.6 4.7 4.4 7.4-4.6.3-9-2.2-10.5-6-1.1-3.1 0-4.9 4.2-4.9zM1543.7 173l-4.2-3.3c-3-2.6-5.6-5.6-7.3-9.3-.5-1.1-1-2.3.9-3.4 1.6 2.8 3.1 5.6 4.9 8.1 1.9 2.5 4 4.9 6 7.2 0 .4-.2.5-.3.7zm-126.5-15.9c.6.3 1 .5 1.7.8-2.1 6.8-6.9 11-12.8 14.5 2-2.4 4.2-4.6 6-7.2 2-2.4 3.4-5.2 5.1-8.1zm112.5-39c-.8.1-1.6.1-2.5.1-.9-1.6 1.4-4.3 4.1-4.9.3 1.4.3 1.4-1.6 4.8zm-66-27.8c2.2 2.5 4.3 5.1 6.5 7.5-2.8-1-5-2.8-6.6-5.3-.4-.6-.4-1.4-.7-2.1.3 0 .5 0 .8-.1zm-45.2 23.4c2.8-.3 3.7.5 4.7 4.4-3.2-.1-3.2-.1-4.7-4.4zm-11.2.4c3.7-.4 4.9 1.6 6.4 3.7-1.3.1-2.3.1-3.7.2-.6-.9-1.5-2.1-2.7-3.9zm135.8 0c-1.1 1.6-1.9 2.8-2.7 3.8h-3.7c1.4-2 2.6-4.2 6.4-3.8zm-16.7 11.6c2.2 1.6 1.3 3.7 1.6 5.7-.9-.1-1.6-.1-2.2-.2-.6-2.9-.6-2.9.6-5.5zm9.1.1c2.1 1.6 1.1 3.4 1 5.3-.8.1-1.5.2-2.4.3.1-1.9-.5-3.9 1.4-5.6zm-7.4 14.8c.9 2.3 1.6 3.9 2.3 5.8-1.1.1-1.9.3-2.8.4-.6-1.7-2-3.5.5-6.2zm-105.6.3c2.3 2.2.6 3.8.5 5.7-1 .1-1.9.1-3.1.1.7-2 .9-4 2.6-5.8zm-8.7-9.4c.4-1.9-1.1-4 1-5.7 2 1.6 1.3 3.6 1.4 5.5-.8.1-1.4.1-2.4.2zm11.8.1c-1.6-.1-2.2-.2-3.1-.3.1-1.7.2-3.4.4-5.4 3.5 1.2 1.3 3.7 2.7 5.7zm34.8-50c.5.8 1.1 1.6 1.7 2.5-2.2.5-2.2.5-1.7-2.5zm-.9-5.2c-1-1.3-1-2.2.1-3.3.9 1 1 1.9-.1 3.3z"/><path fill="#FFF" d="M1492.2 78.8h6.1c-2 1.2-4.1 1.2-6.1 0z"/><path fill="#FFF" d="M1498.1 78.9c.8-.3 1.6-.5 2.4-.8-.8.3-1.6.5-2.4.8zm-45.7.2c.3 0 .5.1.7.1-.1.1-.1.2-.2.2-.2 0-.3-.2-.5-.3zm38.3-1c.5.3 1.1.6 1.6.8-.5-.3-1.1-.5-1.6-.8zm-41 .1c.3.1.6.1.4.1l-.2-.2c-.1 0-.2.1-.2.1zm-1.6-.7l1.6.7.1-.1c-.5-.2-1-.4-1.6-.7v.1z"/><path d="M1587 196.9c-3.4-6.4-6.1-13.1-7.3-20.2-1.3-7.7-2.8-15.5-3.7-23.1-1.8-15.2-7.3-28.8-16.6-40.9-.4-.4-.6-1-.9-1.4 3.2-7.3 3.2-10.8.2-14.1-1.4 4.6-1.4 4.6-6.2 8.6 1.4 1.5 3.3-.1 4.9.6-2.1 3.2-4.2 3.7-11.9 3.1-.9-.5-1.9-1.1-2.9-1.7-.1.1-.3.3-.5.4.6 1.2 1.1 2.3 1.8 3.8 2.9.2 5.7.5 8.7.7-1 .7-1.9 1.4-3.1 2.2.9.6 1.5 1.1 2.2 1.3 1.8.6 3.6.5 5.5 0 2.2-.6 2.8-.1 3.5 2.5l-4 1.3c2.4 2.5 4.5 4.6 6.4 6.8 2 2.3 4 4.8 5.7 7.3 1.6 2.3 3.1 4.8 4.3 8.3-1.5-1.6-2.3-2.7-3.5-4-.4 2.2-.7 4-.9 5.6 1.8 3.7 5 6.1 6.1 9.7-.2.1-.4.3-.6.4-1.8-1.7-3.7-3.4-5.7-5.5-.5 1.9-.9 3.3-1.3 4.9 1.6 1.9 3.1 3.8 4.8 5.7 1.6 1.8 3.3 3.5 5 5.2-.2.2-.4.4-.6.7-3.2-2.7-6.5-5.3-9.9-8.1-.5 1.4-1 2.5-1.4 3.7 2.2 2.4 4.4 4.7 6.6 7.1 2.1 2.3 4.8 4 6.4 6.7-5.3-2.7-9.5-6.7-14-10.4-.1-.1-.2.1-.4.1-.2.4-.5.7-.7 1.2-.1.4-.2 1-.4 1.9 5 5.2 10.2 10.3 15.8 16.1.4 1.7 1 4.2 1.6 6.6-.5-.2-1-.4-1.5-.7-7.5-6.2-14.6-12.8-20.5-20.6-4.1-5.4-7.6-11-9.6-17.5-2.4-7.9-3.4-15.8.7-23.6.1-.1-.1-.4-.1-.7-1.6-.4-2.7.4-3.4 1.6-.8 1.3-1.6 2.8-2 4.3-1.6 5.5-.8 11.1.4 16.6 1.8 7.4 5.7 13.7 10.2 19.7 5.3 7.1 11.6 13.4 18.1 19.3.8.7 1.8 1.3 2.1 1.5.7 5.4 1.4 9.9 1.9 14.3.5 4.3 1.6 8.7 1.6 13.1-2.5-.2-2.2-1.9-2.3-3.1l-2.4-16.9c-.8-.3-1.5-.6-2.4-1 .4 6.8 2.2 13.1 2.4 19.9-2.3-.7-4.3-1.3-6.2-1.8-1.9-4.8-3.7-9.4-5.5-14-1.3-3.2-2.4-6.6-3.8-9.7-1.1-2.5-2.8-4.6-5.8-4.9-.1.5-.4.7-.3 1 .1.4.2.7.5 1 3.1 3.1 4 7.4 5.5 11.3.6 1.5.7 2.9-.9 4.2-.3.1-.7.3-1.3.4-5.5.5-9.9-2.2-12.1-7.3-1-2.5-2-5.2-4.5-6.6-3.4-2.1-4.8-5.1-4.7-9 .1-6.6-1-13.1-4.5-19-4.3-7.2-6.3-15.2-7.6-23.2-1.2-6.9-.5-13.7 1.5-20.3 1.4-4.8 4.8-6.9 9.9-6.8 1.5.1 3 .3 4.5.3 2.3 0 3.4-1.1 3.9-3.8-3.4 1.3-3.4 1.3-7 1.1-3.7-.2-5.3-1.8-5.5-5.7-.1-1.6.1-3.2 0-4.9 0-1-.3-2-1.9-2-.3.4-1 .9-1 1.3.4 3.7.9 7.5 1.4 11.6-4.8 2.5-7.2 7-8.6 12.5-1.7 7-1.6 14-.1 21.1 1.8 8.4 5.2 16.4 9 24 2.7 5.5 2.8 11.1 2.2 17.2h-8.1c-1.3-4.4-2.5-8.7-3.7-12.8-1.4-.6-2.5-1.1-3.7-1.6v-42.7c0-.2-.1-.5-.1-.7 0-.1-.1-.2-.1-.3l-.4-.4h-27.6c-.5-.8-1.3-2.2-1.8-2.8-1.6-.7-2.7-1.1-3.8-1.6-.3-1.4-1.7-2.9.6-4 .8 1.4 1.6 2.8 2.2 4 3.8 1.1 7.5 2.4 11.5 2.7-.4-3.5-.7-6.8-1-10 2.4-.1 4.3 1.3 6.7 0-4.1-6.3-7.2-12.8-7.2-20.5 1.3.4 2.5.8 3.7 1.1 3 .7 5.9.9 8.8-.4 4.4-2 5.3-6.4 2.1-10.6-1 1.2-1.9 2.4-2.8 3.5-1 1.3-1.9 2.6-3.1 3.7-3.1 2.7-6.5 2.4-9.4-.9 2.7.7 5.4 1.7 7.5-.7-1.6-3.5-1.6-3.6-6.8-6.5 2.1-.1 4.3-.2 6.6-.4 10.5-.7 18.5-5.2 23.4-14.8 1.6-3.1 3.2-6.2 5-9.2 2.5-4.3 5.8-7.1 11.6-5.2-3.1-3.2-7.3-4-11.1-2.2-5.4 2.6-9.6 6.1-10 12.8-.1 1.6-1.3 3.1-2.1 4.6-.1.1-.4.1-.6.1-.3-.9-.5-1.8-.7-2.5-5 1-8.1 4.2-10.3 8.2-.4.7-.8 1.6-1.5 2.2-1 .9-2.2 1.5-3.3 2.2l-.8-.5c-.6-.3-1-.9-1.7-1-.3 0-.7 0-1 .1-1.4.3-2.8.5-4.2 1-.3 0-.6.1-1 0h-1.4c-.8-.7-1.9-1.2-2.5-2.1l-7.5-11.1c1.6-2.3 3.6-4.7 1.3-7.8-1.7 1.5-3.2 2.8-5 4.5 1.3.1 2.4.2 4 .4-1 .7-1.5 1.5-2.2 1.6-3.2.5-6.5.9-10.3-.4 2.5 4.1 6.1 1.8 9.3 2.8-1.1.5-1.9 1-2.8 1.4 1.9 2.2 4 .4 6 .7.3.4.5.8.9 1.3-.7.4-1.3.7-2.2 1.1 1 .8 1.9 1.4 2.6 2.2 2.3 2.3 5 4.4 6 7.8l.1-.1c-.4 1.1-.7 2.2-1 3 1.4 1.9 2.5 3.3 3.6 4.7l-.4.4-3.6-2.6c-.3.9-.5 1.6-.7 2.2l4.1 5c-1.6-.8-3.2-1.6-5-2.6-.2.6-.4 1.1-.7 1.6l4.9 4.7c-1.3-.6-2.6-1.3-3.9-1.9-.8-.4-1.6-.6-2.5-1-.7 1.8.3 2.5 1.1 3.1l6.9 5.7c1.4 1.1 2.4 2.4 2.4 4.8-6-4-11.1-8.3-15.3-13.5-1.7-2.1-3.2-4.4-4.5-6.8-1.9-3.6-1.9-7.4-.4-11.1.3-.7.4-1.3.9-2.6-1.3.4-2.3.4-2.7 1-.8 1.2-1.6 2.6-1.8 4-.6 5.1.3 9.9 3.4 14.1 3.2 4.3 6.9 8.1 11.1 11.4 1.9 1.5 4 3 6 4.5.6 4 1.3 8 1.9 11.9-1-.6-1.4-1.3-1.7-2.1-.7-2.1-1.4-4.3-2.2-6.3-.4-1-1-1.4-2.2-.7.9 2.8 1.7 5.7 2.8 9.1-1.9-.7-3-1-4-1.4-2.1-4.4-4-8.6-5.7-12.3-1.6-.8-2.6-1.4-4.1-.5 2.2 2.5 3.7 5.3 4.9 8.3-3.7 1.5-7.1 1-8.9-1.9-2.5-3.9-4.7-7.9-6.3-12.2-.9-2.3-1.6-4.6-3.1-6.7-2.9-4.3-4.5-9.1-5.8-14-1-4 .1-7.6 2-11 1.1-2 2.8-3.1 5.2-2.9 1.2.1 2.5-.1 3.6-.5.9-.3 1.6-1.1 1-2.1h-7.1c-1.9-1-2.5-2.8-2.7-4.6-.1-1.3-.1-2.8-.2-4.1-.1-.7-.5-1.4-.7-2.2l-1.2.2c.7 4.1-.8 8.4 2.4 12.4-3.2 2.5-4.1 6.4-5.2 10.2-2.1-1.2-3-2.8-3.4-4.7-.6-2.8-1.1-5.6-1.3-8.4-.2-3.1-1.2-5.5-3.5-7.5-1 1.1-1.9 2.2-3.4 4 .2-4.9-2.2-7.3-5.7-9.8-1 1.9-1.8 3.4-2.7 5.2-1.1.2-2.5.5-3.4.7l2.7 9.3c.5-.2 1-.4 1.6-.7 1 .6 2.1 1.3 3.2 1.8 5.6 2.4 8.1 7.5 10.8 12.4-2.3-.7-3.1-2.9-4.2-4.7-2.2-3.7-5.2-6.2-9.7-7.1-.1 1-.3 2-.4 3.2-2.5-1.8-3-4.4-3.3-7-.4-3.7-2.2-6.6-5.2-8.6-.6-.4-1.2-.8-1.8-1.3-2.8-2.2-5.9-2.5-9.2-2.2-1.9.2-2.5.7-4.3 2.9 4.8-1.6 8.1.3 10.5 4 1.1 1.6 2.1 3.4 3.1 5.1 1.4 2.5 2.6 5.1 4 7.5 2.5 4.5 6.2 7.7 10.9 9.8 4 1.8 8.3 2.6 12.7 2.8 1 .1 2 .2 3.6.4-2.2 2.7-5.7 3.5-5.7 7.3 1.3.4 2.5.9 3.5 1.2 1.6-.6 2.9-1 4.1-1.5-3.4 3.3-7 3.2-10 0-1.3-1.3-2.2-3-3.4-4.4-.6-.7-1.3-1.4-1.9-2.2-3.1 6.3-.6 11.1 6 11.7 1.6.1 3.3 0 4.8-.4 2-.5 3.9-1.4 6-2.2.2.3.5.7.8 1 1.9 2.5 2.1 5.6 3.4 8.2 2.6 5.3 5.1 10.8 9.6 14.9v4.1c-2.7.6-5.2 1.1-7.7 1.7l-2.4 3.7h-25.5v44.1c-1.5.6-2.6 1-4 1.6-1.3 4.3-2.5 8.4-3.7 12.6h-8.2c-.4-6-.1-11.6 2.3-16.9 2.6-5.7 5.2-11.6 7.3-17.5 3.4-10 4.2-20.2.9-30.4-1.1-3.6-3.1-6.4-6.1-8.7-.7-.5-1.3-1-1.6-1.3.5-3.7 1-7 1.5-10.3.1-1.2-.2-2.2-1.6-2.4-1.3.7-1.3 2-1.3 3.2 0 1.6.1 3.2 0 4.9-.1 1.7-.8 3.4-2.5 3.8-2.8.8-5.7 1.6-8.6-.1-.4-.2-1-.2-1.8-.4 1.1 2.9 2.8 4.3 5.5 3.8 1.3-.2 2.8-.2 4.1-.2 4.3 0 7.5 2.1 8.9 6 1.6 4.7 2.7 9.7 2.3 14.6-.4 5.1-1.4 10.1-2.5 15-1.2 5.6-3.6 10.8-6.3 15.9-2.5 4.6-4 9.6-3.7 15 .1 1.3 0 2.8-.1 4.1-.1 2.9-1.3 5.3-3.8 6.9-2.7 1.7-4.3 4-5.3 6.9-.4 1.1-1 2.3-1.7 3.3-3 4.1-8.1 5.6-12.5 3.6-1.2-2-.2-3.8.5-5.7.7-1.9 1.4-4 2.4-5.8.9-1.7 2.2-3.2 3.5-5.2-1 0-1.6-.1-2.2 0-2.5 1-3.9 2.9-4.9 5.4-2.6 6.9-5.3 13.7-8 20.5-.4.9-.8 1.8-1.3 2.6-2 .6-3.9 1.1-6.2 1.7 1-6.8 1.9-13.1 2.8-19.9l-2.6 1c-1 6.6-1.9 13.1-2.8 19.6-.7.2-1.2.4-2.2.7 1.3-9.3 2.6-18.4 3.6-25.5 5.1-5.5 9-9.8 12.8-14 5.4-5.7 10.2-11.9 14-18.8 4-7.4 5.8-15.3 4.9-23.7-.3-2.4-1.3-4.8-2.3-6.9-.6-1.3-1.8-2.4-3.7-1.6.2.7.4 1.3.6 1.8 1.6 3.3 2.1 6.9 2 10.5-.1 9.2-3.4 17.2-8.3 24.7-6.3 9.6-14.4 17.4-23.1 24.7-.6.5-1.3.9-2.4 1.6.8-3 1.6-5.5 2.2-7.8 5.9-4.8 10.8-10.2 15.6-15.8-.6-1-1-1.9-1.6-2.9-1 .9-1.8 1.7-2.6 2.4-3.6 2.9-6.9 6.3-11.2 8.1.7-.9 1.3-1.8 2-2.6 3.6-3.7 7.2-7.2 10.8-10.8-.6-1.5-1.1-2.5-1.6-3.9-3.4 2.7-6 5.7-10 7.2 3.1-3.4 6.2-6.9 9.3-10.4-.4-1.7-.7-3.2-1.3-5.2-2.2 2.1-4.1 3.9-6 5.6-.2-.2-.4-.4-.7-.6 1.6-3.4 4.6-6 6.3-9.6-.3-1.6-.6-3.4-1-5.7-1 1.3-1.8 2.1-2.5 3 2.9-8.6 9.3-14.7 15.5-21.4-1.7-.5-2.8-.8-4-1.2.5-2.3.8-2.8 2.3-2.7.8.1 1.6.5 2.5.6 2.2.2 4.3 0 6.3-1.9-1.3-.7-2.3-1.3-3.3-1.9 2.1-.4 4.1-.4 6-.5 2.2-.1 3.7-1.2 4-3.6.1-.3-.1-.7-.3-1-1 .7-1.9 1.3-2.9 1.9-3.6-.2-7.2.7-10.5-1.5-.6-.4-.8-1.3-1.4-2.2 2 .1 3.6 1.2 5.2-.2-1.4-1.2-3.1-2.2-4.1-3.6-1-1.5-1.5-3.4-2.3-5.3-1.4 1.5-1.6 3.2-1.8 4.9-.5 3.5.8 6.6 2.4 9.6-1 1.3-1.9 2.5-2.8 3.7-6.5 9.1-11.3 19-13.4 30-1.6 8.1-2.6 16.4-3.8 24.7-1.4 10.1-4.3 19.6-9.3 28.5-.4.7-.7 1.4-1.1 2.4 3.7.7 6.9-.3 10.5-1.1-1 7.8-1.9 15.3-2.9 23.2 3.3-1 6-1.7 8.7-2.5 2.7-.8 5.5-1.6 8.1-2.5 1.6-4 3-7.8 4.3-11.4h8.6v8.1c-2 1-4 2.1-5.5 2.8-1.6 1.9-3 3.6-4.5 5.4.3.6.7 1.3 1 1.9 2.6-.4 2.6-.4 4.6-2.5 3.1-3.4 6.9-5 11.4-3.4 3.5 1.2 6.8 3 10.2 4.6.8.4 1.6 1 3 1.8-.6-3-.2-5.5-2.2-7.6-4.1-1.1-8.3-2.2-12.5-3.4v-7.7c2.1-3.1 4.1-5.4 5.5-8.1 2.7-5.2 9.5-9.4 15.5-9.3 2.5.1 4.3 1 5.1 3.5.4 1.1.9 2.6 1.8 3.1 2.7 1.6 3.9 4 5.1 6.6.7 1.8 1.9 3.5 3.1 5.2 6.1 8.7 13.7 16.1 22.5 22 3.8 2.5 7.8 4.9 12.1 6.2 8.3-3 16.4-8.1 23.9-15.2 6.5-6.2 12.4-12.9 16-21.4.4-.9 1.1-1.8 1.9-2.2 1.9-1 3-2.5 3.5-4.6.7-2.3 2.3-3.2 4.8-3.4 5.9-.4 10.1 2.8 14 6.5.4.3.7.7.8 1.2 1.3 3.6 3.5 6.5 6.2 8.7v8.6c-4.5 1.3-8.7 2.4-12.8 3.5-1.2 2.5-1.5 4.7-1.6 7.6 1.3-.9 2-1.3 2.7-1.9 3.4-2.3 7.1-4 11.2-4.9 3.5-.8 6.3.1 9 2.3.9.7 1.6 1.6 2.4 2.4 1 1 2.1 1.8 3.9 1.3l.8-1.6c-1.6-1.9-2.9-3.6-4.6-5.7-.6-.2-1.6-.6-2.6-1.2s-2-1.3-2.8-1.9v-7.8h8.6c1.4 3.7 2.8 7.5 4.3 11.5 5.5 1.6 10.8 3.2 16.8 5-1-8.1-1.9-15.5-2.9-23.1 2 .4 3.6.9 5.2 1 1.6.1 3.4 0 5.5 0-1.3-1-1.9-2-2.4-3.1zm-151-3.8c-4.6-4.5-4.6-10.9 0-16.7v16.7zm38.7-75.9c1 .2 1.8.4 2.8.6-.1 1-.1 1.9-.3 3.1-1-.2-1.6-.4-2.5-.6v-3.1zm3.5 7.9c-1.5.1-2.3.1-3.2.1h-4c3.6-2.1 3.8-2.1 7.2-.1zm-11-.4v.2h-.9v-.2h.9zm-1.9 13.6h7c1-2.5 1.8-4.8 2.9-7.8 1 2.9 1.8 5.1 2.7 7.5 2.4.1 4.8.2 7.8.4l-6.1 4.8c.7 2.5 1.5 4.8 2.4 7.9-2.6-1.8-4.7-3.1-6.9-4.6l-6.3 4.3c.1-2.8 1.4-4.9 1.9-7.5-1.8-1.3-3.7-2.8-5.6-4.3 0-.2.1-.4.2-.7zm-24.4.2h6.9c1-2.8 1.9-5.2 2.9-8 1 2.8 1.8 5 2.8 7.7h6.9l.2.9c-1.7 1.3-3.5 2.7-5.5 4.2l2.2 7.5c-2.8-.9-4.3-3-6.8-4.1-1.8 1.2-3.7 2.5-6.3 4.3.7-2.8 1.3-5.1 2-7.5-1.8-1.4-3.6-2.8-5.5-4.3l.2-.7zm56.6 63.8c-.1 1.2-.1 2.5-.1 3.9 0 1.9.1 3.7.1 5.6.3 4.1-1.6 7.1-5 9.7-.9-.3-1.9-.6-2.8-.9-.1-.7-.3-1.3-.3-1.7.1-3.7.4-7.5.6-11.1.1-2.2-.4-4.2-2-6.3-.2 1-.4 1.6-.4 2.2 0 2.5.1 4.9.1 7.5.1 2.2-.7 4.1-2.5 5.8h-3.9c-.1-1-.3-1.7-.2-2.4.3-5.2.3-10.4-1.3-15.5-.5-1.8 0-3.9.1-5.8 0-1.6.3-3.2 0-4.7-.4-2.3-1-4.6-.4-6.9.3-1.7.7-3.7-1-5.4h-3.2c-1.3 2-.8 4-.4 6.1.7 3.5 1.3 7.1.4 10.8-.9.6-1.8 1.2-2.3 1.5-1 2.2-1.9 4-2.4 5.9-.4 1.5-.5 3.1-.8 4.7-.7 4.5-.5 8.9.7 13.3.6 2.2.5 4.2-1.5 5.9h-2.8c-1.9-1.3-2-3.1-2.1-4.9-.1-3.4-.4-6.7-.6-10-.1-1-.4-2.1-.7-3.1-.3 0-.5.1-.8.1v11.8c-3.4 1.7-5.5.7-6-2.8-.6-4-1-8.1-1.5-11.3-2.5-4.4-4.6-8.2-6.7-12-5.1-3.1-5.4-5.3-1-7.9.7-2.4 1.5-4.9 4.4-5.5.5-1.3 1-2.2 1.4-3.3 1-.7 1.9-1.3 2.9-2.1.4-5 3.7-7.2 8.5-7.6 1.9-2.6 4.2-4.6 8-4.1-.1-3.6.7-6.4 4.8-6.9 4 1.1 4.6 1.8 5.1 6.5 2.3.6 4.9.9 6 3.6 3.6.7 7.2 1.2 7 5.9 4.9 3.7 5.2 4.2 5.2 9.6 2.2 2.8 3.6 5.8 1.7 9 .4 2.8 1 5.1 1.1 7.4-.1 3.3-1.3 4.5-5.4 5.4zm9.1-51.2c-2.7-1.8-4.6-3.1-6.8-4.6-1.9 1.3-3.9 2.5-6.5 4.3.8-2.9 1.4-5 2.2-7.4-1.8-1.5-3.7-3-6.1-5 3.1-.1 5.5-.2 7.8-.4.9-2.5 1.7-4.8 2.8-7.7 1 2.9 1.9 5.2 2.8 7.7 2.5.1 4.7.2 7.7.4-2.3 1.9-4.2 3.3-6 4.8.6 2.5 1.2 4.8 2.1 7.9zm8.1 41.9v-16.1c4 5.9 4.1 11.1 0 16.1z"/><path fill="#FFF" d="M1490.7 97.6c.1.1.3.1.4.1l-.2-.2-.2.1zm-.7-.8c.2.3.4.6.7.8l.1-.1c-.3-.2-.5-.5-.8-.7zm1.3-2.9h.3l-.1-.1-.2.1zm-.6-.8c.2.3.4.6.7.8l.1-.1c-.3-.3-.5-.5-.8-.7 0-.1 0 0 0 0zm-2.3-12.7c.1.1.3.2.2.1.1.1 0 0-.2-.1zm-115.6 94c-.1.1-.1.1-.1.3l.1-.3zm206.7 15.8z"/><path d="M2000 196c-.3-5.2-.6-10.5-.7-15.7-.4-11.6-.7-23.4-.9-35-.2-18.7-.5-37.3.7-55.9l.9-15.2c.1-1.8 0-3.5-1.4-5h-16.8c-2.5 2.5-1.7 5.4-1.6 8.2.4 10.7.8 21.4 1.3 32 0 .9-.1 1.8-.2 2.8-3.2-2.1-6-4.4-9.2-6-9.6-5-19.8-5.7-30.2-3.8-27.6 4.9-50.8 34.6-37.5 68.2 7.5 19 22.5 29.6 43.1 31.4 12 1.1 22.6-2.2 31-11.4.3-.4.7-.6 1.2-.9 1 3.9-1 8 2.1 11.5h16.9c1-1.7 1.4-3.3 1.3-5.2zm-18.6-52.7c-.2 4.3-.1 8.7-.1 13.1h-.4c0 5-.1 9.9 0 14.9.1 6.3-2.6 11.6-6.9 16-10.1 10.2-26.6 12-37.9.2-5.2-5.5-9-11.9-11.3-19-3.1-9.3-4.7-18.7-4-28.6.5-7.8 2.8-15.1 7.6-21.4 5.2-6.9 12.2-10 20.8-9.3 2.6.2 5.2.6 7.7 1.1 9.6 2.1 16.4 7.8 20.7 16.6 2.5 5.1 4.1 10.5 3.8 16.4zm-187.6 29c-.5.2-.6.3-.7.4-.5.5-1 1.1-1.5 1.6-8.5 9.9-19.1 15.8-32.3 16.1-8.4.2-16.3-1.7-22.7-7.7-5.2-4.9-8.1-11.1-11.6-17.5 23.1-10.7 45.8-21.3 68.7-31.8l.7-4.6c-2.7-3.9-5.3-7.8-7.9-11.7-3.7-5.5-8.8-9.4-14.8-12.2-7.5-3.5-15.5-4.4-23.7-4-13.5.8-24.8 6.1-33.5 16.4-13.3 15.5-15.3 33.5-9 52.2 8.6 24.9 33.8 35.5 57.3 31.2 11.9-2.2 21.6-8.7 30.7-16.4 1-4.1 2.1-8 .3-12zm-71.5-15.6c-1.3-10.8-.5-21.4 3-31.7 1.1-3.2 2.9-6.3 4.9-9.1 2.5-3.7 6.3-6 10.8-6.8 11.2-2 22.2.8 28.6 11.8 2.3 4 4.2 8.2 5.3 12.7.1.7.1 1.4.3 2.4-17.3 7.6-34.6 15.2-52.1 22.8-.3-.8-.8-1.4-.8-2.1zm169.7 15.4c-1.5 1.6-2.6 2.9-3.8 4.1-9.8 10.5-21.7 15.4-36.1 14-9.2-.9-16.6-5-21.7-12.8-2.1-3.1-3.9-6.4-5.7-9.6-.4-.7-.7-1.6-1-2.6 22.9-10.6 45.7-21.1 68.5-31.7l.6-4.6c-2.7-4-5.4-7.8-8-11.8-3.4-5.1-8.1-8.7-13.5-11.5-8-4-16.5-5.2-25.4-4.5-16.3 1.2-29 8.7-37.6 22.4-8.9 14.1-9.9 29.6-4.7 45.2 8.4 25.2 33.4 36.3 57.6 32.1 11.3-1.9 20.8-8.1 29.5-15.3.7-.5 1.3-1.3 1.5-2.1.7-3.5 1.6-7.1-.2-11.3zm-71.8-17.8c-.7-10.2.1-20.4 3.6-30.1 4.9-13.4 14.6-17.4 27.7-15.1 6.9 1.2 12.1 5 15.8 10.9 3 4.8 5.2 9.9 6.3 15.9-17.6 7.7-34.9 15.3-52.6 23.1-.3-1.9-.7-3.3-.8-4.7z"/><path fill="#FFF" d="M1563.2 59.4c-.5.3-1.1.6-1.6.8.5-.3 1.1-.5 1.6-.8zm2.3-3c-.3.5-.6 1.1-.8 1.6.2-.5.5-1 .8-1.6zm-.8 1.5l-.9.9c.3-.4.6-.6.9-.9zm-.7.8l-.9.9c.3-.4.6-.7.9-.9z"/><path d="M1872.9 221.1c-7.6-.1-15.1 7.5-15.1 14.5 0 7.4 7.2 14.6 14.7 14.3 7.9.1 14.7-6.4 15.1-14 .3-7.6-7.5-14.6-14.7-14.8zm6.2 24.3c-2.8 2.7-6.7 3.1-10 1.4-6.9-3.7-8.8-13.7-3.9-19.7 3.4-4.2 8.7-4.7 12.8-1.2 3.2 2.8 4.9 6.2 4.8 10.5.1 3.5-1.1 6.5-3.7 9zM1421.7 84.5c-.4 1.7-.7 3.1-1.1 4.6-5.7 1.9-12.1 3.1-12.1 11.3-.4-.4-.8-.5-.8-.7-1.5-5.2-5-7.8-10.2-8.3-1.4-.1-2.8-.7-4-1.1-.5-1.6-.9-2.9-1.3-4.4h-2.7c-1.9 2.6.4 4.3.7 6.1 2.5 1.3 5.5 1.1 6.9 4-.1.7-.3 1.6-.5 2.5.9.8 1.9 1.6 2.8 2.5 1.9.1 3.9.4 6 .5 1 1.4 2.1 2.8 3.1 4.2 2.7-4.8 2.8-4.9 8.1-6 1-.8 2.1-1.6 3.2-2.4-.4-.7-.8-1.5-1.3-2.2 1-3.2 4-3.7 6.6-5 .1-1.9.4-3.7.5-6-1.8 0-3 .3-3.9.4zm-21.1 14.6c-.6-.1-1.3-.7-1.6-1.3-.4-1.1.4-1.9 1.8-2.2.5.4 1.1.8 1.8 1.3-.2 1.6-.8 2.4-2 2.2zm14.9-2.1c-.3 1.3-1.3 1.6-2.8 1-.4-2-.4-2 1-3.3 1.3.3 2.1 1.1 1.8 2.3zm145-11.3c-.6-.3-1.5.2-2.2.3-.5 1.6-.9 2.9-1.3 4.3-1.6.4-3.2 1-4.8 1.1-4.7.5-7.8 2.9-9.3 7.5-.1.4-.3.8-.5 1.3-.3-.3-.6-.4-.6-.6-.2-5.3-3.6-7.8-8.2-9.3-1.4-.4-2.7-1-3.8-1.4-.4-1.7-.8-3-1.2-4.3-1.3-.7-2.4-1.2-3.7.2l.6 5c2.4 1.5 5.6 1.6 6.3 5.2-.4.7-.7 1.5-1.1 2.2 1.3.9 2.3 1.7 3.4 2.5 1.7.3 3.6.7 4.9 1.6 1.3 1 2.2 2.8 3.1 4.1 1.1-1.5 2.2-2.9 3.1-4.1 2.3-.2 4.2-.4 5.9-.6l2.8-2.5c-.2-.7-.4-1.4-.7-2.1 1.3-3.3 4.8-2.9 7-4.3.5-1.3 1-2.6 1.6-4.3-.1-.4-.5-1.4-1.3-1.8zm-25.1 12.6c-.5-.1-1.1-.7-1.3-1.2-.4-1.3.4-2 1.9-2.4.5.5 1.2 1.1 1.7 1.6-.2 1.6-1.1 2.3-2.3 2zm14.8.5c-1.6.7-2.6.4-3.3-1.5.4-.6 1-1.2 1.5-1.8 2.3.4 2.5 1.5 1.8 3.3zm-63-52.9c-12.2-1.7-23.9-3.4-36 0 2.9 3.1 7.1 4.6 9.5 7.6l-.6 3.1c2 .6 3.9 1.2 5.8 1.7.7 1.1 1.6 2.2 2.8 4 1-5.2 5.9-3.1 8.3-5.6.1-.9.3-1.8.5-3 1.6-.8 3.3-1.6 4.9-2.4l-.3-.3c1.6-1.5 3.1-3 5.1-5.1zm-23.1 10.6c-.7-.7-1.2-1.1-2.2-1.9.7-.6 1.1-.9 1.7-1.4.7.7 1.3 1.1 2.2 2-.6.5-1 .9-1.7 1.3zm9.6.6c-.6-.6-1-1.1-1.5-1.6 1-1.6 1.9-1.6 3.1.1-.5.6-1 1-1.6 1.5zm4.6-5.9c-.9.3-1.9.4-2.9.5-3.1.4-5.1 1.8-5.7 5-.1.4-.4.8-1 2-1-2.7-1.8-4.6-2.4-6.1-2.5-1.8-5.4-1.6-7.4-4.3 7.4-1.6 14.3-2.2 21.7 1.2-1 .8-1.6 1.4-2.3 1.7zm-22.7 135.2c1.9-1.9 3.9-4.3 6.9-2.4 2.2 1.5 2.3 3.9 1.7 6.3-3.4 2.4-5 2-5.5-1.3 1.2-.1 2.3-.3 3.6-.4-.1-1.9-1.3-2.1-2.6-2.1-1.5 0-2.7.8-3.1 2.2-.9 2.6.2 4.6 2.5 5.9.1 2.4-.7 4.2-2.5 5.6-2.5.8-4-.3-4.9-2.3-.4-.9-.8-1.8-1-2.8-.5-2.2-1.3-4-3.4-5.1-.7-.4-1-1.4-1.9-2.7 2-.5 3.4-.9 5.2-1.3 1.6-1.1 2.9-2.9 2.9-5.3 0-2.6 1-4.3 3.7-5 .1-5.4 3.1-7.9 8.3-8.1 1.9-2.6 4.1-4.8 8.2-3.3.1 1.3.1 2.7.1 4.2v4.6c-2.3 2.9-2 6.3-1.5 9.9.4 2.7.4 5.4.7 8.1l-2.7 1.8c-.9 2.8-1.6 5.2-2.6 8.2 0 2.9-.1 6.5.1 10.1.1 2.5.6 4.9 1 7.3.3 1.7.5 3.2-1.4 4-1.3-.1-1.7-1-1.7-2.1-.1-2.2-.3-4.5-.1-6.7.3-5.5-1.3-10.3-5.2-14.2.4-1.7.7-3.3 1-4.9.2-.1.4-.3.6-.4 5.3-2.2 6.6-6.6 3.6-11.3-2.1-3.2-8.3-3.3-10.3 0-.9 1.2-1.4 2.4.3 3.5zm23.9-22.3c1.3-.1 2.5-.1 3.7-.2 1 1.1 1.8 2.1 2.5 3 5.7.9 6 1 6.6 5.4 1.7 1.6 4.3 2.5 5 5.5-.1.7-.4 1.6-.7 2.7l3.4 5.4c-.7 1.3-1.1 2.3-1.7 3.4 1 3.1 2.9 6 1.6 10-.9-.1-1.9-.1-3.2-.2V191c-1.7-.4-2 .4-2 1.3 0 3 .1 6 .1 9 .1 4 .4 7.9.4 11.9 0 2.2-1 4-3.3 5.5-.1-1.2-.2-1.9-.2-2.7.1-2.2.3-4.5.4-6.7.1-2.8-.4-5.5-1.7-7.9-.7-1.6-1.6-3.1-2-4.8-.9-3.8-1.5-7.6 1.3-11 .3-.4.2-1 .3-1.8-4 1.7-4.5 3.6-3.1 12.7-2.2 4.4-.8 9.3-1.3 14.1-.2 2.3-.1 2.3-1.9 4-.1-.1-.4-.3-.4-.4l-1.6-18.1c-.1-.6-.2-1.3 0-1.9 1.3-2.9.6-5.8 0-8.7-.3-1.4-.3-3.1.1-4.4.8-3 .1-5.4-2.3-7.2v-9.8z"/><path d="M1455.8 203.1c1.3-.6 2.2-1.1 3.4-1.6 1.6 2.7.4 5.4.4 8 .1 2.7.4 5.3.6 8.1-2.3 0-2.9-1.3-3.1-2.8l-.2-1.5c-.4-3.4-.7-6.7-1.1-10.2zm18.7-45.2c1.3-1.2 2.7-1.3 3.7-.1.4.6.5 1.9.2 2.6-.4 1.1-1.6 1.5-2.8 1-1.4-.7-1.6-1.9-1.1-3.5z"/></svg>