<svg xmlns="http://www.w3.org/2000/svg" width="729.3" height="92" viewBox="0 0 729.3 92">
  <style>
    #black:target ~ path.dark {
      fill: #333;
    }
    #black:target ~ path.light {
      fill: #fff;
    }
    #white:target ~ path.dark {
      fill: #fff;
    }
    #white:target ~ path.light {
      fill: #333;
    }

  </style>
<g id="black"></g>
<g id="white"></g>
  <path class="dark"
    d="M503.9 75.5c-.2-.1-.4 0-.6 0-.4.1-.9.1-1.3.1-.2 0-.4-.1-.6-.1-.2-.1-.3-.1-.4.1-.2.6-.5 1.2-.7 1.9-.2.5-.4 1.1-.6 1.6-.1.2-.2.2-.3.3-.5.2-1 .3-1.5.5-1.1.4-2.3.7-3.4 1-.1 0-.2.1-.3.1 0-.4.1-.9.2-1.3 0-.4.1-.8.2-1.2.1-.4.1-.9.2-1.3 0-.4.1-.9.2-1.3s.1-.8.2-1.2c.1-.4.2-.9.1-1.3-.4.1-.8.2-1.1.3-.4.1-.8.1-1.2.2h-1.2v-.2c.2-.4.5-.8.7-1.1.4-.8.8-1.6 1.1-2.4.1-.2.2-.5.3-.7.3-.8.5-1.5.7-2.3.3-1.4.6-2.8.8-4.2.2-1 .3-1.9.5-2.9.1-1 .3-2 .4-3 .1-.7.2-1.5.4-2.3.2-.8.5-1.7.8-2.5.3-.8.7-1.6 1-2.4.8-1.6 1.7-3.1 2.8-4.6.1-.2.3-.3.4-.5.2-.2.2-.2 0-.5-.3-.4-.5-.8-.6-1.3-.3-1.1-.1-2.1.4-3.1v-.1c.1-.1.2-.1.3 0 .1.1.1.2.1.3 0 .1-.1.2 0 .4 0 .5.3 1 .7 1.3.3.3.6.5.9.7.1.1.2.1.3.2.1.1 0 .2-.1.2-.4 0-.9.1-1.3-.1-.1 0-.2-.1-.4-.1 0 .4.2.7.5.8.3.2.6.3.9.3.4 0 .7.1 1 .1h1c.5 0 .9-.1 1.2-.5.1-.1.2-.1.2-.2.2 0 .3 0 .2.2 0 .2-.1.4-.1.6-.1.1-.1.3-.2.4-.2.2-.4.3-.7.4-.9.1-1.8.2-2.7 0h-.4c.1.1.1.1.2.1.4.1.8.3 1.1.4.1.1.3.1.4.2.1.1.2.2.1.3-.2.2-.4.3-.5.4-.4.1-.8.2-1.3.2-.1 0-.2 0-.3-.1-.2 0-.3-.1-.4-.2-.4-.1-.8.1-1 .4-.1.1-.1.3-.1.4h.1c1 0 2 .4 2.8.9.6.5 1.2 1 1.6 1.6.1.1.2.3.3.4.4.4.6.8.7 1.3.2.7.3 1.4.3 2.2 0 .6 0 1.2-.1 1.8-.1.6-.1 1.2-.3 1.8-.3 1.1-.7 2.2-1.2 3.2-.9 1.7-2 3.2-3.2 4.7-.9 1.1-1.9 2.1-2.9 3.1-.8.8-1.6 1.5-2.4 2.2-.1.1-.2.2-.3.2-.4 2.9-.8 5.9-1.2 8.9.1 0 .2-.1.4-.1.1-.1.2-.1.3-.1.1-.7.2-1.4.3-2.2l.3-2.1c.1-.7.2-1.5.3-2.2.3-.2.6-.2.9-.3v.2l-.3 1.8c-.1.9-.2 1.7-.4 2.6-.1.6-.2 1.2-.3 1.7v.2c.3 0 1.3-.3 2.1-.6.1-.2.1-.3.2-.5.6-1.6 1.3-3.3 1.9-4.9l.9-2.4c0-.1.1-.2.2-.3.1-.2.3-.4.4-.6l.3-.3c.2-.1.3-.2.5-.3.1 0 .2-.1.3-.1.2 0 .4.1.3.4 0 .1-.1.2-.2.3-.2.2-.4.4-.6.7-.2.2-.3.5-.4.7-.3.8-.6 1.5-.9 2.2-.1.2-.2.4-.1.7 0 .4.3.7.7.8.3.1.5.1.8 0 .5 0 .9-.2 1.4-.3.1 0 .1-.1.2-.1.8-.5 1.5-1.2 1.8-2.1.1-.4.3-.7.5-1.1.3-.5.7-.9 1.2-1.2.4-.2.6-.5.8-.9.3-.4.5-1 .4-1.5v-.7c.1-.7.1-1.4.1-2 0-.8.3-1.4.5-2.1.4-.9.8-1.8 1.3-2.7.3-.6.6-1.3.8-1.9.4-1.2.8-2.4 1-3.7.2-.9.3-1.9.4-2.8v-1.6c0-.6-.1-1.3-.3-1.9 0-.2-.1-.4-.1-.6-.1-.5-.2-1-.4-1.4-.5-.9-1.3-1.5-2.3-1.6h-.8c-.2 0-.5 0-.7.1h-.8c-.1 0-.3 0-.4-.1-.4-.2-.7-.5-.9-.9 0 0 0-.1-.1-.1 0-.1 0-.2.1-.2h.2c0 .1.1.1.2.2.3.2.5.3.9.3s.9-.1 1.3-.1c.7 0 1.1-.4 1.3-1 .1-.4.2-.8.1-1.2V40c0-.1 0-.3.1-.4.2-.3.5-.3.7-.1.2.3.3.6.1.9-.1.1-.1.3-.1.4 0 .5-.1 1-.1 1.5 0 .3-.1.6-.3.9v.1c-.1.2 0 .3.1.3.3.1.5.3.7.4.9.7 1.5 1.6 1.8 2.6.3 1 .6 2 .7 3 .1.7.1 1.4 0 2.1 0 .5-.1 1.1-.2 1.6-.1 1-.4 1.9-.6 2.9-.7 2.3-1.6 4.4-2.7 6.5-.2.3-.3.8-.4 1.1-.1.6-.2 1.2-.2 1.8 0 .5-.1 1 0 1.5V68h2.5c0-.1.1-.1.1-.2.3-1.2.7-2.3 1-3.5v-.1c.1-.4.4-.6.8-.7.2 0 .4-.1.6-.1 0-.1.1-.1.1-.2v-.3-13.6-.4c.1-.1.3 0 .4 0h8.2c0-.1.1-.2.1-.2.1-.2.2-.5.3-.7.1-.2.2-.3.4-.3.6-.1 1.3-.3 1.9-.4.1 0 .2-.1.4-.1v-.1V46c0-.1 0-.2-.1-.3-.1-.1-.3-.2-.4-.3-.2-.2-.4-.4-.6-.7-.2-.3-.4-.6-.5-.9-.5-.8-1-1.7-1.5-2.5-.1-.2-.3-.5-.3-.8-.1-.6-.3-1.2-.6-1.7-.2-.2-.3-.5-.5-.8 0 0-.1-.1-.1-.2-.1.1-.1.1-.2.1l-.6.3c-.6.3-1.3.4-1.9.5h-.1c-.8.1-1.5-.1-2.1-.5-.2-.1-.3-.2-.5-.4-.5-.5-.6-1-.6-1.7.1-.4.2-.8.4-1.2l.1-.1h.2c.1.1.1.2.2.2.4.6.9 1.2 1.3 1.8.4.6 1 .9 1.8 1 .4 0 .8-.1 1.2-.3.2-.1.3-.2.4-.3 0-.2-.1-.3-.2-.4-.3.4-.8.6-1.4.7-.4-.1-.8-.2-1.1-.5.1-.5.4-.8.7-1.1.3-.3.6-.5.9-.7.1-.1.2-.1.4-.2 0-.1-.1-.2-.1-.4h-.1c-.8 0-1.5-.1-2.2-.1-1.5-.2-2.8-.6-4-1.4-1.1-.7-2-1.7-2.6-2.9l-1.5-2.7c-.3-.6-.7-1.2-1.2-1.7-.4-.4-.8-.7-1.3-.9-.5-.2-.9-.1-1.4 0-.1.1-.3.1-.5.2h-.2V25c.3-.4.8-.8 1.3-1 .1 0 .3-.1.5-.1h1.3c.3 0 .5.1.8.2.6.3 1.2.7 1.8 1.2.2.2.4.4.7.6.1.1.2.3.3.4.1.3.2.5.2.8.1.6.2 1.1.3 1.7.1.2.1.4.2.5.2.3.5.7.8.9v-.3-.2-.3-.3-.3h.1c.4.3.8.5 1.3.6.3.1.5.3.8.5.4.4.7.8.9 1.2.3.4.5.8.8 1.2.2.3.4.5.7.6.5.3 1.1.5 1.7.6h.2v-.2c-.3-.1-.5-.1-.8-.1-.5-.1-.8-.4-1.1-.7-.5-.7-.9-1.3-1.4-2-.3-.4-.6-.7-.9-1.1-.1-.1-.2-.2-.4-.2-.5-.2-1-.5-1.5-.8-.2-.1-.3-.2-.5-.3 0 0-.1.1-.1.2 0 .2-.1.4-.2.6 0 .1 0 .1-.2.2 0-.1-.1-.3-.1-.5-.1-.8-.3-1.5-.4-2.3-.1-.2-.2-.5-.4-.6l-.3-.3c.1-.1.1-.1.2-.1h.8c.1 0 .2-.1.3-.1.2-.1.3-.2.4-.4 0-.2.1-.4.1-.5.1-.3.3-.6.7-.7.5.3.9.8 1.3 1.3.2.3.4.6.4 1 0 .2 0 .4.1.7v.2l.1-.1c.1-.2.3-.4.4-.6.1-.1.2-.3.3-.5 0-.1.1-.2.1-.2.1 0 .1 0 .1.1.1.2.3.4.5.6.2.3.4.6.5 1 .1.3.2.7.1 1 0 .7.1 1.3.2 2 .1.4.2.9.4 1.3.1.2.3.5.5.7.1.1.2.2.4.3.1-.1.1-.2.1-.3.1-.9.4-1.6.9-2.3.3-.4.4-.5.8-.8 0 0 0-.1-.1-.1-.5-.2-.6-.6-.7-1 0-.6-.1-1.1-.1-1.7v-.9-.3c0-.2.1-.2.3-.2.2 0 .3.1.3.3 0 .2 0 .4.1.6.1.5.1 1 .1 1.5s.3.9.7 1.1c.1.1.3.1.4.1h1.3s.1 0 .2-.1.2-.1.3-.1c.2 0 .3.1.3.3 0 .2-.1.4-.3.5-.3.2-.6.4-1 .4h-.4c-.5-.1-.8 0-1.2.4-.4.4-.7.8-.8 1.3-.2.6-.4 1.1-.4 1.7 0 .3 0 .7.1 1 0 .4.2.7.3 1.1.2.6.4 1.1.6 1.7.3.7.6 1.4 1.1 2l.6.9c.2.3.3.6.4 1 0 .4.2.7.3 1.1.5 1 1 2 1.6 3 .1.1.1.2.2.3.3.4.7.6 1.1.7.3.1.6.1.9.1.3 0 .7-.1.9-.3 0-.1-.1-.2-.1-.3-.3-.6-.6-1.2-1-1.8-.1-.2-.3-.4-.5-.5-.1-.1-.1-.2 0-.3.1-.1.3-.1.4 0 .2.1.4.1.6.2.1 0 .3.1.3.3.2.3.4.7.6 1 .4.9.8 1.7 1.2 2.6 0 .1.1.1.1.2s.1.2.2.3c.4.1.7.2 1.1.3.1-.1 0-.2 0-.3-.2-.6-.4-1.2-.6-1.7l-.3-.9c0-.1 0-.2-.1-.3.2-.1.4-.1.7 0 0 0 .1.1.1.2.1.4.3.8.4 1.1.2.6.4 1.2.5 1.7 0 .2.1.2.4.2 0-.2-.1-.4-.1-.7-.2-1.1-.4-2.1-.5-3.2 0-.2-.1-.3-.3-.4-1-.7-2-1.4-2.8-2.2-.9-.8-1.6-1.6-2.3-2.5-.3-.4-.5-.7-.7-1.1-.3-.5-.5-1.1-.6-1.7-.1-.6-.1-1.2-.1-1.9s.3-1.2.8-1.7c.6-.6 1.4-1 2.2-1.1h.1c.2-.1.4-.1.7-.1.1 0 .2 0 .2-.1s0-.2-.1-.3c-.1-.1-.2-.2-.3-.2h-.3c-.1 0-.2.1-.4.1-.2.1-.5.1-.7 0-.2 0-.4-.1-.6-.2l-.1-.1.1-.1h.1c.1 0 .3-.1.4-.1.1 0 .3-.1.4-.2.1 0 .1-.1.1-.1h-.2-.2c-.6.1-1.2.1-1.7 0-.2 0-.3 0-.4-.2-.1-.1-.3-.3-.4-.5-.1-.1-.1-.2 0-.2.1-.1.2-.1.3-.1l.2.2c.1.1.3.2.5.2h1.1c.2 0 .5 0 .7-.1h.1c.5 0 .7-.1 1-.6-.1 0-.1-.1-.1-.1-.2 0-.3 0-.5.1h-.6c-.1-.2 0-.3.1-.3l.6-.3c.3-.1.5-.4.7-.7 0-.1.1-.2.1-.2.1-.1.2-.1.3 0 .2.4.4.9.2 1.4l-.3.6c-.1.2-.3.5-.6.6l1.2 1.5c.5.6.9 1.2 1.2 1.9.2.4.5.7.8 1 .2.2.5.3.8.4.6.1 1.2.1 1.8-.1.6-.1 1.2-.4 1.6-.9.2-.2.4-.4.5-.7.3-.5.6-.9 1-1.4.2-.2.4-.5.7-.7.1-.1.3-.2.5-.3.5-.2 1-.4 1.5-.7.1 0 .1.1.1.1V30.6c.1 0 .1 0 .1-.1.2-.3.4-.5.6-.7.1-.2.2-.4.3-.7.1-.7.2-1.3.4-2 0-.1.1-.3.1-.4 0-.1.1-.2.3-.4.6-.6 1.2-1.1 2-1.5.2-.1.5-.3.7-.4.2-.1.5-.2.7-.2h1c.5 0 .9.1 1.3.4.2.2.4.4.7.6 0 0 0 .1.1.2-.1 0-.2-.1-.3-.1-.2-.1-.3-.2-.5-.2-.8-.3-1.6-.1-2.2.5-.5.4-.8.9-1.1 1.4-.5.7-.8 1.5-1.2 2.2-.2.5-.5 1-.8 1.4-.9 1.5-2.1 2.6-3.7 3.2-.9.4-1.9.6-2.8.8-.8.1-1.5.1-2.3.1h-.8c0 .1 0 .1.1.1.7.2 1.4.6 1.9 1.1.2.2.4.5.5.8.1.2 0 .3-.2.4-.7.4-1.4.4-2.1 0-.1 0-.2-.1-.3-.2 0 .2.1.4.2.5.5.4 1.1.6 1.8.5.3-.1.6-.2.8-.3.3-.2.6-.4.8-.7.4-.6.8-1.1 1.3-1.7 0-.1.1-.1.1-.2.1-.1.2 0 .2 0v.1c.3.6.4 1.2.3 1.9 0 .2-.1.5-.2.6-.2.3-.4.5-.7.7-.5.4-1.1.5-1.7.5-.6 0-1.1-.1-1.7-.2-.2 0-.4-.1-.5-.2l-.6-.3c-.1.1-.1.1-.1.2.1.7.3 1.4.4 2.1.1.4.2.9.3 1.3.2.8.6 1.5 1 2.1l.6.9s.1.1.1.2c.1.2 0 .3-.2.3h-.7l-1.2-.3h-.2v.4c0 .4.1.7.2 1 .1.5.1 1 .2 1.5v.5h-.2c-1.1-.2-2.1-.5-3.2-.8-.1 0-.1 0-.2-.1-.2-.1-.3-.2-.4-.4-.1-.2-.2-.5-.3-.7-.1-.1-.1-.2-.2-.4-.2.1-.3.2-.4.3v.2c0 .2.1.5.2.7 0 .1.1.2.2.2.2 0 .3.1.4.2.1.1.2.1.3.1.2 0 .3.1.4.3.1.2.3.4.5.5.2.2.5.3.8.3h8.4v14.6c.2.1.3.1.5.1s.3.1.4.2c.1.1.2.2.3.4 0 .1.1.2.1.4.3 1.1.6 2.3.9 3.4v.2h2.7v-.7-.7c0-1.1-.1-2.3-.4-3.4-.1-.2-.1-.4-.2-.6-.5-1-.9-1.9-1.3-2.9-.8-1.8-1.4-3.6-1.8-5.5-.2-.8-.3-1.5-.3-2.4v-1c0-1.4.2-2.8.7-4.2.2-.5.4-1.1.7-1.5.4-.6.9-1.1 1.5-1.5.1-.1.3-.1.4-.1.1-.1.1-.2.1-.3v-.1c-.3-.4-.4-.9-.4-1.3s0-.8-.1-1.2c0-.1 0-.2-.1-.3-.2-.3-.1-.6 0-.9.2-.3.6-.3.8 0 0 .1.1.2.1.3v1.9c0 .3.1.6.2.9.2.5.6.7 1.1.8.5.1.9.1 1.4.1.4 0 .7-.1 1-.4.1-.1.2-.1.3-.1.1 0 .2.1.1.2 0 .1 0 .2-.1.3-.2.4-.5.7-.9.9-.1.1-.2.1-.3.1h-.7c-.4 0-.8-.1-1.2-.1-1.2 0-2.2.5-2.8 1.6-.2.5-.4.9-.4 1.5 0 .1 0 .3-.1.4-.2.7-.3 1.5-.3 2.2-.1.9 0 1.9.1 2.9.2 1.5.6 3 1 4.5.2.5.3 1 .5 1.6.1.1.1.2.2.4.6 1.1 1.2 2.3 1.7 3.5.1.3.2.6.3 1 .1.3.1.7.1 1 0 .7.1 1.3.1 1.9v.8c0 .6.2 1.1.5 1.6.2.3.5.6.9.8.5.3.9.7 1.1 1.2.1.2.2.5.3.7.1.2.1.3.2.5.3.9 1 1.4 1.7 1.9.1.1.2.1.3.1.4.2.8.2 1.3.3h.8c.3-.1.6-.4.6-.7 0-.3 0-.5-.1-.7-.2-.5-.3-.9-.5-1.3-.1-.3-.3-.6-.4-.9-.1-.5-.4-.8-.7-1.2l-.4-.4c-.1-.1-.1-.2-.1-.3 0-.1.1-.2.2-.2h.3c.2.1.5.3.7.4l.2.2c.2.2.3.4.5.6.1.1.1.2.2.4.4.9.7 1.9 1.1 2.8.6 1.6 1.2 3.1 1.8 4.8 0 .1.1.1.1.2.7.2 1.3.4 2 .6v-.2c-.1-.8-.3-1.7-.4-2.5-.1-.5-.1-1.1-.2-1.6l-.3-1.8c0-.1-.1-.3 0-.4.3 0 .6.2.8.3a7165183131591494 7165183131591494 0 0 1 .9 6.4c.2.1.4.2.7.3v-.2c-.2-1.3-.4-2.7-.6-4-.1-1-.3-2.1-.4-3.1-.1-.5-.2-1-.2-1.5 0-.1-.1-.2-.2-.3-.5-.4-.9-.9-1.4-1.3-1.6-1.5-3.1-3-4.5-4.7-1.1-1.4-2.2-2.9-3-4.5-.5-1.1-1-2.3-1.2-3.5-.1-.3-.1-.7-.1-1 0-.4-.1-.7-.1-1.1 0-.8 0-1.6.2-2.4.1-.4.2-.8.4-1.2.1-.2.3-.4.4-.6l.3-.3c.5-.7 1-1.3 1.7-1.8s1.4-.8 2.3-1H555c0-.4-.2-.6-.5-.7-.1-.1-.4-.1-.5-.1-.2.1-.4.2-.6.2-.1 0-.2.1-.3.1-.3 0-.7 0-1-.1-.2-.1-.5-.2-.7-.3-.1-.1-.2-.1-.2-.3 0-.2.2-.2.3-.2.4-.1.8-.3 1.2-.4.1 0 .2-.1.3-.1 0-.1 0-.1-.1-.1-.2 0-.4.1-.5.1-.8.1-1.5.1-2.3 0h-.2c-.4-.1-.6-.3-.7-.6-.1-.2-.2-.5-.2-.7 0-.1.1-.2.2-.2l.2.2c.2.2.4.4.7.5h.4c.5 0 .9 0 1.4-.1.3 0 .6-.1.9-.1l.6-.3c.2-.2.4-.4.5-.7V43h-.2c-.4.2-.8.2-1.3.1h-.3c-.1 0-.1-.1-.1-.2s.1-.1.1-.2c.1-.1.2-.1.3-.2.4-.2.7-.5 1-.8.4-.4.6-.9.6-1.5v-.3c.1-.1.3-.1.3 0 0 0 0 .1.1.1.6 1.3.6 2.5 0 3.8-.1.1-.2.3-.3.5 0 0-.1.1-.1.2.1.1.2.2.2.3 1.5 1.8 2.6 3.8 3.6 5.9.5 1.2 1 2.4 1.3 3.7.1.5.2 1.1.3 1.6.2 1.3.4 2.7.6 4 .2 1 .3 1.9.4 2.9.3 1.5.5 3.1.9 4.6.1.5.3.9.4 1.4l.3.6c.1.1.1.4.2.5.5 1.2 1 2.4 1.7 3.4 0 .1.1.1.1.2-.1 0-.1.1-.2.1-.8 0-1.6 0-2.4-.2-.3-.1-.5-.1-.8-.2h-.2c0 .4.1.7.1 1 0 .3.1.6.1.9.1.3.1.6.1 1 0 .3.1.6.1 1 0 .3.1.6.1.9 0 .3.1.6.1 1 0 .3.1.6.1.9 0 .3.1.7.1 1-.1.1-.2 0-.3 0-.7-.2-1.3-.4-2-.6-1-.3-1.9-.6-2.9-.9-.4-.1-.4-.1-.5-.5-.4-1-.7-2-1.1-3-.1-.1-.1-.3-.2-.4-.1-.1-.2-.2-.3-.1-.4.2-.7.2-1.1.2-.4 0-.8-.1-1.1-.1-.3 0-.4 0-.4.3-.1.6 0 1.2 0 1.8 0 .3.1.5.3.7.2.2.3.3.5.3.2.1.5.2.7.3.4.1.6.3.8.7.1.3.3.5.6.7.1.1.2.1.3.2.2.1.3.2.2.4v.2c-.1.3-.2.4-.5.4-.4 0-.7-.1-1-.5-.3-.3-.5-.6-.8-.9-.4-.3-.9-.6-1.3-.7-.3-.1-.6-.1-1-.1s-.9.1-1.4.3c-.9.3-1.8.7-2.6 1.2-.3.2-.5.4-.7.6-.1.1-.2.1-.3.2-.1 0-.2-.1-.2-.2v-.2c.1-.5.2-.9.3-1.4 0-.1 0-.2.1-.3.1-.2.3-.4.5-.5.1 0 .2-.1.3-.1 1-.3 2.1-.5 3.1-.8.1 0 .3-.1.4-.1.1-.3.1-2.1.1-2.8-.1-.1-.2-.1-.3-.2-.5-.4-1-.9-1.3-1.6l-.3-.6c-.2-.5-.5-.9-.9-1.3-.3-.3-.6-.5-1-.7-.4-.2-.7-.4-1.1-.6l-.6-.3c-.4-.2-.7-.1-1.1-.1-.3 0-.6 0-.8.1-.2 0-.4.1-.6.2-.2.2-.3.4-.4.6-.1.2-.2.5-.3.7-.1.3-.3.6-.6.8-.3.2-.6.3-.8.6-.1.1-.2.2-.2.4s-.1.4-.2.6c-.3.5-.5.9-.8 1.4-.8 1.2-1.7 2.4-2.7 3.5-1 1.1-2 2-3.2 2.9-1.5 1.2-3.1 2.2-4.8 3-.4.2-.8.4-1.3.6-.5-.1-.9-.3-1.3-.5-1.5-.7-3-1.6-4.3-2.7-1-.8-2-1.6-2.9-2.6-1.3-1.4-2.5-2.8-3.5-4.4-.3-.5-.5-.9-.7-1.4-.1-.2-.1-.3-.2-.5-.2-.4-.5-.6-.9-.8-.2-.1-.3-.2-.4-.3-.1-.1-.2-.3-.3-.5-.1-.2-.2-.4-.2-.7-.1-.2-.2-.4-.3-.5-.2-.3-.5-.4-.8-.4h-1.1c-.5 0-.9.1-1.3.3-.4.2-.7.4-1.1.6-.4.2-.7.4-1 .7-.4.4-.8.8-1 1.4-.1.4-.4.8-.7 1.2-.3.4-.6.7-1 1l-.2.2c0 .9.1 1.8.1 2.7.1.1.2.1.3.1 1.1.3 2.1.5 3.1.8.2 0 .3.1.5.1.3.1.5.3.6.6v.1c.1.5.2 1.1.3 1.6v.2c-.1.1-.2.1-.3 0l-.1-.1c-.4-.4-1-.8-1.6-1-.6-.3-1.3-.6-2-.8-.6-.1-1.1-.2-1.7-.2-.3 0-.5.1-.8.2-.7.3-1.2.7-1.7 1.3-.1.1-.2.3-.4.4-.2.1-.4.2-.7.2-.2 0-.3-.1-.4-.3 0-.1-.1-.3-.1-.4 0-.2.1-.3.2-.4.4-.2.6-.5.8-.9.1-.4.4-.6.8-.8.2-.1.5-.2.7-.2.2-.1.4-.2.5-.3.2-.2.3-.4.3-.6v-1.9c2.3-.1 2.3-.2 2.3-.3zm26.8-14.7v-.5c0-.3 0-.6-.1-.9-.1-.2-.3-.4-.5-.6-.4-.2-.9-.2-1.3-.1-.5.2-.8.5-.8 1.1 0 .3 0 .5.1.9 0 .1.1.2 0 .2h-.5c-.5 0-1 .1-1.4.4-.2.1-.4.3-.5.5-.1.2-.2.3-.3.5h-.2c-.3.1-.6.1-.9.2-.8.3-1.4.8-1.6 1.6-.1.3-.1.6-.2.8-.4.1-.7.3-.9.6-.3.3-.3.7-.4 1h-.2c-.5.1-.8.4-1 .8-.1.2-.2.5-.3.8 0 .1 0 .2-.1.3h-.3c-.2.1-.3.2-.4.3-.4.4-.4 1.1.1 1.6l.6.3c.1 0 .2.1.3.2.1.1.2.2.2.3.2.4.4.7.6 1.2.2.5.4.9.7 1.3.2.3.5.6.8.8v.7c0 .5.1.9.2 1.4 0 .1.1.3.1.4 0 .5.1 1.1.1 1.6v.3c.1.3.3.6.5.8.3.3.6.3 1 .2.2-.1.4-.2.5-.5 0-.2.1-.3.1-.4 0-.3 0-.6-.1-.9v-.2c0-.6 0-1.2.1-1.8 0-.2 0-.4.1-.6.1 0 .1.1.2.1.2.3.3.6.3.9 0 .4.1.9.1 1.3.1.7.1 1.4.1 2.1 0 .3 0 .5.1.8.2.7.5.9 1.1.9.3 0 .5-.1.7-.4.2-.2.3-.5.3-.8 0-.4-.1-.8-.2-1.2 0-.2-.1-.3-.1-.5-.1-.6-.1-1.2-.1-1.8 0-.4 0-.8.1-1.2 0-.4 0-.9.1-1.3 0-.3.1-.6.3-.9.2-.2.3-.4.3-.7.1-.3.1-.5.1-.8 0-.2.1-.3.2-.3.1-.1.2-.1.3-.1.1-.1.2-.1.3-.2.1-.1.2-.2.2-.4.1-.3.1-.6.1-.8 0-.6-.1-1.1-.1-1.6 0-.3-.1-.6-.2-.9-.1-.1-.1-.3-.1-.4-.1-.4-.1-.8 0-1.3.1-.3.3-.5.5-.5.3-.1.6-.1.8.2.2.2.3.4.3.7 0 .4 0 .8-.1 1.3 0 .1 0 .2-.1.3 0 .6.1 1.2.3 1.8.1.1.1.3.1.4 0 .3 0 .7-.2 1 0 .1-.1.1-.1.2-.1.3-.2.7-.2 1.1 0 .3.1.6.2.9.2.6.3 1.2.4 1.8.1.9.1 1.8.1 2.7 0 .1 0 .3-.1.4-.1.2-.1.4 0 .6.1.1.1.2.2.3.3.2.7.2 1.1 0 .1-.1.3-.2.4-.3.1-.2.2-.3.3-.5.1-.1.1-.3.1-.4V76c0-.5 0-.9-.1-1.4v-.2c0-.1 0-.1.1-.2s.2-.1.2 0c.1.1.2.2.2.3.3.5.4 1.1.4 1.7v.6c0 .7-.1 1.4-.1 2.1v1c0 .1.1.3.2.4.2.2.5.2.8.2.2 0 .3-.1.4-.3.3-.3.6-.7.9-1.1.1-.2.2-.4.2-.7.1-1 .1-2.1 0-3.1v-.8c.1-.4.1-.4.5-.4s.7-.1.9-.5c.2-.3.3-.6.3-.9 0-.6 0-1.1-.1-1.7 0-.3-.1-.5-.3-.7l-.1-.1c0-.1.1-.1.1-.2s.1-.1.1-.2c.3-.7.3-1.3 0-2-.1-.2-.2-.3-.3-.5-.1-.1-.2-.3-.3-.4v-.2c.2-.8 0-1.5-.6-2-.2-.3-.5-.4-.8-.6-.1 0-.2-.1-.2-.2s0-.3-.1-.4c-.1-.5-.3-1-.8-1.2-.3-.1-.7-.2-1-.2h-.4c-.1-.2-.1-.3-.2-.4-.3-.5-.7-.7-1.2-.8-.4-.1-.7-.1-.9-.1zm6.1-10.2l-.9 2.7h-2.5c-.1 0-.2 0-.2.1.7.5 1.4 1 2.2 1.6l-.3.9-.3.9-.3.9c.4-.2.7-.5 1.1-.8.4-.3.7-.6 1.1-.8.8.5 1.5 1.1 2.3 1.6-.1-.5-.3-.9-.4-1.3-.1-.5-.3-.9-.4-1.3.1-.1.2-.1.2-.2.6-.4 1.2-.9 1.8-1.3 0 0 .1 0 .1-.1H537.7c-.3-1.1-.5-2-.9-2.9zm-8 .1c-.2.4-.4.9-.5 1.3-.1.4-.3.9-.5 1.3H525c.1.1.2.1.2.2.6.4 1.2.9 1.8 1.3.1 0 .1.1.2.2 0 .1-.1.3-.1.4-.2.7-.4 1.4-.7 2.1 0 .1-.1.1 0 .1.7-.5 1.4-1.1 2.2-1.6.1.1.2.1.3.2.6.4 1.2.9 1.8 1.3.1 0 .1.1.2 0-.3-.9-.5-1.7-.8-2.6.1-.1.2-.1.3-.2.6-.4 1.1-.8 1.7-1.2 0-.1.1-.1.1-.2h-2.7c-.2-.9-.4-1.7-.7-2.6zm-11.7 2.6c.2.3.5.4.7.6.2.2.5.4.7.5.2.2.5.3.7.6-.3.9-.5 1.7-.8 2.6.3-.2.6-.4.8-.5.3-.2.5-.4.7-.5.2-.2.5-.4.8-.6.4.3.7.5 1.1.8.4.3.7.6 1.2.8-.3-.9-.6-1.8-.8-2.6l.2-.2c.6-.4 1.2-.9 1.8-1.3 0 0 .1 0 .1-.2h-2.7c0-.1 0-.1-.1-.2v-.2c0-.1-.1-.1-.1-.2s0-.2-.1-.2 0-.1 0-.2-.1-.1-.1-.2-.1-.1-.1-.2 0-.1-.1-.2c0-.1 0-.1-.1-.2 0-.1 0-.1-.1-.2 0-.1 0-.1-.1-.2 0-.1-.1-.1-.1-.2s0-.1-.1-.2c0 .1-.1.2-.1.2-.2.7-.5 1.4-.7 2.1 0 .1-.1.2-.1.2h-1.3c-.3.1-.7.1-1.2.1zm39.5 11c1.9 2.3 4.2 4.3 6.5 6.2v-.1-.1c-.4-.8-.6-1.6-.7-2.4 0-.1-.1-.2-.2-.3-.3-.2-.5-.3-.7-.5-.8-.7-1.6-1.5-2.4-2.3-.5-.6-1.1-1.2-1.6-1.8-.1 0-.1-.1-.2-.2-.3.6-.5 1-.7 1.5zm-62.2 6.2c1.1-.5 5.5-4.8 6.5-6.2-.1-.3-.5-1.2-.7-1.5-.1 0-.1.1-.2.1-.3.3-.6.7-.9 1-.7.8-1.5 1.6-2.3 2.4-.4.4-.9.9-1.5 1.2-.1.1-.1.2-.2.3-.1.8-.4 1.6-.7 2.4.1.2.1.3 0 .3zm21.5.9v-5.8l-.1-.1v.1c-.4.7-.7 1.4-.9 2.2-.1.4-.1.8-.1 1.3s.2.9.4 1.3.4.7.7 1zm25.8-.2c.2-.1.3-.3.4-.4.3-.4.5-.9.6-1.4v-1.2c-.1-.8-.5-1.6-.9-2.3 0-.1-.1-.1-.1-.1 0 .3-.1 3.5 0 5.2v.2zm16.1-9.5c.7 1 3.7 3.2 4.6 3.6 0-.3 0-.3-.1-.4l-.2-.2c-1.3-1.2-2.6-2.4-3.7-3.7-.1 0-.1-.1-.2-.2-.1.4-.3.6-.4.9zm-58.5-.8l-.1.1c-.9 1.1-1.8 2-2.8 2.9-.4.3-.8.7-1.1 1-.1.1-.2.2-.1.4.2-.1.4-.2.6-.4 1.2-.8 2.3-1.6 3.3-2.6.3-.2.5-.4.7-.7-.2-.1-.3-.4-.5-.7zm32.5-20c.3.3.7.6 1 .8.6.5 1.3 1 2 1.5.1 0 .1.1.2 0-.1-.3-.3-.6-.4-.9-.1-.2-.2-.3-.3-.5-.7-.5-1.4-1.1-2-1.6-.1 0-.1 0-.2-.1-.1.3-.2.5-.3.8zm27 18.6l.1.1c.9.9 1.9 1.7 2.9 2.5h.1c0-.3 0-.4-.2-.6-.9-.8-1.7-1.7-2.4-2.6l-.2-.2c-.2.3-.2.6-.3.8zm-63.1 2.7c.4-.3.7-.5 1.1-.8.3-.3.7-.6 1-.9.3-.3.6-.6 1-.9-.1-.3-.2-.5-.3-.8-.3.4-.6.7-.9 1.1-.3.3-.6.7-.9 1-.3.3-.7.6-1 .9 0 .1-.1.2 0 .4zm65.6-3.5v-.4c0-.2-.1-.4-.2-.5-.1-.1-.2-.3-.4-.4-.3-.4-.6-.9-.9-1.3 0 0-.1-.1-.1 0-.1.3-.1.6-.2.9.4.4 1.5 1.6 1.8 1.7zM497.8 56c-.1 0-.1.1-.2.2-.4.5-.8 1.1-1.2 1.6-.1.1-.2.2-.2.4s-.1.3 0 .5l.9-.9.9-.9c0-.2-.1-.6-.2-.9zm30.7-8.6c.3.2.5.2.7.3.1-.1.2-.1.2-.2.1-.5 0-.8 0-1h-.9v.9zm1.3 1.7c-.2-.2-.5-.4-.7-.5-.2-.1-.3-.1-.5 0-.5.2-1 .3-1.5.5h-.1H529.8zm2.6-9.9c.7.4 1.3.9 2 1.3h.1c-.2-.3-.4-.4-.6-.6-.2-.2-.4-.4-.7-.5-.2-.2-.4-.4-.7-.5 0 .1 0 .1-.1.3zm.5-1.8c0 .2-.1.3-.1.5.4.3 1.3 1 1.5 1.1 0-.1 0-.2-.1-.3l-.3-.3-1-1zm-36.1 17.3c.1-.1.1-.1.1-.2.2-.2.3-.4.4-.6.1-.1.2-.3.3-.5.1-.2 0-.4 0-.5 0 0 0-.1-.1-.1-.2.4-.5.9-.7 1.4.1.2.1.3 0 .5zm63.9 0c0-.3-.1-.6-.2-.8-.2-.3-.3-.7-.5-1 0-.1 0-.1-.1-.1v.5c0 .1 0 .2.1.4l.6.9s0 .1.1.1zm-27.6-18.3c.3.3.6.6 1 .8V37c0-.1-.1-.2-.1-.3-.2-.3-.4-.5-.6-.8 0 0-.1-.1-.2 0-.1.2-.1.3-.1.5zm-.2-2.5v.2c0 .1 0 .2.1.2 0 0 0 .1.1.1s.1.1.2.1.1.1.2.1c-.2-.2-.4-.5-.6-.7zm-6.7 15.2c0-.1 0-.2-.1-.3-.2.1-.3.1-.4.2 0 0-.1 0-.1.1h.6zm5.2 0c-.1-.2-.2-.2-.4-.3-.1 0-.2-.1-.3-.1.1.2.2.3.4.4h.3zm2.9-14.1c-.1 0-.2-.1-.4 0h.4zM694.2 44.9v-.2-2.4c0-.8 0-1.7-.1-2.5 0-.6-.1-1.2-.1-1.7v-1c0-.6-.1-1.3-.1-1.9v-.9c0-.6-.1-1.3-.1-2v-.5c0-.2 0-.3.1-.4.2-.3.3-.6.4-.8h5.7c.2.2.2.5.3.7.1.2.1.4.1.6 0 .6 0 1.2-.1 1.9 0 .8-.1 1.5-.2 2.3 0 .6-.1 1.3-.1 1.9 0 .6-.1 1.2-.1 1.9 0 .4 0 .9-.1 1.3 0 .9 0 1.9-.1 2.9V57.2c0 1.2.1 2.3.1 3.5 0 .8 0 1.5.1 2.3 0 .8.1 1.6.1 2.5v1.1c0 .8.1 1.5.1 2.3 0 .7 0 1.4.1 2.1 0 .5 0 1.1.1 1.7v.3c-.1.3-.2.6-.4.9h-5.8c-.1-.3-.3-.6-.4-.9-.1-.1-.1-.2-.1-.3v-2.3-.3c-.1-.1-.1 0-.2.1-.6.7-1.3 1.3-2 1.9-1.2.9-2.6 1.6-4.1 1.9-1.1.2-2.2.3-3.3.3-1.4-.1-2.9-.2-4.3-.6-1.7-.5-3.2-1.2-4.7-2.2-2-1.4-3.7-3.1-5-5.3-.9-1.5-1.5-3-1.9-4.7-.2-1-.3-1.9-.4-2.9v-2.4c.2-2.5 1-4.9 2.4-7 1.5-2.4 3.5-4.3 5.9-5.7 1.3-.8 2.8-1.4 4.4-1.7 1.2-.3 2.4-.4 3.6-.4.7 0 1.4 0 2.1.1.8.1 1.6.2 2.4.4 2 .5 3.8 1.5 5.3 3 .2-.2.3-.1.4 0zm0 11.1v-2.4c0-.2 0-.4-.1-.5-.1-.6-.3-1.2-.5-1.9-.3-1-.7-1.9-1.3-2.7-.6-1-1.4-1.9-2.3-2.6-1-.7-2.1-1.2-3.3-1.6-1.5-.4-3-.5-4.5-.5-1.3.1-2.5.5-3.5 1.2-.8.5-1.5 1.2-2 2-1.1 1.5-1.8 3.2-2.1 5-.1.9-.3 1.8-.3 2.7 0 .7 0 1.3.1 2 .1.6.1 1.2.2 1.7.2 1.6.6 3.3 1.1 4.8.6 1.8 1.5 3.4 2.6 4.9.8 1.1 1.7 2 2.8 2.6 1.1.7 2.3 1.1 3.5 1.2.7.1 1.3 0 2 0 1.7-.3 3.1-1 4.4-2 1.4-1.1 2.3-2.6 2.8-4.3 0-.1.1-.2.1-.2v-.6-2.5c.1-1.3.1-2.6.1-3.9.2-.8.2-1.6.2-2.4zM610.4 62.2c.3.6.6 1.2.9 1.7.5.8.9 1.6 1.4 2.3.8 1.2 1.8 2.2 3 2.9.8.5 1.8.8 2.8 1.1 1 .2 2.1.3 3.1.3 1.3-.1 2.7-.3 4-.7 1.6-.5 3-1.3 4.3-2.4 1-.8 1.9-1.7 2.7-2.7.1-.1.2-.2.3-.4.1.1.1.1.1.2.2.3.2.7.2 1 .1 1-.1 1.9-.3 2.8 0 .1-.1.2-.2.2-1.6 1.3-3.2 2.5-5.1 3.5-1.5.8-3 1.4-4.6 1.7-1.1.2-2.2.4-3.3.3-.6 0-1.1 0-1.7-.1-2.2-.2-4.3-.7-6.2-1.7-2-1-3.7-2.4-5.1-4.1-1.3-1.5-2.2-3.2-2.8-5.1-.2-.8-.4-1.7-.6-2.5-.2-1.4-.3-2.8-.2-4.2.1-1.6.3-3.1.8-4.6.7-2.2 1.9-4.1 3.5-5.7 1-1 2-1.9 3.2-2.6 1.2-.8 2.5-1.3 3.8-1.7.9-.3 1.7-.4 2.7-.5.9-.1 1.9-.2 2.9-.1.6 0 1.2 0 1.8.1 1.3.2 2.5.5 3.7 1 1.4.6 2.7 1.4 3.8 2.5.2.2.4.5.6.7.7.8 1.3 1.7 1.9 2.6.4.7.9 1.3 1.3 1.9.1.2.2.3.1.5-.1.4-.1.8-.2 1.2-7.6 3.6-15.1 7.1-22.6 10.6zm16.5-9.7c-.1-.3-.1-.7-.2-1-.4-1.5-1.1-3-1.9-4.3-.4-.7-1-1.3-1.6-1.8-1.2-1-2.7-1.5-4.3-1.7-.8-.1-1.6-.1-2.4 0-.8.1-1.6.3-2.3.7-1.1.5-1.9 1.3-2.5 2.3-.5.8-.9 1.6-1.2 2.4-.5 1.5-.8 3.1-1 4.8-.1.6-.1 1.2-.1 1.9-.1.8-.1 1.7 0 2.5 0 .5.1 1.1.2 1.6 0 .1.1.2.1.2.3-.2 16.9-7.4 17.2-7.6zM665.1 51.8c-7.5 3.4-15 6.9-22.4 10.4.1.3.2.5.3.7.6 1.2 1.3 2.3 2 3.4 1.4 2 3.3 3.3 5.8 3.8 1 .2 2 .3 3 .3 1.2 0 2.4-.2 3.6-.6 1.4-.4 2.8-1.1 4-2 1.2-.9 2.3-1.9 3.3-3.1.1-.1.2-.3.3-.4.1.1.1.1.1.2.1.4.2.7.3 1.1 0 .8-.1 1.6-.3 2.4-.1.3-.2.5-.4.7-1.4 1.1-2.7 2.1-4.2 3-1.3.8-2.7 1.4-4.2 1.8-1.1.3-2.2.5-3.3.6-.8.1-1.6 0-2.4 0-.8-.1-1.6-.2-2.3-.3-1.5-.2-2.8-.7-4.2-1.3-1.3-.6-2.5-1.4-3.5-2.3-1.2-1.1-2.3-2.3-3.1-3.7-.8-1.3-1.4-2.7-1.8-4.2-.2-1-.4-1.9-.5-2.9-.1-.8-.1-1.6-.1-2.4.1-1.5.3-3.1.7-4.6.6-1.9 1.5-3.6 2.7-5.1 1.3-1.6 2.8-3 4.6-4 1.4-.8 2.9-1.4 4.4-1.7.8-.2 1.5-.3 2.3-.3.7 0 1.4-.1 2.1 0 .6 0 1.2.1 1.8.2 1.3.2 2.5.5 3.7 1 1.4.6 2.7 1.4 3.8 2.5.3.3.6.6.8.9.7.9 1.3 1.8 2 2.8.4.5.7 1.1 1.1 1.6.1.2.1.3.1.5s-.1.6-.1 1zm-6.1.7c0-.1-.1-.3-.1-.4-.2-1.1-.6-2.1-1-3-.4-.9-.9-1.7-1.4-2.4-.9-1.2-2.1-2.1-3.6-2.5-.8-.3-1.6-.4-2.4-.5-.8 0-1.6 0-2.4.1-1.3.2-2.4.8-3.3 1.7-.7.7-1.2 1.5-1.6 2.3-.5 1.1-.9 2.2-1.1 3.4-.2 1-.3 1.9-.4 2.9-.1.8-.1 1.6-.1 2.4 0 .6 0 1.3.1 2 0 .5.1 1 .2 1.5 0 .1 0 .1.1.2h.1c5.6-2.5 11.3-4.9 16.9-7.4-.1-.3-.1-.3 0-.3zM728.1 42.8v4.9c-.1 1-.1 2-.3 3v.1c-.1 0-.1-.1-.2-.2l-1.5-2.1c-.6-.8-1.3-1.6-2-2.2-1-1-2.3-1.8-3.6-2.3-1.1-.4-2.2-.7-3.4-.8-.7-.1-1.4-.1-2.2-.1-.8 0-1.6.1-2.4.4-.2.1-.5.2-.7.3-.8.4-1.5.9-2.1 1.6-.7.7-1 1.6-1 2.7 0 .7.3 1.5.7 2 .4.5.9.9 1.4 1.2.7.5 1.5.8 2.3 1.2 1.5.6 3.1 1.1 4.6 1.5 1.6.4 3.2.9 4.7 1.5s2.9 1.4 4.2 2.6c1.4 1.3 2.2 2.9 2.5 4.8.2 1.5.1 3-.4 4.4-.4 1.4-1.2 2.6-2.2 3.6-1.8 1.8-4 2.9-6.5 3.5-1 .2-2 .3-3 .3h-1.3c-.6 0-1.1-.1-1.7-.1-.8-.1-1.6-.3-2.3-.5-1.1-.3-2.2-.8-3.3-1.3l-.6-.3c-1.2-.5-2.4-.9-3.6-1.4-.1-.1-.3-.1-.4-.2v-.2-1.2c0-.6 0-1.1.1-1.7.1-1 .2-2 .5-3 0-.1 0-.2.2-.4 0 .1.1.2.1.2.6 1 1.3 1.9 2 2.8.5.6 1 1.2 1.6 1.8.5.5 1.1.8 1.7 1.2 1.3.7 2.5 1.2 3.9 1.6.7.2 1.4.3 2.1.3.5 0 .9.1 1.3 0 .7 0 1.4-.2 2.1-.4 1.4-.5 2.6-1.3 3.7-2.4.5-.5.9-1.2 1.2-1.9.2-.5.2-1.1.2-1.6-.1-1.6-.8-2.9-2-3.9-.8-.7-1.7-1.2-2.6-1.5-1.2-.5-2.4-.8-3.7-1.1-1.9-.5-3.9-1-5.8-1.6-1.2-.4-2.3-.9-3.3-1.7-1.3-1-2.3-2.3-2.8-3.9-.2-.6-.3-1.2-.4-1.9-.1-1.1-.1-2.1.2-3.2.3-.8.7-1.5 1.2-2.2.6-.9 1.4-1.7 2.3-2.3 1.1-.7 2.2-1.1 3.4-1.4.8-.2 1.6-.2 2.4-.3.9-.1 1.8-.1 2.7-.1.7 0 1.4.1 2 .2.9.1 1.9.3 2.8.5.8.1 1.6.3 2.4.5 1.6.3 3.2.6 4.7 1 0-.3 0-.3.1-.3zM574.6 35.6h6.5c.1.3.3.6.4 1v.4c-.1.8-.1 1.6-.1 2.4 0 1-.1 2-.2 3 0 .5 0 .9-.1 1.4 0 .6-.1 1.2-.1 1.8 0 .6-.1 1.2-.1 1.9-.1 2-.1 3.9-.1 5.9v2.7c0 1 0 1.9.1 2.9 0 .9 0 1.7.1 2.5 0 .9 0 1.8.1 2.8v1.9c0 .6 0 1.2.1 1.8 0 .8.1 1.5.1 2.3 0 .2 0 .5.1.7h.1c.9 0 1.7.1 2.5.1.5 0 1 .1 1.5.1.7 0 1.5.1 2.3.1h4.5c.6 0 1.1-.1 1.6-.1 1.5-.1 2.9-.3 4.4-.7 1.5-.4 2.8-1.3 3.7-2.7 0-.1.1-.2.2-.3h.1l.9.3c.1.2 0 .3 0 .5 0 .3-.1.6-.1.9-.4 1.6-.9 3.2-1.6 4.7-.1.1-.2.3-.2.5-.3 0-.5-.1-.8-.1-.9 0-1.9-.1-2.8-.1H596c-1 0-2.1-.1-3.1-.1h-18.4c-.1-.4-.3-.7-.4-1v-.3c0-.9.1-1.9.1-2.8 0-.6.1-1.3.1-1.9v-1c0-.6.1-1.3.1-2v-.6c0-.7.1-1.4.1-2.1 0-.6.1-1.3.1-1.9v-1.4c0-.9.1-1.8.1-2.6v-.9-6.3V47c0-.8-.1-1.5-.1-2.2 0-.7-.1-1.4-.1-2 0-.7-.1-1.4-.1-2 0-.5-.1-1.1-.1-1.7 0-.5-.1-1.1-.1-1.6 0-.3 0-.5.1-.8.1-.6.2-.9.3-1.1zM546.6 91.9h-35.8v-.2-4.5-.3H546.6v4.8c.1.1 0 .2 0 .2z"/>
    <path class="dark" d="M512.6 86H509.9c-.1.1-.1.3-.1.4v3.1h-17.4c-.1-.1 0-.2.1-.2.7-.7 1.3-1.5 2-2.2l.1-.1c-.1-.1-.1-.1-.1-.2-.5-.7-.9-1.4-1.4-2.1 0 0 0-.1-.1-.1.1 0 .1-.1.2-.1H512.1c.1 0 .3 0 .5.1V86zM547.5 89.5v-.4-2.7c0-.1 0-.3-.1-.4H544.7c-.1-.3 0-.5 0-.7v-.8h19.1c.2 0 .3 0 .5.1-.1.3-.3.6-.5.8-.2.3-.3.6-.5.8-.2.3-.4.5-.5.8.4.5.7.8 1.1 1.2.4.4.7.8 1.1 1.2 0 .1-.1.1-.1.1H548c-.2 0-.4.1-.5 0zM546.8 35.6v-.3-1c0-.7-.3-1.3-.7-1.9h-.3c-.2 0-.5-.1-.7-.2-.4-.2-.4-.7-.1-1 .4-.3 1.1-.3 1.5 0 .2.2.3.4.2.7.1.1.3.2.4.3.5.4.9.7 1.5 1 .2.1.4.2.7.3.1 0 .3.1.4.1.4 0 .6-.2.8-.5.1-.3.2-.6.2-.9v-.6h.9c0 .1 0 .2.1.3 0 .2.1.4.1.7.1.2.1.4.3.6.3.4.6.5 1.1.4.3 0 .6-.2.9-.3.6-.3 1.1-.8 1.6-1.3.1-.1.1-.1.1-.2 0-.3.2-.5.5-.6.3-.2.7-.2 1 0 .1 0 .2.1.2.2.3.2.3.7 0 .9-.1.1-.3.2-.4.2-.1 0-.3 0-.5.1-.3.3-.5.7-.7 1.2-.2.4-.3.7-.3 1.1v1c-.1 0-.1 0-.1.1h-8.8c.3-.4.2-.4.1-.4zM500.7 32.3c-.2 0-.4 0-.7-.1-.3-.1-.4-.3-.4-.6s.2-.5.4-.6c.4-.2.8-.2 1.2.1.2.1.3.3.4.5 0 .1 0 .2.1.3.5.5 1 1 1.6 1.3.2.1.5.2.7.3.6.2 1.1-.1 1.4-.6.1-.3.2-.6.2-.9v-.3h.9c.1.1.1.3.1.4 0 .2 0 .4.1.6 0 .1 0 .2.1.3.3.6.6.8 1.3.6.3-.1.5-.2.8-.3.7-.4 1.2-.8 1.8-1.3 0 0 0-.1.1-.1 0-.4.2-.7.5-.8.3-.1.6-.1 1 0 .1 0 .3.1.3.2.2.2.2.6 0 .8-.2.2-.4.3-.7.3h-.3c-.2.2-.3.4-.4.6-.2.5-.4.9-.3 1.4v1.3h-9v-1.1c0-.3-.1-.6-.2-.8-.4-.6-.7-1-1-1.5zM533.8 33.7c0-.1.1-.1.2-.1.4-.2.7-.3 1.1-.5.4-.2.8-.4 1.1-.7.4-.3.5-.8.7-1.2.2-.5.3-1.1.4-1.7.1-.4 0-.8.1-1.2 0-.7.3-1.3.7-1.8.1-.1.2-.3.3-.4.1-.1.1-.2.2-.3.1.1.1.2.2.3.1.2.2.3.2.4.2.3.4.5.6.8.1 0 .1-.1.1-.1v-.5c0-.4.2-.8.4-1.2.3-.5.8-1 1.3-1.3.2.1.4.2.5.4l.3.6c0 .1 0 .2.1.3 0 .1.1.3.3.3.2.1.3.1.5.1H544c0 .2-.1.2-.2.3-.3.2-.4.5-.5.8-.2.8-.4 1.7-.4 2.5v.1c-.1 0-.1 0-.1-.1-.1-.1-.1-.3-.1-.5 0-.1-.1-.2-.1-.4-.1.1-.2.1-.2.1-.4.3-.9.5-1.3.8-.1 0-.2.1-.3.1-.3.1-.5.2-.7.5-.3.4-.6.8-.9 1.1-.4.6-.8 1.1-1.2 1.7-.4.6-1 .9-1.7.9-1.1.2-1.8.1-2.5-.1zM554.9 28.8c-.2.1-.3 0-.4 0-.9 0-1.7-.2-2.4-.9-.5-.4-.8-1-1-1.5-.1-.1-.1-.3-.1-.5-.1-.4-.3-.7-.6-.9-.3-.3-.6-.5-1-.7-.1-.1-.2-.2-.4-.2.1-.1.2-.1.2-.1h3.2c.2 0 .5-.1.6-.3.3-.3.6-.5.9-.6.3-.1.6-.1 1-.1.3.1.6.1.8.2.3.1.6.1.9 0 .2 0 .5-.1.7-.2v.2c-.1.4-.3.8-.6 1.1-.1.1-.1.2-.2.2.1.1.1.1.2.1.4 0 .7.1 1 .2.2.1.4.2.5.4 0 .1.1.2.1.2 0 .4-.1.8-.3 1.2-.3.6-.9.9-1.5 1h-.9c-.2 0-.3-.2-.4-.3-.2-.1-.4-.2-.5-.3-.1-.1-.3-.1-.4-.1-.1 0-.2.1-.1.1 0 .1 0 .2.1.3l.3.3c.2.5.3.8.3 1.2zM500.8 24.6c-.1-.1-.2-.3-.3-.4-.1-.1-.2-.2-.3-.4-.1-.1-.2-.3-.2-.4-.1-.1-.1-.3-.1-.4 0-.1.1 0 .1 0 .3.1.6.2 1 .2h.4c.4-.1.8-.2 1.2-.2.2 0 .5 0 .7.1.3.1.6.3.8.5.2.2.5.3.8.3H508c-.1.1-.2.1-.3.2-.3.2-.5.4-.8.6-.2.1-.3.2-.4.4-.2.2-.3.4-.3.6-.1.6-.3 1.1-.7 1.6-.6.8-1.3 1.2-2.3 1.4h-.9c-.1-.4 0-.7.3-1 .1-.1.2-.1.2-.2.1-.1.1-.2.2-.3.1-.2 0-.3-.3-.3-.1 0-.3.1-.4.1-.2.1-.4.3-.6.4-.1.1-.2.1-.3.2-.5.1-1.1 0-1.5-.2-.4-.1-.6-.4-.8-.7-.2-.4-.3-.8-.3-1.3 0-.1 0-.2.1-.2.3-.4.8-.6 1.3-.6h.6zM658.7 80.4c1.3 0 2.3.5 3.2 1.3.6.5 1.1 1.1 1.4 1.9.5 1.4.4 2.8-.5 4.1-.6 1-1.5 1.6-2.6 2-.7.3-1.4.3-2.2.2-1.5-.2-2.7-1.1-3.5-2.3-.9-1.4-.9-3.3 0-4.7.5-.8 1.2-1.4 2.1-1.9.7-.5 1.4-.6 2.1-.6zm3.3 5v-.1c0-1.6-.7-2.8-2-3.6-1-.6-2-.6-3 0-.7.5-1.2 1.1-1.4 1.9-.2.6-.2 1.2-.2 1.9.2 1.4.9 2.5 2.1 3.2.4.2.8.3 1.2.4.9.1 1.6-.3 2.2-.9.8-.8 1.1-1.7 1.1-2.8zM692 89.6H690.4c-.2 0-.3-.1-.4-.2h-.1c-.3-.5-.7-1-1-1.5-.4-.5-.7-1-1-1.5-.6-.8-1.1-1.6-1.7-2.4-.1-.1-.2-.2-.2-.3l-.1.1c-.1.6-.1 1.3-.1 1.9v.8c0 .8.1 1.6.1 2.4v.4c0 .1 0 .3-.1.4-.3.1-.6.1-.9 0-.1-.1-.1-.3-.1-.4v-.8c.1-1.1.1-2.2.1-3.3 0-.7-.1-1.4-.1-2.1v-2c0-.1 0-.2.1-.3.2-.1.4 0 .5-.1h.5c1.6 2.5 3.3 5 5.1 7.4l.1-.1v-3.1-2c0-.6 0-1.2-.1-1.8 0-.1 0-.3.1-.4h.8c.1.1.2.3.1.4v1c-.1 1-.1 2.1-.1 3.2 0 .9.1 1.8.1 2.6v1.2c.2.3.1.4 0 .5zM522.4 24c-.1 0-.2-.1-.3-.1-.2-.1-.4-.1-.5-.1-.3-.1-.6-.3-.6-.7 0 0 .1-.1.2-.1.6-.1 1.3-.2 1.9-.2.7-.1 1.3-.2 2-.2.4 0 .8-.1 1.2-.1.5-.1 1 0 1.4.1.8.1 1.5.3 2.3.4.3 0 .7.1 1 .1h1.3c.2 0 .2.1.3.2 0 .1 0 .3-.1.4-.1.1-.3.2-.4.3-.2.1-.4.3-.6.4-.1.1-.2.2-.2.4 0 .4 0 .4-.4.5-.4.1-.9.3-1.2.6-.1.1-.1.2-.2.2-.1.1-.1.3-.1.4 0 0 0 .1.1.1.1.2.1.2-.1.4-.1 0-.2.1-.2.1-.3.2-.5.3-.9.3-.6 0-1.1.3-1.4.8-.1.1-.1.2-.2.4 0 .1-.2.1-.2 0s-.1-.1-.1-.2c-.1-.2-.2-.5-.4-.7 0-.1-.1-.1-.1-.2-.1-.1-.3-.2-.4-.2h-.4c-.4 0-.8-.2-1.1-.4-.1-.1-.1-.2-.1-.3 0-.1 0-.1.1-.1.2-.2.2-.4.1-.7-.1-.2-.3-.4-.5-.5-.2-.1-.5-.2-.7-.3-.1-.1-.2-.1-.3-.1-.2-.1-.2-.2-.1-.4-.1-.4-.1-.4-.1-.5zm4.3-.5c-.3 0-.7 0-1.1.1-.6 0-1.3.2-1.9.2h-.1c-.1 0-.2.1-.1.2s.2.2.4.3c.3.1.7.3 1 .4.2.1.4.1.5.2.2.1.3.1.5.3.2.3.3.6.4.9.1.2.1.5.2.8 0 .1.1.2.2.2s.2-.1.2-.2c0-.2.1-.3.1-.5.1-.4.3-.8.7-1.1.4-.2.8-.4 1.2-.4.2 0 .4 0 .6-.1.2-.1.5-.1.7-.2.2-.1.2-.2.2-.4s-.1-.2-.2-.3h-.1c-.4-.1-.6-.2-1-.3-.7 0-1.5-.1-2.4-.1zm1.6 3.2c.2 0 .4-.2.5-.4 0-.3-.2-.5-.4-.5-.3 0-.4.2-.5.4-.1.3.2.5.4.5zm-3.2-1.1c-.3 0-.5.2-.5.4s.2.4.5.4c.2 0 .4-.1.4-.4 0-.2-.2-.4-.4-.4z"/>
    <path class="dark" d="M502.8 40.2c.1-.1.2-.1.2-.2.1-.1.2-.2.1-.4 0-.2-.1-.4-.3-.6-.2-.2-.5-.4-.8-.4-.2-.1-.5-.2-.7-.2-.1 0-.2 0-.3-.1-.2-.1-.3-.2-.3-.4 0-.1 0-.2.1-.3-.1 0-.1 0-.1-.1-.2-.1-.3-.3-.3-.6s.1-.6.3-.7c.2-.1.6-.1.8 0 .2.1.3.3.3.5s0 .3.1.5c0 .3.2.5.5.6.3.1.6.2.9.2.3.1.6.1 1 .2 1.2.2 2 1 2.4 2.1 0 .2.1.3.1.5 0 .1.1.1.1.2h.1c.1 0 .1 0 .1-.1v-.3c0-.6.2-1.2.6-1.7.3-.5.8-.8 1.3-1 .3-.1.7-.2 1-.3.2-.1.5-.2.7-.2.1 0 .2-.1.3-.1.2-.1.3-.3.3-.5v-.4-.2c.1-.5.4-.7 1-.6.3 0 .5.3.5.6 0 .1-.1.3-.1.4 0 .1-.1.2-.2.3 0 .1.1.1.1.2.1.3 0 .5-.3.6-.2.1-.3.1-.4.1-.3.1-.6.2-.9.4-.2.2-.4.3-.5.6-.2.3-.1.7.2.9.1.1.2.1.3.2-.1.1-.2.1-.3.1-.2 0-.4.1-.5.3-.2.2-.3.3-.6.4-.2.1-.4.1-.6.1-.4 0-.8.2-1.1.4-.3.3-.5.6-.6 1 0 .1-.1.2-.1.3l-.1.1c-.1 0-.1 0-.2-.1l-.1-.1c-.1-.3-.3-.6-.5-.9-.2-.3-.5-.4-.9-.4h-.8c-.2 0-.4 0-.6-.1-.1 0-.3-.1-.3-.2-.2-.3-.4-.4-.7-.5-.1 0-.2 0-.2-.1zm1.6.4c.3 0 .6-.3.6-.6s-.3-.6-.6-.6-.6.3-.6.6.3.6.6.6zm4.3-1.5c-.3 0-.6.3-.6.6s.3.6.6.6.6-.3.6-.6-.3-.6-.6-.6zM556.8 37.6v.2c0 .3-.1.4-.3.5-.2.1-.3.1-.5.1l-.9.3c-.1.1-.3.2-.4.3-.2.1-.2.3-.3.5 0 .2 0 .3.2.4.3.2.3.2-.1.4-.2.1-.4.2-.5.4-.2.3-.5.3-.8.4h-1c-.4 0-.7.1-.9.5-.2.3-.4.6-.5.9 0 .1-.1.1-.1.2-.1.1-.2 0-.2 0 0-.1 0-.1-.1-.2-.1-.7-.5-1.1-1.1-1.5-.2-.1-.3-.1-.5-.1h-.2c-.4 0-.7-.2-.9-.4-.2-.3-.5-.4-.8-.4 0 0-.1 0-.1-.1l.1-.1c.1 0 .1-.1.2-.1.3-.2.4-.5.3-.8-.1-.2-.2-.4-.4-.5-.3-.3-.7-.5-1.1-.6-.1 0-.1 0-.2-.1-.3-.1-.5-.3-.3-.7 0-.1 0-.1.1-.1-.1-.1-.1-.2-.2-.3 0-.1-.1-.2-.1-.3-.1-.4.2-.7.5-.7.4 0 .7.2.8.6.1.1.1.2.1.4v.4c0 .2.1.4.3.4.1 0 .2.1.3.1l.9.3c.4.1.7.2 1 .4 1 .6 1.4 1.4 1.5 2.5v.4l.1.1h.1c0-.1.1-.2.1-.3.1-.3.2-.7.3-1 .4-.8 1.1-1.4 2-1.6.3-.1.7-.2 1-.2.2 0 .5-.1.7-.1.1 0 .2 0 .3-.1.3-.1.4-.3.5-.6 0-.2.1-.4.1-.5 0-.4.4-.7.7-.7.2 0 .4.1.5.3.2.2.2.5.2.8 0 .1-.1.2-.2.3-.1-.2-.1-.1-.2 0zm-3.9 3c.3 0 .6-.3.6-.6s-.3-.6-.6-.6c-.4 0-.6.3-.6.6s.2.6.6.6zm-3.7-.8c0-.3-.3-.6-.6-.6s-.6.3-.6.6.3.6.6.6.6-.3.6-.6zM670.4 80.8h1.4c.1.1.2.3.1.4v.8c-.1 1.1-.1 2.3-.1 3.4 0 .6 0 1.2.1 1.7.1.2.1.4.2.6.3.6.7 1 1.3 1.1.2 0 .5.1.7.1.5 0 1-.2 1.4-.5.5-.4.8-1 .9-1.6.1-.4.1-.7.1-1v-2.3c0-.7-.1-1.3-.1-2v-.4c0-.1 0-.2.1-.3h.9c.1.1.1.2.1.4 0 .3-.1.5-.1.7 0 .9-.1 1.7-.1 2.5v2.2c0 .4-.1.7-.2 1.1-.2.4-.4.9-.8 1.2-.5.5-1.1.8-1.8.9-.6 0-1.2 0-1.8-.1-.5-.1-.9-.3-1.3-.6s-.6-.7-.8-1.1c-.2-.6-.2-1.2-.2-1.7v-1.8c0-.9 0-1.8-.1-2.7 0-.2-.1-.4-.1-.6l.2-.4zM647.2 83.1c-.2 0-.4.1-.6.1-.1-.1-.1-.2-.2-.3-.4-.8-1-1.2-1.9-1.4h-.9c-.8.1-1.3.5-1.9 1-.4.5-.7 1.1-.8 1.8-.2 1.7.4 3.1 1.8 4.1.4.3.9.4 1.5.4.4 0 .8-.1 1.2-.1.4-.2.9-.3 1.2-.7l.1-.1c.1 0 .1.1.1.1.1.1.1.2.2.4-.4.6-1 1-1.7 1.2-1 .3-2.1.3-3.1-.1-.8-.3-1.4-.8-1.9-1.4-.5-.6-.9-1.3-1.1-2.1-.3-1.3 0-2.6.9-3.6.4-.5 1-1 1.6-1.3.8-.4 1.6-.6 2.5-.5.6.1 1.2.2 1.8.4.3.1.5.2.9.1.1 0 .2 0 .2.2.1.6.1 1.2.1 1.8zM582 83.1c-.2.1-.4.1-.6.1 0-.1-.1-.1-.1-.2-.4-.9-1.1-1.4-2-1.5h-1.2c-.6.1-1.1.5-1.5 1-.5.5-.8 1.2-.8 1.9-.1 1.7.5 3 1.8 4 .5.4 1 .5 1.6.5.4 0 .7-.1 1.1-.1.5-.1.9-.3 1.2-.7 0-.1.1-.1.1-.1.2.2.2.4.3.5-.2.4-.7.8-1.2 1-.4.2-.7.3-1.1.3h-.5c-1.4.1-2.6-.4-3.5-1.4-.4-.4-.7-.8-1-1.3-.3-.5-.4-1.1-.4-1.7 0-.4 0-.7.1-1.1.1-.7.4-1.3.8-1.8.5-.5 1-1 1.6-1.4.8-.4 1.7-.6 2.6-.5.6.1 1.2.2 1.7.4.3.1.5.2.9.1.1 0 .2 0 .2.2-.1.2-.1 1.6-.1 1.8zM706.2 83.2c0-.1-.1-.1-.1-.2-.4-.9-1.1-1.3-2-1.4-.5 0-.9 0-1.3.1-.3.1-.6.2-.8.4-.9.7-1.3 1.5-1.4 2.6 0 .8.1 1.6.5 2.3.3.6.7 1.1 1.2 1.4.5.4 1.1.6 1.7.5.4 0 .8-.1 1.2-.2.4-.1.8-.3 1.1-.7l.1-.1c.2.2.3.4.4.6-.4.6-1 1-1.7 1.2-.7.2-1.5.2-2.3.1-.9-.2-1.6-.6-2.2-1.2-.7-.6-1.2-1.3-1.4-2.2-.4-1.4-.2-2.7.7-3.8.6-.8 1.4-1.4 2.4-1.7.6-.2 1.2-.3 1.8-.2.6.1 1.2.2 1.8.4.3.1.6.2.9.1.1 0 .2.1.2.2v1.7c-.1 0-.3.1-.4.1h-.4zM601.9 89.6c-.1-.1-.1-.2-.1-.4 0-.4 0-.8.1-1.3v-1.7-1c0-.9 0-1.9-.1-2.9 0-.3 0-.5-.1-.8-.1-.1-.2-.1-.4-.1H598c0-.3 0-.5.1-.8.1-.1.2-.1.4-.1h8.4c.1.3.1.5.2.8h-2.7c-.3 0-.6 0-.9.1-.1.2 0 .3 0 .4 0 .5-.1 1-.1 1.5v3.6c0 .6.1 1.3.1 1.9 0 .1 0 .3-.1.5-.2.3-1.2.3-1.5.3zM617.8 84.9l.3-.3c.5-.9 1-1.7 1.5-2.5.2-.4.4-.7.5-1 .1-.2.3-.3.5-.3h.6c.1 0 .2.1.1.2 0 .1-.1.1-.1.2-.8 1.2-1.7 2.5-2.6 3.7-.1.1-.2.3-.3.5-.1.1-.1.2-.1.3v3.7c0 .1 0 .2-.1.4-.2.1-1.2.1-1.6 0-.1-.1-.1-.2-.1-.4 0-.7.1-1.5.1-2.2v-1.5c0-.1 0-.3-.1-.4-.4-.5-.7-1-1-1.4-.6-.9-1.3-1.7-1.9-2.6-.1-.1-.1-.2-.1-.3.1-.1.2-.1.3-.1h1c.3 0 .4.1.5.3.3.5.5.9.8 1.4.4.7.9 1.5 1.3 2.2.3 0 .4.1.5.1zM725.2 88.9h.8c.8 0 1.5 0 2.3-.1.4-.1.7-.2.9-.4h.1c.1.1.1.1 0 .2 0 .3 0 .7-.2 1.1-1.8 0-3.7-.1-5.5-.1-.1-.1-.1-.2-.1-.4v-1.4c0-.4.1-.9.1-1.3v-2.4c0-.6 0-1.1-.1-1.7v-1.3c0-.1 0-.3.1-.4.2-.1 1.2-.1 1.5 0 .1.1.1.3.1.4-.1 1.1-.1 2.2-.1 3.3v2.5c0 .6.1 1.2.1 1.7-.1.1-.1.2 0 .3zM589.8 89.6c-.1-.2-.2-.4-.2-.6 0-.7.1-1.4.1-2.1v-1.4-1.8c0-.5 0-1.1-.1-1.6v-.8c0-.2 0-.4.1-.5.2-.1 1-.1 1.4 0 .1.2.1.4.1.6-.1 1.1-.1 2.2-.1 3.2V89c0 .2 0 .4-.1.6-.2.1-.5 0-.7.1 0-.1-.3-.1-.5-.1zM714.6 89.6c-.2-.2-.2-.4-.1-.6 0-.5.1-1.1.1-1.6v-3.1-1.2c0-.6 0-1.1-.1-1.6 0-.2 0-.4.2-.6h1.4c.1.1.2.3.1.4v1.5c0 .5-.1 1-.1 1.5v3.2c0 .6 0 1.1.1 1.7 0 .1 0 .3-.1.4h-1.5zM514.7 25.5c-.4-.2-.7-.6-.7-1-.1-.6-.2-1.2-.1-1.8 0-.3.2-.5.4-.7.2-.1.3-.2.5-.3.7-.3 1.4-.4 2.1-.5h.1c.1.1.1.1 0 .2-.1.4-.3.9-.6 1.2-.2.3-.5.7-.7 1-.1.2-.3.3-.5.4-.2.1-.4.3-.4.5s0 .4-.1.5c.1.2.1.4 0 .5zM542.6 25.5c0-.2-.1-.4-.1-.7 0-.3-.1-.5-.4-.7-.2-.1-.3-.2-.4-.3-.5-.6-1-1.2-1.3-1.9 0-.1-.1-.3-.1-.4v-.1h.2c.6.1 1.3.2 1.9.5.2.1.5.2.7.3.3.2.4.4.4.7v1.7c-.2.4-.5.7-.9.9zM500.7 28.2c-.6 0-1.2-.1-1.7-.2s-.8-.3-1.2-.6c-.5-.3-.9-.8-1.1-1.3-.2-.3-.2-.7-.1-1 .1-.4.4-.7.8-.7.5-.1.8.1 1.1.5.1.3.2.5.3.8.1.2.1.5.2.7.2.7.7 1.2 1.3 1.5.1.1.2.1.3.2-.1 0 0 0 .1.1zM556.7 28.2c0-.1.1-.1.2-.2s.3-.1.4-.2c.7-.3 1.1-.9 1.2-1.7.1-.3.2-.6.3-1 0-.2.1-.3.2-.4.3-.4.8-.5 1.3-.3.3.1.4.5.5.8 0 .3 0 .6-.2.8-.4.8-1 1.4-1.8 1.7-.6.2-1.3.4-1.9.4 0 .2-.1.1-.2.1zM551.5 64.8h-.2c-.2-.1-.4-.2-.5-.3-1.2-.9-2.2-1.9-3-3.2-.2-.3-.4-.7-.5-1 0-.1-.1-.2-.1-.2 0-.2.2-.4.4-.4.2-.1.4 0 .4.2l.3.6c.4 1 1 1.8 1.8 2.7.4.5.8.9 1.2 1.4.1-.1.2 0 .2.2zM506 64.7c0-.1.1-.2.2-.3.4-.4.7-.8 1.1-1.2.6-.6 1.1-1.3 1.5-2 .3-.4.5-.9.7-1.4 0-.1.1-.1.1-.1.1-.2.3-.3.6-.2.2.1.3.3.2.5-.1.4-.3.8-.6 1.1-.4.7-.8 1.2-1.3 1.7s-1 1-1.5 1.4c-.2.1-.4.3-.7.4-.1.2-.2.2-.3.1zM551.3 31.4c-.2 0-.4-.1-.5-.1-.1-.1-.2-.2-.3-.2-.2-.2-.2-.5 0-.7l.2-.2c.4-.2.8-.2 1.2 0 .2.1.4.2.4.5s-.1.5-.3.7c-.3-.1-.5 0-.7 0zM506.3 31.4c-.3 0-.5-.1-.7-.2-.4-.3-.4-.8 0-1 .4-.3 1.1-.3 1.5 0 .4.3.4.8 0 1-.3.1-.6.2-.8.2zM511.9 46.9h-.1c0-.1-.1-.1-.2-.1-.2-.1-.3-.1-.5.1 0 0 0 .1-.1.1-.1-.1-.1-.2-.1-.3-.1-.3-.3-.7-.6-.9-.1-.1-.1-.1-.1-.2-.1-.3.1-.5.4-.4.2 0 .4.2.6.3.4.3.6.7.7 1.2-.1 0 0 .1 0 .2zM546.6 47c0-.1-.1-.1 0 0-.3-.3-.4-.3-.6-.1-.1 0-.1.1-.2.1s-.1-.1-.1-.1c.1-.6.3-1.1.8-1.5.2-.1.3-.2.5-.3.2 0 .3.1.4.2.1.1.1.3 0 .4-.4.3-.6.8-.8 1.3 0-.1 0-.1 0 0zM547 56.3c-.1-.1-.2-.1-.3-.1 0 0-.1-.1-.2-.1-.2 0-.4 0-.6.2l-.1-.1-.3-1.2c0-.2 0-.4.1-.5.1-.2.3-.2.5-.1.1.1.2.1.2.2.2.5.4 1.1.7 1.7zM511.6 56.4c-.2-.3-.4-.3-.7-.2-.1 0-.2.1-.3.1v-.2c.2-.5.3-1 .5-1.5.1-.2.2-.3.3-.4.1-.1.2 0 .3 0 .2.1.3.3.2.6 0 .6-.1 1-.3 1.6zM548.8 46.9c-.1-.1 0-.1 0-.2.1-.2.2-.5.4-.6.2-.2.5-.4.7-.6.1-.1.3-.2.5-.2s.3.1.4.2c.1.2.1.3-.1.4l-.2.2c-.2.2-.3.4-.4.6-.1.1-.1.2-.1.3-.1 0-.1-.1-.1-.1-.1-.3-.2-.3-.5-.2-.1.1-.3.2-.4.2h-.2zM508.7 47c-.1-.1-.2-.1-.2-.1-.1-.1-.3-.1-.4-.2-.2-.1-.3 0-.4.2 0 .1-.1.1-.1.2-.1 0-.1-.1-.1-.1 0-.1-.1-.2-.1-.3-.1-.2-.3-.5-.5-.6l-.1-.1c-.1-.1-.1-.3 0-.4.1-.1.2-.2.3-.1.1 0 .3 0 .4.1.6.3 1.1.8 1.3 1.4-.1-.2-.1-.1-.1 0 0-.1 0-.1 0 0zM525 37.6c.1 0 .2 0 .2.1l.1.1c.4.7.9 1.3 1.5 1.8.1.1.3.2.4.4l.1.1v.1h-.1c-.1 0-.1 0-.1-.1-.8-.5-1.5-1-2-1.8-.1-.1-.2-.3-.3-.5-.2 0 0-.2.2-.2zM546 51.2c-.1 0-.1-.1-.2-.1-.2-.1-.3-.1-.4 0 0 0-.1.1-.2.1v-.1-1.4c0-.2.1-.3.2-.4.1-.1.3-.1.4 0 .1.1.2.2.2.4v1.5zM509.5 51.3c-.4-.3-.4-.3-.9 0v-.1c0-.3 0-.7-.1-1v-.3c0-.2.1-.3.2-.4.1-.1.3-.1.4 0 .1.1.2.2.3.4v.9c.1.1.1.3.1.5zM548.9 51.3c-.4-.3-.4-.3-.8-.1-.1 0-.1-.1 0-.1 0-.4 0-.9.1-1.3v-.2c.1-.2.3-.3.4-.3.2 0 .4.3.4.4v.4c-.1.4-.1.8-.1 1.2zM512.4 51.2c-.4-.2-.4-.2-.8 0v-.1-1.3c0-.2.1-.4.3-.5.1-.1.2-.1.3 0 .2.1.3.3.3.4-.1.6-.1 1-.1 1.5zM523.9 35.9c-.1-.2-.2-.5-.3-.8 0-.1 0-.3.2-.3.1-.1.2 0 .3 0 .1.1.1.1.1.2.1.3.2.6.4.8-.1.1-.1 0-.2 0-.3-.1-.3-.1-.5.1zM524 33.1c-.3-.1-.3-.1-.6 0-.1 0 0-.2 0-.2v-.6c0-.2.2-.3.3-.3.2 0 .3.1.3.3v.8zM523.8 73.3c.2-.5.4-1 .3-1.6.1 0 .2-.1.4-.1.4 0 .7-.2.9-.4.1-.1.2-.2.2-.3.2-.1.3-.3.3-.5.1-.2.1-.4.1-.7 0-.6-.2-1.1-.4-1.7-.1-.3-.3-.5-.6-.7-.2-.2-.6-.2-.8-.2-.5 0-1.1.1-1.6.3-.5.3-.8.7-.7 1.3 0 .3.2.4.5.3.1-.1.2-.1.3-.3.2-.4.5-.6 1-.6h.4c.3 0 .6.2.8.5.3.5.3 1 .2 1.5 0 .1-.1.3-.2.3-.2.2-.4.3-.7.3-.2 0-.4 0-.6-.1-.2-.1-.3-.2-.4-.4-.1-.2 0-.4.1-.5.2-.1.3-.2.5-.1.1.1.2.1.3.1.2.1.4 0 .5-.3 0-.1 0-.2-.1-.4-.2-.2-.4-.3-.6-.3-.8-.1-1.3.4-1.4 1.1-.1.4.1.9.3 1.2.1.2.3.2.5.3.1.3.1.6 0 .9-.1.2-.2.5-.4.8-.1.3-.4.4-.6.4-.4 0-.8-.1-1-.5-.2-.3-.4-.7-.5-1.1-.1-.2-.1-.4-.2-.5-.1-.2-.1-.5-.3-.7-.2-.2-.4-.4-.6-.5-.1 0-.2-.1-.3-.2-.1-.1-.2-.3-.2-.5s.1-.4.3-.5c.1 0 .2-.1.3-.1h.3c.4 0 .8-.2 1-.6.2-.3.3-.5.5-.8.1-.1.1-.2.1-.3v-.4c0-.2 0-.3.1-.5.1-.3.3-.6.7-.7.1 0 .3-.1.5-.2V65c0-.3.1-.5.1-.8.1-.5.5-.9.9-1.2.4-.2.9-.3 1.4-.3.2 0 .3-.1.4-.2.2-.3.4-.5.6-.7.3-.3.7-.4 1.1-.4.3 0 .6 0 .9.2v2.9c-.1.1-.2.3-.3.4-.2.3-.4.6-.4 1.1v.8c0 .2 0 .3.1.5.1.4.2.8.2 1.3 0 .4.1.8.1 1.2v.3c0 .3-.1.4-.4.6-.1.1-.3.1-.4.1-.1 0-.2.1-.2.2s-.1.3-.1.5c-.1.3-.1.5-.1.7-.1.3-.2.5-.4.8-.1 0-.1.1-.1.1-.1.1-.1.2-.1.4v.1c.1.6.1 1.2.1 1.8 0 .9.1 1.7.1 2.6 0 .2.1.4.1.6.1.3.2.6.2.9.1.2.1.5 0 .7-.1.3-.3.4-.6.4-.1 0-.2 0-.2-.1-.1-.1-.1-.3-.2-.5v-2.1c0-.7-.1-1.5-.2-2.2 0-.3-.1-.5-.2-.7-.3-.4-.4-.7-.7-1-.1-.2-.3-.5-.5-.6-.3 0-.3 0-.4-.1zM535.9 73v-.4-1.7-.2c-.1-.2-.2-.3-.4-.3-.1 0-.3.1-.4.3v3c0 .3.1.6.2 1 0 .2.1.4.1.7v2.2c0 .3 0 .6-.1.9-.1.2-.1.5-.3.7-.1.1-.3.3-.4.5-.1 0-.1.1-.1.1-.1.1-.2 0-.2-.1v-.3c.1-.8.2-1.6.2-2.3 0-.7 0-1.3-.1-1.9 0-.1-.1-.2-.1-.3l-.9-2.1c-.1-.2-.2-.5-.2-.8 0-.7-.1-1.3 0-2 0-.1 0-.2.1-.3.1-.3.3-.5.5-.7.1-.1.2-.3.1-.4 0-.1-.1-.2-.2-.2-.2-.1-.3 0-.5.1-.2.2-.4.5-.5.7-.3.6-.3 1.3-.2 2 .1.4.2.9.2 1.3 0 .2 0 .3-.2.5-.1.1-.1.2-.1.4-.1.4-.1.9-.1 1.3 0 .2 0 .5.1.7v.3c0 .7-.1 1.3-.1 2 0 .2-.1.3-.1.4-.2.3-.3.4-.5.5v-.1-1.1-1.8c-.1-1-.1-1.9-.4-2.9-.1-.1-.1-.3-.1-.5 0-.3 0-.6.2-.8.1-.2.2-.4.2-.6 0-.3 0-.6-.1-.9-.1-.3-.2-.6-.2-.9-.1-.6 0-1.2.1-1.8.1-.3.1-.7 0-1-.1-.4-.4-.7-.7-1 0 0-.1-.1-.2-.1 0-.3-.1-2.2 0-2.9.1-.2.4-.2.6-.3.2 0 .4 0 .6.1.1 0 .2.1.3.2.2.2.3.4.4.6 0 .1.1.2.1.3h.2c.4 0 .7 0 1.1.1.1 0 .2.1.3.1.3.2.6.5.5.9v.5c.1 0 .1.1.2.1.3.2.6.4.8.6.3.2.5.5.7.8.1.3.1.6-.1.8l-.1.1c-.1.2-.1.3 0 .5.2.3.5.6.7.9.1.1.2.2.2.3.2.3.1.6-.1.8l-.2.2c-.2.2-.2.4-.1.6.3.6.6 1.2.6 1.9v.7c-.1.3-.4.4-.7.3-.4-.1-.5-.2-.6-.3z"/>
    <path class="dark" d="M522.5 74.4c.4-.1.7-.2 1-.5.1 0 .1.1.1.2.1 0 .1.1.1.2v.2c0 .4-.1.9-.1 1.3v2.1c0 .1 0 .3.1.4.1.3.1.5 0 .8 0 .1-.1.2-.3.2s-.2-.1-.3-.1c-.2-.2-.4-.5-.4-.8 0-.2-.1-.4-.1-.6 0-.4 0-.8-.1-1.2 0-.1 0-.2-.1-.3-.1-.2-.1-.4-.1-.6.2-.4.2-.8.2-1.3zM529.2 60.9c-.4 0-.7-.3-.7-.7 0-.4.3-.7.7-.7.4 0 .8.3.8.7-.1.5-.5.7-.8.7z"/>
    <path class="dark" fill="#010101" d="M100.7 52.7c0 .1 0 .1 0 0zm91.6.1v4.7h-6.7v3.4h6.4v4.8h-6.4v3.7h6.6v4.9H180v-3.9h-.1c0 .1-.1.2-.1.3-.9 2.2-2.5 3.4-4.7 3.8-1.9.4-3.8.3-5.6-.2-2.4-.8-3.9-2.4-4.4-5-.7 2.4-2.2 4-4.3 4.9-2.1.9-4.3.9-6.5.3-3.5-.9-5.2-3.5-5.5-8.2-1.9 5.8-5.9 8.8-11.9 8.5-5.5-.3-9-3.5-10.5-8.9v8.5h-5.5v-8.6h-7v8.6h-5.6v-.8-20.1-.8h5.6v8.1h7v-8.1H116c1.7-4.4 3.4-8.7 5.1-13-1.3 1.5-2.9 2.7-4.8 3.2-1.4.3-2.9.5-4.3.6-1.2.1-2.4 0-3.6 0l-.1.1v9h-7.4c0-.1 0-.2-.1-.3V52 23.8v-.7h.6c3.4 0 6.7-.1 10.1 0 2.1.1 4.3.1 6.3 1.1 2.7 1.3 4.3 3.5 4.9 6.5.3 1.4.3 2.8.3 4.3.1-.1.1-.3.2-.5.1-.1.2-.3.2-.5 1.3-3.4 2.7-6.8 4-10.3.2-.5.4-.7 1-.7h5.1c.5 0 .7.2.9.6 3.3 8.5 6.5 17.1 9.8 25.6.1.1.1.3.3.4V23h.6c3.3 0 6.6-.1 9.9 0 2.1.1 4.2.2 6.3 1 3.1 1.2 4.7 3.6 5.4 6.7.5 2.1.4 4.1-.4 6.2-.7 2-2.1 3.5-4 4.5-.2.1-.4.2-.7.4 1.9 3.4 3.9 6.9 5.8 10.3h.1v-29h7.5v13.2c.2-.3.3-.4.4-.5 2.6-4 5.1-8.1 7.7-12.1.3-.4.6-.6 1.1-.6h7.2c-.2.3-.3.5-.4.7l-9 13.5c-.3.4-.2.6 0 1 3.4 4.7 6.8 9.4 10.1 14 .1.2.2.4.2.5zm-79-22.7c-1.7-.3-3.4-.3-5.1-.4v7.1c1.6-.1 3.2 0 4.8-.2 1.8-.3 2.5-1.3 2.7-3 .1-1.8-.7-3.1-2.4-3.5zm14 12.3h6.5c-1.1-3.4-2.2-6.7-3.3-10.2-1.1 3.5-2.2 6.8-3.2 10.2zm9.7 9.8c-.4-1.2-.7-2.3-1.1-3.4 0-.1-.3-.3-.5-.3h-9.6c-.2 0-.5.2-.5.3-.4 1.3-.8 2.5-1.2 3.9h2.2v8.6c1.4-5.5 5.1-8.4 10.7-9.1zm5.8 8.5c-1-2.2-2.7-3.5-5.7-3.6-.5.1-1.5.3-2.3.8-3.3 1.8-4.1 6.6-1.7 9.7 2 2.6 5.9 3.1 8.1 1 2.2-2 2.9-5.1 1.6-7.9zm6-8h-7.6c3.9 1.4 6.4 4.1 7.6 8.1v-8.1zm11.1.6c0-.2 0-.4-.1-.6L153.5 41c-.4-.8-.9-1.6-1.3-2.4 1.1-.1 2.2-.1 3.2-.2 1.9-.2 3.2-.7 3.9-2.6.9-2.5-.2-5.4-3.2-5.8-1.3-.2-2.6-.1-4-.2v22.9h2.3v13.5c0 .5 0 1.1.1 1.6.3 1.3 1.3 2.1 2.6 2.1 1.4 0 2.2-.6 2.5-2 .2-.8.2-1.7.2-2.6.1-4 .1-8 .1-12zm5.5 3.8c.8-2.2 2.3-3.5 4.6-4.4h-4.6v4.4zm8.2 9.4c-1.1-.5-2.1-1-3.2-1.4-2.2-.9-4-2.1-4.9-4.4v6.4h4.9c.2.7.3 1.3.6 1.9.4.9 1.3 1.2 2.3 1 .7-.1 1.4-.9 1.6-1.6 0-.8-.3-1.4-1.3-1.9zM180 59h-5.3c-.1-.3-.1-.6-.2-.9-.3-.8-.9-1.2-1.6-1.2s-1.4.3-1.8 1c-.5.7-.2 1.5.7 2 1.3.7 2.6 1.3 4 1.9 1.8.9 3.4 1.9 4.4 3.9-.2-2.3-.2-4.5-.2-6.7zm3.1-6.3c-2.7-4.3-5.3-8.4-8.1-12.7v12.5c2.5.7 4.3 2.1 5.1 4.7v-4.6c1 .1 1.9.1 3 .1zM70.7 70.3c-1.2 2.6-3.3 4-6.1 4.4-2.1.3-4.1.1-5.9-.9-2.2-1.2-3.6-3.1-3.7-5.6-.2-3.1-.1-6.3-.2-9.4v-1h-3.9v16.7h-5.5V57.8h-3.5c.4 1.1.9 2.2 1.3 3.4h-5.6c-.2 0-.4-.3-.5-.5-1-2-2.5-3.2-4.8-3.3-2.5-.1-4.4 1.2-5.4 3.5-1.2 2.8-.6 5.9 1.6 7.9 2.3 2.1 6.4 1.9 8.4-1.7.3-.5.5-.7 1.1-.7h5c-1.1 4.6-4.9 7.8-9.3 8.4-6.1.8-11.1-2.9-12.7-8.2v7.9h-5.5V63.8h-.1c-.1.1-.1.2-.2.3-1.2 2.2-3 3.3-5.4 3.5-1.4.1-2.9.1-4.4.2v6.7H-.1V23.4h7.4v11.1h9.1c.5 0 .7-.2.7-.7v-9.6-.8h14.2c.5 0 .7.1.8.6 1.3 3.6 2.7 7.2 4 10.8 0 .1.1.2.2.4.5-1.4 1-2.7 1.5-4 .9-2.4 1.8-4.8 2.7-7.3.1-.3.3-.5.6-.5h18.1c2.8 0 5.5.5 8 2 3 1.9 4.9 4.6 5.8 8 1 4 .8 8.1-.8 11.9-1.6 3.8-4.7 6-8.6 7-1.1.3-2.2.4-3.3.6V66c0 .8.2 1.6.4 2.4.3 1 1.3 1.7 2.4 1.6 1.3 0 2.1-.6 2.5-1.7.1-.4.2-.9.2-1.3V53.7 53h5.5v13c.1 1.3.1 2.8-.6 4.3zM9.3 57.8c-1.2-.4-2.5-.2-3.8-.3v5.2c1.2-.1 2.4-.1 3.5-.2s1.8-1 1.9-2c.1-1.5-.4-2.3-1.6-2.7zm7.9-16.2c0-.6-.2-.7-.8-.7H7.5v11.7c3.3 0 6.4.5 8 4 .1 0 .1-.1.1-.1v-3.8h1.5v-.6c.1-3.5 0-7 .1-10.5zM32.6 52v-9.6c0-.3-.1-.6-.2-.8-2.4-5.3-4.9-10.5-7.4-15.8-.1-.2-.2-.3-.4-.6v27.5h-3.5v8c1.8-5.6 5.7-8.4 11.5-8.5V52zm15.5-27c-.2.3-.2.4-.3.6-2.4 5.2-4.8 10.3-7.2 15.5-.3.7-.5 1.4-.5 2.2V52.7h-4.4c2.1.8 3.8 2 5.4 3.6v-3.7h7V25zm12.1 21c2.1-.2 3.8-1.1 4.8-3 1.6-3.1 1.6-6.4.2-9.6-.9-2-2.4-3.2-4.6-3.4-1.6-.1-3.2 0-4.8 0v15.7c0 .4.2.5.5.5 1.2-.1 2.6-.1 3.9-.2zm40.5 6.8c0 1.3 0 2.6-.1 3.9v.9H94v3.3h6.4v4.9H94v3.7h6.6v4.9H84.2c-.5 0-.7-.2-.9-.6-1.6-3.1-3.3-6.1-5-9.2-.1-.2-.2-.4-.3-.7 1-.1 1.9-.1 2.8-.2 1.8-.2 2.5-1.2 2.6-3 .1-1.5-.7-2.7-2.5-3-1-.2-2-.1-3.1-.2v16.8h-5.5V52.7h2V23.2h16.6v6.6h-9.1v2.6c0 .6-.1 1.4.2 1.8.3.3 1.1.1 1.8.1h6.9v6.6h-8.2c-.5 0-.7.1-.7.7V46H91v6.6h9.3c.2.1.3.2.4.2zM88.4 62.9c-.7 1.6-1.9 2.7-3.5 3.5 1.1 2 2.3 4 3.5 6.2v-9.7zm0-10.2h-6.8c3.1.3 5.5 1.4 6.8 4.4v-4.4zm12.3.1zm11.4 34.7c-.8 1.4-1.8 2.7-2.7 4-.1.1-.3.3-.5.3h-2.7c.8-1.1 1.4-2 2.1-2.9-1.9-.1-3-.8-3.4-2.4-.7-2.9 1.3-5 4-4.9 3.5.1 4.6 3.5 3.2 5.9zm-2-2.3c0-.8-.5-1.4-1.3-1.4-.7 0-1.4.6-1.4 1.3 0 .8.6 1.4 1.3 1.4.9 0 1.4-.5 1.4-1.3zm24.1 2.8h1.1v1.9c-.3 0-.6 0-1 .1v1.7h-2.5V90h-4.4c-.1-1-.1-1.9.5-2.8 1.2-1.6 2.4-3.3 3.5-5 .2-.3.5-.5.9-.5h1.9V88zm-2.3-3.1c-.7 1.1-1.3 2.1-1.9 3.1h1.9v-3.1zm-72.6-3.2c-.2 0-.3.2-.5.2 0 .1 0 .1.1.2.3 0 .7 0 1.1.1-.6 3-1.2 6-1.8 8.9-.4.4-1-.1-1.2.6h8.2c.1-.6.3-1.1.4-1.6.1-.5.2-1.1.3-1.7-.5 0-.5 0-.8.6-1.1 2-2.4 2.4-4.4 2.2.3-1.5.6-2.9.9-4.4 1.1-.1 1.2 0 1.4 1.9.5.2.6-.1.6-.4.1-.6.3-1.3.4-1.9l.3-1.8c-.1 0-.2-.1-.2-.1-.2.2-.4.4-.5.6-.1.2-.3.5-.4.6-.3.3-.6.5-.9.5-.2 0-.4 0-.6-.1.2-1.1.4-2.1.6-3.2.1-.2.2-.6.4-.7 1.5-.5 2.8.3 2.9 1.9 0 .2.2.3.3.4.1-.1.3-.3.3-.4.1-.8.2-1.6.4-2.4h-7.3zm58 2.3h1.7v7.8h2.5v-10h-4.1c-.1.7-.1 1.4-.1 2.2zm-22.5-.1h1.6v7.8h2.5v-9.9h-4.1v2.1zM74.9 86c-.5-.2-1-.3-1.6-.3-1 0-1.8.7-2.1 1.5-.2.9.3 1.5 1 1.9.5.3.9.7 1.3 1.1.5.4.4 1-.2 1.2-.5.1-1 0-1.5 0 .1-.4.1-.5.2-.7.1-.6-.2-.9-.7-1-.5 0-.9.3-.9.9 0 .6.4.9.8 1.1.8.3 1.6.4 2.4.1.8-.3 1.3-.8 1.5-1.7.1-.8-.2-1.4-.9-1.9-.4-.3-.9-.6-1.2-.9-.2-.2-.3-.5-.5-.7.3-.1.6-.3.9-.4.2 0 .4.1.5.1v.2c-.2.5-.1 1 .5 1.1.3 0 .7-.1.8-.4.5-.5.1-1-.3-1.2zm7.7 1c.1-.5.3-.8.9-.8.1 0 .3-.1.4-.2 0 0 0-.1-.1-.2-.3 0-.6-.1-.9-.1.1-.6.2-1.1.3-1.7h-1c-.6 0-1 .1-1 .8 0 .3-.2.6-.2.8-.4.1-.7.2-1 .3v.2c.3 0 .5.1.8.1-.3 1.4-.6 2.7-.9 4.1-.2.6.1 1 .6 1.2 1.2.5 2.9-.4 3.1-1.7 0-.1-.1-.2-.2-.4-.4.8-.6 1.6-1.6 1.7v-.4c.2-1.2.6-2.4.8-3.7zm7.2 2.5c-.7 0-1.3.5-1.3 1.1 0 .7.5 1.3 1.1 1.3.7.1 1.3-.5 1.3-1.2 0-.6-.5-1.2-1.1-1.2z"/>
    <path class="dark" fill="#231F20" d="M262.3 78.5h3.5v10h6.1v3.1h-9.6V78.5M278.9 91.9c-1 0-1.9-.2-2.7-.5-.8-.3-1.6-.8-2.2-1.4-.6-.6-1.1-1.3-1.4-2.2-.3-.9-.5-1.8-.5-2.8 0-1 .2-1.9.5-2.8.3-.9.8-1.6 1.4-2.2.6-.6 1.3-1.1 2.2-1.4.8-.3 1.7-.5 2.7-.5 1 0 1.9.2 2.7.5.8.3 1.6.8 2.2 1.4.6.6 1.1 1.3 1.4 2.2.3.8.5 1.8.5 2.8 0 1-.2 1.9-.5 2.8-.3.8-.8 1.6-1.4 2.2-.6.6-1.3 1.1-2.2 1.4-.8.4-1.7.5-2.7.5m0-3.2c.5 0 1-.1 1.4-.3.4-.2.7-.4 1-.8.3-.3.5-.7.6-1.2.1-.4.2-.9.2-1.4 0-.5-.1-1-.2-1.4-.1-.4-.4-.8-.6-1.2-.3-.3-.6-.6-1-.8-.4-.2-.9-.3-1.4-.3-.5 0-1 .1-1.4.3-.4.2-.7.4-1 .8-.3.3-.5.7-.6 1.2-.1.4-.2.9-.2 1.4 0 .5.1 1 .2 1.4.1.5.4.8.6 1.2.3.3.6.6 1 .8.4.2.9.3 1.4.3zM289.9 81.5h-4v-3h11.6v3h-4v10.1h-3.6V81.5M301.9 81.5h-4v-3h11.6v3h-4v10.1h-3.6V81.5M310.3 78.5h9.5v3h-6v2h4.9v2.9h-4.9v2.2h6.4v3h-9.9V78.5M321.6 78.5h5.4c.7 0 1.3.1 1.9.3.6.2 1.1.5 1.5.8.4.4.7.8.9 1.4.2.5.3 1.2.3 1.9 0 .9-.2 1.6-.6 2.3-.4.6-.9 1.1-1.5 1.5l2.8 5.1h-3.7l-2.2-4.5H325v4.5h-3.4V78.5m5.1 5.9c.5 0 .8-.1 1.1-.4.3-.3.4-.7.4-1.1 0-.5-.1-.9-.4-1.2-.3-.3-.7-.4-1.2-.4H325v3.2l1.7-.1zM336.2 86.4l-4.6-7.9h4l2.5 4.7 2.4-4.7h3.9l-4.7 7.9v5.2h-3.5v-5.2M348 78.5h9.1v3h-5.6v2.6h4.4V87h-4.4v4.6H348V78.5M358 78.5h3.5v7.7c0 .7.2 1.3.5 1.8s.9.7 1.7.7c.8 0 1.3-.2 1.7-.7.3-.5.5-1.1.5-1.8v-7.7h3.5v8c0 .9-.1 1.6-.4 2.3-.3.7-.7 1.2-1.2 1.7s-1.1.8-1.8 1.1c-.7.2-1.5.4-2.3.4s-1.6-.1-2.3-.4c-.7-.3-1.3-.6-1.8-1.1-.5-.5-.9-1-1.2-1.7-.3-.7-.4-1.5-.4-2.3v-8M371.1 78.5h3.2l5.1 7.3v-7.3h3.4v13.1h-3l-5.2-7.5v7.5h-3.5V78.5M384.7 78.5h5c1 0 1.9.1 2.8.4.9.3 1.6.7 2.2 1.2.6.5 1.1 1.2 1.5 2.1.4.8.5 1.8.5 3 0 1.1-.2 2-.5 2.8-.4.8-.9 1.5-1.5 2s-1.4 1-2.2 1.2c-.9.3-1.8.4-2.8.4h-5V78.5m4.9 10c1.1 0 2-.3 2.6-1 .6-.6.9-1.5.9-2.5 0-.5-.1-1-.2-1.4-.1-.4-.4-.8-.7-1.1-.3-.3-.7-.5-1.1-.7-.4-.2-1-.3-1.6-.3h-1.4v7h1.5zM398.1 78.5h9.5v3h-6v2h4.9v2.9h-4.9v2.2h6.4v3h-9.9V78.5M409.4 78.5h5c1 0 1.9.1 2.8.4.9.3 1.6.7 2.2 1.2.6.5 1.1 1.2 1.5 2.1.4.8.5 1.8.5 3 0 1.1-.2 2-.5 2.8-.4.8-.9 1.5-1.5 2s-1.4 1-2.2 1.2c-.9.3-1.8.4-2.8.4h-5V78.5m4.9 10c1.1 0 2-.3 2.6-1 .6-.6.9-1.5.9-2.5 0-.5-.1-1-.2-1.4-.1-.4-.4-.8-.7-1.1-.3-.3-.7-.5-1.1-.7-.5-.2-1-.3-1.6-.3h-1.4v7h1.5z"/>
    <path class="dark" fill="#231F20" d="M309.6 29.4c-.6 0-1.9.3-2.6 1 .3-3-.9-5.3-2.9-6-1.3-.4-2.7-.3-3.9.2l-1.7-4.1c1.6-3.8 4.3-8.4 4.3-12.2 0-2.9-1.5-5.1-4.3-5.1-1.7 0-3.6 1.4-5.1 3.3-2-4.4-4.1-6.5-6.3-6.5-3.5 0-5 3.5-5 6.6 0 2.5.7 6.7 3.4 12.5-1.8 4.1-3.2 7.4-4.8 12.6-2.2-2.2-5.7-4.5-10.2-4.5-2.3 0-4.3.6-5.9 1.6-1.5 1-2.3 2.4-2.3 3.9 0 2.2 1.5 3.6 3.7 4.2 3.9 1 5.6 4.1 7.1 10.3 2.7 11.1 9.6 17.7 20.2 17.7 11.2 0 20.4-9.2 20.4-20.4 0-1.6-.2-2.9-.4-4.4.3-.9.6-1.8.8-2.6.7-4.7-1.1-8.1-4.5-8.1"/>
    <path class="light" fill="#FFF" d="M303.2 26.8c1.8.8 1.9 4.6.1 9.1-1.5 4.3-3.6 7-5.5 7-1.6 0-2.9-1.1-2.9-4 0-5.6 4.5-13.8 8.3-12.1M284.5 6.6c0-1.8.8-4 2.5-4 1.2 0 2.7 1.9 4.4 5.7-1.5 1.9-3 4.4-4.6 7.5-1.5-4.1-2.3-7.1-2.3-9.2"/>
    <path class="light" fill="#FFF" d="M293.2 62.3c-9.1 0-15.3-6.3-17.7-15.7-1.6-6.5-3.7-10.8-9-12.2-.6-.2-1.7-.6-1.7-1.7 0-1.2 2-2.9 5.6-2.9 4.3 0 7.9 2.6 10.3 6.1l1.8-.7c.3-3.5 2.1-8.4 5.2-15.1 4-8.6 8-14.4 10.7-14.3.9 0 1.9 1 1.9 2.5 0 3.5-3.1 8.8-5.8 14.6-.3.6-1.5 3.3-1.5 3.3l1.8.8c.6-1 1.8-3.4 2-3.7l1.3 3c-2.8 2.4-5.3 8.1-5.3 12.6 0 3.3 1.5 5.3 3.6 6 2 .6 3.9 0 5.4-1.7.3 2.1 1.7 3.9 4.4 3.9 2.4 0 3.9-1.4 5.1-3.7.3 10.8-8.7 18.9-18.1 18.9"/>
    <path class="light" fill="#FFF" d="M311.6 37.2c-.6 3.6-2.8 7.7-5.5 7.7-2.6 0-2.4-3.4-1.8-5.5.9-3.7 3.5-7.6 5.4-7.6 1.6 0 2.4 2.3 1.9 5.4"/>
    <path class="dark" fill="#231F20" d="M302.4 55.4c-7.7 4.4-14.8 1.6-17.5-6.4l2.2-1c2.2 6.5 8.5 8.3 14.4 5.2l.9 2.2M300.3 38.8c0 1.1-.9 2-2 2s-2-.9-2-2 .9-2 2-2 2 .9 2 2M308.7 41.2c0 1-.8 1.8-1.8 1.8s-1.8-.8-1.8-1.8.8-1.8 1.8-1.8 1.8.8 1.8 1.8M305.3 8.9c-.2 0-.5 0-.7-.1-.2-.1-.4-.2-.5-.4-.2-.2-.3-.3-.4-.6-.1-.2-.1-.4-.1-.7 0-.2 0-.5.1-.7.1-.2.2-.4.4-.5.2-.2.3-.3.5-.4.2-.1.4-.1.7-.1.2 0 .5 0 .7.1.2.1.4.2.5.4.2.2.3.3.4.5.1.3.1.6.1.8 0 .2 0 .5-.1.7-.1.2-.2.4-.4.6-.2.2-.3.3-.6.4h-.6m0-.3c.2 0 .4 0 .5-.1s.3-.2.4-.3c.1-.1.2-.3.3-.4.1-.2.1-.4.1-.6 0-.2 0-.4-.1-.5-.1-.2-.2-.3-.3-.4-.1-.1-.3-.2-.4-.3-.2-.1-.3-.1-.5-.1s-.4 0-.5.1c-.2.1-.3.2-.4.3-.1.1-.2.3-.3.4-.1.2-.1.4-.1.5 0 .2 0 .4.1.6.1.2.2.3.3.4.1.1.3.2.4.3.1.1.3.1.5.1zm-.6-2.3h1c.1 0 .1.1.2.1 0 0 .1.1.1.2v.2c0 .1 0 .2-.1.3-.1.1-.1.2-.3.2l.4.7h-.4l-.4-.7h-.2V8h-.3V6.3zm.7.8c.1 0 .2 0 .2-.1 0 0 .1-.1.1-.2s0-.1-.1-.2c0 0-.1-.1-.2-.1h-.4V7l.4.1z"/>
    <path class="dark" fill="#231F20" d="M416 47h5.5c.5-21.8-14.8-41.5-36.9-46-23-4.6-45.5 8.9-52.6 30.7h5.8c3-8.1 8.5-14.7 15.4-19.3 8.6-5.8 19.4-8.2 30.4-6 11 2.2 20 8.6 25.7 17.2 4.4 6.7 6.9 14.9 6.7 23.4M331.6 49.1h2.2v12.8h-2.2zM339.8 54.1c-.8 0-1.4.3-1.9.8s-.7 1.2-.7 2.1c0 .9.2 1.6.8 2.1.5.5 1.2.8 2 .8s1.5-.3 2-.8.7-1.3.7-2.2c0-.8-.3-1.5-.8-2-.6-.5-1.3-.8-2.1-.8m-5 2.9c0-1.4.5-2.6 1.5-3.6s2.2-1.5 3.5-1.5c1.4 0 2.7.5 3.6 1.5 1 1 1.5 2.2 1.5 3.6 0 1.5-.5 2.7-1.5 3.7s-2.2 1.5-3.6 1.5-2.6-.5-3.6-1.5c-.9-1.1-1.4-2.3-1.4-3.7M346.7 61.9v-7.7h-1.5v-2h1.5v-3.1h2.2v3.1h4.7v2h-4.7v7.7h-2.2"/>
    <path class="dark" fill="#231F20" d="M352.2 61.9v-7.7h-1.5v-2h1.5v-3.1h2.2v3.1h1.5v2h-1.5v7.7h-2.2M363.9 56c-.2-.6-.5-1.1-1-1.5-.5-.3-1-.5-1.7-.5-.6 0-1.1.2-1.6.6-.5.4-.8.8-1 1.4h5.3m-5.3 1.7c.1.7.3 1.2.8 1.6.5.4 1.1.6 1.9.6.5 0 .9-.1 1.4-.3.4-.2.7-.5.9-.9h2.4c-.4 1-1 1.9-1.9 2.5-.8.6-1.8.9-2.8.9-1.4 0-2.6-.5-3.6-1.5s-1.5-2.2-1.5-3.6.5-2.6 1.5-3.6 2.1-1.5 3.5-1.5 2.7.5 3.6 1.5c1 1 1.5 2.3 1.5 3.8v.5h-7.7zM371.7 54.1c-.9.1-1.5.3-1.8.7-.3.4-.5 1.1-.5 2.1v4.9h-2.3v-9.6h2.1v1.1c.3-.4.7-.7 1.1-.9.4-.2.8-.3 1.4-.3v2M372.6 52h2.4l2.3 6.9 2.8-6.9h2.3l-5.3 13h-2.4l1.4-3.4-3.5-9.6M333.9 34.1v4.2c.3-.4.7-.8 1.1-1 .4-.2.9-.3 1.5-.3 1.2 0 2.1.4 2.8 1.1.6.8 1 1.8 1 3.2v5.6H338v-5c0-.9-.2-1.6-.5-2-.3-.4-.8-.7-1.5-.7s-1.3.3-1.6.8c-.3.5-.5 1.4-.5 2.7v4.1h-2.2V34.1h2.2M348.8 41c-.2-.6-.5-1.1-1-1.5-.5-.3-1-.5-1.7-.5-.6 0-1.1.2-1.6.6-.5.4-.8.9-1 1.4h5.3m-5.3 1.8c.1.7.3 1.2.8 1.6.5.4 1.1.6 1.9.6.5 0 .9-.1 1.3-.3.4-.2.7-.5.9-.9h2.4c-.4 1-1 1.9-1.8 2.5-.8.6-1.8.9-2.8.9-1.4 0-2.6-.5-3.6-1.5s-1.5-2.2-1.5-3.6.5-2.6 1.5-3.6 2.1-1.5 3.5-1.5 2.7.5 3.6 1.5c1 1 1.5 2.3 1.5 3.8v.5h-7.7zM356.7 39.2c-.9.1-1.5.3-1.8.7-.3.4-.5 1.1-.5 2.1v4.9h-2.2v-9.6h2.1v1.1c.3-.4.7-.8 1.1-1 .4-.2.8-.3 1.4-.3l-.1 2.1M357.8 37.2h2.2v9.6h-2.2v-9.6zm2.2-1h-2.2v-2.1h2.2v2.1zM362.9 46.9v-7.7h-1.8v-2h1.8v-3.1h2.2v3.1h1.9v2h-1.9v7.7h-2.2M369.5 42c0 .8.3 1.5.8 2 .6.5 1.2.8 2.1.8.8 0 1.4-.3 2-.8.5-.5.8-1.2.8-1.9 0-.8-.3-1.5-.8-2-.5-.6-1.2-.8-2-.8s-1.4.3-2 .8c-.7.4-.9 1.1-.9 1.9m5.7 4.9v-1.3c-.3.5-.7.9-1.2 1.2-.5.3-1.1.4-1.8.4-1.4 0-2.6-.5-3.6-1.5s-1.4-2.2-1.4-3.6.5-2.6 1.4-3.6c.9-1 2.1-1.5 3.5-1.5.6 0 1.2.1 1.7.4.5.2 1 .6 1.4 1.2l-.1-1.3h2.2v9.6h-2.1zM380.5 41.9c0 .8.3 1.5.9 2.1.6.6 1.3.9 2.1.9.9 0 1.6-.3 2.2-.8.6-.6.9-1.2.9-2s-.3-1.6-.9-2.1c-.6-.6-1.3-.9-2.2-.9-.9 0-1.6.3-2.1.8-.6.5-.9 1.2-.9 2m6-4.7h2v8c0 1.7-.4 3-1.4 3.9-.9 1-2.1 1.4-3.7 1.4-1.2 0-2.1-.3-2.9-.8-.8-.5-1.4-1.3-1.7-2.4h2.2c.2.4.6.8 1 1 .4.2.9.3 1.5.3.8 0 1.5-.3 2.1-.9.6-.6.9-1.4.9-2.4v-.1c-.4.5-.9.9-1.5 1.1-.6.3-1.2.4-1.8.4-1.4 0-2.6-.5-3.5-1.4-1-1-1.4-2.1-1.4-3.5s.5-2.6 1.4-3.5c.9-1 2.1-1.4 3.5-1.4.7 0 1.3.1 1.9.4.6.3 1.1.6 1.6 1.2l-.2-1.3zM397.1 41c-.2-.6-.5-1.1-.9-1.5-.5-.3-1-.5-1.7-.5-.6 0-1.1.2-1.6.6-.5.4-.8.9-1 1.4h5.2m-5.3 1.8c.1.7.3 1.2.8 1.6.5.4 1.1.6 1.9.6.5 0 1-.1 1.3-.3.4-.2.7-.5.9-.9h2.4c-.4 1-1 1.9-1.8 2.5-.8.6-1.8.9-2.8.9-1.4 0-2.6-.5-3.6-1.5s-1.5-2.2-1.5-3.6.5-2.6 1.5-3.6 2.1-1.5 3.5-1.5 2.7.5 3.6 1.5c1 1 1.5 2.3 1.5 3.8v.5h-7.7zM391.5 52.2v2h-1.6v7.7h-2.2v-7.7h-1.1v-2h1.1v-.3c0-1 .3-1.8.8-2.3.6-.5 1.4-.8 2.6-.8h.4v2h-.2c-.5 0-.9.1-1.1.2-.2.2-.3.5-.3.9v.2h1.6M392.6 52.2h2.3v4.4c0 1.2.1 2.1.5 2.6.3.5.8.7 1.5.7.8 0 1.3-.3 1.6-.8.3-.5.5-1.4.5-2.7v-4.2h2.2v9.6H399v-1c-.3.4-.7.8-1.1 1-.4.2-.9.3-1.5.3-1.2 0-2.1-.4-2.8-1.1-.6-.7-1-1.8-1-3.2v-5.6M404.4 52.2v1.1c.3-.4.7-.8 1.1-1 .4-.2.9-.3 1.4-.3.7 0 1.3.1 1.8.4.5.3.9.7 1.3 1.2.2.4.4.8.5 1.2.1.4.1 1.1.1 1.9v5.1h-2.2v-4.3c0-1.3-.2-2.2-.4-2.7-.3-.5-.8-.7-1.5-.7s-1.2.3-1.6.8c-.3.5-.5 1.4-.5 2.7v4.1h-2.1v-9.6l2.1.1M416.7 54.2c-.8 0-1.5.3-2.1.8-.5.6-.8 1.2-.8 2s.3 1.5.8 2 1.2.8 2 .8 1.5-.3 2-.8.8-1.2.8-2-.3-1.5-.8-2.1c-.5-.5-1.1-.7-1.9-.7m4.9-5.1v12.8h-2.2l.1-1.1c-.4.4-.9.8-1.4 1-.5.2-1 .3-1.6.3-1.4 0-2.5-.5-3.5-1.5s-1.4-2.2-1.4-3.6.5-2.6 1.4-3.6c.9-1 2.1-1.5 3.5-1.5.6 0 1.1.1 1.6.3.5.2 1 .5 1.4.9v-.4V49l2.1.1z"/>
</svg>