<?xml version="1.0" encoding="utf-8"?>
<!-- Generator: Adobe Illustrator 18.0.0, SVG Export Plug-In . SVG Version: 6.00 Build 0)  -->
<!DOCTYPE svg PUBLIC "-//W3C//DTD SVG 1.1//EN" "http://www.w3.org/Graphics/SVG/1.1/DTD/svg11.dtd">
<svg version="1.1" id="Layer_1" xmlns="http://www.w3.org/2000/svg" xmlns:xlink="http://www.w3.org/1999/xlink" x="0px" y="0px"
	 viewBox="0 444 1160 152" enable-background="new 0 444 1160 152" xml:space="preserve">
<path fill="#FFFFFF" d="M152.2,531.3C152.2,531.4,152.2,531.4,152.2,531.3z M290.6,531.4v7.1h-10.1v5.1h9.7v7.3h-9.7v5.6h10v7.4H272
	V558h-0.1c0,0.1-0.1,0.3-0.1,0.4c-1.4,3.3-3.8,5.1-7.1,5.7c-2.8,0.6-5.7,0.4-8.4-0.3c-3.6-1.2-5.9-3.6-6.6-7.6
	c-1.1,3.6-3.3,6-6.5,7.4c-3.2,1.4-6.5,1.4-9.8,0.4c-5.3-1.4-7.8-5.3-8.3-12.4c-2.9,8.8-8.9,13.3-17.9,12.8
	c-8.3-0.4-13.6-5.3-15.8-13.4v12.8h-8.3v-13h-10.7v13h-8.4v-32.8h8.4v12.3h10.6v-12.3h-7.4c2.6-6.6,5.1-13.1,7.7-19.6
	c-2,2.3-4.4,4.1-7.3,4.9c-2.1,0.4-4.4,0.7-6.5,0.9c-1.8,0.1-3.6,0-5.4,0l-0.1,0.1v13.6h-11.2c0-0.1,0-0.3-0.1-0.4v-44.1h0.9
	c5.1,0,10.1-0.1,15.3,0c3.2,0.1,6.5,0.1,9.5,1.7c4.1,2,6.5,5.3,7.4,9.8c0.4,2.1,0.4,4.2,0.4,6.5c0.1-0.1,0.1-0.4,0.3-0.7
	c0.1-0.1,0.3-0.4,0.3-0.7c2-5.1,4.1-10.2,6-15.5c0.3-0.7,0.6-1.1,1.5-1.1h7.7c0.7,0,1.1,0.3,1.4,0.9c5,12.8,9.8,25.8,14.8,38.6
	c0.1,0.1,0.1,0.4,0.4,0.6v-40.1h0.9c5,0,10-0.1,15,0c3.2,0.1,6.3,0.3,9.5,1.5c4.7,1.8,7.1,5.4,8.1,10.1c0.7,3.2,0.6,6.2-0.6,9.4
	c-1.1,3-3.2,5.3-6,6.8c-0.3,0.1-0.6,0.3-1.1,0.6c2.9,5.1,5.9,10.4,8.8,15.5h0.1v-43.8h11.3v19.9c0.3-0.4,0.4-0.6,0.6-0.7
	c3.9-6,7.7-12.2,11.6-18.3c0.4-0.6,0.9-0.9,1.7-0.9h10.9c-0.3,0.4-0.4,0.7-0.6,1.1L275,508.1c-0.4,0.6-0.3,0.9,0,1.5
	c5.1,7.1,10.2,14.2,15.3,21.1C290.4,531,290.6,531.3,290.6,531.4L290.6,531.4z M171.2,497.1c-2.6-0.4-5.1-0.4-7.7-0.6v10.7
	c2.4-0.1,4.9,0,7.3-0.3c2.7-0.4,3.8-2,4.1-4.5C175,499.7,173.8,497.8,171.2,497.1L171.2,497.1z M192.4,515.7h9.8
	c-1.7-5.1-3.3-10.1-5-15.4C195.6,505.6,193.9,510.6,192.4,515.7z M207,530.5c-0.6-1.8-1.1-3.5-1.7-5.1c0-0.1-0.4-0.4-0.7-0.4h-14.5
	c-0.3,0-0.7,0.3-0.7,0.4c-0.6,2-1.2,3.8-1.8,5.9h3.3v13C193,536,198.6,531.6,207,530.5L207,530.5z M215.8,543.4
	c-1.5-3.3-4.1-5.3-8.6-5.4c-0.7,0.1-2.3,0.4-3.5,1.2c-5,2.7-6.2,10-2.6,14.7c3,3.9,8.9,4.7,12.2,1.5
	C216.7,552.3,217.7,547.6,215.8,543.4L215.8,543.4z M224.8,531.3h-11.5c5.9,2.1,9.7,6.2,11.5,12.2V531.3z M241.6,532.2
	c0-0.3,0-0.6-0.1-0.9l-9.5-17.7c-0.6-1.2-1.4-2.4-2-3.6c1.7-0.1,3.3-0.1,4.9-0.3c2.9-0.3,4.9-1.1,5.9-3.9c1.4-3.8-0.3-8.1-4.9-8.8
	c-2-0.3-3.9-0.1-6-0.3v34.6h3.5v20.4c0,0.7,0,1.7,0.1,2.4c0.4,2,2,3.2,3.9,3.2c2.1,0,3.3-0.9,3.8-3c0.3-1.2,0.3-2.6,0.3-3.9
	C241.6,544.3,241.6,538.2,241.6,532.2z M249.9,537.9c1.2-3.3,3.5-5.3,7-6.6h-7L249.9,537.9L249.9,537.9z M262.3,552.1
	c-1.7-0.7-3.2-1.5-4.9-2.1c-3.3-1.4-6-3.2-7.4-6.6v9.7h7.4c0.3,1.1,0.4,2,0.9,2.9c0.6,1.4,2,1.8,3.5,1.5c1.1-0.1,2.1-1.4,2.4-2.4
	C264.3,553.8,263.8,552.9,262.3,552.1L262.3,552.1z M272,540.8h-8c-0.1-0.4-0.1-0.9-0.3-1.4c-0.4-1.2-1.4-1.8-2.4-1.8
	c-1.1,0-2.1,0.4-2.7,1.5c-0.7,1.1-0.3,2.3,1.1,3c2,1.1,3.9,2,6,2.9c2.7,1.4,5.1,2.9,6.6,5.9C272,547.4,272,544.1,272,540.8z
	 M276.6,531.3c-4.1-6.5-8-12.7-12.2-19.2V531c3.8,1.1,6.5,3.2,7.7,7.1v-7C273.6,531.3,275,531.3,276.6,531.3L276.6,531.3z
	 M106.9,557.8c-1.8,3.9-5,6-9.2,6.6c-3.2,0.4-6.2,0.1-8.9-1.4c-3.3-1.8-5.4-4.7-5.6-8.4c-0.3-4.7-0.1-9.5-0.3-14.2V539H77v25.2h-8.3
	V539h-5.3c0.6,1.7,1.4,3.3,2,5.1h-8.4c-0.3,0-0.6-0.4-0.7-0.7c-1.5-3-3.8-4.9-7.3-5c-3.8-0.1-6.7,1.8-8.1,5.3
	c-1.8,4.2-0.9,8.9,2.4,11.9c3.5,3.2,9.7,2.9,12.7-2.6c0.4-0.7,0.7-1.1,1.7-1.1h7.6c-1.7,7-7.4,11.8-14,12.7
	c-9.2,1.2-16.8-4.4-19.2-12.4v11.9h-8.4v-16.1h-0.1c-0.1,0.1-0.1,0.3-0.3,0.4c-1.8,3.3-4.5,5-8.1,5.3c-2.1,0.1-4.4,0.1-6.7,0.3v10.1
	H0V487h11.2v16.8h13.7c0.7,0,1.1-0.3,1.1-1.1V487h21.4c0.7,0,1.1,0.1,1.2,0.9c2,5.4,4.1,10.9,6,16.3c0,0.1,0.1,0.3,0.3,0.6
	c0.7-2.1,1.5-4.1,2.3-6c1.4-3.6,2.7-7.3,4.1-11c0.1-0.4,0.4-0.7,0.9-0.7h27.3c4.2,0,8.3,0.7,12.1,3c4.5,2.8,7.4,7,8.8,12.1
	c1.5,6,1.2,12.2-1.2,17.9c-2.4,5.7-7.1,9.1-13,10.6c-1.7,0.4-3.3,0.6-5,0.9v19.8c0,1.2,0.3,2.4,0.6,3.6c0.4,1.5,2,2.6,3.6,2.4
	c2,0,3.2-0.9,3.8-2.6c0.1-0.6,0.3-1.4,0.3-2v-21.1h8.3v19.6C108,553.3,108,555.6,106.9,557.8L106.9,557.8z M14.2,539
	c-1.8-0.6-3.8-0.3-5.7-0.4v7.8c1.8-0.1,3.6-0.1,5.3-0.3c1.7-0.1,2.7-1.5,2.9-3C16.8,540.8,16,539.6,14.2,539z M26.1,514.5
	c0-0.9-0.3-1.1-1.2-1.1H11.5v17.7c5,0,9.7,0.7,12.1,6c0.1,0,0.1-0.1,0.1-0.1v-5.7H26v-0.9C26.1,525.1,26,519.8,26.1,514.5z
	 M49.4,530.2v-14.5c0-0.4-0.1-0.9-0.3-1.2c-3.6-8-7.4-15.8-11.2-23.8c-0.1-0.3-0.3-0.4-0.6-0.9v41.5H32v12.1
	c2.7-8.4,8.6-12.7,17.4-12.8L49.4,530.2L49.4,530.2z M72.8,489.4c-0.3,0.4-0.3,0.6-0.4,0.9c-3.6,7.8-7.3,15.5-10.9,23.4
	c-0.4,1.1-0.7,2.1-0.7,3.3v14.2h-6.6c3.2,1.2,5.7,3,8.1,5.4v-5.6h10.6L72.8,489.4L72.8,489.4z M91.1,521.2c3.2-0.3,5.7-1.7,7.3-4.5
	c2.4-4.7,2.4-9.7,0.3-14.5c-1.4-3-3.6-4.9-7-5.1c-2.4-0.1-4.9,0-7.3,0v23.7c0,0.6,0.3,0.7,0.7,0.7C87,521.3,89.1,521.3,91.1,521.2
	L91.1,521.2z M152.2,531.4c0,2,0,3.9-0.1,5.9v1.4h-10v5h9.7v7.4h-9.7v5.6h10v7.4h-24.8c-0.7,0-1.1-0.3-1.4-0.9
	c-2.4-4.7-5-9.2-7.6-13.9c-0.1-0.3-0.3-0.6-0.4-1.1c1.5-0.1,2.9-0.1,4.2-0.3c2.7-0.3,3.8-1.8,3.9-4.5c0.1-2.3-1.1-4.1-3.8-4.5
	c-1.5-0.3-3-0.1-4.7-0.3V564h-8.3v-32.7h3v-44.5h25.1v10h-13.7v3.9c0,0.9-0.1,2.1,0.3,2.7c0.4,0.4,1.7,0.1,2.7,0.1h10.4v10h-12.4
	c-0.7,0-1.1,0.1-1.1,1.1v6.6h13.9v10h14C151.9,531.3,152.1,531.4,152.2,531.4L152.2,531.4z M133.6,546.7c-1.1,2.4-2.9,4.1-5.3,5.3
	c1.7,3,3.5,6,5.3,9.4V546.7L133.6,546.7z M133.6,531.3h-10.2c4.7,0.4,8.3,2.1,10.2,6.6V531.3z M169.4,583.8c-1.2,2.1-2.7,4.1-4.1,6
	c-0.1,0.1-0.4,0.4-0.7,0.4h-4.1c1.2-1.7,2.1-3,3.2-4.4c-2.9-0.1-4.5-1.2-5.1-3.6c-1.1-4.4,2-7.6,6-7.4
	C169.9,575.1,171.5,580.2,169.4,583.8z M166.4,580.3c0-1.2-0.7-2.1-2-2.1c-1.1,0-2.1,0.9-2.1,2c0,1.2,0.9,2.1,2,2.1
	C165.7,582.3,166.4,581.6,166.4,580.3z M202.8,584.6h1.7v2.9c-0.4,0-0.9,0-1.5,0.1v2.6h-3.8v-2.6h-6.6c-0.1-1.5-0.1-2.9,0.7-4.2
	c1.8-2.4,3.6-5,5.3-7.6c0.3-0.4,0.7-0.7,1.4-0.7h2.9L202.8,584.6L202.8,584.6z M199.3,579.9c-1.1,1.7-2,3.2-2.9,4.7h2.9V579.9z
	 M89.7,575.1c-0.3,0-0.4,0.3-0.7,0.3c0,0.1,0,0.1,0.1,0.3c0.4,0,1.1,0,1.7,0.1c-0.9,4.5-1.8,9.1-2.7,13.4c-0.6,0.6-1.5-0.1-1.8,0.9
	h12.4c0.1-0.9,0.4-1.7,0.6-2.4c0.1-0.7,0.3-1.7,0.4-2.6c-0.7,0-0.7,0-1.2,0.9c-1.7,3-3.6,3.6-6.6,3.3c0.4-2.3,0.9-4.4,1.4-6.6
	c1.7-0.1,1.8,0,2.1,2.9c0.7,0.3,0.9-0.1,0.9-0.6c0.1-0.9,0.4-2,0.6-2.9l0.4-2.7c-0.1,0-0.3-0.1-0.3-0.1c-0.3,0.3-0.6,0.6-0.7,0.9
	c-0.1,0.3-0.4,0.7-0.6,0.9c-0.4,0.4-0.9,0.7-1.4,0.7c-0.3,0-0.6,0-0.9-0.1c0.3-1.7,0.6-3.2,0.9-4.9c0.1-0.3,0.3-0.9,0.6-1.1
	c2.3-0.7,4.2,0.4,4.4,2.9c0,0.3,0.3,0.4,0.4,0.6c0.1-0.1,0.4-0.4,0.4-0.6c0.1-1.2,0.3-2.4,0.6-3.6L89.7,575.1L89.7,575.1z
	 M177.3,578.5h2.6v11.8h3.8v-15.1h-6.2C177.3,576.3,177.3,577.4,177.3,578.5L177.3,578.5z M143.3,578.4h2.4v11.8h3.8v-15h-6.2V578.4
	z M113.3,581.6c-0.7-0.3-1.5-0.4-2.4-0.4c-1.5,0-2.7,1.1-3.2,2.3c-0.3,1.4,0.4,2.3,1.5,2.9c0.7,0.4,1.4,1.1,2,1.7
	c0.7,0.6,0.6,1.5-0.3,1.8c-0.7,0.1-1.5,0-2.3,0c0.1-0.6,0.1-0.7,0.3-1.1c0.1-0.9-0.3-1.4-1.1-1.5c-0.7,0-1.4,0.4-1.4,1.4
	c0,0.9,0.6,1.4,1.2,1.7c1.2,0.4,2.4,0.6,3.6,0.1c1.2-0.4,2-1.2,2.3-2.6c0.1-1.2-0.3-2.1-1.4-2.9c-0.6-0.4-1.4-0.9-1.8-1.4
	c-0.3-0.3-0.4-0.7-0.7-1.1c0.4-0.1,0.9-0.4,1.4-0.6c0.3,0,0.6,0.1,0.7,0.1v0.3c-0.3,0.7-0.1,1.5,0.7,1.7c0.4,0,1.1-0.1,1.2-0.6
	C114.5,582.6,113.9,581.9,113.3,581.6L113.3,581.6z M124.9,583.1c0.1-0.7,0.4-1.2,1.4-1.2c0.1,0,0.4-0.1,0.6-0.3c0,0,0-0.1-0.1-0.3
	c-0.4,0-0.9-0.1-1.4-0.1c0.1-0.9,0.3-1.7,0.4-2.6h-1.5c-0.9,0-1.5,0.1-1.5,1.2c0,0.4-0.3,0.9-0.3,1.2c-0.6,0.1-1.1,0.3-1.5,0.4v0.3
	c0.4,0,0.7,0.1,1.2,0.1c-0.4,2.1-0.9,4.1-1.4,6.2c-0.3,0.9,0.1,1.5,0.9,1.8c1.8,0.7,4.4-0.6,4.7-2.6c0-0.1-0.1-0.3-0.3-0.6
	c-0.6,1.2-0.9,2.4-2.4,2.6v-0.7C124,586.9,124.6,585.1,124.9,583.1L124.9,583.1z M135.7,586.9c-1.1,0-2,0.7-2,1.7c0,1.1,0.7,2,1.7,2
	c1.1,0.1,2-0.7,2-1.8C137.4,587.8,136.7,586.9,135.7,586.9z"/>
<path fill="#FFFFFF" d="M826.7,574.9v-7.6H880c0.5,1.2,0.2,2.5,0.2,3.7c0,1.3,0,2.6,0,3.8H826.7L826.7,574.9z M1115.8,542.9
	c0-3.2,0-6.2,0.9-9.5c0.5,0.6,0.8,1,1.1,1.4c0.6,0.8,1.2,1.7,1.8,2.6c3.7,5.1,8.9,7.4,14.9,7.7c4.4,0.3,7.9-1.7,10.7-5
	c1.8-2.3,1.9-5.5,0.2-8.2c-1.2-2-2.9-3.3-5-4.1c-2.4-0.9-4.9-1.5-7.3-2.3c-2.6-0.8-5.1-1.4-7.7-2.3c-1-0.3-2-0.7-2.8-1.2
	c-5.3-2.8-7.4-7.8-6.8-12.9c0.5-4,2.9-6.9,6.3-8.9c1.9-1.1,3.9-1.6,6.1-1.9c5.5-0.8,10.9,0,16.3,1.2c2.5,0.5,5,1.1,7.7,1.6
	c0.3,3.9,0.2,7.7-0.5,11.8l-3.7-4.8c-2.7-3.4-6.3-5.5-10.6-6.3c-2.4-0.4-4.8-0.4-7.1,0c-2.4,0.3-4.3,1.6-5.8,3.5
	c-2.1,2.6-1.8,5.8,0.8,7.7c1.7,1.2,3.5,2.2,5.4,2.9c3.2,1.2,6.5,2,9.8,3c2.4,0.7,4.6,1.5,6.7,2.7c9.3,5.6,8.1,17.5,1,22.7
	c-3.7,2.7-7.7,4.1-12.2,4.2c-4.7,0.1-9.2-0.8-13.4-2.9C1120.6,544.5,1118.2,543.8,1115.8,542.9L1115.8,542.9z M922.1,490.3h9.6
	c0.7,0.7,0.8,1.5,0.8,2.5c-0.2,3.1-0.2,6.2-0.5,9.3c-0.5,6.3-0.4,12.7-0.3,19c0.1,6.5,0.3,12.9,0.5,19.4c0,0.8,0.1,1.7,0.2,2.6
	c0.3,0,0.5,0.2,0.8,0.2c5,0.1,10,0.3,15,0.3c2.7,0,5.4-0.5,8.1-0.9c2.9-0.4,5.3-1.9,7-4.3c0.1-0.1,0.2-0.2,0.4-0.4
	c0.2,0,0.4,0.1,0.6,0.2c0.1,0,0.3,0.2,0.6,0.3c-0.3,3.3-1.5,6.4-2.8,9.3l-39.9-0.5c-0.6-0.6-0.8-1.4-0.7-2.3l0.5-11.1
	c0.4-9.5,0.8-19,0.3-28.5c-0.2-4.3-0.4-8.5-0.6-12.8C921.7,491.9,922,491.1,922.1,490.3L922.1,490.3z"/>
<path fill="#FFFFFF" d="M802.3,567.3c-0.8-1.3-1.5-2.4-2.4-3.7h29.1c0,0.6,0,1.3,0.1,2.1h-4v5.3H799
	C800.2,569.7,801.2,568.6,802.3,567.3L802.3,567.3z M906.6,563.6c-0.8,1.4-1.6,2.5-2.4,3.7c1.1,1.2,2.1,2.4,3.3,3.7h-26.1v-5.1
	c-1.4,0-2.6-0.1-4-0.2v-2.1L906.6,563.6L906.6,563.6z M809.9,483.3h2.3c1.4,2,2.8,3.6,5.2,3.7c1.3-0.6,1.2-1.9,1.7-2.8
	c-0.3-0.5-0.6-0.9-0.8-1.3c0.9-1.2,1.2-1.3,2.8-0.6c0.5,0.9,0,1.4-0.7,1.7c0.2,1.1,0,2.2,1.2,3.1c2.4,0,4.1-1.5,5.4-3.5
	c1.7-0.4,1.7-0.4,2.6,0.7c-0.1,1.2-1.2,1-1.8,1.3c-1.5,1.4-0.9,3.2-1.3,4.8H813c-0.1-1.7-0.2-3.4-1.7-4.8c-0.3-0.1-0.8-0.3-1.5-0.6
	C809.8,484.4,809.8,484,809.9,483.3z M880.5,490.2c0-1.7,0-3.4-1.2-4.8c-0.5-0.3-2.1,0-1.7-1.6c0.7-0.7,1.5-0.6,2.3-0.3
	c1.4,2.1,3.1,3.5,5.5,3.6c1.2-0.8,0.9-2,1.3-2.9c-0.3-0.4-0.7-0.8-1-1.1c0.8-1.4,1-1.4,2.7-0.8c0.5,0.9,0,1.3-0.7,1.7
	c0.4,1,0.8,2,1.2,3c2.9,0.3,4.3-1.5,5.7-3.4c1.5-0.5,1.5-0.5,2.6,0.6c0,1.1-1.1,0.9-1.7,1.3c-1.2,1.4-1.5,2.9-1.5,4.7H880.5
	L880.5,490.2z M812.7,478.5c-2.7,0-3.5-0.6-3.9-3.2c0.3-1.1,1.4-1.2,2.4-1.5l-0.9-1.9c1.2-0.1,2.3-0.1,3.4-0.3
	c1.4-0.2,2.5,0.4,3.5,1.4h5.1c-0.3,0.3-0.3,0.5-0.5,0.6c-1.1,0.7-1.8,1.7-2.3,2.9c-0.8,2.6-2.9,3.8-5.4,3.3c-0.5-1,0.9-1.4,0.8-2.3
	C813.9,477.3,813.5,478.2,812.7,478.5z M861,487.4c0.6-0.3,1.2-0.6,1.8-0.9c1.6-0.6,2.6-1.8,2.9-3.5c0.2-1,0.4-2.1,0.4-3.1
	c0-1.6,0.5-2.9,1.7-4.3c0.4,0.5,0.9,1,1.5,1.8c0.1-2.1,1.2-3.3,2.6-4.4c1.4,0.3,1,1.7,1.9,2.4c0.4,0,1,0.1,1.5,0.2l-1.3,5
	c0,0-0.1-0.1-0.2-0.2c-0.1-0.1-0.2-0.3-0.3-0.4c-2.3,1-4.3,2.2-5.5,4.4c-0.6,1.1-1.4,2-2.1,2.9l0,0c-0.3,0.3-0.9,0-1.2,0.4l0,0
	c-1,0.3-2,0.3-3,0l0,0C861.5,487.5,861.1,487.5,861,487.4C861,487.4,861,487.4,861,487.4L861,487.4z M895.9,478.6h-2.1
	c-0.7-0.1-1.2-1.2-2.3-0.8c0.4,0.7,0.8,1.4,1.2,2.1c-1.8,0.6-3.2,0.1-4.3-1c-0.6-0.6-1.2-1.5-1.4-2.3c-0.4-1.2-1.1-2.2-2.1-2.8
	c-0.2-0.1-0.3-0.2-0.8-0.6h5.2c1.4-1.5,2.9-1.7,4.9-1.2c0.6,0.1,1.3,0,2-0.1c0.1,0.8-0.6,1.3-0.8,1.9c0.8,0.3,1.6,0.8,2.4,1.1v2
	c0,0,0,0.1,0,0.2c0,0.1,0.1,0.3,0.1,0.4s0,0.3,0,0.4c0,0.1-0.1,0.2-0.2,0.3c0,0-0.1,0-0.2,0.1c-0.1,0-0.3,0-0.4,0.1
	c-0.1,0-0.2,0.1-0.4,0.1c-0.1,0-0.3,0-0.4,0C896,478.6,895.9,478.6,895.9,478.6z M1089.2,562.3c-0.7,3.1,0,5.9-0.2,8.8
	c-0.4,0-0.8,0-1.4,0v-13h1.4c2.5,3.6,4.9,7.2,7.6,11.1c0.8-3.9,0-7.5,0.2-11c0.5,0,0.9,0,1.4,0v12.9c-0.8,0.3-1.7,0.2-2.7,0.1
	C1093.5,568.3,1091.5,565.5,1089.2,562.3L1089.2,562.3z M1030.4,568.9c0.2,0.3,0.3,0.5,0.4,0.7c-1.5,2-3.6,2.2-5.7,1.8
	c-3.4-0.6-6-3.9-5.8-7.2c0.2-3.2,3.1-6.2,6.4-6.4c1,0,2.1,0.2,3,0.4c0.7,0.1,1.4,0.4,2.1,0.6v2.9c-0.5-0.3-0.8-0.5-1-0.7
	c-1-1.7-2.6-2.2-4.4-1.9c-1.9,0.3-3.1,1.5-3.6,3.2c-0.5,1.8-0.3,3.6,0.6,5.3c1.8,2.7,4.6,3.1,7.2,1.7
	C1029.9,569.3,1030.1,569.2,1030.4,568.9L1030.4,568.9z M933.3,558.9v2.1c0,0.1-0.1,0.3-0.3,0.6c-0.3-0.2-0.6-0.3-0.8-0.6
	c-1.1-1.8-2.7-2.2-4.6-1.8c-1.8,0.3-3,1.7-3.5,3.4c-0.5,1.8-0.2,3.6,0.8,5.3c1.7,2.6,4.4,2.9,6.9,1.7c0.2-0.1,0.5-0.3,0.8-0.5
	c0.2,0.2,0.3,0.3,0.5,0.6c-1.5,2-3.5,2.2-5.6,1.9c-3.4-0.5-6.1-3.7-6-7c0.1-3.2,2.8-6.2,6.3-6.6c1-0.1,2.1,0.1,3.1,0.3
	C931.7,558.4,932.4,558.6,933.3,558.9L933.3,558.9z M1065.8,558.2h2.4v1.5c0,1.9-0.1,3.8-0.2,5.6c0,0.7,0.1,1.5,0.2,2.2
	c0.4,1.9,1.3,2.7,3.1,2.8c1.7,0.1,3.1-0.8,3.6-2.5c0.2-0.7,0.3-1.6,0.3-2.4c0-2-0.1-3.9-0.1-5.8v-1.4c0.5,0,0.9,0,1.2-0.1
	c0.1,0.2,0.2,0.3,0.2,0.4c0,2.6-0.1,5.2-0.1,7.8c0,2.2-0.9,3.9-2.8,4.7c-2.1,0.9-4.3,0.6-6.2-0.7c-0.3-0.2-0.6-0.7-0.8-1.2
	s-0.3-0.9-0.3-1.4C1065.9,564.6,1065.9,561.5,1065.8,558.2L1065.8,558.2z M1120.3,558.8v2.9c-0.5-0.3-0.8-0.5-1-0.8
	c-1.1-1.8-2.7-2.2-4.6-1.8c-1.8,0.3-2.9,1.7-3.4,3.4c-0.5,1.8-0.2,3.5,0.7,5.1c1.7,2.7,4.4,3.1,7,1.8c0.2-0.1,0.5-0.3,0.8-0.5
	c0.2,0.2,0.3,0.4,0.4,0.6c-1.1,1.7-2.8,2-4.7,2c-4.5-0.1-7.8-4.5-6.6-8.7c0.9-3.2,4.4-5.5,7.8-4.9
	C1117.9,558.1,1119,558.5,1120.3,558.8z M965.4,571.2h-2.3v-12h-5.5c0.1-0.4,0.1-0.6,0.2-1h12.9c0,0.2,0.2,0.4,0.4,0.9h-5.5
	c-0.4,2.1-0.2,4.1-0.3,6.1C965.4,567.1,965.4,569.1,965.4,571.2L965.4,571.2z M985.3,571.3c0.1-2.3,0.2-4.3,0.2-6.3l-4.9-6.9h2.6
	c1.2,1.9,2.4,4,3.8,6.3l3.7-6.3h1.7c-1.5,2.5-3.1,4.6-4.6,6.9v5.9C987,571.5,986.2,571.1,985.3,571.3z M1145.6,558.2h2.2v11.9
	c2.2,0.4,4.1,0.2,6.1-0.2v1.4h-8.3C1145.6,566.9,1145.6,562.5,1145.6,558.2z M945,558.2h2.2c0,0.4,0.1,0.6,0.1,0.9v12.1H945V558.2z
	 M1132.1,558.1h2.2c0.2,1.5,0,2.9,0,4.3c0,1.5,0,2.9,0,4.4v4.4h-2.2V558.1z"/>
<path fill="#FFFFFF" d="M874.3,475c-0.2-0.6-0.3-1-0.5-1.5c-1.5-1-2.6-2.5-3.1-4.2c1.8-0.3,3.3,0.1,4.7,1.5
	C875.2,472.1,875.8,473.7,874.3,475z M831.4,470.3c1.3-0.9,2.7-1.2,4.1-1.4c0,1.5-0.9,2.9-2.9,4.6c-0.1,0.4-0.2,0.8-0.3,1.4
	c-0.2,0-0.4-0.1-0.5-0.2C831.1,473.6,831,472.2,831.4,470.3L831.4,470.3z M897.6,476.8c0.3-0.7,0.5-1.4,0.9-2.1
	c0.6-1.3,1.4-1.5,2.7-0.5c0.5,2.8-1.3,4.5-5.4,5.1c0-0.2,0-0.4,0.1-0.6l0,0c0.2-0.2,0.6-0.2,0.8-0.4l0,0l0.4-0.4l0,0l0.4-0.4l0,0
	C897.5,477.3,897.5,476.9,897.6,476.8L897.6,476.8L897.6,476.8z M807.3,473.5c0.3,0.6,0.7,1.1,0.9,1.7c0.8,2.3,0.8,2.3,2.2,3.6
	c-2.3,0.1-4.4-1.1-5.1-2.9C804.7,474.4,805.2,473.5,807.3,473.5z M887,533.9l-2.1-1.6c-1.5-1.3-2.7-2.7-3.6-4.6
	c-0.2-0.5-0.5-1.1,0.4-1.7c0.8,1.4,1.5,2.7,2.4,4c0.9,1.2,2,2.4,2.9,3.5C887.2,533.7,887.1,533.8,887,533.9z M825,526.1
	c0.3,0.1,0.5,0.2,0.8,0.4c-1,3.3-3.4,5.4-6.3,7.1c1-1.2,2.1-2.3,2.9-3.5C823.5,528.9,824.2,527.5,825,526.1L825,526.1z M880.2,507
	c-0.4,0-0.8,0-1.2,0c-0.4-0.8,0.7-2.1,2-2.4C881.1,505.3,881.1,505.3,880.2,507z M847.8,493.3c1.1,1.2,2.1,2.5,3.2,3.7
	c-1.4-0.5-2.5-1.4-3.2-2.6c-0.2-0.3-0.2-0.7-0.3-1C847.6,493.4,847.6,493.4,847.8,493.3L847.8,493.3z M825.6,504.8
	c1.4-0.1,1.8,0.2,2.3,2.2C826.4,506.9,826.4,506.9,825.6,504.8z M820.1,505c1.8-0.2,2.4,0.8,3.1,1.8c-0.6,0-1.1,0-1.8,0.1
	C821.2,506.5,820.7,505.9,820.1,505L820.1,505z M886.7,505c-0.5,0.8-0.9,1.4-1.3,1.9h-1.8C884.3,505.9,884.9,504.8,886.7,505
	L886.7,505z M878.5,510.7c1.1,0.8,0.6,1.8,0.8,2.8c-0.4,0-0.8,0-1.1-0.1C878,512,878,512,878.5,510.7z M883,510.7
	c1,0.8,0.5,1.7,0.5,2.6c-0.4,0-0.7,0.1-1.2,0.1C882.4,512.6,882.1,511.6,883,510.7z M879.4,518c0.4,1.1,0.8,1.9,1.1,2.8
	c-0.5,0-0.9,0.1-1.4,0.2C878.8,520.2,878.2,519.3,879.4,518z M827.6,518.2c1.1,1.1,0.3,1.9,0.2,2.8c-0.5,0-0.9,0-1.5,0
	C826.7,520,826.8,519,827.6,518.2z M823.3,513.5c0.2-0.9-0.5-2,0.5-2.8c1,0.8,0.6,1.8,0.7,2.7C824.1,513.5,823.8,513.5,823.3,513.5z
	 M829.1,513.6c-0.8,0-1.1-0.1-1.5-0.1c0-0.8,0.1-1.7,0.2-2.6C829.5,511.4,828.4,512.6,829.1,513.6z M846.2,489.1
	c0.2,0.4,0.5,0.8,0.8,1.2C845.9,490.5,845.9,490.5,846.2,489.1z M845.7,486.5c-0.5-0.6-0.5-1.1,0-1.6
	C846.2,485.4,846.3,485.8,845.7,486.5z"/>
<path fill="#333333" d="M861.8,487.7h3C863.8,488.3,862.8,488.3,861.8,487.7z"/>
<path fill="#FFFFFF" d="M864.7,487.7c0.4-0.1,0.8-0.2,1.2-0.4C865.4,487.5,865.1,487.6,864.7,487.7z M842.3,487.8c0.1,0,0.2,0,0.3,0
	c0,0,0,0.1-0.1,0.1C842.4,488,842.4,487.9,842.3,487.8z M861,487.4c0.2,0.1,0.5,0.3,0.8,0.4C861.6,487.6,861.3,487.5,861,487.4z
	 M840.9,487.4c0.1,0,0.3,0,0.2,0L840.9,487.4C841,487.4,840.9,487.4,840.9,487.4L840.9,487.4z M840.1,487.1l0.8,0.3l0,0
	C840.7,487.3,840.5,487.2,840.1,487.1L840.1,487.1L840.1,487.1z"/>
<path fill="#FFFFFF" d="M908.3,545.6c-1.7-3.1-3-6.4-3.6-9.9c-0.6-3.8-1.4-7.6-1.8-11.3c-0.9-7.5-3.6-14.1-8.1-20.1
	c-0.2-0.2-0.3-0.5-0.4-0.7c1.6-3.6,1.6-5.3,0.1-6.9c-0.7,2.3-0.7,2.3-3,4.2c0.7,0.7,1.6,0,2.4,0.3c-1,1.6-2.1,1.8-5.8,1.5
	c-0.4-0.2-0.9-0.5-1.4-0.8c0,0-0.1,0.1-0.2,0.2c0.3,0.6,0.5,1.1,0.9,1.9c1.4,0.1,2.8,0.2,4.3,0.3c-0.5,0.3-0.9,0.7-1.5,1.1
	c0.4,0.3,0.7,0.5,1.1,0.6c0.9,0.3,1.8,0.2,2.7,0c1.1-0.3,1.4,0,1.7,1.2l-2,0.6c1.2,1.2,2.2,2.3,3.1,3.3c1,1.1,2,2.4,2.8,3.6
	c0.8,1.1,1.5,2.4,2.1,4.1c-0.7-0.8-1.1-1.3-1.7-2c-0.2,1.1-0.3,2-0.4,2.7c0.9,1.8,2.5,3,3,4.8c-0.1,0-0.2,0.1-0.3,0.2
	c-0.9-0.8-1.8-1.7-2.8-2.7c-0.2,0.9-0.4,1.6-0.6,2.4c0.8,0.9,1.5,1.9,2.4,2.8c0.8,0.9,1.6,1.7,2.5,2.6c-0.1,0.1-0.2,0.2-0.3,0.3
	c-1.6-1.3-3.2-2.6-4.9-4c-0.2,0.7-0.5,1.2-0.7,1.8c1.1,1.2,2.2,2.3,3.2,3.5c1,1.1,2.4,2,3.1,3.3c-2.6-1.3-4.7-3.3-6.9-5.1
	c0,0-0.1,0-0.2,0c-0.1,0.2-0.2,0.3-0.3,0.6c0,0.2-0.1,0.5-0.2,0.9c2.5,2.6,5,5.1,7.7,7.9c0.2,0.8,0.5,2.1,0.8,3.2
	c-0.2-0.1-0.5-0.2-0.7-0.3c-3.7-3-7.2-6.3-10.1-10.1c-2-2.6-3.7-5.4-4.7-8.6c-1.2-3.9-1.7-7.7,0.3-11.6c0,0,0-0.2,0-0.3
	c-0.8-0.2-1.3,0.2-1.7,0.8c-0.4,0.6-0.8,1.4-1,2.1c-0.8,2.7-0.4,5.4,0.2,8.1c0.9,3.6,2.8,6.7,5,9.7c2.6,3.5,5.7,6.6,8.9,9.5
	c0.4,0.3,0.9,0.6,1,0.7c0.3,2.6,0.7,4.9,0.9,7c0.2,2.1,0.8,4.3,0.8,6.4c-1.2-0.1-1.1-0.9-1.1-1.5l-1.2-8.3c-0.4-0.1-0.7-0.3-1.2-0.5
	c0.2,3.3,1.1,6.4,1.2,9.8c-1.1-0.3-2.1-0.6-3-0.9c-0.9-2.4-1.8-4.6-2.7-6.9c-0.6-1.6-1.2-3.2-1.9-4.8c-0.5-1.2-1.4-2.3-2.8-2.4
	c0,0.2-0.2,0.3-0.1,0.5c0,0.2,0.1,0.3,0.2,0.5c1.5,1.5,2,3.6,2.7,5.5c0.3,0.7,0.3,1.4-0.4,2.1c-0.1,0-0.3,0.1-0.6,0.2
	c-2.7,0.2-4.9-1.1-5.9-3.6c-0.5-1.2-1-2.6-2.2-3.2c-1.7-1-2.4-2.5-2.3-4.4c0-3.2-0.5-6.4-2.2-9.3c-2.1-3.5-3.1-7.5-3.7-11.4
	c-0.6-3.4-0.2-6.7,0.7-10c0.7-2.4,2.4-3.4,4.9-3.3c0.7,0,1.5,0.1,2.2,0.1c1.1,0,1.7-0.5,1.9-1.9c-1.7,0.6-1.7,0.6-3.4,0.5
	c-1.8-0.1-2.6-0.9-2.7-2.8c0-0.8,0-1.6,0-2.4c0-0.5-0.1-1-0.9-1c-0.1,0.2-0.5,0.4-0.5,0.6c0.2,1.8,0.4,3.7,0.7,5.7
	c-2.4,1.2-3.5,3.4-4.2,6.1c-0.8,3.4-0.8,6.9,0,10.3c0.9,4.1,2.6,8,4.4,11.8c1.3,2.7,1.4,5.4,1.1,8.4h-4c-0.6-2.2-1.2-4.3-1.8-6.3
	c-0.7-0.3-1.2-0.5-1.8-0.8v-20.9c0-0.1,0-0.2,0-0.3c0,0,0-0.1,0-0.1l-0.2-0.2H859c-0.2-0.4-0.6-1.1-0.9-1.4
	c-0.8-0.3-1.3-0.5-1.9-0.8c-0.1-0.7-0.8-1.4,0.3-2c0.4,0.7,0.8,1.4,1.1,2c1.9,0.5,3.7,1.2,5.6,1.3c-0.2-1.7-0.3-3.3-0.5-4.9
	c1.2,0,2.1,0.6,3.3,0c-2-3.1-3.5-6.3-3.5-10.1c0.6,0.2,1.2,0.4,1.8,0.5c1.5,0.3,2.9,0.4,4.3-0.2c2.2-1,2.6-3.1,1-5.2
	c-0.5,0.6-0.9,1.2-1.4,1.7c-0.5,0.6-0.9,1.3-1.5,1.8c-1.5,1.3-3.2,1.2-4.6-0.4c1.3,0.3,2.6,0.8,3.7-0.3c-0.8-1.7-0.8-1.8-3.3-3.2
	c1,0,2.1-0.1,3.2-0.2c5.1-0.3,9.1-2.6,11.5-7.3c0.8-1.5,1.6-3,2.5-4.5c1.2-2.1,2.8-3.5,5.7-2.6c-1.5-1.6-3.6-2-5.4-1.1
	c-2.6,1.3-4.7,3-4.9,6.3c0,0.8-0.6,1.5-1,2.3c0,0-0.2,0-0.3,0c-0.1-0.4-0.2-0.9-0.3-1.2c-2.5,0.5-4,2.1-5.1,4
	c-0.2,0.3-0.4,0.8-0.7,1.1c-0.5,0.4-1.1,0.7-1.6,1.1l-0.4-0.2c-0.3-0.1-0.5-0.4-0.8-0.5c-0.1,0-0.3,0-0.5,0
	c-0.7,0.1-1.4,0.2-2.1,0.5c-0.1,0-0.3,0-0.5,0H861c-0.4-0.3-0.9-0.6-1.2-1l-3.7-5.4c0.8-1.1,1.8-2.3,0.6-3.8
	c-0.8,0.7-1.6,1.4-2.5,2.2c0.6,0,1.2,0.1,2,0.2c-0.5,0.3-0.7,0.7-1.1,0.8c-1.6,0.2-3.2,0.4-5.1-0.2c1.2,2,3,0.9,4.6,1.4
	c-0.5,0.2-0.9,0.5-1.4,0.7c0.9,1.1,2,0.2,2.9,0.3c0.1,0.2,0.2,0.4,0.4,0.6c-0.3,0.2-0.6,0.3-1.1,0.5c0.5,0.4,0.9,0.7,1.3,1.1
	c1.1,1.1,2.5,2.2,2.9,3.8l0,0c-0.2,0.5-0.3,1.1-0.5,1.5c0.7,0.9,1.2,1.6,1.8,2.3l-0.2,0.2l-1.8-1.3c-0.1,0.4-0.2,0.8-0.3,1.1l2,2.5
	c-0.8-0.4-1.6-0.8-2.5-1.3c-0.1,0.3-0.2,0.5-0.3,0.8l2.4,2.3c-0.6-0.3-1.3-0.6-1.9-0.9c-0.4-0.2-0.8-0.3-1.2-0.5
	c-0.3,0.9,0.1,1.2,0.5,1.5l3.4,2.8c0.7,0.5,1.2,1.2,1.2,2.4c-2.9-2-5.4-4.1-7.5-6.6c-0.8-1-1.6-2.2-2.2-3.3
	c-0.9-1.8-0.9-3.6-0.2-5.4c0.1-0.3,0.2-0.6,0.4-1.3c-0.6,0.2-1.1,0.2-1.3,0.5c-0.4,0.6-0.8,1.3-0.9,2c-0.3,2.5,0.1,4.9,1.7,6.9
	c1.6,2.1,3.4,4,5.4,5.6c0.9,0.7,2,1.5,2.9,2.2c0.3,2,0.6,3.9,0.9,5.8c-0.5-0.3-0.7-0.6-0.8-1c-0.3-1-0.7-2.1-1.1-3.1
	c-0.2-0.5-0.5-0.7-1.1-0.3c0.4,1.4,0.8,2.8,1.4,4.5c-0.9-0.3-1.5-0.5-2-0.7c-1-2.2-2-4.2-2.8-6c-0.8-0.4-1.3-0.7-2-0.2
	c1.1,1.2,1.8,2.6,2.4,4.1c-1.8,0.7-3.5,0.5-4.4-0.9c-1.2-1.9-2.3-3.9-3.1-6c-0.4-1.1-0.8-2.3-1.5-3.3c-1.4-2.1-2.2-4.5-2.8-6.9
	c-0.5-2,0-3.7,1-5.4c0.5-1,1.4-1.5,2.6-1.4c0.6,0,1.2,0,1.8-0.2c0.4-0.1,0.8-0.5,0.5-1h-3.5c-0.9-0.5-1.2-1.4-1.3-2.3
	c0-0.6,0-1.4-0.1-2c0-0.3-0.2-0.7-0.3-1.1l-0.6,0.1c0.3,2-0.4,4.1,1.2,6.1c-1.6,1.2-2,3.1-2.6,5c-1-0.6-1.5-1.4-1.7-2.3
	c-0.3-1.4-0.5-2.7-0.6-4.1c-0.1-1.5-0.6-2.7-1.7-3.7c-0.5,0.5-0.9,1.1-1.7,2c0.1-2.4-1.1-3.6-2.8-4.8c-0.5,0.9-0.9,1.7-1.3,2.6
	c-0.5,0.1-1.2,0.2-1.7,0.3l1.3,4.6c0.2-0.1,0.5-0.2,0.8-0.3c0.5,0.3,1,0.6,1.6,0.9c2.7,1.2,4,3.7,5.3,6.1c-1.1-0.3-1.5-1.4-2.1-2.3
	c-1.1-1.8-2.6-3-4.8-3.5c0,0.5-0.1,1-0.2,1.6c-1.2-0.9-1.5-2.2-1.6-3.4c-0.2-1.8-1.1-3.2-2.6-4.2c-0.3-0.2-0.6-0.4-0.9-0.6
	c-1.4-1.1-2.9-1.2-4.5-1.1c-0.9,0.1-1.2,0.3-2.1,1.4c2.4-0.8,4,0.1,5.1,2c0.5,0.8,1,1.7,1.5,2.5c0.7,1.2,1.3,2.5,2,3.7
	c1.2,2.2,3,3.8,5.3,4.8c2,0.9,4.1,1.3,6.2,1.4c0.5,0,1,0.1,1.8,0.2c-1.1,1.3-2.8,1.7-2.8,3.6c0.6,0.2,1.2,0.4,1.7,0.6
	c0.8-0.3,1.4-0.5,2-0.7c-1.7,1.6-3.4,1.6-4.9,0c-0.6-0.6-1.1-1.5-1.7-2.2c-0.3-0.3-0.6-0.7-0.9-1.1c-1.5,3.1-0.3,5.4,2.9,5.7
	c0.8,0,1.6,0,2.4-0.2c1-0.2,1.9-0.7,2.9-1.1c0.1,0.1,0.2,0.3,0.4,0.5c0.9,1.2,1,2.7,1.7,4c1.3,2.6,2.5,5.3,4.7,7.3v2
	c-1.3,0.3-2.6,0.5-3.8,0.8l-1.2,1.8h-12.5v21.6c-0.7,0.3-1.3,0.5-2,0.8c-0.6,2.1-1.2,4.1-1.8,6.2h-4c-0.2-2.9,0-5.7,1.1-8.3
	c1.3-2.8,2.6-5.7,3.6-8.6c1.7-4.9,2.1-9.9,0.4-14.9c-0.5-1.8-1.5-3.1-3-4.3c-0.3-0.2-0.6-0.5-0.8-0.6c0.2-1.8,0.5-3.4,0.7-5.1
	c0-0.6-0.1-1.1-0.8-1.2c-0.6,0.3-0.6,1-0.6,1.6c0,0.8,0,1.6,0,2.4c0,0.8-0.4,1.7-1.2,1.9c-1.4,0.4-2.8,0.8-4.2,0
	c-0.2-0.1-0.5-0.1-0.9-0.2c0.5,1.4,1.4,2.1,2.7,1.9c0.6-0.1,1.4-0.1,2-0.1c2.1,0,3.7,1,4.4,2.9c0.8,2.3,1.3,4.8,1.1,7.2
	c-0.2,2.5-0.7,5-1.2,7.4c-0.6,2.7-1.8,5.3-3.1,7.8c-1.2,2.3-2,4.7-1.8,7.4c0,0.6,0,1.4,0,2c0,1.4-0.6,2.6-1.9,3.4
	c-1.3,0.8-2.1,2-2.6,3.4c-0.2,0.5-0.5,1.1-0.8,1.6c-1.5,2-4,2.7-6.1,1.8c-0.6-1-0.1-1.9,0.2-2.8c0.3-0.9,0.7-2,1.2-2.8
	c0.4-0.8,1.1-1.6,1.7-2.6c-0.5,0-0.8,0-1.1,0c-1.2,0.5-1.9,1.4-2.4,2.6c-1.3,3.4-2.6,6.7-3.9,10.1c-0.2,0.4-0.4,0.9-0.6,1.3
	c-1,0.3-1.9,0.5-3,0.8c0.5-3.3,0.9-6.4,1.4-9.8l-1.3,0.5c-0.5,3.2-0.9,6.4-1.4,9.6c-0.3,0.1-0.6,0.2-1.1,0.3c0.6-4.6,1.3-9,1.8-12.5
	c2.5-2.7,4.4-4.8,6.3-6.9c2.6-2.8,5-5.8,6.9-9.2c2-3.6,2.8-7.5,2.4-11.6c-0.1-1.2-0.6-2.4-1.1-3.4c-0.3-0.6-0.9-1.2-1.8-0.8
	c0.1,0.3,0.2,0.6,0.3,0.9c0.8,1.6,1,3.4,1,5.1c0,4.5-1.7,8.4-4.1,12.1c-3.1,4.7-7.1,8.5-11.3,12.1c-0.3,0.2-0.6,0.4-1.2,0.8
	c0.4-1.5,0.8-2.7,1.1-3.8c2.9-2.4,5.3-5,7.7-7.7c-0.3-0.5-0.5-0.9-0.8-1.4c-0.5,0.4-0.9,0.8-1.3,1.2c-1.8,1.4-3.4,3.1-5.5,4
	c0.3-0.4,0.6-0.9,1-1.3c1.8-1.8,3.5-3.5,5.3-5.3c-0.3-0.7-0.5-1.2-0.8-1.9c-1.7,1.3-2.9,2.8-4.9,3.5c1.5-1.7,3-3.4,4.6-5.1
	c-0.2-0.8-0.3-1.6-0.6-2.6c-1.1,1-2,1.9-2.9,2.7c-0.1-0.1-0.2-0.2-0.3-0.3c0.8-1.7,2.3-2.9,3.1-4.7c-0.1-0.8-0.3-1.7-0.5-2.8
	c-0.5,0.6-0.9,1-1.2,1.5c1.4-4.2,4.6-7.2,7.6-10.5c-0.8-0.2-1.4-0.4-2-0.6c0.2-1.1,0.4-1.4,1.1-1.3c0.4,0,0.8,0.2,1.2,0.3
	c1.1,0.1,2.1,0,3.1-0.9c-0.6-0.3-1.1-0.6-1.6-0.9c1-0.2,2-0.2,2.9-0.2c1.1,0,1.8-0.6,2-1.8c0-0.1,0-0.3-0.1-0.5
	c-0.5,0.3-0.9,0.6-1.4,0.9c-1.8-0.1-3.5,0.3-5.1-0.7c-0.3-0.2-0.4-0.6-0.7-1.1c1,0,1.8,0.6,2.5-0.1c-0.7-0.6-1.5-1.1-2-1.8
	c-0.5-0.7-0.7-1.7-1.1-2.6c-0.7,0.7-0.8,1.6-0.9,2.4c-0.2,1.7,0.4,3.2,1.2,4.7c-0.5,0.6-0.9,1.2-1.4,1.8c-3.2,4.5-5.5,9.3-6.6,14.7
	c-0.8,4-1.3,8-1.9,12.1c-0.7,5-2.1,9.6-4.6,14c-0.2,0.3-0.3,0.7-0.5,1.2c1.8,0.3,3.4-0.1,5.1-0.5c-0.5,3.8-0.9,7.5-1.4,11.4
	c1.6-0.5,2.9-0.8,4.3-1.2c1.3-0.4,2.7-0.8,4-1.2c0.8-2,1.5-3.8,2.1-5.6h4.2v4c-1,0.5-2,1-2.7,1.4c-0.8,0.9-1.5,1.8-2.2,2.6
	c0.1,0.3,0.3,0.6,0.5,0.9c1.3-0.2,1.3-0.2,2.3-1.2c1.5-1.7,3.4-2.5,5.6-1.7c1.7,0.6,3.3,1.5,5,2.3c0.4,0.2,0.8,0.5,1.5,0.9
	c-0.3-1.5-0.1-2.7-1.1-3.7c-2-0.5-4.1-1.1-6.1-1.7v-3.8c1-1.5,2-2.6,2.7-4c1.3-2.6,4.7-4.6,7.6-4.6c1.2,0,2.1,0.5,2.5,1.7
	c0.2,0.5,0.4,1.3,0.9,1.5c1.3,0.8,1.9,2,2.5,3.2c0.3,0.9,0.9,1.7,1.5,2.6c3,4.3,6.7,7.9,11,10.8c1.9,1.2,3.8,2.4,5.9,3
	c4.1-1.5,8-4,11.7-7.5c3.2-3,6.1-6.3,7.8-10.5c0.2-0.4,0.5-0.9,0.9-1.1c0.9-0.5,1.5-1.2,1.7-2.3c0.3-1.1,1.1-1.6,2.4-1.7
	c2.9-0.2,5,1.4,6.9,3.2c0.2,0.1,0.3,0.3,0.4,0.6c0.6,1.8,1.7,3.2,3,4.3v4.2c-2.2,0.6-4.3,1.2-6.3,1.7c-0.6,1.2-0.7,2.3-0.8,3.7
	c0.6-0.4,1-0.6,1.3-0.9c1.7-1.1,3.5-2,5.5-2.4c1.7-0.4,3.1,0,4.4,1.1c0.4,0.3,0.8,0.8,1.2,1.2c0.5,0.5,1,0.9,1.9,0.6l0.4-0.8
	c-0.8-0.9-1.4-1.8-2.3-2.8c-0.3-0.1-0.8-0.3-1.3-0.6c-0.5-0.3-1-0.6-1.4-0.9v-3.8h4.2c0.7,1.8,1.4,3.7,2.1,5.6
	c2.7,0.8,5.3,1.6,8.2,2.5c-0.5-4-0.9-7.6-1.4-11.3c1,0.2,1.8,0.4,2.6,0.5c0.8,0,1.7,0,2.7,0C908.8,546.6,908.5,546.2,908.3,545.6
	L908.3,545.6z M834.2,543.8c-2.3-2.2-2.3-5.3,0-8.2V543.8z M853.2,506.5c0.5,0.1,0.9,0.2,1.4,0.3c0,0.5,0,0.9-0.1,1.5
	c-0.5-0.1-0.8-0.2-1.2-0.3V506.5z M854.9,510.4c-0.7,0-1.1,0-1.6,0h-2C853.1,509.4,853.2,509.4,854.9,510.4z M849.5,510.2
	L849.5,510.2l-0.4,0.1v-0.1H849.5z M848.6,516.9h3.4c0.5-1.2,0.9-2.4,1.4-3.8c0.5,1.4,0.9,2.5,1.3,3.7c1.2,0,2.4,0.1,3.8,0.2l-3,2.4
	c0.3,1.2,0.7,2.4,1.2,3.9c-1.3-0.9-2.3-1.5-3.4-2.3l-3.1,2.1c0-1.4,0.7-2.4,0.9-3.7c-0.9-0.6-1.8-1.4-2.7-2.1
	C848.5,517.1,848.5,517,848.6,516.9L848.6,516.9z M836.6,517h3.4c0.5-1.4,0.9-2.6,1.4-3.9c0.5,1.4,0.9,2.5,1.4,3.8h3.4l0.1,0.4
	c-0.8,0.6-1.7,1.3-2.7,2.1l1.1,3.7c-1.4-0.4-2.1-1.5-3.3-2c-0.9,0.6-1.8,1.2-3.1,2.1c0.3-1.4,0.6-2.5,1-3.7
	c-0.9-0.7-1.8-1.4-2.7-2.1L836.6,517L836.6,517z M864.4,548.3c0,0.6,0,1.2,0,1.9c0,0.9,0,1.8,0,2.7c0.1,2-0.8,3.5-2.5,4.8
	c-0.4-0.1-0.9-0.3-1.4-0.4c0-0.3-0.1-0.6-0.1-0.8c0-1.8,0.2-3.7,0.3-5.4c0-1.1-0.2-2.1-1-3.1c-0.1,0.5-0.2,0.8-0.2,1.1
	c0,1.2,0,2.4,0,3.7c0,1.1-0.3,2-1.2,2.8h-1.9c0-0.5-0.1-0.8-0.1-1.2c0.1-2.6,0.1-5.1-0.6-7.6c-0.2-0.9,0-1.9,0-2.8
	c0-0.8,0.1-1.6,0-2.3c-0.2-1.1-0.5-2.3-0.2-3.4c0.1-0.8,0.3-1.8-0.5-2.6h-1.6c-0.6,1-0.4,2-0.2,3c0.3,1.7,0.6,3.5,0.2,5.3
	c-0.4,0.3-0.9,0.6-1.1,0.7c-0.5,1.1-0.9,2-1.2,2.9c-0.2,0.7-0.2,1.5-0.4,2.3c-0.3,2.2-0.2,4.4,0.3,6.5c0.3,1.1,0.2,2.1-0.7,2.9H849
	c-0.9-0.6-1-1.5-1-2.4c0-1.7-0.2-3.3-0.3-4.9c0-0.5-0.2-1-0.3-1.5c-0.1,0-0.2,0-0.4,0v5.8c-1.7,0.8-2.7,0.3-2.9-1.4
	c-0.3-2-0.5-4-0.7-5.5c-1.2-2.2-2.3-4-3.3-5.9c-2.5-1.5-2.6-2.6-0.5-3.9c0.3-1.2,0.7-2.4,2.2-2.7c0.2-0.6,0.5-1.1,0.7-1.6
	c0.5-0.3,0.9-0.6,1.4-1c0.2-2.5,1.8-3.5,4.2-3.7c0.9-1.3,2.1-2.3,3.9-2c0-1.8,0.3-3.1,2.4-3.4c2,0.5,2.3,0.9,2.5,3.2
	c1.1,0.3,2.4,0.4,2.9,1.8c1.8,0.3,3.5,0.6,3.4,2.9c2.4,1.8,2.6,2.1,2.6,4.7c1.1,1.4,1.8,2.8,0.8,4.4c0.2,1.4,0.5,2.5,0.5,3.6
	C867,547.2,866.4,547.8,864.4,548.3L864.4,548.3z M868.8,523.2c-1.3-0.9-2.3-1.5-3.3-2.3c-0.9,0.6-1.9,1.2-3.2,2.1
	c0.4-1.4,0.7-2.5,1.1-3.6c-0.9-0.7-1.8-1.5-3-2.5c1.5,0,2.7-0.1,3.8-0.2c0.4-1.2,0.8-2.4,1.4-3.8c0.5,1.4,0.9,2.6,1.4,3.8
	c1.2,0,2.3,0.1,3.8,0.2c-1.1,0.9-2.1,1.6-2.9,2.4C868.1,520.5,868.4,521.6,868.8,523.2z M872.8,543.7v-7.9
	C874.8,538.7,874.8,541.3,872.8,543.7z"/>
<path fill="#FFFFFF" d="M861,496.9c0,0,0.1,0,0.2,0L861,496.9L861,496.9L861,496.9z M860.7,496.5c0.1,0.1,0.2,0.3,0.3,0.4l0,0
	C860.9,496.8,860.8,496.6,860.7,496.5L860.7,496.5z M861.3,495.1h0.1H861.3L861.3,495.1L861.3,495.1z M861,494.7
	c0.1,0.1,0.2,0.3,0.3,0.4l0,0C861.3,494.9,861.2,494.8,861,494.7C861,494.7,861,494.7,861,494.7L861,494.7z M859.9,488.5
	C860,488.5,860.1,488.6,859.9,488.5C860.1,488.6,860,488.5,859.9,488.5z M803.2,534.6c0,0,0,0,0,0.1L803.2,534.6z"/>
<path fill="#FFFFFF" d="M1110.8,545.2c-0.1-2.6-0.3-5.1-0.3-7.7c-0.2-5.7-0.3-11.5-0.4-17.2c-0.1-9.2-0.2-18.3,0.3-27.4l0.4-7.5
	c0-0.9,0-1.7-0.7-2.5h-8.2c-1.2,1.2-0.8,2.6-0.8,4c0.2,5.2,0.4,10.5,0.6,15.7c0,0.4,0,0.9-0.1,1.4c-1.6-1-2.9-2.2-4.5-2.9
	c-4.7-2.5-9.7-2.8-14.8-1.9c-13.5,2.4-24.9,17-18.4,33.4c3.7,9.3,11,14.5,21.1,15.4c5.9,0.5,11.1-1.1,15.2-5.6
	c0.1-0.2,0.3-0.3,0.6-0.4c0.5,1.9-0.5,3.9,1,5.6h8.3C1110.6,546.9,1110.8,546.1,1110.8,545.2L1110.8,545.2z M1101.7,519.3
	c-0.1,2.1,0,4.3,0,6.4h-0.2c0,2.5,0,4.9,0,7.3c0,3.1-1.3,5.7-3.4,7.8c-5,5-13,5.9-18.6,0.1c-2.6-2.7-4.4-5.8-5.5-9.3
	c-1.5-4.6-2.3-9.2-2-14c0.2-3.8,1.4-7.4,3.7-10.5c2.6-3.4,6-4.9,10.2-4.6c1.3,0.1,2.6,0.3,3.8,0.5c4.7,1,8,3.8,10.2,8.1
	C1101,513.8,1101.8,516.4,1101.7,519.3L1101.7,519.3z M1009.7,533.6c-0.2,0.1-0.3,0.1-0.3,0.2c-0.2,0.2-0.5,0.5-0.7,0.8
	c-4.2,4.9-9.4,7.7-15.8,7.9c-4.1,0.1-8-0.8-11.1-3.8c-2.6-2.4-4-5.4-5.7-8.6c11.3-5.2,22.5-10.4,33.7-15.6l0.3-2.3
	c-1.3-1.9-2.6-3.8-3.9-5.7c-1.8-2.7-4.3-4.6-7.3-6c-3.7-1.7-7.6-2.2-11.6-2c-6.6,0.4-12.2,3-16.4,8c-6.5,7.6-7.5,16.4-4.4,25.6
	c4.2,12.2,16.6,17.4,28.1,15.3c5.8-1.1,10.6-4.3,15.1-8C1010,537.4,1010.6,535.5,1009.7,533.6L1009.7,533.6z M974.6,525.9
	c-0.6-5.3-0.2-10.5,1.5-15.5c0.5-1.6,1.4-3.1,2.4-4.5c1.2-1.8,3.1-2.9,5.3-3.3c5.5-1,10.9,0.4,14,5.8c1.1,2,2.1,4,2.6,6.2
	c0,0.3,0,0.7,0.1,1.2c-8.5,3.7-17,7.5-25.5,11.2C974.9,526.5,974.6,526.2,974.6,525.9L974.6,525.9z M1057.8,533.5
	c-0.7,0.8-1.3,1.4-1.9,2c-4.8,5.1-10.6,7.6-17.7,6.9c-4.5-0.4-8.1-2.5-10.6-6.3c-1-1.5-1.9-3.1-2.8-4.7c-0.2-0.3-0.3-0.8-0.5-1.3
	c11.2-5.2,22.4-10.3,33.6-15.5l0.3-2.3c-1.3-2-2.6-3.8-3.9-5.8c-1.7-2.5-4-4.3-6.6-5.6c-3.9-2-8.1-2.6-12.5-2.2
	c-8,0.6-14.2,4.3-18.4,11c-4.4,6.9-4.9,14.5-2.3,22.2c4.1,12.4,16.4,17.8,28.2,15.7c5.5-0.9,10.2-4,14.5-7.5c0.3-0.2,0.6-0.6,0.7-1
	C1058.3,537.3,1058.7,535.5,1057.8,533.5L1057.8,533.5z M1022.6,524.7c-0.3-5,0-10,1.8-14.8c2.4-6.6,7.2-8.5,13.6-7.4
	c3.4,0.6,5.9,2.5,7.7,5.3c1.5,2.4,2.6,4.9,3.1,7.8c-8.6,3.8-17.1,7.5-25.8,11.3C1022.9,526.1,1022.7,525.4,1022.6,524.7
	L1022.6,524.7z"/>
<path fill="#FFFFFF" d="M896.6,478.2c-0.2,0.1-0.5,0.3-0.8,0.4C896.1,478.4,896.3,478.3,896.6,478.2z M897.7,476.7
	c-0.1,0.2-0.3,0.5-0.4,0.8C897.4,477.3,897.6,477,897.7,476.7z M897.3,477.5l-0.4,0.4C897,477.7,897.2,477.6,897.3,477.5z
	 M897,477.8l-0.4,0.4C896.7,478.1,896.8,477.9,897,477.8z"/>
<path fill="#FFFFFF" d="M1048.5,557.5c-3.7,0-7.4,3.7-7.4,7.1c0,3.6,3.5,7.2,7.2,7c3.9,0,7.2-3.1,7.4-6.9
	C1055.8,561,1052,557.6,1048.5,557.5z M1051.5,569.4c-1.4,1.3-3.3,1.5-4.9,0.7c-3.4-1.8-4.3-6.7-1.9-9.7c1.7-2.1,4.3-2.3,6.3-0.6
	c1.6,1.4,2.4,3,2.4,5.1C1053.4,566.7,1052.8,568.2,1051.5,569.4L1051.5,569.4z M827.2,490.5c-0.2,0.8-0.3,1.5-0.5,2.3
	c-2.8,0.9-5.9,1.5-5.9,5.5c-0.2-0.2-0.4-0.2-0.4-0.3c-0.7-2.6-2.5-3.8-5-4.1c-0.7,0-1.4-0.3-2-0.5c-0.2-0.8-0.4-1.4-0.6-2.2h-1.3
	c-0.9,1.3,0.2,2.1,0.3,3c1.2,0.6,2.7,0.5,3.4,2c0,0.3-0.1,0.8-0.2,1.2c0.4,0.4,0.9,0.8,1.4,1.2c0.9,0,1.9,0.2,2.9,0.2
	c0.5,0.7,1,1.4,1.5,2.1c1.3-2.4,1.4-2.4,4-2.9c0.5-0.4,1-0.8,1.6-1.2c-0.2-0.3-0.4-0.7-0.6-1.1c0.5-1.6,2-1.8,3.2-2.5
	c0-0.9,0.2-1.8,0.2-2.9C828.2,490.3,827.6,490.4,827.2,490.5L827.2,490.5z M816.9,497.7c-0.3,0-0.6-0.3-0.8-0.6
	c-0.2-0.5,0.2-0.9,0.9-1.1c0.2,0.2,0.5,0.4,0.9,0.6C817.7,497.4,817.4,497.8,816.9,497.7L816.9,497.7z M824.2,496.6
	c-0.1,0.6-0.6,0.8-1.4,0.5c-0.2-1-0.2-1,0.5-1.6C823.9,495.6,824.3,496,824.2,496.6z M895.3,491.1c-0.3-0.1-0.7,0.1-1.1,0.1
	c-0.2,0.8-0.4,1.4-0.6,2.1c-0.8,0.2-1.6,0.5-2.4,0.5c-2.3,0.2-3.8,1.4-4.6,3.7c0,0.2-0.1,0.4-0.2,0.6c-0.1-0.1-0.3-0.2-0.3-0.3
	c-0.1-2.6-1.8-3.8-4-4.6c-0.7-0.2-1.3-0.5-1.9-0.7c-0.2-0.8-0.4-1.5-0.6-2.1c-0.6-0.3-1.2-0.6-1.8,0.1l0.3,2.5
	c1.2,0.7,2.7,0.8,3.1,2.6c-0.2,0.3-0.3,0.7-0.5,1.1c0.6,0.4,1.1,0.8,1.7,1.2c0.8,0.1,1.8,0.3,2.4,0.8c0.6,0.5,1.1,1.4,1.5,2
	c0.5-0.7,1.1-1.4,1.5-2c1.1-0.1,2.1-0.2,2.9-0.3l1.4-1.2c-0.1-0.3-0.2-0.7-0.3-1c0.6-1.6,2.4-1.4,3.4-2.1c0.2-0.6,0.5-1.3,0.8-2.1
	C895.9,491.8,895.7,491.3,895.3,491.1L895.3,491.1z M883,497.3c-0.2,0-0.5-0.3-0.6-0.6c-0.2-0.6,0.2-1,0.9-1.2
	c0.2,0.2,0.6,0.5,0.8,0.8C884,497.1,883.5,497.4,883,497.3L883,497.3z M890.2,497.5c-0.8,0.3-1.3,0.2-1.6-0.7
	c0.2-0.3,0.5-0.6,0.7-0.9C890.5,496.1,890.6,496.6,890.2,497.5z M859.3,471.6c-6-0.8-11.7-1.7-17.7,0c1.4,1.5,3.5,2.3,4.7,3.7
	l-0.3,1.5c1,0.3,1.9,0.6,2.8,0.8c0.3,0.5,0.8,1.1,1.4,2c0.5-2.6,2.9-1.5,4.1-2.7c0-0.4,0.1-0.9,0.2-1.5c0.8-0.4,1.6-0.8,2.4-1.2
	l-0.1-0.1C857.6,473.3,858.3,472.6,859.3,471.6L859.3,471.6z M848,476.8c-0.3-0.3-0.6-0.5-1.1-0.9c0.3-0.3,0.5-0.4,0.8-0.7
	c0.3,0.3,0.6,0.5,1.1,1C848.5,476.4,848.3,476.6,848,476.8z M852.7,477.1c-0.3-0.3-0.5-0.5-0.7-0.8c0.5-0.8,0.9-0.8,1.5,0
	C853.2,476.6,853,476.8,852.7,477.1z M855,474.2c-0.4,0.1-0.9,0.2-1.4,0.2c-1.5,0.2-2.5,0.9-2.8,2.5c0,0.2-0.2,0.4-0.5,1
	c-0.5-1.3-0.9-2.3-1.2-3c-1.2-0.9-2.6-0.8-3.6-2.1c3.6-0.8,7-1.1,10.6,0.6C855.6,473.7,855.3,474,855,474.2L855,474.2z M843.8,540.5
	c0.9-0.9,1.9-2.1,3.4-1.2c1.1,0.7,1.1,1.9,0.8,3.1c-1.7,1.2-2.5,1-2.7-0.6c0.6,0,1.1-0.1,1.8-0.2c0-0.9-0.6-1-1.3-1
	c-0.7,0-1.3,0.4-1.5,1.1c-0.4,1.3,0.1,2.3,1.2,2.9c0,1.2-0.3,2.1-1.2,2.7c-1.2,0.4-2-0.1-2.4-1.1c-0.2-0.4-0.4-0.9-0.5-1.4
	c-0.2-1.1-0.6-2-1.7-2.5c-0.3-0.2-0.5-0.7-0.9-1.3c1-0.2,1.7-0.4,2.6-0.6c0.8-0.5,1.4-1.4,1.4-2.6c0-1.3,0.5-2.1,1.8-2.5
	c0-2.6,1.5-3.9,4.1-4c0.9-1.3,2-2.4,4-1.6c0,0.6,0,1.3,0,2.1v2.3c-1.1,1.4-1,3.1-0.7,4.9c0.2,1.3,0.2,2.6,0.3,4l-1.3,0.9
	c-0.4,1.4-0.8,2.6-1.3,4c0,1.4,0,3.2,0,5c0,1.2,0.3,2.4,0.5,3.6c0.1,0.8,0.2,1.6-0.7,2c-0.6,0-0.8-0.5-0.8-1c0-1.1-0.1-2.2,0-3.3
	c0.1-2.7-0.6-5.1-2.6-7c0.2-0.8,0.3-1.6,0.5-2.4c0.1,0,0.2-0.1,0.3-0.2c2.6-1.1,3.2-3.2,1.8-5.5c-1-1.6-4.1-1.6-5.1,0
	C843.2,539.3,843,539.9,843.8,540.5L843.8,540.5z M855.5,529.5c0.6,0,1.2,0,1.8-0.1c0.5,0.5,0.9,1,1.2,1.5c2.8,0.4,2.9,0.5,3.2,2.6
	c0.8,0.8,2.1,1.2,2.5,2.7c0,0.3-0.2,0.8-0.3,1.3l1.7,2.6c-0.3,0.6-0.5,1.1-0.8,1.7c0.5,1.5,1.4,2.9,0.8,4.9c-0.4,0-0.9,0-1.6-0.1v-4
	c-0.8-0.2-1,0.2-1,0.6c0,1.5,0,2.9,0,4.4c0,2,0.2,3.9,0.2,5.8c0,1.1-0.5,2-1.6,2.7c0-0.6-0.1-0.9-0.1-1.3c0-1.1,0.1-2.2,0.2-3.3
	c0-1.4-0.2-2.7-0.8-3.9c-0.3-0.8-0.8-1.5-1-2.4c-0.4-1.9-0.7-3.7,0.6-5.4c0.1-0.2,0.1-0.5,0.1-0.9c-2,0.8-2.2,1.8-1.5,6.2
	c-1.1,2.2-0.4,4.6-0.6,6.9c-0.1,1.1,0,1.1-0.9,2c0,0-0.2-0.1-0.2-0.2l-0.8-8.9c0-0.3-0.1-0.6,0-0.9c0.6-1.4,0.3-2.8,0-4.3
	c-0.1-0.7-0.1-1.5,0-2.2c0.4-1.5,0-2.6-1.1-3.5L855.5,529.5L855.5,529.5z"/>
<path fill="#FFFFFF" d="M843.9,548.7c0.6-0.3,1.1-0.5,1.7-0.8c0.8,1.3,0.2,2.6,0.2,3.9c0,1.3,0.2,2.6,0.3,4c-1.1,0-1.4-0.6-1.5-1.4
	l-0.1-0.7C844.3,552,844.1,550.4,843.9,548.7L843.9,548.7z M853.1,526.5c0.6-0.6,1.3-0.6,1.8,0c0.2,0.3,0.2,0.9,0.1,1.3
	c-0.2,0.5-0.8,0.7-1.4,0.5C852.9,527.9,852.8,527.3,853.1,526.5L853.1,526.5z"/>
<g>
	<path fill="#FFFFFF" d="M489.4,542.9h19.3v4h-14.8v9.4h11.3v3.9h-11.3v13.4h-4.4V542.9z"/>
	<path fill="#FFFFFF" d="M511.9,542.9h4.4v18c0,1.4,0.1,2.7,0.4,3.8c0.2,1.2,0.7,2.1,1.3,3c0.6,0.9,1.4,1.5,2.4,1.9
		c1,0.4,2.3,0.7,3.8,0.7c1.5,0,2.7-0.2,3.8-0.7c1-0.4,1.8-1.1,2.4-1.9c0.6-0.9,1-1.8,1.3-3c0.2-1.2,0.4-2.4,0.4-3.8v-18h4.4v19
		c0,1.8-0.2,3.4-0.7,4.9c-0.5,1.5-1.2,2.9-2.3,4c-1,1.1-2.3,2-3.8,2.7c-1.5,0.7-3.3,1-5.4,1c-2.1,0-3.9-0.3-5.4-1
		c-1.5-0.7-2.8-1.5-3.8-2.7c-1-1.1-1.8-2.4-2.3-4c-0.5-1.5-0.7-3.2-0.7-4.9L511.9,542.9L511.9,542.9z"/>
	<path fill="#FFFFFF" d="M541.1,542.9h4.4l16.8,24v-24h4.3v30.7h-4.4l-16.8-24v24h-4.3V542.9z"/>
	<path fill="#FFFFFF" d="M571.1,542.9h10.3c2.4,0,4.7,0.3,6.7,0.9c2.1,0.6,3.8,1.5,5.3,2.8c1.5,1.3,2.6,2.9,3.5,4.8
		c0.9,1.9,1.2,4.3,1.2,6.9c0,2.6-0.4,4.8-1.2,6.8c-0.9,1.9-2,3.5-3.5,4.8c-1.5,1.3-3.2,2.2-5.3,2.9c-2.1,0.6-4.3,0.9-6.8,0.9h-10.2
		V542.9z M581.2,569.7c3.8,0,6.8-1,8.9-2.9c2.1-1.9,3.2-4.7,3.2-8.4c0-3.8-1-6.6-3.1-8.6c-2.1-2-5.1-3-9.2-3h-5.6v22.8H581.2z"/>
</g>
<g>
	<path fill="#FFFFFF" d="M467.4,503.2c-1.2,0-3.8,0.7-5.2,2.1c0.5-6-1.7-10.5-5.8-12c-2.6-0.9-5.3-0.7-7.7,0.4l-3.3-8.1
		c3.1-7.5,8.5-16.7,8.5-24.3c0-5.8-2.9-10.1-8.6-10.1c-3.4,0-7.2,2.8-10.1,6.5c-4-8.8-8-12.8-12.5-12.8c-7.1,0-9.9,7.1-9.9,13
		c0,5,1.3,13.2,6.7,24.9c-3.6,8.1-6.3,14.7-9.6,25.1c-4.3-4.4-11.3-8.9-20.3-8.9c-4.6,0-8.6,1.2-11.7,3.3c-2.9,2.1-4.6,4.8-4.6,7.7
		c0,4.3,2.9,7.2,7.4,8.4c7.7,2.1,11.1,8.2,14.1,20.4c5.3,22,19,35.2,40.1,35.2c22.3,0,40.5-18.2,40.5-40.5c0-3.2-0.4-5.8-0.9-8.8
		c0.7-1.7,1.2-3.6,1.5-5.1C477.8,509.9,474.3,503.2,467.4,503.2z M454.7,498.1c3.6,1.6,3.8,9.1,0.2,18c-2.9,8.6-7.1,13.8-11,13.9
		c-3.1,0-5.7-2.2-5.7-8C438.3,510.9,447.3,494.7,454.7,498.1z M417.7,457.7c0-3.6,1.5-7.9,5-7.9c2.4,0,5.3,3.8,8.8,11.3
		c-2.9,3.8-6,8.8-9.1,14.9C419.2,468.1,417.7,462,417.7,457.7z M434.8,568.6c-18,0-30.4-12.5-35.2-31.2
		c-3.2-12.8-7.4-21.4-17.8-24.2c-1.2-0.4-3.4-1.2-3.4-3.4c0-2.4,4-5.8,11.1-5.8c8.5,0,15.6,5.2,20.4,12.2l3.7-1.3
		c0.5-7,4.1-16.6,10.4-30.1c7.9-17,15.9-28.5,21.2-28.4c1.7,0.1,3.7,2.1,3.7,5c0,7.1-6.2,17.6-11.6,29c-0.5,1.2-3,6.6-3,6.6l3.5,1.5
		c1.2-1.9,3.6-6.6,3.9-7.4l2.7,5.9c-5.7,4.8-10.6,16.1-10.6,25.1c0,6.5,2.9,10.6,7.2,11.9c4,1.2,7.7,0.1,10.6-3.4
		c0.7,4.1,3.4,7.7,8.8,7.7c4.7,0,7.8-2.7,10.1-7.4C471.3,552.5,453.5,568.6,434.8,568.6z M471.3,518.6c-1.2,7.2-5.6,15.2-11,15.2
		c-5.2,0-4.9-6.8-3.7-11c1.9-7.4,6.9-15.1,10.6-15.1C470.9,507.9,472.4,512.5,471.3,518.6z"/>
	<path fill="#FFFFFF" d="M453.1,554.8c-15.3,8.6-29.5,3.2-34.8-12.7l4.4-2.1c4.4,12.9,16.9,16.4,28.6,10.3L453.1,554.8z"/>
	<path fill="#FFFFFF" d="M449,521.7c0,2.2-1.8,4-4,4c-2.2,0-4-1.8-4-4c0-2.2,1.8-4,4-4C447.2,517.8,449,519.6,449,521.7"/>
	<path fill="#FFFFFF" d="M465.7,526.5c0,2-1.6,3.6-3.6,3.6c-1.9,0-3.6-1.6-3.6-3.6c0-2,1.6-3.6,3.6-3.6
		C464.2,523,465.7,524.6,465.7,526.5"/>
</g>
<g>
	<path fill="#FFFFFF" d="M459,461.2c-0.5,0-1-0.1-1.4-0.3c-0.4-0.2-0.9-0.4-1.2-0.8c-0.3-0.3-0.6-0.7-0.8-1.2s-0.3-0.9-0.3-1.4
		s0.1-1,0.3-1.4c0.2-0.4,0.4-0.9,0.8-1.2c0.3-0.3,0.7-0.6,1.2-0.8c0.4-0.2,0.9-0.3,1.5-0.3c0.5,0,1,0.1,1.4,0.3
		c0.4,0.2,0.8,0.4,1.2,0.8c0.3,0.3,0.6,0.7,0.8,1.2c0.2,0.4,0.3,0.9,0.3,1.4s-0.1,1-0.3,1.4s-0.4,0.9-0.8,1.2
		c-0.3,0.3-0.7,0.6-1.2,0.8C460,461.1,459.5,461.2,459,461.2z M459,460.5c0.4,0,0.8-0.1,1.2-0.2c0.4-0.1,0.7-0.4,0.9-0.6
		s0.4-0.5,0.6-0.9c0.1-0.4,0.2-0.7,0.2-1.2c0-0.4-0.1-0.8-0.2-1.2c-0.1-0.4-0.4-0.7-0.6-0.9s-0.5-0.5-0.9-0.6
		c-0.4-0.2-0.7-0.2-1.2-0.2c-0.4,0-0.8,0.1-1.2,0.2c-0.4,0.2-0.7,0.4-0.9,0.6c-0.2,0.2-0.5,0.5-0.6,0.9s-0.2,0.7-0.2,1.2
		s0.1,0.8,0.2,1.2c0.1,0.4,0.4,0.7,0.6,0.9c0.2,0.2,0.5,0.5,0.9,0.6C458.3,460.4,458.6,460.5,459,460.5z M457.8,455.7h1.4
		c0.2,0,0.4,0.1,0.6,0.1s0.3,0.1,0.4,0.2c0.1,0.1,0.2,0.2,0.2,0.4c0.1,0.1,0.1,0.2,0.1,0.4c0,0.2-0.1,0.4-0.2,0.7
		c-0.1,0.2-0.3,0.4-0.5,0.4l0.9,1.5h-0.8l-0.9-1.5h-0.6v1.5h-0.7V455.7z M459.2,457.4c0.2,0,0.4-0.1,0.5-0.2s0.1-0.2,0.1-0.4
		s-0.1-0.3-0.2-0.4c-0.1-0.1-0.2-0.1-0.5-0.1h-0.7v1.1L459.2,457.4L459.2,457.4z"/>
</g>
<path fill="#FFFFFF" d="M489.4,503.2h8.5V515h11.9v-11.7h8.5v32.1h-8.5v-12.6h-11.9v12.6h-8.5V503.2z"/>
<path fill="#FFFFFF" d="M523.7,503.2h23.1v7.4h-14.6v5h12v6.9h-12v5.5h15.6v7.4h-24.1V503.2z"/>
<path fill="#FFFFFF" d="M552.3,503.2h13.3c1.7,0,3.3,0.2,4.7,0.7c1.4,0.4,2.6,1.1,3.6,2c1,0.9,1.8,2,2.3,3.3
	c0.5,1.3,0.8,2.9,0.8,4.6c0,2.1-0.5,4-1.4,5.5c-0.9,1.6-2.2,2.8-3.7,3.7l6.9,12.4h-9.1l-5.4-11h-3.6v11h-8.3L552.3,503.2
	L552.3,503.2z M564.7,517.7c1.1,0,2-0.4,2.7-1s1-1.6,1-2.7c0-1.2-0.4-2.2-1-2.9c-0.7-0.7-1.6-1-2.9-1h-4.1v7.7L564.7,517.7
	L564.7,517.7z"/>
<path fill="#FFFFFF" d="M582.5,503.2h8.5v32.1h-8.5V503.2z"/>
<path fill="#FFFFFF" d="M604.8,510.7h-9.9v-7.5h28.2v7.5h-9.8v24.6h-8.6L604.8,510.7L604.8,510.7z"/>
<path fill="#FFFFFF" d="M630.8,503.2h9.8l11.4,32.1h-9.2l-2.1-6.6H630l-2.1,6.6H619L630.8,503.2z M638.9,522.5l-3.6-11.8l-3.7,11.8
	H638.9z"/>
<path fill="#FFFFFF" d="M669.5,517.1h13.2v14.5c-1.9,1.6-4.1,2.8-6.6,3.5c-2.5,0.7-5,1.1-7.5,1.1c-2.6,0-4.9-0.4-7-1.2
	s-3.8-1.9-5.3-3.3c-1.5-1.5-2.6-3.2-3.3-5.3c-0.7-2.1-1.2-4.4-1.2-7.1c0-2.4,0.4-4.7,1.2-6.8c0.8-2.1,1.9-3.8,3.5-5.4
	c1.5-1.5,3.2-2.7,5.3-3.5c2-0.9,4.3-1.3,6.8-1.3c2.7,0,5.2,0.4,7.5,1.3c2.3,0.9,4.3,2.4,5.8,4.4l-5.5,5.6c-1-1-2.1-1.8-3.2-2.4
	c-1.2-0.7-2.4-1-4-1c-1.4,0-2.6,0.2-3.7,0.7c-1,0.5-1.9,1.2-2.7,1.9s-1.3,1.8-1.6,2.9c-0.4,1.1-0.5,2.3-0.5,3.5
	c0,1.4,0.2,2.6,0.6,3.7c0.4,1.1,1,2.1,1.7,2.9c0.7,0.8,1.6,1.4,2.7,1.8s2.3,0.7,3.6,0.7c1,0,2.1-0.1,3-0.4c1-0.2,1.9-0.7,2.8-1.3
	v-3.1h-5.6L669.5,517.1L669.5,517.1z"/>
<path fill="#FFFFFF" d="M687.9,503.2H711v7.4h-14.6v5h12v6.9h-12v5.5H712v7.4h-24.1V503.2z"/>
</svg>
