<?xml version="1.0" encoding="utf-8"?>
<!-- Generator: Adobe Illustrator 18.0.0, SVG Export Plug-In . SVG Version: 6.00 Build 0)  -->
<!DOCTYPE svg PUBLIC "-//W3C//DTD SVG 1.1//EN" "http://www.w3.org/Graphics/SVG/1.1/DTD/svg11.dtd">
<svg version="1.1" id="Layer_1" xmlns="http://www.w3.org/2000/svg" xmlns:xlink="http://www.w3.org/1999/xlink" x="0px" y="0px"
	 viewBox="0 0 2161.9 307.8" enable-background="new 0 0 2161.9 307.8" xml:space="preserve">
<path fill="#333333" d="M310.4,165C310.4,165.3,310.4,165.3,310.4,165z M592.5,165.3v14.5h-20.6v10.5h19.7v14.8h-19.7v11.4h20.3
	v15.1h-37.6v-12h-0.3c0,0.3-0.3,0.6-0.3,0.9c-2.8,6.8-7.7,10.5-14.5,11.7c-5.8,1.2-11.7,0.9-17.2-0.6c-7.4-2.5-12-7.4-13.5-15.4
	c-2.2,7.4-6.8,12.3-13.2,15.1c-6.5,2.8-13.2,2.8-20,0.9c-10.8-2.8-16-10.8-16.9-25.3c-5.9,17.9-18.2,27.1-36.6,26.2
	c-16.9-0.9-27.7-10.8-32.3-27.4v26.2h-16.9v-26.5H351v26.5h-17.2V165H351v25h21.6v-25h-15.1c5.2-13.5,10.5-26.8,15.7-40
	c-4,4.6-8.9,8.3-14.8,9.9c-4.3,0.9-8.9,1.5-13.2,1.8c-3.7,0.3-7.4,0-11.1,0l-0.3,0.3v27.7H311c0-0.3,0-0.6-0.3-0.9v-90h1.8
	c10.5,0,20.6-0.3,31.1,0c6.5,0.3,13.2,0.3,19.4,3.4c8.3,4,13.2,10.8,15.1,20c0.9,4.3,0.9,8.6,0.9,13.2c0.3-0.3,0.3-0.9,0.6-1.5
	c0.3-0.3,0.6-0.9,0.6-1.5c4-10.5,8.3-20.9,12.3-31.7c0.6-1.5,1.2-2.2,3.1-2.2h15.7c1.5,0,2.2,0.6,2.8,1.8
	c10.2,26.2,20,52.7,30.2,78.8c0.3,0.3,0.3,0.9,0.9,1.2V73.6h1.9c10.2,0,20.3-0.3,30.5,0c6.5,0.3,12.9,0.6,19.4,3.1
	c9.5,3.7,14.5,11.1,16.6,20.6c1.5,6.5,1.2,12.6-1.2,19.1c-2.2,6.2-6.5,10.8-12.3,13.9c-0.6,0.3-1.2,0.6-2.2,1.2
	c5.9,10.5,12,21.2,17.9,31.7h0.3V73.9h23.1v40.6c0.6-0.9,0.9-1.2,1.2-1.5c8-12.3,15.7-24.9,23.7-37.3c0.9-1.2,1.8-1.8,3.4-1.8h22.2
	c-0.6,0.9-0.9,1.5-1.2,2.2l-27.7,41.6c-0.9,1.2-0.6,1.8,0,3.1c10.5,14.5,20.9,28.9,31.1,43.1C592.2,164.4,592.5,165,592.5,165.3
	L592.5,165.3z M349.2,95.4c-5.2-0.9-10.5-0.9-15.7-1.2v21.9c4.9-0.3,9.9,0,14.8-0.6c5.5-0.9,7.7-4,8.3-9.2
	C356.9,100.7,354.4,96.7,349.2,95.4L349.2,95.4z M392.3,133.3h20c-3.4-10.5-6.8-20.6-10.2-31.4C398.8,112.7,395.4,122.8,392.3,133.3
	z M422.2,163.5c-1.2-3.7-2.2-7.1-3.4-10.5c0-0.3-0.9-0.9-1.5-0.9h-29.6c-0.6,0-1.5,0.6-1.5,0.9c-1.2,4-2.5,7.7-3.7,12h6.8v26.5
	C393.5,174.6,404.9,165.6,422.2,163.5L422.2,163.5z M440,189.7c-3.1-6.8-8.3-10.8-17.6-11.1c-1.5,0.3-4.6,0.9-7.1,2.5
	c-10.2,5.5-12.6,20.3-5.2,29.9c6.2,8,18.2,9.5,24.9,3.1C441.9,207.8,444,198.3,440,189.7L440,189.7z M458.5,165h-23.4
	c12,4.3,19.7,12.6,23.4,24.9V165z M492.7,166.9c0-0.6,0-1.2-0.3-1.8L473,129c-1.2-2.5-2.8-4.9-4-7.4c3.4-0.3,6.8-0.3,9.9-0.6
	c5.9-0.6,9.9-2.2,12-8c2.8-7.7-0.6-16.6-9.9-17.9c-4-0.6-8-0.3-12.3-0.6V165h7.1v41.6c0,1.5,0,3.4,0.3,4.9c0.9,4,4,6.5,8,6.5
	c4.3,0,6.8-1.8,7.7-6.2c0.6-2.5,0.6-5.2,0.6-8C492.7,191.5,492.7,179.2,492.7,166.9z M509.6,178.6c2.5-6.8,7.1-10.8,14.2-13.5h-14.2
	L509.6,178.6L509.6,178.6z M534.9,207.5c-3.4-1.5-6.5-3.1-9.9-4.3c-6.8-2.8-12.3-6.5-15.1-13.5v19.7H525c0.6,2.2,0.9,4,1.8,5.9
	c1.2,2.8,4,3.7,7.1,3.1c2.2-0.3,4.3-2.8,4.9-4.9C538.9,210.9,538,209.1,534.9,207.5L534.9,207.5z M554.6,184.4h-16.3
	c-0.3-0.9-0.3-1.8-0.6-2.8c-0.9-2.5-2.8-3.7-4.9-3.7c-2.2,0-4.3,0.9-5.5,3.1c-1.5,2.2-0.6,4.6,2.2,6.2c4,2.2,8,4,12.3,5.9
	c5.5,2.8,10.5,5.9,13.5,12C554.6,198,554.6,191.2,554.6,184.4z M564.1,165c-8.3-13.2-16.3-25.9-24.9-39.1v38.5
	c7.7,2.2,13.2,6.5,15.7,14.5v-14.2C558,165,560.8,165,564.1,165L564.1,165z M218,219.2c-3.7,8-10.2,12.3-18.8,13.5
	c-6.5,0.9-12.6,0.3-18.2-2.8c-6.8-3.7-11.1-9.5-11.4-17.2c-0.6-9.5-0.3-19.4-0.6-28.9v-3.1h-12v51.4h-16.9v-51.4h-10.8
	c1.2,3.4,2.8,6.8,4,10.5h-17.2c-0.6,0-1.2-0.9-1.5-1.5c-3.1-6.2-7.7-9.9-14.8-10.2c-7.7-0.3-13.6,3.7-16.6,10.8
	c-3.7,8.6-1.8,18.2,4.9,24.3c7.1,6.5,19.7,5.9,25.9-5.2c0.9-1.5,1.5-2.2,3.4-2.2h15.4c-3.4,14.2-15.1,24-28.6,25.9
	c-18.8,2.5-34.2-8.9-39.1-25.2v24.3H48v-32.9h-0.3c-0.3,0.3-0.3,0.6-0.6,0.9c-3.7,6.8-9.2,10.2-16.6,10.8c-4.3,0.3-8.9,0.3-13.6,0.6
	v20.6H0V74.8h22.8V109h28c1.5,0,2.2-0.6,2.2-2.2v-32h43.7c1.5,0,2.2,0.3,2.5,1.8c4,11.1,8.3,22.2,12.3,33.3c0,0.3,0.3,0.6,0.6,1.2
	c1.5-4.3,3.1-8.3,4.6-12.3c2.8-7.4,5.5-14.8,8.3-22.5c0.3-0.9,0.9-1.5,1.8-1.5h55.7c8.6,0,16.9,1.5,24.6,6.2
	c9.2,5.8,15.1,14.2,17.9,24.6c3.1,12.3,2.5,24.9-2.5,36.6c-4.9,11.7-14.5,18.5-26.5,21.6c-3.4,0.9-6.8,1.2-10.2,1.8V206
	c0,2.5,0.6,4.9,1.2,7.4c0.9,3.1,4,5.2,7.4,4.9c4,0,6.5-1.8,7.7-5.2c0.3-1.2,0.6-2.8,0.6-4V166h16.9v40
	C220.2,210,220.2,214.6,218,219.2L218,219.2z M28.9,180.7c-3.7-1.2-7.7-0.6-11.7-0.9v16c3.7-0.3,7.4-0.3,10.8-0.6s5.5-3.1,5.9-6.2
	C34.2,184.4,32.6,182,28.9,180.7z M53.3,130.9c0-1.9-0.6-2.2-2.5-2.2H23.4v36c10.2,0,19.7,1.5,24.6,12.3c0.3,0,0.3-0.3,0.3-0.3V165
	H53v-1.8C53.3,152.4,53,141.6,53.3,130.9z M100.7,162.9v-29.6c0-0.9-0.3-1.8-0.6-2.5C92.7,114.5,85,98.5,77.3,82.2
	c-0.3-0.6-0.6-0.9-1.2-1.8V165H65.3v24.6c5.5-17.2,17.6-25.9,35.4-26.2L100.7,162.9L100.7,162.9z M148.4,79.7
	c-0.6,0.9-0.6,1.2-0.9,1.8c-7.4,16-14.8,31.7-22.2,47.7c-0.9,2.2-1.5,4.3-1.5,6.8v29h-13.5c6.5,2.5,11.7,6.2,16.6,11.1v-11.4h21.6
	v-85L148.4,79.7z M185.7,144.4c6.5-0.6,11.7-3.4,14.8-9.2c4.9-9.5,4.9-19.7,0.6-29.6c-2.8-6.2-7.4-9.9-14.2-10.5
	c-4.9-0.3-9.9,0-14.8,0v48.3c0,1.2,0.6,1.5,1.5,1.5C177.4,144.7,181.7,144.7,185.7,144.4L185.7,144.4z M310.4,165.3c0,4,0,8-0.3,12
	v2.8h-20.3v10.2h19.7v15.1h-19.7v11.4h20.3v15.1h-50.5c-1.5,0-2.2-0.6-2.8-1.8c-4.9-9.5-10.2-18.8-15.4-28.3
	c-0.3-0.6-0.6-1.2-0.9-2.2c3.1-0.3,5.9-0.3,8.6-0.6c5.5-0.6,7.7-3.7,8-9.2c0.3-4.6-2.2-8.3-7.7-9.2c-3.1-0.6-6.2-0.3-9.5-0.6v51.7
	H223V165h6.2V74.2h51.1v20.3h-28v8c0,1.8-0.3,4.3,0.6,5.5c0.9,0.9,3.4,0.3,5.5,0.3h21.2v20.3h-25.3c-1.5,0-2.2,0.3-2.2,2.2v13.5
	h28.3v20.3H309C309.8,165,310.1,165.3,310.4,165.3L310.4,165.3z M272.5,196.4c-2.2,4.9-5.9,8.3-10.8,10.8
	c3.4,6.2,7.1,12.3,10.8,19.1V196.4L272.5,196.4z M272.5,165h-20.9c9.5,0.9,16.9,4.3,20.9,13.5V165z M345.5,272.2
	c-2.5,4.3-5.5,8.3-8.3,12.3c-0.3,0.3-0.9,0.9-1.5,0.9h-8.3c2.5-3.4,4.3-6.2,6.5-8.9c-5.9-0.3-9.2-2.5-10.5-7.4
	c-2.2-8.9,4-15.4,12.3-15.1C346.4,254.3,349.8,264.8,345.5,272.2z M339.3,265.1c0-2.5-1.5-4.3-4-4.3c-2.2,0-4.3,1.8-4.3,4
	c0,2.5,1.8,4.3,4,4.3C337.8,269.1,339.3,267.6,339.3,265.1z M413.6,273.7h3.4v5.9c-0.9,0-1.8,0-3.1,0.3v5.2h-7.7v-5.2h-13.5
	c-0.3-3.1-0.3-5.9,1.5-8.6c3.7-4.9,7.4-10.2,10.8-15.4c0.6-0.9,1.5-1.5,2.8-1.5h5.9L413.6,273.7L413.6,273.7z M406.5,264.2
	c-2.2,3.4-4,6.5-5.9,9.5h5.9V264.2z M182.9,254.3c-0.6,0-0.9,0.6-1.5,0.6c0,0.3,0,0.3,0.3,0.6c0.9,0,2.2,0,3.4,0.3
	c-1.8,9.2-3.7,18.5-5.5,27.4c-1.2,1.2-3.1-0.3-3.7,1.8h25.3c0.3-1.8,0.9-3.4,1.2-4.9s0.6-3.4,0.9-5.2c-1.5,0-1.5,0-2.5,1.8
	c-3.4,6.2-7.4,7.4-13.5,6.8c0.9-4.6,1.8-8.9,2.8-13.5c3.4-0.3,3.7,0,4.3,5.9c1.5,0.6,1.8-0.3,1.8-1.2c0.3-1.8,0.9-4,1.2-5.9l0.9-5.5
	c-0.3,0-0.6-0.3-0.6-0.3c-0.6,0.6-1.2,1.2-1.5,1.8c-0.3,0.6-0.9,1.5-1.2,1.8c-0.9,0.9-1.8,1.5-2.8,1.5c-0.6,0-1.2,0-1.8-0.3
	c0.6-3.4,1.2-6.5,1.8-9.9c0.3-0.6,0.6-1.8,1.2-2.2c4.6-1.5,8.6,0.9,8.9,5.9c0,0.6,0.6,0.9,0.9,1.2c0.3-0.3,0.9-0.9,0.9-1.2
	c0.3-2.5,0.6-4.9,1.2-7.4L182.9,254.3L182.9,254.3z M361.5,261.4h5.2v24h7.7v-30.8h-12.6C361.5,256.8,361.5,259,361.5,261.4
	L361.5,261.4z M292.2,261.1h4.9v24h7.7v-30.5h-12.6V261.1z M231,267.6c-1.5-0.6-3.1-0.9-4.9-0.9c-3.1,0-5.5,2.2-6.5,4.6
	c-0.6,2.8,0.9,4.6,3.1,5.9c1.5,0.9,2.8,2.2,4,3.4c1.5,1.2,1.2,3.1-0.6,3.7c-1.5,0.3-3.1,0-4.6,0c0.3-1.2,0.3-1.5,0.6-2.2
	c0.3-1.8-0.6-2.8-2.2-3.1c-1.5,0-2.8,0.9-2.8,2.8c0,1.8,1.2,2.8,2.5,3.4c2.5,0.9,4.9,1.2,7.4,0.3s4-2.5,4.6-5.2
	c0.3-2.5-0.6-4.3-2.8-5.9c-1.2-0.9-2.8-1.8-3.7-2.8c-0.6-0.6-0.9-1.5-1.5-2.2c0.9-0.3,1.8-0.9,2.8-1.2c0.6,0,1.2,0.3,1.5,0.3v0.6
	c-0.6,1.5-0.3,3.1,1.5,3.4c0.9,0,2.2-0.3,2.5-1.2C233.4,269.7,232.2,268.2,231,267.6L231,267.6z M254.7,270.7
	c0.3-1.5,0.9-2.5,2.8-2.5c0.3,0,0.9-0.3,1.2-0.6c0,0,0-0.3-0.3-0.6c-0.9,0-1.8-0.3-2.8-0.3c0.3-1.8,0.6-3.4,0.9-5.2h-3.1
	c-1.8,0-3.1,0.3-3.1,2.5c0,0.9-0.6,1.8-0.6,2.5c-1.2,0.3-2.2,0.6-3.1,0.9v0.6c0.9,0,1.5,0.3,2.5,0.3c-0.9,4.3-1.8,8.3-2.8,12.6
	c-0.6,1.8,0.3,3.1,1.8,3.7c3.7,1.5,8.9-1.2,9.5-5.2c0-0.3-0.3-0.6-0.6-1.2c-1.2,2.5-1.8,4.9-4.9,5.2V282
	C252.8,278.4,254,274.7,254.7,270.7L254.7,270.7z M276.8,278.4c-2.2,0-4,1.5-4,3.4c0,2.2,1.5,4,3.4,4c2.2,0.3,4-1.5,4-3.7
	C280.2,280.2,278.7,278.4,276.8,278.4z"/>
<path fill="#333333" d="M1493.7,256.6v-15.4h108.8c1,2.5,0.4,5.1,0.4,7.6c0.1,2.6-0.1,5.2-0.1,7.8H1493.7L1493.7,256.6z
	 M2083.4,191.3c-0.1-6.5-0.1-12.7,1.9-19.3c1,1.3,1.6,2.1,2.3,2.9c1.3,1.7,2.4,3.4,3.7,5.2c7.5,10.4,18.1,15,30.4,15.8
	c8.9,0.6,16.2-3.4,21.8-10.2c3.7-4.6,3.8-11.3,0.5-16.8c-2.4-4-5.9-6.8-10.2-8.4c-4.9-1.8-9.9-3.1-14.9-4.6
	c-5.2-1.6-10.5-2.9-15.8-4.6c-2-0.6-4-1.5-5.8-2.5c-10.8-5.7-15-16-13.8-26.4c1-8.1,5.9-14,12.9-18.1c3.8-2.2,8-3.2,12.4-3.8
	c11.3-1.6,22.3,0.1,33.3,2.5c5.1,1.1,10.2,2.2,15.6,3.3c0.7,7.9,0.4,15.8-1,24.1l-7.6-9.8c-5.6-6.9-12.8-11.3-21.6-12.9
	c-4.8-0.9-9.7-0.8-14.5-0.1c-4.9,0.7-8.8,3.3-11.9,7.1c-4.2,5.2-3.7,11.9,1.6,15.8c3.4,2.5,7.2,4.5,11.1,5.9
	c6.5,2.4,13.3,4.1,19.9,6.1c4.8,1.5,9.4,3,13.7,5.6c18.9,11.4,16.5,35.7,2.1,46.2c-7.5,5.5-15.8,8.4-24.9,8.6
	c-9.6,0.2-18.7-1.6-27.4-6C2093,194.7,2088.3,193.2,2083.4,191.3L2083.4,191.3z M1688.4,84.2h19.6c1.4,1.4,1.6,3.1,1.6,5.1
	c-0.4,6.3-0.5,12.7-1,19c-1.1,12.9-0.9,25.8-0.7,38.7c0.2,13.2,0.7,26.4,1,39.5c0.1,1.7,0.2,3.4,0.4,5.2c0.7,0.1,1.1,0.4,1.6,0.4
	c10.2,0.3,20.4,0.7,30.5,0.7c5.5-0.1,11.1-1,16.6-1.9c5.9-0.9,10.8-3.8,14.2-8.8c0.2-0.3,0.5-0.5,0.9-0.8c0.4,0.1,0.9,0.2,1.3,0.4
	c0.3,0.1,0.6,0.4,1.2,0.7c-0.7,6.8-3.1,13.1-5.7,19l-81.4-1.1c-1.3-1.3-1.6-2.9-1.5-4.7l1.1-22.7c0.8-19.4,1.6-38.7,0.6-58.2
	c-0.4-8.7-0.9-17.4-1.3-26.1C1687.5,87.3,1688.1,85.8,1688.4,84.2L1688.4,84.2z"/>
<path fill="#333333" d="M1444.1,241.2c-1.6-2.6-3.1-4.9-4.8-7.6h59.4c0.1,1.3,0.1,2.6,0.2,4.3h-8.2v10.9h-53.4
	C1439.7,246,1441.8,243.7,1444.1,241.2L1444.1,241.2z M1656.7,233.6c-1.7,2.8-3.2,5.1-4.8,7.5c2.2,2.4,4.3,4.8,6.7,7.6h-53.2v-10.5
	c-2.8-0.1-5.4-0.2-8.1-0.4v-4.3L1656.7,233.6L1656.7,233.6z M1459.5,69.9h4.6c2.8,4.1,5.7,7.4,10.6,7.5c2.7-1.3,2.5-3.9,3.4-5.8
	c-0.6-1-1.2-1.9-1.7-2.7c1.9-2.5,2.4-2.6,5.7-1.3c1.1,1.8,0,2.8-1.4,3.5c0.5,2.2,0.1,4.4,2.5,6.3c4.9-0.1,8.4-3,11.1-7.2
	c3.4-0.9,3.4-0.9,5.3,1.4c-0.3,2.4-2.5,2-3.7,2.6c-3,2.8-1.9,6.5-2.6,9.8h-27.4c-0.2-3.4-0.4-6.9-3.4-9.8c-0.6-0.2-1.7-0.7-3-1.3
	C1459.4,72.1,1459.4,71.3,1459.5,69.9z M1603.5,83.9c-0.1-3.5,0.1-6.9-2.5-9.7c-1.1-0.7-4.2,0-3.4-3.3c1.4-1.5,3.1-1.3,4.7-0.7
	c2.8,4.3,6.3,7.2,11.3,7.4c2.4-1.7,1.9-4.1,2.7-6c-0.7-0.8-1.4-1.6-2.1-2.3c1.7-2.8,2.1-2.9,5.5-1.6c1.1,1.8,0,2.7-1.5,3.5
	c0.8,2,1.7,4,2.5,6.1c6,0.7,8.8-3,11.7-6.9c3.1-1.1,3.1-1.1,5.2,1.3c-0.1,2.2-2.3,1.9-3.4,2.6c-2.5,2.8-3.1,6-3,9.6H1603.5
	L1603.5,83.9z M1465.2,60.1c-5.6,0-7.2-1.3-8-6.6c0.7-2.3,2.8-2.5,4.9-3.1l-1.8-3.8c2.4-0.2,4.7-0.2,6.9-0.6c2.9-0.4,5,0.9,7.1,2.8
	h10.5c-0.6,0.7-0.7,1.1-1.1,1.3c-2.3,1.4-3.7,3.4-4.6,6c-1.7,5.3-6,7.8-11.1,6.8c-1-2,1.9-2.8,1.6-4.7
	C1467.7,57.6,1466.8,59.4,1465.2,60.1z M1563.8,78.2c1.2-0.6,2.4-1.3,3.6-1.8c3.2-1.3,5.2-3.7,5.9-7.2c0.4-2.1,0.9-4.2,0.9-6.3
	c0-3.3,1-6,3.4-8.7c0.9,1,1.9,2.1,3.1,3.7c0.3-4.2,2.5-6.8,5.2-8.9c2.8,0.6,2.1,3.4,3.8,4.9c0.9,0.1,2.1,0.3,3.1,0.4l-2.7,10.2
	c-0.1-0.1-0.2-0.3-0.4-0.5c-0.2-0.3-0.4-0.6-0.7-0.9c-4.6,2-8.7,4.4-11.3,9c-1.2,2.2-2.8,4-4.3,6l0.1-0.1c-0.7,0.7-1.8,0.1-2.4,0.8
	l0.1-0.1c-2,0.7-4.1,0.7-6.1,0l0.1,0.1c-0.4-0.4-1.2-0.4-1.6-0.8C1563.8,78.1,1563.8,78.2,1563.8,78.2L1563.8,78.2z M1634.8,60.2
	h-4.2c-1.5-0.2-2.4-2.5-4.7-1.7c0.8,1.4,1.6,2.8,2.4,4.3c-3.7,1.3-6.5,0.2-8.7-2c-1.3-1.3-2.4-3-2.9-4.6c-0.8-2.5-2.2-4.4-4.3-5.7
	c-0.4-0.2-0.7-0.5-1.7-1.3h10.7c2.8-3.1,6-3.5,9.9-2.5c1.2,0.3,2.6-0.1,4.1-0.2c0.3,1.6-1.2,2.6-1.7,3.9c1.6,0.7,3.2,1.6,4.8,2.3v4
	c0.1,0.1,0.1,0.3,0.1,0.4c0.1,0.3,0.2,0.6,0.2,0.9s0,0.6-0.1,0.9c-0.1,0.3-0.3,0.5-0.5,0.7c-0.1,0.1-0.3,0.1-0.4,0.2
	c-0.3,0.1-0.6,0.1-0.8,0.3c-0.3,0.1-0.5,0.2-0.8,0.3s-0.6,0.1-0.9,0C1635.1,60.2,1634.9,60.2,1634.8,60.2z M2029.1,231
	c-1.4,6.3,0.1,12-0.4,17.9c-0.9,0.1-1.7,0.1-2.8,0.1v-26.6h2.9c5,7.4,10,14.6,15.5,22.6c1.6-8,0.1-15.2,0.4-22.5
	c1-0.1,1.8-0.1,2.8-0.1v26.4c-1.7,0.7-3.5,0.4-5.5,0.3C2037.9,243.2,2033.8,237.4,2029.1,231L2029.1,231z M1909.2,244.4
	c0.4,0.7,0.6,1,0.8,1.4c-3.1,4-7.3,4.4-11.7,3.7c-7-1.2-12.2-7.9-11.8-14.6c0.4-6.6,6.3-12.6,13.1-13.1c2-0.1,4.2,0.4,6.2,0.9
	c1.4,0.3,2.8,0.8,4.3,1.3v5.9c-1-0.7-1.7-1-2-1.5c-2.1-3.5-5.3-4.4-9-3.8c-3.8,0.6-6.3,3.1-7.3,6.6c-1.1,3.7-0.7,7.4,1.3,10.8
	c3.6,5.6,9.3,6.4,14.6,3.4C1908.2,245.2,1908.6,244.9,1909.2,244.4L1909.2,244.4z M1711.1,224v4.3c0,0.3-0.3,0.7-0.6,1.3
	c-0.6-0.4-1.3-0.7-1.7-1.2c-2.2-3.7-5.5-4.5-9.3-3.7c-3.7,0.7-6.1,3.4-7.1,6.9c-1,3.7-0.5,7.4,1.6,10.8c3.5,5.4,9,5.9,14,3.4
	c0.5-0.3,1-0.7,1.6-1c0.4,0.4,0.7,0.7,1,1.2c-3,4-7.1,4.5-11.4,3.9c-7-1-12.4-7.5-12.2-14.3c0.2-6.6,5.8-12.7,12.8-13.4
	c2-0.2,4.2,0.3,6.3,0.7C1707.8,222.9,1709.3,223.4,1711.1,224L1711.1,224z M1981.3,222.5h4.8v3.1c-0.1,3.8-0.3,7.7-0.4,11.5
	c0,1.5,0.2,3,0.5,4.4c0.8,3.9,2.6,5.5,6.3,5.7c3.4,0.2,6.3-1.7,7.3-5.1c0.4-1.5,0.7-3.2,0.7-4.8c0-4-0.2-7.9-0.3-11.9v-2.8
	c1-0.1,1.8-0.1,2.5-0.2c0.2,0.4,0.4,0.6,0.4,0.8c-0.1,5.3-0.2,10.7-0.2,16c0,4.4-1.9,7.9-5.7,9.6c-4.3,1.9-8.7,1.3-12.7-1.5
	c-0.7-0.5-1.3-1.5-1.7-2.4c-0.4-0.9-0.7-1.9-0.7-2.8C1981.6,235.7,1981.5,229.3,1981.3,222.5L1981.3,222.5z M2092.4,223.8v6
	c-1-0.7-1.6-1.1-2-1.6c-2.2-3.7-5.6-4.4-9.4-3.7c-3.7,0.7-6,3.4-7,7s-0.5,7.1,1.5,10.4c3.4,5.5,9,6.3,14.3,3.6c0.5-0.3,1-0.7,1.6-1
	c0.4,0.4,0.6,0.8,0.9,1.2c-2.3,3.5-5.8,4.1-9.6,4c-9.2-0.2-15.9-9.2-13.4-17.8c1.9-6.6,9-11.2,15.9-9.9
	C2087.6,222.4,2089.9,223.2,2092.4,223.8z M1776.7,249.1h-4.6v-24.5h-11.2c0.2-0.9,0.3-1.3,0.4-2h26.4c0.1,0.4,0.4,0.9,0.9,1.9
	h-11.3c-0.9,4.3-0.5,8.4-0.6,12.4C1776.6,240.8,1776.7,244.7,1776.7,249.1L1776.7,249.1z M1817.1,249.3c0.2-4.7,0.4-8.7,0.5-12.8
	l-10-14h5.2c2.4,3.9,4.9,8.1,7.8,12.8l7.5-12.8h3.4c-3,5.1-6.4,9.4-9.4,14v12.1C1820.7,249.7,1819.1,248.9,1817.1,249.3z
	 M2144,222.6h4.4v24.2c4.4,0.8,8.4,0.4,12.5-0.4v2.9h-17C2144,240.2,2144,231.4,2144,222.6z M1735,222.6h4.5
	c0.1,0.8,0.2,1.3,0.2,1.9v24.6h-4.7V222.6z M2116.6,222.4h4.5c0.5,3-0.1,5.9-0.1,8.8c0.1,3,0,6,0,8.9v9h-4.4V222.4z"/>
<path fill="#333333" d="M1590.8,52.9c-0.4-1.2-0.7-2.1-1.1-3.1c-3.1-2-5.2-5-6.4-8.6c3.7-0.7,6.7,0.3,9.5,3.1
	C1592.6,47,1593.9,50.2,1590.8,52.9z M1503.4,43.3c2.6-1.9,5.5-2.5,8.4-2.8c0.1,3.1-1.8,6-6,9.3c-0.2,0.8-0.4,1.7-0.7,2.8
	c-0.4-0.1-0.9-0.2-1-0.4C1502.8,50,1502.5,47.2,1503.4,43.3L1503.4,43.3z M1638.4,56.6c0.6-1.4,1.1-2.9,1.8-4.3
	c1.3-2.7,2.8-3,5.5-1.1c1,5.7-2.6,9.1-11.1,10.3c0.1-0.4,0.1-0.9,0.2-1.3l-0.1,0.1c0.4-0.4,1.2-0.4,1.6-0.8l-0.1,0.1l0.9-0.9
	l-0.1,0.1l0.9-0.9l-0.1,0.1c0.4-0.4,0.4-1.2,0.8-1.6L1638.4,56.6L1638.4,56.6z M1454.2,49.9c0.7,1.2,1.5,2.3,1.9,3.5
	c1.6,4.7,1.6,4.7,4.4,7.4c-4.6,0.3-9-2.2-10.5-6C1448.9,51.7,1450,49.9,1454.2,49.9z M1616.8,173l-4.2-3.3c-3-2.6-5.6-5.6-7.3-9.3
	c-0.5-1.1-1-2.3,0.9-3.4c1.6,2.8,3.1,5.6,4.9,8.1c1.9,2.5,4,4.9,6,7.2C1617.1,172.7,1616.9,172.8,1616.8,173z M1490.3,157.1
	c0.6,0.3,1,0.5,1.7,0.8c-2.1,6.8-6.9,11-12.8,14.5c2-2.4,4.2-4.6,6-7.2C1487.2,162.8,1488.6,160,1490.3,157.1L1490.3,157.1z
	 M1602.8,118.1c-0.8,0.1-1.6,0.1-2.5,0.1c-0.9-1.6,1.4-4.3,4.1-4.9C1604.7,114.7,1604.7,114.7,1602.8,118.1z M1536.8,90.3
	c2.2,2.5,4.3,5.1,6.5,7.5c-2.8-1-5-2.8-6.6-5.3c-0.4-0.6-0.4-1.4-0.7-2.1C1536.3,90.4,1536.5,90.4,1536.8,90.3L1536.8,90.3z
	 M1491.6,113.7c2.8-0.3,3.7,0.5,4.7,4.4C1493.1,118,1493.1,118,1491.6,113.7z M1480.4,114.1c3.7-0.4,4.9,1.6,6.4,3.7
	c-1.3,0.1-2.3,0.1-3.7,0.2C1482.5,117.1,1481.6,115.9,1480.4,114.1L1480.4,114.1z M1616.2,114.1c-1.1,1.6-1.9,2.8-2.7,3.8h-3.7
	C1611.2,115.9,1612.4,113.7,1616.2,114.1L1616.2,114.1z M1599.5,125.7c2.2,1.6,1.3,3.7,1.6,5.7c-0.9-0.1-1.6-0.1-2.2-0.2
	C1598.3,128.3,1598.3,128.3,1599.5,125.7z M1608.6,125.8c2.1,1.6,1.1,3.4,1,5.3c-0.8,0.1-1.5,0.2-2.4,0.3
	C1607.3,129.5,1606.7,127.5,1608.6,125.8z M1601.2,140.6c0.9,2.3,1.6,3.9,2.3,5.8c-1.1,0.1-1.9,0.3-2.8,0.4
	C1600.1,145.1,1598.7,143.3,1601.2,140.6z M1495.6,140.9c2.3,2.2,0.6,3.8,0.5,5.7c-1,0.1-1.9,0.1-3.1,0.1
	C1493.7,144.7,1493.9,142.7,1495.6,140.9z M1486.9,131.5c0.4-1.9-1.1-4,1-5.7c2,1.6,1.3,3.6,1.4,5.5
	C1488.5,131.4,1487.9,131.4,1486.9,131.5z M1498.7,131.6c-1.6-0.1-2.2-0.2-3.1-0.3c0.1-1.7,0.2-3.4,0.4-5.4
	C1499.5,127.1,1497.3,129.6,1498.7,131.6z M1533.5,81.6c0.5,0.8,1.1,1.6,1.7,2.5C1533,84.6,1533,84.6,1533.5,81.6z M1532.6,76.4
	c-1-1.3-1-2.2,0.1-3.3C1533.6,74.1,1533.7,75,1532.6,76.4z"/>
<path fill="#333333" d="M1565.3,78.8h6.1C1569.4,80,1567.3,80,1565.3,78.8z"/>
<path fill="#FFFFFF" d="M1571.2,78.9c0.8-0.3,1.6-0.5,2.4-0.8C1572.8,78.4,1572,78.6,1571.2,78.9z M1525.5,79.1
	c0.3,0,0.5,0.1,0.7,0.1c-0.1,0.1-0.1,0.2-0.2,0.2C1525.8,79.4,1525.7,79.2,1525.5,79.1z M1563.8,78.1c0.5,0.3,1.1,0.6,1.6,0.8
	C1564.9,78.6,1564.3,78.4,1563.8,78.1z M1522.8,78.2c0.3,0.1,0.6,0.1,0.4,0.1l-0.2-0.2C1522.9,78.1,1522.8,78.2,1522.8,78.2
	L1522.8,78.2z M1521.2,77.5l1.6,0.7l0.1-0.1C1522.4,77.9,1521.9,77.7,1521.2,77.5L1521.2,77.5L1521.2,77.5z"/>
<path fill="#333333" d="M1660.1,196.9c-3.4-6.4-6.1-13.1-7.3-20.2c-1.3-7.7-2.8-15.5-3.7-23.1c-1.8-15.2-7.3-28.8-16.6-40.9
	c-0.4-0.4-0.6-1-0.9-1.4c3.2-7.3,3.2-10.8,0.2-14.1c-1.4,4.6-1.4,4.6-6.2,8.6c1.4,1.5,3.3-0.1,4.9,0.6c-2.1,3.2-4.2,3.7-11.9,3.1
	c-0.9-0.5-1.9-1.1-2.9-1.7c-0.1,0.1-0.3,0.3-0.5,0.4c0.6,1.2,1.1,2.3,1.8,3.8c2.9,0.2,5.7,0.5,8.7,0.7c-1,0.7-1.9,1.4-3.1,2.2
	c0.9,0.6,1.5,1.1,2.2,1.3c1.8,0.6,3.6,0.5,5.5,0c2.2-0.6,2.8-0.1,3.5,2.5l-4,1.3c2.4,2.5,4.5,4.6,6.4,6.8c2,2.3,4,4.8,5.7,7.3
	c1.6,2.3,3.1,4.8,4.3,8.3c-1.5-1.6-2.3-2.7-3.5-4c-0.4,2.2-0.7,4-0.9,5.6c1.8,3.7,5,6.1,6.1,9.7c-0.2,0.1-0.4,0.3-0.6,0.4
	c-1.8-1.7-3.7-3.4-5.7-5.5c-0.5,1.9-0.9,3.3-1.3,4.9c1.6,1.9,3.1,3.8,4.8,5.7c1.6,1.8,3.3,3.5,5,5.2c-0.2,0.2-0.4,0.4-0.6,0.7
	c-3.2-2.7-6.5-5.3-9.9-8.1c-0.5,1.4-1,2.5-1.4,3.7c2.2,2.4,4.4,4.7,6.6,7.1c2.1,2.3,4.8,4,6.4,6.7c-5.3-2.7-9.5-6.7-14-10.4
	c-0.1-0.1-0.2,0.1-0.4,0.1c-0.2,0.4-0.5,0.7-0.7,1.2c-0.1,0.4-0.2,1-0.4,1.9c5,5.2,10.2,10.3,15.8,16.1c0.4,1.7,1,4.2,1.6,6.6
	c-0.5-0.2-1-0.4-1.5-0.7c-7.5-6.2-14.6-12.8-20.5-20.6c-4.1-5.4-7.6-11-9.6-17.5c-2.4-7.9-3.4-15.8,0.7-23.6
	c0.1-0.1-0.1-0.4-0.1-0.7c-1.6-0.4-2.7,0.4-3.4,1.6c-0.8,1.3-1.6,2.8-2,4.3c-1.6,5.5-0.8,11.1,0.4,16.6c1.8,7.4,5.7,13.7,10.2,19.7
	c5.3,7.1,11.6,13.4,18.1,19.3c0.8,0.7,1.8,1.3,2.1,1.5c0.7,5.4,1.4,9.9,1.9,14.3c0.5,4.3,1.6,8.7,1.6,13.1c-2.5-0.2-2.2-1.9-2.3-3.1
	l-2.4-16.9c-0.8-0.3-1.5-0.6-2.4-1c0.4,6.8,2.2,13.1,2.4,19.9c-2.3-0.7-4.3-1.3-6.2-1.8c-1.9-4.8-3.7-9.4-5.5-14
	c-1.3-3.2-2.4-6.6-3.8-9.7c-1.1-2.5-2.8-4.6-5.8-4.9c-0.1,0.5-0.4,0.7-0.3,1c0.1,0.4,0.2,0.7,0.5,1c3.1,3.1,4,7.4,5.5,11.3
	c0.6,1.5,0.7,2.9-0.9,4.2c-0.3,0.1-0.7,0.3-1.3,0.4c-5.5,0.5-9.9-2.2-12.1-7.3c-1-2.5-2-5.2-4.5-6.6c-3.4-2.1-4.8-5.1-4.7-9
	c0.1-6.6-1-13.1-4.5-19c-4.3-7.2-6.3-15.2-7.6-23.2c-1.2-6.9-0.5-13.7,1.5-20.3c1.4-4.8,4.8-6.9,9.9-6.8c1.5,0.1,3,0.3,4.5,0.3
	c2.3,0,3.4-1.1,3.9-3.8c-3.4,1.3-3.4,1.3-7,1.1c-3.7-0.2-5.3-1.8-5.5-5.7c-0.1-1.6,0.1-3.2,0-4.9c0-1-0.3-2-1.9-2
	c-0.3,0.4-1,0.9-1,1.3c0.4,3.7,0.9,7.5,1.4,11.6c-4.8,2.5-7.2,7-8.6,12.5c-1.7,7-1.6,14-0.1,21.1c1.8,8.4,5.2,16.4,9,24
	c2.7,5.5,2.8,11.1,2.2,17.2h-8.1c-1.3-4.4-2.5-8.7-3.7-12.8c-1.4-0.6-2.5-1.1-3.7-1.6v-42.7c0-0.2-0.1-0.5-0.1-0.7
	c0-0.1-0.1-0.2-0.1-0.3l-0.4-0.4h-27.6c-0.5-0.8-1.3-2.2-1.8-2.8c-1.6-0.7-2.7-1.1-3.8-1.6c-0.3-1.4-1.7-2.9,0.6-4
	c0.8,1.4,1.6,2.8,2.2,4c3.8,1.1,7.5,2.4,11.5,2.7c-0.4-3.5-0.7-6.8-1-10c2.4-0.1,4.3,1.3,6.7,0c-4.1-6.3-7.2-12.8-7.2-20.5
	c1.3,0.4,2.5,0.8,3.7,1.1c3,0.7,5.9,0.9,8.8-0.4c4.4-2,5.3-6.4,2.1-10.6c-1,1.2-1.9,2.4-2.8,3.5c-1,1.3-1.9,2.6-3.1,3.7
	c-3.1,2.7-6.5,2.4-9.4-0.9c2.7,0.7,5.4,1.7,7.5-0.7c-1.6-3.5-1.6-3.6-6.8-6.5c2.1-0.1,4.3-0.2,6.6-0.4c10.5-0.7,18.5-5.2,23.4-14.8
	c1.6-3.1,3.2-6.2,5-9.2c2.5-4.3,5.8-7.1,11.6-5.2c-3.1-3.2-7.3-4-11.1-2.2c-5.4,2.6-9.6,6.1-10,12.8c-0.1,1.6-1.3,3.1-2.1,4.6
	c-0.1,0.1-0.4,0.1-0.6,0.1c-0.3-0.9-0.5-1.8-0.7-2.5c-5,1-8.1,4.2-10.3,8.2c-0.4,0.7-0.8,1.6-1.5,2.2c-1,0.9-2.2,1.5-3.3,2.2
	l-0.8-0.5c-0.6-0.3-1-0.9-1.7-1c-0.3,0-0.7,0-1,0.1c-1.4,0.3-2.8,0.5-4.2,1c-0.3,0-0.6,0.1-1,0h-1.4c-0.8-0.7-1.9-1.2-2.5-2.1
	l-7.5-11.1c1.6-2.3,3.6-4.7,1.3-7.8c-1.7,1.5-3.2,2.8-5,4.5c1.3,0.1,2.4,0.2,4,0.4c-1,0.7-1.5,1.5-2.2,1.6
	c-3.2,0.5-6.5,0.9-10.3-0.4c2.5,4.1,6.1,1.8,9.3,2.8c-1.1,0.5-1.9,1-2.8,1.4c1.9,2.2,4,0.4,6,0.7c0.3,0.4,0.5,0.8,0.9,1.3
	c-0.7,0.4-1.3,0.7-2.2,1.1c1,0.8,1.9,1.4,2.6,2.2c2.3,2.3,5,4.4,6,7.8l0.1-0.1c-0.4,1.1-0.7,2.2-1,3c1.4,1.9,2.5,3.3,3.6,4.7
	l-0.4,0.4l-3.6-2.6c-0.3,0.9-0.5,1.6-0.7,2.2l4.1,5c-1.6-0.8-3.2-1.6-5-2.6c-0.2,0.6-0.4,1.1-0.7,1.6l4.9,4.7
	c-1.3-0.6-2.6-1.3-3.9-1.9c-0.8-0.4-1.6-0.6-2.5-1c-0.7,1.8,0.3,2.5,1.1,3.1l6.9,5.7c1.4,1.1,2.4,2.4,2.4,4.8
	c-6-4-11.1-8.3-15.3-13.5c-1.7-2.1-3.2-4.4-4.5-6.8c-1.9-3.6-1.9-7.4-0.4-11.1c0.3-0.7,0.4-1.3,0.9-2.6c-1.3,0.4-2.3,0.4-2.7,1
	c-0.8,1.2-1.6,2.6-1.8,4c-0.6,5.1,0.3,9.9,3.4,14.1c3.2,4.3,6.9,8.1,11.1,11.4c1.9,1.5,4,3,6,4.5c0.6,4,1.3,8,1.9,11.9
	c-1-0.6-1.4-1.3-1.7-2.1c-0.7-2.1-1.4-4.3-2.2-6.3c-0.4-1-1-1.4-2.2-0.7c0.9,2.8,1.7,5.7,2.8,9.1c-1.9-0.7-3-1-4-1.4
	c-2.1-4.4-4-8.6-5.7-12.3c-1.6-0.8-2.6-1.4-4.1-0.5c2.2,2.5,3.7,5.3,4.9,8.3c-3.7,1.5-7.1,1-8.9-1.9c-2.5-3.9-4.7-7.9-6.3-12.2
	c-0.9-2.3-1.6-4.6-3.1-6.7c-2.9-4.3-4.5-9.1-5.8-14c-1-4,0.1-7.6,2-11c1.1-2,2.8-3.1,5.2-2.9c1.2,0.1,2.5-0.1,3.6-0.5
	c0.9-0.3,1.6-1.1,1-2.1h-7.1c-1.9-1-2.5-2.8-2.7-4.6c-0.1-1.3-0.1-2.8-0.2-4.1c-0.1-0.7-0.5-1.4-0.7-2.2l-1.2,0.2
	c0.7,4.1-0.8,8.4,2.4,12.4c-3.2,2.5-4.1,6.4-5.2,10.2c-2.1-1.2-3-2.8-3.4-4.7c-0.6-2.8-1.1-5.6-1.3-8.4c-0.2-3.1-1.2-5.5-3.5-7.5
	c-1,1.1-1.9,2.2-3.4,4c0.2-4.9-2.2-7.3-5.7-9.8c-1,1.9-1.8,3.4-2.7,5.2c-1.1,0.2-2.5,0.5-3.4,0.7l2.7,9.3c0.5-0.2,1-0.4,1.6-0.7
	c1,0.6,2.1,1.3,3.2,1.8c5.6,2.4,8.1,7.5,10.8,12.4c-2.3-0.7-3.1-2.9-4.2-4.7c-2.2-3.7-5.2-6.2-9.7-7.1c-0.1,1-0.3,2-0.4,3.2
	c-2.5-1.8-3-4.4-3.3-7c-0.4-3.7-2.2-6.6-5.2-8.6c-0.6-0.4-1.2-0.8-1.8-1.3c-2.8-2.2-5.9-2.5-9.2-2.2c-1.9,0.2-2.5,0.7-4.3,2.9
	c4.8-1.6,8.1,0.3,10.5,4c1.1,1.6,2.1,3.4,3.1,5.1c1.4,2.5,2.6,5.1,4,7.5c2.5,4.5,6.2,7.7,10.9,9.8c4,1.8,8.3,2.6,12.7,2.8
	c1,0.1,2,0.2,3.6,0.4c-2.2,2.7-5.7,3.5-5.7,7.3c1.3,0.4,2.5,0.9,3.5,1.2c1.6-0.6,2.9-1,4.1-1.5c-3.4,3.3-7,3.2-10,0
	c-1.3-1.3-2.2-3-3.4-4.4c-0.6-0.7-1.3-1.4-1.9-2.2c-3.1,6.3-0.6,11.1,6,11.7c1.6,0.1,3.3,0,4.8-0.4c2-0.5,3.9-1.4,6-2.2
	c0.2,0.3,0.5,0.7,0.8,1c1.9,2.5,2.1,5.6,3.4,8.2c2.6,5.3,5.1,10.8,9.6,14.9v4.1c-2.7,0.6-5.2,1.1-7.7,1.7l-2.4,3.7h-25.5v44.1
	c-1.5,0.6-2.6,1-4,1.6c-1.3,4.3-2.5,8.4-3.7,12.6h-8.2c-0.4-6-0.1-11.6,2.3-16.9c2.6-5.7,5.2-11.6,7.3-17.5
	c3.4-10,4.2-20.2,0.9-30.4c-1.1-3.6-3.1-6.4-6.1-8.7c-0.7-0.5-1.3-1-1.6-1.3c0.5-3.7,1-7,1.5-10.3c0.1-1.2-0.2-2.2-1.6-2.4
	c-1.3,0.7-1.3,2-1.3,3.2c0,1.6,0.1,3.2,0,4.9c-0.1,1.7-0.8,3.4-2.5,3.8c-2.8,0.8-5.7,1.6-8.6-0.1c-0.4-0.2-1-0.2-1.8-0.4
	c1.1,2.9,2.8,4.3,5.5,3.8c1.3-0.2,2.8-0.2,4.1-0.2c4.3,0,7.5,2.1,8.9,6c1.6,4.7,2.7,9.7,2.3,14.6c-0.4,5.1-1.4,10.1-2.5,15
	c-1.2,5.6-3.6,10.8-6.3,15.9c-2.5,4.6-4,9.6-3.7,15c0.1,1.3,0,2.8-0.1,4.1c-0.1,2.9-1.3,5.3-3.8,6.9c-2.7,1.7-4.3,4-5.3,6.9
	c-0.4,1.1-1,2.3-1.7,3.3c-3,4.1-8.1,5.6-12.5,3.6c-1.2-2-0.2-3.8,0.5-5.7s1.4-4,2.4-5.8c0.9-1.7,2.2-3.2,3.5-5.2c-1,0-1.6-0.1-2.2,0
	c-2.5,1-3.9,2.9-4.9,5.4c-2.6,6.9-5.3,13.7-8,20.5c-0.4,0.9-0.8,1.8-1.3,2.6c-2,0.6-3.9,1.1-6.2,1.7c1-6.8,1.9-13.1,2.8-19.9l-2.6,1
	c-1,6.6-1.9,13.1-2.8,19.6c-0.7,0.2-1.2,0.4-2.2,0.7c1.3-9.3,2.6-18.4,3.6-25.5c5.1-5.5,9-9.8,12.8-14c5.4-5.7,10.2-11.9,14-18.8
	c4-7.4,5.8-15.3,4.9-23.7c-0.3-2.4-1.3-4.8-2.3-6.9c-0.6-1.3-1.8-2.4-3.7-1.6c0.2,0.7,0.4,1.3,0.6,1.8c1.6,3.3,2.1,6.9,2,10.5
	c-0.1,9.2-3.4,17.2-8.3,24.7c-6.3,9.6-14.4,17.4-23.1,24.7c-0.6,0.5-1.3,0.9-2.4,1.6c0.8-3,1.6-5.5,2.2-7.8
	c5.9-4.8,10.8-10.2,15.6-15.8c-0.6-1-1-1.9-1.6-2.9c-1,0.9-1.8,1.7-2.6,2.4c-3.6,2.9-6.9,6.3-11.2,8.1c0.7-0.9,1.3-1.8,2-2.6
	c3.6-3.7,7.2-7.2,10.8-10.8c-0.6-1.5-1.1-2.5-1.6-3.9c-3.4,2.7-6,5.7-10,7.2c3.1-3.4,6.2-6.9,9.3-10.4c-0.4-1.7-0.7-3.2-1.3-5.2
	c-2.2,2.1-4.1,3.9-6,5.6c-0.2-0.2-0.4-0.4-0.7-0.6c1.6-3.4,4.6-6,6.3-9.6c-0.3-1.6-0.6-3.4-1-5.7c-1,1.3-1.8,2.1-2.5,3
	c2.9-8.6,9.3-14.7,15.5-21.4c-1.7-0.5-2.8-0.8-4-1.2c0.5-2.3,0.8-2.8,2.3-2.7c0.8,0.1,1.6,0.5,2.5,0.6c2.2,0.2,4.3,0,6.3-1.9
	c-1.3-0.7-2.3-1.3-3.3-1.9c2.1-0.4,4.1-0.4,6-0.5c2.2-0.1,3.7-1.2,4-3.6c0.1-0.3-0.1-0.7-0.3-1c-1,0.7-1.9,1.3-2.9,1.9
	c-3.6-0.2-7.2,0.7-10.5-1.5c-0.6-0.4-0.8-1.3-1.4-2.2c2,0.1,3.6,1.2,5.2-0.2c-1.4-1.2-3.1-2.2-4.1-3.6c-1-1.5-1.5-3.4-2.3-5.3
	c-1.4,1.5-1.6,3.2-1.8,4.9c-0.5,3.5,0.8,6.6,2.4,9.6c-1,1.3-1.9,2.5-2.8,3.7c-6.5,9.1-11.3,19-13.4,30c-1.6,8.1-2.6,16.4-3.8,24.7
	c-1.4,10.1-4.3,19.6-9.3,28.5c-0.4,0.7-0.7,1.4-1.1,2.4c3.7,0.7,6.9-0.3,10.5-1.1c-1,7.8-1.9,15.3-2.9,23.2c3.3-1,6-1.7,8.7-2.5
	s5.5-1.6,8.1-2.5c1.6-4,3-7.8,4.3-11.4h8.6v8.1c-2,1-4,2.1-5.5,2.8c-1.6,1.9-3,3.6-4.5,5.4c0.3,0.6,0.7,1.3,1,1.9
	c2.6-0.4,2.6-0.4,4.6-2.5c3.1-3.4,6.9-5,11.4-3.4c3.5,1.2,6.8,3,10.2,4.6c0.8,0.4,1.6,1,3,1.8c-0.6-3-0.2-5.5-2.2-7.6
	c-4.1-1.1-8.3-2.2-12.5-3.4v-7.7c2.1-3.1,4.1-5.4,5.5-8.1c2.7-5.2,9.5-9.4,15.5-9.3c2.5,0.1,4.3,1,5.1,3.5c0.4,1.1,0.9,2.6,1.8,3.1
	c2.7,1.6,3.9,4,5.1,6.6c0.7,1.8,1.9,3.5,3.1,5.2c6.1,8.7,13.7,16.1,22.5,22c3.8,2.5,7.8,4.9,12.1,6.2c8.3-3,16.4-8.1,23.9-15.2
	c6.5-6.2,12.4-12.9,16-21.4c0.4-0.9,1.1-1.8,1.9-2.2c1.9-1,3-2.5,3.5-4.6c0.7-2.3,2.3-3.2,4.8-3.4c5.9-0.4,10.1,2.8,14,6.5
	c0.4,0.3,0.7,0.7,0.8,1.2c1.3,3.6,3.5,6.5,6.2,8.7v8.6c-4.5,1.3-8.7,2.4-12.8,3.5c-1.2,2.5-1.5,4.7-1.6,7.6c1.3-0.9,2-1.3,2.7-1.9
	c3.4-2.3,7.1-4,11.2-4.9c3.5-0.8,6.3,0.1,9,2.3c0.9,0.7,1.6,1.6,2.4,2.4c1,1,2.1,1.8,3.9,1.3l0.8-1.6c-1.6-1.9-2.9-3.6-4.6-5.7
	c-0.6-0.2-1.6-0.6-2.6-1.2s-2-1.3-2.8-1.9v-7.8h8.6c1.4,3.7,2.8,7.5,4.3,11.5c5.5,1.6,10.8,3.2,16.8,5c-1-8.1-1.9-15.5-2.9-23.1
	c2,0.4,3.6,0.9,5.2,1s3.4,0,5.5,0C1661.2,199,1660.6,198,1660.1,196.9L1660.1,196.9z M1509.1,193.1c-4.6-4.5-4.6-10.9,0-16.7V193.1z
	 M1547.8,117.2c1,0.2,1.8,0.4,2.8,0.6c-0.1,1-0.1,1.9-0.3,3.1c-1-0.2-1.6-0.4-2.5-0.6V117.2z M1551.3,125.1
	c-1.5,0.1-2.3,0.1-3.2,0.1h-4C1547.7,123.1,1547.9,123.1,1551.3,125.1z M1540.3,124.7v0.2h-0.9v-0.2H1540.3z M1538.4,138.3h7
	c1-2.5,1.8-4.8,2.9-7.8c1,2.9,1.8,5.1,2.7,7.5c2.4,0.1,4.8,0.2,7.8,0.4l-6.1,4.8c0.7,2.5,1.5,4.8,2.4,7.9c-2.6-1.8-4.7-3.1-6.9-4.6
	l-6.3,4.3c0.1-2.8,1.4-4.9,1.9-7.5c-1.8-1.3-3.7-2.8-5.6-4.3C1538.2,138.8,1538.3,138.6,1538.4,138.3L1538.4,138.3z M1514,138.5h6.9
	c1-2.8,1.9-5.2,2.9-8c1,2.8,1.8,5,2.8,7.7h6.9l0.2,0.9c-1.7,1.3-3.5,2.7-5.5,4.2l2.2,7.5c-2.8-0.9-4.3-3-6.8-4.1
	c-1.8,1.2-3.7,2.5-6.3,4.3c0.7-2.8,1.3-5.1,2-7.5c-1.8-1.4-3.6-2.8-5.5-4.3L1514,138.5L1514,138.5z M1570.6,202.3
	c-0.1,1.2-0.1,2.5-0.1,3.9c0,1.9,0.1,3.7,0.1,5.6c0.3,4.1-1.6,7.1-5,9.7c-0.9-0.3-1.9-0.6-2.8-0.9c-0.1-0.7-0.3-1.3-0.3-1.7
	c0.1-3.7,0.4-7.5,0.6-11.1c0.1-2.2-0.4-4.2-2-6.3c-0.2,1-0.4,1.6-0.4,2.2c0,2.5,0.1,4.9,0.1,7.5c0.1,2.2-0.7,4.1-2.5,5.8h-3.9
	c-0.1-1-0.3-1.7-0.2-2.4c0.3-5.2,0.3-10.4-1.3-15.5c-0.5-1.8,0-3.9,0.1-5.8c0-1.6,0.3-3.2,0-4.7c-0.4-2.3-1-4.6-0.4-6.9
	c0.3-1.7,0.7-3.7-1-5.4h-3.2c-1.3,2-0.8,4-0.4,6.1c0.7,3.5,1.3,7.1,0.4,10.8c-0.9,0.6-1.8,1.2-2.3,1.5c-1,2.2-1.9,4-2.4,5.9
	c-0.4,1.5-0.5,3.1-0.8,4.7c-0.7,4.5-0.5,8.9,0.7,13.3c0.6,2.2,0.5,4.2-1.5,5.9h-2.8c-1.9-1.3-2-3.1-2.1-4.9c-0.1-3.4-0.4-6.7-0.6-10
	c-0.1-1-0.4-2.1-0.7-3.1c-0.3,0-0.5,0.1-0.8,0.1v11.8c-3.4,1.7-5.5,0.7-6-2.8c-0.6-4-1-8.1-1.5-11.3c-2.5-4.4-4.6-8.2-6.7-12
	c-5.1-3.1-5.4-5.3-1-7.9c0.7-2.4,1.5-4.9,4.4-5.5c0.5-1.3,1-2.2,1.4-3.3c1-0.7,1.9-1.3,2.9-2.1c0.4-5,3.7-7.2,8.5-7.6
	c1.9-2.6,4.2-4.6,8-4.1c-0.1-3.6,0.7-6.4,4.8-6.9c4,1.1,4.6,1.8,5.1,6.5c2.3,0.6,4.9,0.9,6,3.6c3.6,0.7,7.2,1.2,7,5.9
	c4.9,3.7,5.2,4.2,5.2,9.6c2.2,2.8,3.6,5.8,1.7,9c0.4,2.8,1,5.1,1.1,7.4C1575.9,200.2,1574.7,201.4,1570.6,202.3L1570.6,202.3z
	 M1579.7,151.1c-2.7-1.8-4.6-3.1-6.8-4.6c-1.9,1.3-3.9,2.5-6.5,4.3c0.8-2.9,1.4-5,2.2-7.4c-1.8-1.5-3.7-3-6.1-5
	c3.1-0.1,5.5-0.2,7.8-0.4c0.9-2.5,1.7-4.8,2.8-7.7c1,2.9,1.9,5.2,2.8,7.7c2.5,0.1,4.7,0.2,7.7,0.4c-2.3,1.9-4.2,3.3-6,4.8
	C1578.2,145.7,1578.8,148,1579.7,151.1z M1587.8,193v-16.1C1591.8,182.8,1591.9,188,1587.8,193z"/>
<path fill="#FFFFFF" d="M1563.8,97.6c0.1,0.1,0.3,0.1,0.4,0.1l-0.2-0.2L1563.8,97.6L1563.8,97.6z M1563.1,96.8
	c0.2,0.3,0.4,0.6,0.7,0.8l0.1-0.1C1563.6,97.3,1563.4,97,1563.1,96.8L1563.1,96.8z M1564.4,93.9h0.3l-0.1-0.1L1564.4,93.9
	L1564.4,93.9z M1563.8,93.1c0.2,0.3,0.4,0.6,0.7,0.8l0.1-0.1C1564.3,93.5,1564.1,93.3,1563.8,93.1
	C1563.8,93,1563.8,93.1,1563.8,93.1L1563.8,93.1z M1561.5,80.4c0.1,0.1,0.3,0.2,0.2,0.1C1561.8,80.6,1561.7,80.5,1561.5,80.4z
	 M1445.9,174.4c-0.1,0.1-0.1,0.1-0.1,0.3L1445.9,174.4z"/>
<path fill="#333333" d="M2073.1,196c-0.3-5.2-0.6-10.5-0.7-15.7c-0.4-11.6-0.7-23.4-0.9-35c-0.2-18.7-0.5-37.3,0.7-55.9l0.9-15.2
	c0.1-1.8,0-3.5-1.4-5h-16.8c-2.5,2.5-1.7,5.4-1.6,8.2c0.4,10.7,0.8,21.4,1.3,32c0,0.9-0.1,1.8-0.2,2.8c-3.2-2.1-6-4.4-9.2-6
	c-9.6-5-19.8-5.7-30.2-3.8c-27.6,4.9-50.8,34.6-37.5,68.2c7.5,19,22.5,29.6,43.1,31.4c12,1.1,22.6-2.2,31-11.4
	c0.3-0.4,0.7-0.6,1.2-0.9c1,3.9-1,8,2.1,11.5h16.9C2072.8,199.5,2073.2,197.9,2073.1,196L2073.1,196z M2054.5,143.3
	c-0.2,4.3-0.1,8.7-0.1,13.1h-0.4c0,5-0.1,9.9,0,14.9c0.1,6.3-2.6,11.6-6.9,16c-10.1,10.2-26.6,12-37.9,0.2c-5.2-5.5-9-11.9-11.3-19
	c-3.1-9.3-4.7-18.7-4-28.6c0.5-7.8,2.8-15.1,7.6-21.4c5.2-6.9,12.2-10,20.8-9.3c2.6,0.2,5.2,0.6,7.7,1.1c9.6,2.1,16.4,7.8,20.7,16.6
	C2053.2,132,2054.8,137.4,2054.5,143.3L2054.5,143.3z M1866.9,172.3c-0.5,0.2-0.6,0.3-0.7,0.4c-0.5,0.5-1,1.1-1.5,1.6
	c-8.5,9.9-19.1,15.8-32.3,16.1c-8.4,0.2-16.3-1.7-22.7-7.7c-5.2-4.9-8.1-11.1-11.6-17.5c23.1-10.7,45.8-21.3,68.7-31.8l0.7-4.6
	c-2.7-3.9-5.3-7.8-7.9-11.7c-3.7-5.5-8.8-9.4-14.8-12.2c-7.5-3.5-15.5-4.4-23.7-4c-13.5,0.8-24.8,6.1-33.5,16.4
	c-13.3,15.5-15.3,33.5-9,52.2c8.6,24.9,33.8,35.5,57.3,31.2c11.9-2.2,21.6-8.7,30.7-16.4C1867.6,180.2,1868.7,176.3,1866.9,172.3
	L1866.9,172.3z M1795.4,156.7c-1.3-10.8-0.5-21.4,3-31.7c1.1-3.2,2.9-6.3,4.9-9.1c2.5-3.7,6.3-6,10.8-6.8c11.2-2,22.2,0.8,28.6,11.8
	c2.3,4,4.2,8.2,5.3,12.7c0.1,0.7,0.1,1.4,0.3,2.4c-17.3,7.6-34.6,15.2-52.1,22.8C1795.9,158,1795.4,157.4,1795.4,156.7L1795.4,156.7
	z M1965.1,172.1c-1.5,1.6-2.6,2.9-3.8,4.1c-9.8,10.5-21.7,15.4-36.1,14c-9.2-0.9-16.6-5-21.7-12.8c-2.1-3.1-3.9-6.4-5.7-9.6
	c-0.4-0.7-0.7-1.6-1-2.6c22.9-10.6,45.7-21.1,68.5-31.7l0.6-4.6c-2.7-4-5.4-7.8-8-11.8c-3.4-5.1-8.1-8.7-13.5-11.5
	c-8-4-16.5-5.2-25.4-4.5c-16.3,1.2-29,8.7-37.6,22.4c-8.9,14.1-9.9,29.6-4.7,45.2c8.4,25.2,33.4,36.3,57.6,32.1
	c11.3-1.9,20.8-8.1,29.5-15.3c0.7-0.5,1.3-1.3,1.5-2.1C1966,179.9,1966.9,176.3,1965.1,172.1L1965.1,172.1z M1893.3,154.3
	c-0.7-10.2,0.1-20.4,3.6-30.1c4.9-13.4,14.6-17.4,27.7-15.1c6.9,1.2,12.1,5,15.8,10.9c3,4.8,5.2,9.9,6.3,15.9
	c-17.6,7.7-34.9,15.3-52.6,23.1C1893.8,157.1,1893.4,155.7,1893.3,154.3L1893.3,154.3z"/>
<path fill="#FFFFFF" d="M1636.3,59.4c-0.5,0.3-1.1,0.6-1.6,0.8C1635.2,59.9,1635.8,59.7,1636.3,59.4z M1638.6,56.4
	c-0.3,0.5-0.6,1.1-0.8,1.6C1638,57.5,1638.3,57,1638.6,56.4z M1637.8,57.9l-0.9,0.9C1637.2,58.4,1637.5,58.2,1637.8,57.9z
	 M1637.1,58.7l-0.9,0.9C1636.5,59.2,1636.8,58.9,1637.1,58.7z"/>
<path fill="#333333" d="M1946,221.1c-7.6-0.1-15.1,7.5-15.1,14.5c0,7.4,7.2,14.6,14.7,14.3c7.9,0.1,14.7-6.4,15.1-14
	C1961,228.3,1953.2,221.3,1946,221.1z M1952.2,245.4c-2.8,2.7-6.7,3.1-10,1.4c-6.9-3.7-8.8-13.7-3.9-19.7c3.4-4.2,8.7-4.7,12.8-1.2
	c3.2,2.8,4.9,6.2,4.8,10.5C1956,239.9,1954.8,242.9,1952.2,245.4L1952.2,245.4z M1494.8,84.5c-0.4,1.7-0.7,3.1-1.1,4.6
	c-5.7,1.9-12.1,3.1-12.1,11.3c-0.4-0.4-0.8-0.5-0.8-0.7c-1.5-5.2-5-7.8-10.2-8.3c-1.4-0.1-2.8-0.7-4-1.1c-0.5-1.6-0.9-2.9-1.3-4.4
	h-2.7c-1.9,2.6,0.4,4.3,0.7,6.1c2.5,1.3,5.5,1.1,6.9,4c-0.1,0.7-0.3,1.6-0.5,2.5c0.9,0.8,1.9,1.6,2.8,2.5c1.9,0.1,3.9,0.4,6,0.5
	c1,1.4,2.1,2.8,3.1,4.2c2.7-4.8,2.8-4.9,8.1-6c1-0.8,2.1-1.6,3.2-2.4c-0.4-0.7-0.8-1.5-1.3-2.2c1-3.2,4-3.7,6.6-5
	c0.1-1.9,0.4-3.7,0.5-6C1496.9,84.1,1495.7,84.4,1494.8,84.5L1494.8,84.5z M1473.7,99.1c-0.6-0.1-1.3-0.7-1.6-1.3
	c-0.4-1.1,0.4-1.9,1.8-2.2c0.5,0.4,1.1,0.8,1.8,1.3C1475.5,98.5,1474.9,99.3,1473.7,99.1L1473.7,99.1z M1488.6,97
	c-0.3,1.3-1.3,1.6-2.8,1c-0.4-2-0.4-2,1-3.3C1488.1,95,1488.9,95.8,1488.6,97z M1633.6,85.7c-0.6-0.3-1.5,0.2-2.2,0.3
	c-0.5,1.6-0.9,2.9-1.3,4.3c-1.6,0.4-3.2,1-4.8,1.1c-4.7,0.5-7.8,2.9-9.3,7.5c-0.1,0.4-0.3,0.8-0.5,1.3c-0.3-0.3-0.6-0.4-0.6-0.6
	c-0.2-5.3-3.6-7.8-8.2-9.3c-1.4-0.4-2.7-1-3.8-1.4c-0.4-1.7-0.8-3-1.2-4.3c-1.3-0.7-2.4-1.2-3.7,0.2l0.6,5c2.4,1.5,5.6,1.6,6.3,5.2
	c-0.4,0.7-0.7,1.5-1.1,2.2c1.3,0.9,2.3,1.7,3.4,2.5c1.7,0.3,3.6,0.7,4.9,1.6c1.3,1,2.2,2.8,3.1,4.1c1.1-1.5,2.2-2.9,3.1-4.1
	c2.3-0.2,4.2-0.4,5.9-0.6l2.8-2.5c-0.2-0.7-0.4-1.4-0.7-2.1c1.3-3.3,4.8-2.9,7-4.3c0.5-1.3,1-2.6,1.6-4.3
	C1634.8,87.1,1634.4,86.1,1633.6,85.7L1633.6,85.7z M1608.5,98.3c-0.5-0.1-1.1-0.7-1.3-1.2c-0.4-1.3,0.4-2,1.9-2.4
	c0.5,0.5,1.2,1.1,1.7,1.6C1610.6,97.9,1609.7,98.6,1608.5,98.3L1608.5,98.3z M1623.3,98.8c-1.6,0.7-2.6,0.4-3.3-1.5
	c0.4-0.6,1-1.2,1.5-1.8C1623.8,95.9,1624,97,1623.3,98.8z M1560.3,45.9c-12.2-1.7-23.9-3.4-36,0c2.9,3.1,7.1,4.6,9.5,7.6l-0.6,3.1
	c2,0.6,3.9,1.2,5.8,1.7c0.7,1.1,1.6,2.2,2.8,4c1-5.2,5.9-3.1,8.3-5.6c0.1-0.9,0.3-1.8,0.5-3c1.6-0.8,3.3-1.6,4.9-2.4l-0.3-0.3
	C1556.8,49.5,1558.3,48,1560.3,45.9L1560.3,45.9z M1537.2,56.5c-0.7-0.7-1.2-1.1-2.2-1.9c0.7-0.6,1.1-0.9,1.7-1.4
	c0.7,0.7,1.3,1.1,2.2,2C1538.3,55.7,1537.9,56.1,1537.2,56.5z M1546.8,57.1c-0.6-0.6-1-1.1-1.5-1.6c1-1.6,1.9-1.6,3.1,0.1
	C1547.9,56.2,1547.4,56.6,1546.8,57.1z M1551.4,51.2c-0.9,0.3-1.9,0.4-2.9,0.5c-3.1,0.4-5.1,1.8-5.7,5c-0.1,0.4-0.4,0.8-1,2
	c-1-2.7-1.8-4.6-2.4-6.1c-2.5-1.8-5.4-1.6-7.4-4.3c7.4-1.6,14.3-2.2,21.7,1.2C1552.7,50.3,1552.1,50.9,1551.4,51.2L1551.4,51.2z
	 M1528.7,186.4c1.9-1.9,3.9-4.3,6.9-2.4c2.2,1.5,2.3,3.9,1.7,6.3c-3.4,2.4-5,2-5.5-1.3c1.2-0.1,2.3-0.3,3.6-0.4
	c-0.1-1.9-1.3-2.1-2.6-2.1c-1.5,0-2.7,0.8-3.1,2.2c-0.9,2.6,0.2,4.6,2.5,5.9c0.1,2.4-0.7,4.2-2.5,5.6c-2.5,0.8-4-0.3-4.9-2.3
	c-0.4-0.9-0.8-1.8-1-2.8c-0.5-2.2-1.3-4-3.4-5.1c-0.7-0.4-1-1.4-1.9-2.7c2-0.5,3.4-0.9,5.2-1.3c1.6-1.1,2.9-2.9,2.9-5.3
	c0-2.6,1-4.3,3.7-5c0.1-5.4,3.1-7.9,8.3-8.1c1.9-2.6,4.1-4.8,8.2-3.3c0.1,1.3,0.1,2.7,0.1,4.2v4.6c-2.3,2.9-2,6.3-1.5,9.9
	c0.4,2.7,0.4,5.4,0.7,8.1l-2.7,1.8c-0.9,2.8-1.6,5.2-2.6,8.2c0,2.9-0.1,6.5,0.1,10.1c0.1,2.5,0.6,4.9,1,7.3c0.3,1.7,0.5,3.2-1.4,4
	c-1.3-0.1-1.7-1-1.7-2.1c-0.1-2.2-0.3-4.5-0.1-6.7c0.3-5.5-1.3-10.3-5.2-14.2c0.4-1.7,0.7-3.3,1-4.9c0.2-0.1,0.4-0.3,0.6-0.4
	c5.3-2.2,6.6-6.6,3.6-11.3c-2.1-3.2-8.3-3.3-10.3,0C1527.5,184.1,1527,185.3,1528.7,186.4L1528.7,186.4z M1552.6,164.1
	c1.3-0.1,2.5-0.1,3.7-0.2c1,1.1,1.8,2.1,2.5,3c5.7,0.9,6,1,6.6,5.4c1.7,1.6,4.3,2.5,5,5.5c-0.1,0.7-0.4,1.6-0.7,2.7l3.4,5.4
	c-0.7,1.3-1.1,2.3-1.7,3.4c1,3.1,2.9,6,1.6,10c-0.9-0.1-1.9-0.1-3.2-0.2V191c-1.7-0.4-2,0.4-2,1.3c0,3,0.1,6,0.1,9
	c0.1,4,0.4,7.9,0.4,11.9c0,2.2-1,4-3.3,5.5c-0.1-1.2-0.2-1.9-0.2-2.7c0.1-2.2,0.3-4.5,0.4-6.7c0.1-2.8-0.4-5.5-1.7-7.9
	c-0.7-1.6-1.6-3.1-2-4.8c-0.9-3.8-1.5-7.6,1.3-11c0.3-0.4,0.2-1,0.3-1.8c-4,1.7-4.5,3.6-3.1,12.7c-2.2,4.4-0.8,9.3-1.3,14.1
	c-0.2,2.3-0.1,2.3-1.9,4c-0.1-0.1-0.4-0.3-0.4-0.4l-1.6-18.1c-0.1-0.6-0.2-1.3,0-1.9c1.3-2.9,0.6-5.8,0-8.7
	c-0.3-1.4-0.3-3.1,0.1-4.4c0.8-3,0.1-5.4-2.3-7.2L1552.6,164.1L1552.6,164.1z"/>
<path fill="#333333" d="M1528.9,203.1c1.3-0.6,2.2-1.1,3.4-1.6c1.6,2.7,0.4,5.4,0.4,8c0.1,2.7,0.4,5.3,0.6,8.1
	c-2.3,0-2.9-1.3-3.1-2.8l-0.2-1.5C1529.6,209.9,1529.3,206.6,1528.9,203.1L1528.9,203.1z M1547.6,157.9c1.3-1.2,2.7-1.3,3.7-0.1
	c0.4,0.6,0.5,1.9,0.2,2.6c-0.4,1.1-1.6,1.5-2.8,1C1547.3,160.7,1547.1,159.5,1547.6,157.9L1547.6,157.9z"/>
<g>
	<path fill="#333333" d="M907.9,193.9h37.9v7.8h-29.2v18.4h22.2v7.7h-22.2v26.4h-8.7V193.9z"/>
	<path fill="#333333" d="M952.2,193.9h8.7v35.2c0,2.7,0.2,5.2,0.7,7.5c0.5,2.3,1.3,4.2,2.5,5.8c1.2,1.6,2.7,2.9,4.7,3.8
		c2,0.9,4.4,1.3,7.5,1.3c3,0,5.4-0.4,7.4-1.3c2-0.9,3.5-2.1,4.7-3.8c1.2-1.6,2-3.6,2.5-5.8c0.5-2.3,0.7-4.7,0.7-7.5v-35.2h8.7v37.3
		c0,3.4-0.5,6.6-1.4,9.6c-1,3-2.4,5.6-4.4,7.8c-2,2.2-4.4,3.9-7.5,5.2c-3,1.3-6.6,1.9-10.7,1.9c-4.1,0-7.7-0.6-10.7-1.9
		c-3-1.3-5.5-3-7.5-5.2c-2-2.2-3.5-4.8-4.4-7.8c-1-3-1.4-6.2-1.4-9.6V193.9z"/>
	<path fill="#333333" d="M1009.4,193.9h8.8L1051,241v-47.1h8.5v60.3h-8.7l-33-47.2v47.2h-8.5V193.9z"/>
	<path fill="#333333" d="M1068.4,193.9h20.2c4.8,0,9.1,0.6,13.1,1.8c4,1.2,7.5,3,10.3,5.5c2.9,2.5,5.2,5.6,6.8,9.4
		c1.6,3.8,2.4,8.3,2.4,13.6c0,5.1-0.8,9.5-2.4,13.2c-1.6,3.8-3.9,6.9-6.8,9.4c-2.9,2.5-6.4,4.4-10.4,5.6c-4,1.2-8.4,1.8-13.2,1.8
		h-20.1V193.9z M1088.3,246.4c7.5,0,13.4-1.9,17.6-5.6c4.2-3.7,6.3-9.2,6.3-16.5c0-7.4-2-13-6.1-16.9c-4-3.9-10.1-5.8-18.1-5.8
		h-10.9v44.7H1088.3z"/>
</g>
<g>
	<g>
		<path fill="#333333" stroke="#333333" stroke-width="1.194" stroke-miterlimit="10" d="M864.9,115.9c-2.4,0-7.4,1.3-10.1,4
			c1-11.8-3.4-20.5-11.4-23.6c-5.1-1.7-10.4-1.4-15.1,0.7l-6.6-15.8c6.1-14.8,16.7-32.8,16.7-47.7c0-11.4-5.8-19.9-16.9-19.9
			c-6.7,0-14.2,5.5-19.8,12.6c-7.7-17.2-15.8-25.2-24.6-25.2c-13.8,0-19.5,13.8-19.5,25.6c0,9.8,2.7,25.9,13.1,48.8
			c-7.1,15.8-12.5,28.9-18.9,49.1c-8.4-8.7-22.2-17.5-39.7-17.5c-9.1,0-16.8,2.4-22.9,6.4c-5.7,4-9.1,9.4-9.1,15.1
			c0,8.4,5.7,14.1,14.5,16.5c15.1,4,21.9,16.1,27.6,40c10.4,43.1,37.4,69,78.7,69c43.7,0,79.4-35.7,79.4-79.4
			c0-6.4-0.7-11.4-1.7-17.2c1.3-3.4,2.3-7.1,3-10.1C885.4,129.1,878.3,115.9,864.9,115.9"/>
	</g>
	<path fill="#FFFFFF" stroke="#333333" stroke-width="1.194" stroke-miterlimit="10" d="M839.9,105.8c7,3.3,7.6,17.9,0.5,35.4
		c-5.7,16.8-14,27.1-21.6,27.2c-6.1,0-11.1-4.3-11.1-15.7C807.7,131.1,825.4,99.1,839.9,105.8"/>
	<path fill="#FFFFFF" stroke="#333333" stroke-width="1.194" stroke-miterlimit="10" d="M767.3,26.7c0-7.1,3-15.5,9.8-15.5
		c4.7,0,10.4,7.4,17.2,22.2c-5.7,7.4-11.8,17.2-17.8,29.3C770.3,46.9,767.3,35.2,767.3,26.7"/>
	<path fill="#FFFFFF" stroke="#333333" stroke-width="1.194" stroke-miterlimit="10" d="M800.9,244.2c-35.3,0-59.6-24.6-69-61.3
		c-6.4-25.2-14.5-42.1-35-47.5c-2.4-0.7-6.7-2.4-6.7-6.7c0-4.7,7.7-11.5,21.9-11.5c16.8,0,30.6,10.3,40,24l7.2-2.7
		c1.1-13.8,8.1-32.6,20.4-59c15.5-33.3,31.2-56,41.6-55.7c3.3,0.1,7.3,4,7.3,9.8c0,13.8-12.2,34.5-22.8,57
		c-1.1,2.3-5.9,12.9-5.9,12.9l7,3c2.3-3.8,7-13,7.6-14.6l5.2,11.5c-11.1,9.4-20.9,31.6-20.9,49.1c0,12.8,5.7,20.8,14.1,23.5
		c7.7,2.4,15.1,0.1,20.9-6.6c1.4,8.1,6.7,15.1,17.2,15.1c9.2,0,15.3-5.3,19.9-14.4C872.6,212.6,837.6,244.2,800.9,244.2"/>
	<path fill="#FFFFFF" stroke="#333333" stroke-width="1.194" stroke-miterlimit="10" d="M872.6,146.2c-2.4,14.1-11,29.9-21.5,29.9
		c-10.1,0-9.5-13.4-7.2-21.5c3.7-14.5,13.6-29.6,21-29.6C871.6,125,874.6,134.1,872.6,146.2"/>
	<path fill="#333333" stroke="#333333" stroke-width="1.194" stroke-miterlimit="10" d="M836.9,217.2c-30,17-57.8,6.2-68.4-24.9
		l8.7-4.1c8.6,25.3,33.2,32.2,56.1,20.3L836.9,217.2z"/>
	<path fill="#333333" stroke="#333333" stroke-width="1.194" stroke-miterlimit="10" d="M828.7,152.3c0,4.3-3.5,7.8-7.8,7.8
		c-4.3,0-7.8-3.5-7.8-7.8c0-4.3,3.5-7.8,7.8-7.8C825.2,144.5,828.7,148,828.7,152.3"/>
	<path fill="#333333" stroke="#333333" stroke-width="1.194" stroke-miterlimit="10" d="M861.6,161.8c0,3.9-3.1,7-7,7
		c-3.9,0-7-3.1-7-7c0-3.9,3.2-7,7-7C858.5,154.7,861.6,157.9,861.6,161.8"/>
</g>
<g>
	<path fill="#333333" d="M848.4,33.5c-1,0-1.9-0.2-2.8-0.6c-0.9-0.4-1.6-0.9-2.3-1.5c-0.6-0.7-1.1-1.4-1.5-2.3
		c-0.4-0.9-0.6-1.8-0.6-2.8c0-1,0.2-1.9,0.6-2.8c0.4-0.9,0.9-1.6,1.5-2.3c0.6-0.6,1.4-1.2,2.3-1.5c0.9-0.4,1.8-0.6,2.8-0.6
		c1,0,1.9,0.2,2.8,0.6c0.9,0.4,1.6,0.9,2.2,1.5c0.6,0.6,1.1,1.4,1.5,2.3c0.4,0.9,0.6,1.8,0.6,2.8c0,1-0.2,1.9-0.6,2.8
		c-0.4,0.9-0.9,1.6-1.5,2.3c-0.6,0.7-1.4,1.2-2.3,1.5C850.3,33.3,849.4,33.5,848.4,33.5z M848.4,32.1c0.8,0,1.6-0.1,2.2-0.4
		c0.7-0.3,1.3-0.7,1.8-1.2c0.5-0.5,0.9-1.1,1.2-1.8s0.4-1.5,0.4-2.3c0-0.8-0.1-1.6-0.4-2.3c-0.3-0.7-0.7-1.3-1.2-1.8
		c-0.5-0.5-1.1-0.9-1.8-1.2c-0.7-0.3-1.4-0.5-2.2-0.5c-0.8,0-1.6,0.2-2.2,0.5c-0.7,0.3-1.3,0.7-1.8,1.2c-0.5,0.5-0.9,1.1-1.2,1.8
		c-0.3,0.7-0.4,1.5-0.4,2.3c0,0.8,0.1,1.6,0.4,2.3c0.3,0.7,0.7,1.3,1.2,1.8c0.5,0.5,1.1,0.9,1.8,1.2
		C846.9,31.9,847.6,32.1,848.4,32.1z M845.9,22.6h2.8c0.5,0,0.8,0.1,1.2,0.2c0.3,0.1,0.6,0.3,0.8,0.5c0.2,0.2,0.4,0.4,0.5,0.7
		c0.1,0.3,0.1,0.5,0.1,0.8c0,0.5-0.1,0.9-0.3,1.3c-0.2,0.4-0.6,0.7-1.1,0.9l1.8,3h-1.6l-1.6-2.8h-1.1v2.8h-1.4V22.6z M848.6,26
		c0.4,0,0.7-0.1,0.9-0.3c0.2-0.2,0.3-0.5,0.3-0.8c0-0.4-0.1-0.6-0.3-0.8c-0.2-0.2-0.5-0.3-1-0.3h-1.3V26H848.6z"/>
</g>
<path fill="#444444" d="M907.9,116h16.7v23.1h23.2V116h16.7v63h-16.7v-24.7h-23.2V179h-16.7V116z"/>
<path fill="#444444" d="M975.4,116h45.4v14.5h-28.6v9.7h23.5v13.6h-23.5v10.8h30.6V179h-47.3V116z"/>
<path fill="#444444" d="M1031.4,116h26.1c3.4,0,6.5,0.4,9.2,1.3c2.7,0.9,5.1,2.2,7,3.9c2,1.7,3.5,3.9,4.5,6.5c1.1,2.6,1.6,5.6,1.6,9
	c0,4.2-0.9,7.8-2.7,10.8c-1.8,3.1-4.3,5.5-7.3,7.3l13.5,24.2h-18l-10.7-21.4h-7V179h-16.3V116z M1055.9,144.5c2.2,0,4-0.7,5.4-2
	c1.4-1.4,2.1-3.2,2.1-5.4c0-2.4-0.7-4.3-2-5.7c-1.3-1.4-3.2-2.1-5.6-2.1h-8v15.2H1055.9z"/>
<path fill="#444444" d="M1090.7,116h16.7v63h-16.7V116z"/>
<path fill="#444444" d="M1134.4,130.7H1115V116h55.5v14.6h-19.2V179h-16.9V130.7z"/>
<path fill="#444444" d="M1185.5,116h19.2l22.3,63h-18l-4.1-13h-21.1l-4.2,13h-17.3L1185.5,116z M1201.5,153.8l-7-23.1l-7.3,23.1
	H1201.5z"/>
<path fill="#444444" d="M1261.3,143.1h25.9v28.4c-3.8,3.2-8.1,5.5-13,6.9c-4.9,1.4-9.8,2.1-14.7,2.1c-5.1,0-9.7-0.8-13.7-2.3
	c-4.1-1.5-7.5-3.7-10.3-6.6c-2.8-2.9-5-6.3-6.5-10.4c-1.5-4.1-2.2-8.7-2.2-13.8c0-4.8,0.8-9.2,2.4-13.3c1.6-4.1,3.9-7.6,6.8-10.5
	c2.9-2.9,6.3-5.2,10.3-6.8c4-1.6,8.4-2.5,13.3-2.5c5.2,0,10.1,0.9,14.7,2.6c4.6,1.7,8.4,4.6,11.5,8.6l-10.9,11c-2-2-4-3.6-6.3-4.8
	c-2.2-1.3-4.8-1.9-7.8-1.9c-2.7,0-5.1,0.5-7.2,1.4c-2.1,0.9-3.8,2.2-5.2,3.8c-1.4,1.6-2.5,3.5-3.3,5.7c-0.8,2.2-1.1,4.5-1.1,6.9
	c0,2.7,0.4,5.1,1.2,7.3c0.8,2.2,2,4,3.4,5.6c1.4,1.5,3.2,2.7,5.3,3.6c2.1,0.9,4.4,1.3,7,1.3c2.1,0,4.1-0.3,6-0.8
	c1.9-0.5,3.7-1.4,5.5-2.6v-6h-11V143.1z"/>
<path fill="#444444" d="M1297.5,116h45.4v14.5h-28.6v9.7h23.5v13.6h-23.5v10.8h30.6V179h-47.3V116z"/>
</svg>
